M48
; DRILL file {KiCad (5.1.10)-1} date 10/09/21 15:55:11
; FORMAT={-:-/ absolute / metric / decimal}
; #@! TF.CreationDate,2021-10-09T15:55:11-04:00
; #@! TF.GenerationSoftware,Kicad,Pcbnew,(5.1.10)-1
FMAT,2
METRIC
T1C0.800
T2C0.900
T3C1.000
T4C1.300
T5C2.000
%
G90
G05
T1
X78.8Y-88.4
X81.34Y-88.4
X91.5Y-73.16
X91.5Y-88.4
X93.0Y-57.8
X93.0Y-61.0
X94.04Y-73.16
X94.04Y-88.4
X96.58Y-88.4
X97.0Y-52.6
X99.12Y-88.4
X99.54Y-52.6
X101.66Y-88.4
X104.2Y-73.16
X104.2Y-88.4
X105.3Y-55.6
X106.6Y-58.6
X106.74Y-73.16
X106.74Y-88.4
T2
X114.4Y-53.4
X114.4Y-57.8
T3
X78.8Y-73.16
X81.34Y-73.16
X83.88Y-73.16
X83.88Y-88.4
X86.42Y-73.16
X86.42Y-88.4
X88.96Y-73.16
X88.96Y-88.4
X96.58Y-73.16
X99.12Y-73.16
X101.66Y-73.16
X109.28Y-73.16
X109.28Y-88.4
X111.82Y-73.16
X111.82Y-88.4
X114.36Y-73.16
X114.36Y-88.4
T4
X84.0Y-56.3
X84.0Y-61.3
T5
X77.6Y-68.6
X77.6Y-92.8
X116.6Y-64.4
X116.6Y-92.8
T0
M30
