%TF.GenerationSoftware,KiCad,Pcbnew,(5.1.10)-1*%
%TF.CreationDate,2021-10-09T15:55:09-04:00*%
%TF.ProjectId,usbPowerControl,75736250-6f77-4657-9243-6f6e74726f6c,rev?*%
%TF.SameCoordinates,Original*%
%TF.FileFunction,Copper,L1,Top*%
%TF.FilePolarity,Positive*%
%FSLAX46Y46*%
G04 Gerber Fmt 4.6, Leading zero omitted, Abs format (unit mm)*
G04 Created by KiCad (PCBNEW (5.1.10)-1) date 2021-10-09 15:55:09*
%MOMM*%
%LPD*%
G01*
G04 APERTURE LIST*
%TA.AperFunction,ComponentPad*%
%ADD10O,2.000000X2.500000*%
%TD*%
%TA.AperFunction,ComponentPad*%
%ADD11C,2.000000*%
%TD*%
%TA.AperFunction,SMDPad,CuDef*%
%ADD12R,2.600000X2.000000*%
%TD*%
%TA.AperFunction,ComponentPad*%
%ADD13C,1.300000*%
%TD*%
%TA.AperFunction,SMDPad,CuDef*%
%ADD14R,1.000000X1.000000*%
%TD*%
%TA.AperFunction,ComponentPad*%
%ADD15O,2.100000X3.000000*%
%TD*%
%TA.AperFunction,ComponentPad*%
%ADD16C,0.900000*%
%TD*%
%TA.AperFunction,SMDPad,CuDef*%
%ADD17R,3.500000X0.500000*%
%TD*%
%TA.AperFunction,SMDPad,CuDef*%
%ADD18R,2.500000X2.000000*%
%TD*%
%TA.AperFunction,ViaPad*%
%ADD19C,1.800000*%
%TD*%
%TA.AperFunction,Conductor*%
%ADD20C,0.800000*%
%TD*%
%TA.AperFunction,Conductor*%
%ADD21C,0.600000*%
%TD*%
%TA.AperFunction,Conductor*%
%ADD22C,2.000000*%
%TD*%
%TA.AperFunction,Conductor*%
%ADD23C,0.500000*%
%TD*%
%TA.AperFunction,Conductor*%
%ADD24C,1.900000*%
%TD*%
%TA.AperFunction,Conductor*%
%ADD25C,0.480000*%
%TD*%
%TA.AperFunction,Conductor*%
%ADD26C,0.900000*%
%TD*%
%TA.AperFunction,Conductor*%
%ADD27C,0.254000*%
%TD*%
%TA.AperFunction,Conductor*%
%ADD28C,0.100000*%
%TD*%
G04 APERTURE END LIST*
%TO.P,A1,1*%
%TO.N,Net-(A1-Pad1)*%
%TA.AperFunction,ComponentPad*%
G36*
G01*
X79500000Y-89650000D02*
X78100000Y-89650000D01*
G75*
G02*
X77800000Y-89350000I0J300000D01*
G01*
X77800000Y-87450000D01*
G75*
G02*
X78100000Y-87150000I300000J0D01*
G01*
X79500000Y-87150000D01*
G75*
G02*
X79800000Y-87450000I0J-300000D01*
G01*
X79800000Y-89350000D01*
G75*
G02*
X79500000Y-89650000I-300000J0D01*
G01*
G37*
%TD.AperFunction*%
D10*
%TO.P,A1,17*%
%TO.N,Net-(A1-Pad17)*%
X111820000Y-73160000D03*
%TO.P,A1,2*%
%TO.N,Net-(A1-Pad2)*%
X81340000Y-88400000D03*
%TO.P,A1,18*%
%TO.N,Net-(A1-Pad18)*%
X109280000Y-73160000D03*
%TO.P,A1,3*%
%TO.N,Net-(A1-Pad3)*%
X83880000Y-88400000D03*
%TO.P,A1,19*%
%TO.N,Net-(A1-Pad19)*%
X106740000Y-73160000D03*
%TO.P,A1,4*%
%TO.N,GND*%
X86420000Y-88400000D03*
%TO.P,A1,20*%
%TO.N,Net-(A1-Pad20)*%
X104200000Y-73160000D03*
%TO.P,A1,5*%
%TO.N,Net-(A1-Pad5)*%
X88960000Y-88400000D03*
%TO.P,A1,21*%
%TO.N,Net-(A1-Pad21)*%
X101660000Y-73160000D03*
%TO.P,A1,6*%
%TO.N,Net-(A1-Pad6)*%
X91500000Y-88400000D03*
%TO.P,A1,22*%
%TO.N,Net-(A1-Pad22)*%
X99120000Y-73160000D03*
%TO.P,A1,7*%
%TO.N,Net-(A1-Pad7)*%
X94040000Y-88400000D03*
%TO.P,A1,23*%
%TO.N,Net-(A1-Pad23)*%
X96580000Y-73160000D03*
%TO.P,A1,8*%
%TO.N,Net-(A1-Pad8)*%
X96580000Y-88400000D03*
%TO.P,A1,24*%
%TO.N,Net-(A1-Pad24)*%
X94040000Y-73160000D03*
%TO.P,A1,9*%
%TO.N,Net-(A1-Pad9)*%
X99120000Y-88400000D03*
%TO.P,A1,25*%
%TO.N,Net-(A1-Pad25)*%
X91500000Y-73160000D03*
%TO.P,A1,10*%
%TO.N,Net-(A1-Pad10)*%
X101660000Y-88400000D03*
%TO.P,A1,26*%
%TO.N,Net-(A1-Pad26)*%
X88960000Y-73160000D03*
%TO.P,A1,11*%
%TO.N,Net-(A1-Pad11)*%
X104200000Y-88400000D03*
%TO.P,A1,27*%
%TO.N,Net-(A1-Pad27)*%
X86420000Y-73160000D03*
%TO.P,A1,12*%
%TO.N,Net-(A1-Pad12)*%
X106740000Y-88400000D03*
%TO.P,A1,28*%
%TO.N,Net-(A1-Pad28)*%
X83880000Y-73160000D03*
%TO.P,A1,13*%
%TO.N,Net-(A1-Pad13)*%
X109280000Y-88400000D03*
%TO.P,A1,29*%
%TO.N,GND*%
X81340000Y-73160000D03*
%TO.P,A1,14*%
%TO.N,Net-(A1-Pad14)*%
X111820000Y-88400000D03*
%TO.P,A1,30*%
%TO.N,Net-(A1-Pad30)*%
X78800000Y-73160000D03*
%TO.P,A1,15*%
%TO.N,Net-(A1-Pad15)*%
X114360000Y-88400000D03*
%TO.P,A1,16*%
%TO.N,Net-(A1-Pad16)*%
X114360000Y-73160000D03*
%TD*%
%TO.P,R5,1*%
%TO.N,+5VD*%
%TA.AperFunction,SMDPad,CuDef*%
G36*
G01*
X113899600Y-67000000D02*
X114900400Y-67000000D01*
G75*
G02*
X115150000Y-67249600I0J-249600D01*
G01*
X115150000Y-67950400D01*
G75*
G02*
X114900400Y-68200000I-249600J0D01*
G01*
X113899600Y-68200000D01*
G75*
G02*
X113650000Y-67950400I0J249600D01*
G01*
X113650000Y-67249600D01*
G75*
G02*
X113899600Y-67000000I249600J0D01*
G01*
G37*
%TD.AperFunction*%
%TO.P,R5,2*%
%TO.N,Net-(A1-Pad27)*%
%TA.AperFunction,SMDPad,CuDef*%
G36*
G01*
X113899600Y-69000000D02*
X114900400Y-69000000D01*
G75*
G02*
X115150000Y-69249600I0J-249600D01*
G01*
X115150000Y-69950400D01*
G75*
G02*
X114900400Y-70200000I-249600J0D01*
G01*
X113899600Y-70200000D01*
G75*
G02*
X113650000Y-69950400I0J249600D01*
G01*
X113650000Y-69249600D01*
G75*
G02*
X113899600Y-69000000I249600J0D01*
G01*
G37*
%TD.AperFunction*%
%TD*%
D11*
%TO.P,REF\u002A\u002A,*%
%TO.N,*%
X116600000Y-92800000D03*
%TD*%
%TO.P,REF\u002A\u002A,*%
%TO.N,*%
X77600000Y-92800000D03*
%TD*%
%TO.P,REF\u002A\u002A,*%
%TO.N,*%
X77600000Y-68600000D03*
%TD*%
%TO.P,REF\u002A\u002A,*%
%TO.N,*%
X116600000Y-64400000D03*
%TD*%
D12*
%TO.P,S1,2*%
%TO.N,Net-(C1-Pad1)*%
X111150000Y-68850000D03*
%TO.P,S1,1*%
%TO.N,+5VD*%
X111150000Y-64350000D03*
X102850000Y-64350000D03*
%TO.P,S1,2*%
%TO.N,Net-(C1-Pad1)*%
X102850000Y-68850000D03*
%TD*%
D13*
%TO.P,J1,None*%
%TO.N,N/C*%
X84000000Y-56300000D03*
X84000000Y-61300000D03*
%TO.P,J1,4*%
%TO.N,GND*%
%TA.AperFunction,SMDPad,CuDef*%
G36*
G01*
X86510000Y-61800000D02*
X89590000Y-61800000D01*
G75*
G02*
X89650000Y-61860000I0J-60000D01*
G01*
X89650000Y-62740000D01*
G75*
G02*
X89590000Y-62800000I-60000J0D01*
G01*
X86510000Y-62800000D01*
G75*
G02*
X86450000Y-62740000I0J60000D01*
G01*
X86450000Y-61860000D01*
G75*
G02*
X86510000Y-61800000I60000J0D01*
G01*
G37*
%TD.AperFunction*%
%TO.P,J1,2*%
%TO.N,/D-*%
%TA.AperFunction,SMDPad,CuDef*%
G36*
G01*
X86510000Y-57300000D02*
X89590000Y-57300000D01*
G75*
G02*
X89650000Y-57360000I0J-60000D01*
G01*
X89650000Y-58240000D01*
G75*
G02*
X89590000Y-58300000I-60000J0D01*
G01*
X86510000Y-58300000D01*
G75*
G02*
X86450000Y-58240000I0J60000D01*
G01*
X86450000Y-57360000D01*
G75*
G02*
X86510000Y-57300000I60000J0D01*
G01*
G37*
%TD.AperFunction*%
%TO.P,J1,1*%
%TO.N,Net-(D1-PadA)*%
%TA.AperFunction,SMDPad,CuDef*%
G36*
G01*
X86510000Y-54800000D02*
X89590000Y-54800000D01*
G75*
G02*
X89650000Y-54860000I0J-60000D01*
G01*
X89650000Y-55740000D01*
G75*
G02*
X89590000Y-55800000I-60000J0D01*
G01*
X86510000Y-55800000D01*
G75*
G02*
X86450000Y-55740000I0J60000D01*
G01*
X86450000Y-54860000D01*
G75*
G02*
X86510000Y-54800000I60000J0D01*
G01*
G37*
%TD.AperFunction*%
%TO.P,J1,3*%
%TO.N,/D+*%
%TA.AperFunction,SMDPad,CuDef*%
G36*
G01*
X86510000Y-59300000D02*
X89590000Y-59300000D01*
G75*
G02*
X89650000Y-59360000I0J-60000D01*
G01*
X89650000Y-60240000D01*
G75*
G02*
X89590000Y-60300000I-60000J0D01*
G01*
X86510000Y-60300000D01*
G75*
G02*
X86450000Y-60240000I0J60000D01*
G01*
X86450000Y-59360000D01*
G75*
G02*
X86510000Y-59300000I60000J0D01*
G01*
G37*
%TD.AperFunction*%
%TO.P,J1,6*%
%TO.N,GND*%
%TA.AperFunction,SMDPad,CuDef*%
G36*
G01*
X82640000Y-49500000D02*
X87960000Y-49500000D01*
G75*
G02*
X88300000Y-49840000I0J-340000D01*
G01*
X88300000Y-52560000D01*
G75*
G02*
X87960000Y-52900000I-340000J0D01*
G01*
X82640000Y-52900000D01*
G75*
G02*
X82300000Y-52560000I0J340000D01*
G01*
X82300000Y-49840000D01*
G75*
G02*
X82640000Y-49500000I340000J0D01*
G01*
G37*
%TD.AperFunction*%
%TO.P,J1,5*%
%TA.AperFunction,SMDPad,CuDef*%
G36*
G01*
X82640000Y-64700000D02*
X87960000Y-64700000D01*
G75*
G02*
X88300000Y-65040000I0J-340000D01*
G01*
X88300000Y-67760000D01*
G75*
G02*
X87960000Y-68100000I-340000J0D01*
G01*
X82640000Y-68100000D01*
G75*
G02*
X82300000Y-67760000I0J340000D01*
G01*
X82300000Y-65040000D01*
G75*
G02*
X82640000Y-64700000I340000J0D01*
G01*
G37*
%TD.AperFunction*%
%TD*%
D14*
%TO.P,D2,2*%
%TO.N,Net-(A1-Pad22)*%
X98800000Y-69650000D03*
%TO.P,D2,1*%
%TO.N,Net-(C1-Pad1)*%
X98800000Y-67150000D03*
%TD*%
D15*
%TO.P,D1,K*%
%TO.N,Net-(D1-PadK)*%
X99540000Y-52600000D03*
%TO.P,D1,A*%
%TO.N,Net-(D1-PadA)*%
%TA.AperFunction,ComponentPad*%
G36*
G01*
X95950000Y-53638000D02*
X95950000Y-51562000D01*
G75*
G02*
X96412000Y-51100000I462000J0D01*
G01*
X97588000Y-51100000D01*
G75*
G02*
X98050000Y-51562000I0J-462000D01*
G01*
X98050000Y-53638000D01*
G75*
G02*
X97588000Y-54100000I-462000J0D01*
G01*
X96412000Y-54100000D01*
G75*
G02*
X95950000Y-53638000I0J462000D01*
G01*
G37*
%TD.AperFunction*%
%TD*%
%TO.P,R4,1*%
%TO.N,Net-(D1-PadK)*%
%TA.AperFunction,SMDPad,CuDef*%
G36*
G01*
X102400000Y-52900400D02*
X102400000Y-51899600D01*
G75*
G02*
X102649600Y-51650000I249600J0D01*
G01*
X103350400Y-51650000D01*
G75*
G02*
X103600000Y-51899600I0J-249600D01*
G01*
X103600000Y-52900400D01*
G75*
G02*
X103350400Y-53150000I-249600J0D01*
G01*
X102649600Y-53150000D01*
G75*
G02*
X102400000Y-52900400I0J249600D01*
G01*
G37*
%TD.AperFunction*%
%TO.P,R4,2*%
%TO.N,GND*%
%TA.AperFunction,SMDPad,CuDef*%
G36*
G01*
X104400000Y-52900400D02*
X104400000Y-51899600D01*
G75*
G02*
X104649600Y-51650000I249600J0D01*
G01*
X105350400Y-51650000D01*
G75*
G02*
X105600000Y-51899600I0J-249600D01*
G01*
X105600000Y-52900400D01*
G75*
G02*
X105350400Y-53150000I-249600J0D01*
G01*
X104649600Y-53150000D01*
G75*
G02*
X104400000Y-52900400I0J249600D01*
G01*
G37*
%TD.AperFunction*%
%TD*%
D16*
%TO.P,J2,*%
%TO.N,*%
X114400000Y-53400000D03*
X114400000Y-57800000D03*
D17*
%TO.P,J2,GND*%
%TO.N,GND*%
X111300000Y-54000000D03*
%TO.P,J2,ID*%
%TO.N,Net-(J2-PadID)*%
X111300000Y-54800000D03*
%TO.P,J2,D+*%
%TO.N,/D+*%
X111300000Y-55600000D03*
%TO.P,J2,D-*%
%TO.N,/D-*%
X111300000Y-56400000D03*
%TO.P,J2,VBUS*%
%TO.N,+5VD*%
X111300000Y-57200000D03*
D18*
%TO.P,J2,S3*%
%TO.N,GND*%
X111800000Y-51200000D03*
%TO.P,J2,S1*%
X111800000Y-60000000D03*
%TO.P,J2,S4*%
X117300000Y-51200000D03*
%TO.P,J2,S2*%
X117300000Y-60000000D03*
%TD*%
%TO.P,R3,1*%
%TO.N,Net-(Q1-PadG)*%
%TA.AperFunction,SMDPad,CuDef*%
G36*
G01*
X103000000Y-60999600D02*
X103000000Y-62000400D01*
G75*
G02*
X102750400Y-62250000I-249600J0D01*
G01*
X102049600Y-62250000D01*
G75*
G02*
X101800000Y-62000400I0J249600D01*
G01*
X101800000Y-60999600D01*
G75*
G02*
X102049600Y-60750000I249600J0D01*
G01*
X102750400Y-60750000D01*
G75*
G02*
X103000000Y-60999600I0J-249600D01*
G01*
G37*
%TD.AperFunction*%
%TO.P,R3,2*%
%TO.N,Net-(C1-Pad1)*%
%TA.AperFunction,SMDPad,CuDef*%
G36*
G01*
X101000000Y-60999600D02*
X101000000Y-62000400D01*
G75*
G02*
X100750400Y-62250000I-249600J0D01*
G01*
X100049600Y-62250000D01*
G75*
G02*
X99800000Y-62000400I0J249600D01*
G01*
X99800000Y-60999600D01*
G75*
G02*
X100049600Y-60750000I249600J0D01*
G01*
X100750400Y-60750000D01*
G75*
G02*
X101000000Y-60999600I0J-249600D01*
G01*
G37*
%TD.AperFunction*%
%TD*%
%TO.P,R2,1*%
%TO.N,Net-(C1-Pad1)*%
%TA.AperFunction,SMDPad,CuDef*%
G36*
G01*
X96400000Y-68699600D02*
X96400000Y-69700400D01*
G75*
G02*
X96150400Y-69950000I-249600J0D01*
G01*
X95449600Y-69950000D01*
G75*
G02*
X95200000Y-69700400I0J249600D01*
G01*
X95200000Y-68699600D01*
G75*
G02*
X95449600Y-68450000I249600J0D01*
G01*
X96150400Y-68450000D01*
G75*
G02*
X96400000Y-68699600I0J-249600D01*
G01*
G37*
%TD.AperFunction*%
%TO.P,R2,2*%
%TO.N,GND*%
%TA.AperFunction,SMDPad,CuDef*%
G36*
G01*
X94400000Y-68699600D02*
X94400000Y-69700400D01*
G75*
G02*
X94150400Y-69950000I-249600J0D01*
G01*
X93449600Y-69950000D01*
G75*
G02*
X93200000Y-69700400I0J249600D01*
G01*
X93200000Y-68699600D01*
G75*
G02*
X93449600Y-68450000I249600J0D01*
G01*
X94150400Y-68450000D01*
G75*
G02*
X94400000Y-68699600I0J-249600D01*
G01*
G37*
%TD.AperFunction*%
%TD*%
%TO.P,R1,1*%
%TO.N,Net-(C1-Pad2)*%
%TA.AperFunction,SMDPad,CuDef*%
G36*
G01*
X92899600Y-64000000D02*
X93900400Y-64000000D01*
G75*
G02*
X94150000Y-64249600I0J-249600D01*
G01*
X94150000Y-64950400D01*
G75*
G02*
X93900400Y-65200000I-249600J0D01*
G01*
X92899600Y-65200000D01*
G75*
G02*
X92650000Y-64950400I0J249600D01*
G01*
X92650000Y-64249600D01*
G75*
G02*
X92899600Y-64000000I249600J0D01*
G01*
G37*
%TD.AperFunction*%
%TO.P,R1,2*%
%TO.N,GND*%
%TA.AperFunction,SMDPad,CuDef*%
G36*
G01*
X92899600Y-66000000D02*
X93900400Y-66000000D01*
G75*
G02*
X94150000Y-66249600I0J-249600D01*
G01*
X94150000Y-66950400D01*
G75*
G02*
X93900400Y-67200000I-249600J0D01*
G01*
X92899600Y-67200000D01*
G75*
G02*
X92650000Y-66950400I0J249600D01*
G01*
X92650000Y-66249600D01*
G75*
G02*
X92899600Y-66000000I249600J0D01*
G01*
G37*
%TD.AperFunction*%
%TD*%
%TO.P,Q1,G*%
%TO.N,Net-(Q1-PadG)*%
%TA.AperFunction,SMDPad,CuDef*%
G36*
G01*
X102350000Y-58780000D02*
X102350000Y-59420000D01*
G75*
G02*
X102270000Y-59500000I-80000J0D01*
G01*
X100830000Y-59500000D01*
G75*
G02*
X100750000Y-59420000I0J80000D01*
G01*
X100750000Y-58780000D01*
G75*
G02*
X100830000Y-58700000I80000J0D01*
G01*
X102270000Y-58700000D01*
G75*
G02*
X102350000Y-58780000I0J-80000D01*
G01*
G37*
%TD.AperFunction*%
%TO.P,Q1,S*%
%TO.N,+5VD*%
%TA.AperFunction,SMDPad,CuDef*%
G36*
G01*
X102350000Y-56930000D02*
X102350000Y-57570000D01*
G75*
G02*
X102270000Y-57650000I-80000J0D01*
G01*
X100830000Y-57650000D01*
G75*
G02*
X100750000Y-57570000I0J80000D01*
G01*
X100750000Y-56930000D01*
G75*
G02*
X100830000Y-56850000I80000J0D01*
G01*
X102270000Y-56850000D01*
G75*
G02*
X102350000Y-56930000I0J-80000D01*
G01*
G37*
%TD.AperFunction*%
%TO.P,Q1,D*%
%TO.N,Net-(D1-PadA)*%
%TA.AperFunction,SMDPad,CuDef*%
G36*
G01*
X99650000Y-57880000D02*
X99650000Y-58520000D01*
G75*
G02*
X99570000Y-58600000I-80000J0D01*
G01*
X98130000Y-58600000D01*
G75*
G02*
X98050000Y-58520000I0J80000D01*
G01*
X98050000Y-57880000D01*
G75*
G02*
X98130000Y-57800000I80000J0D01*
G01*
X99570000Y-57800000D01*
G75*
G02*
X99650000Y-57880000I0J-80000D01*
G01*
G37*
%TD.AperFunction*%
%TD*%
%TO.P,C1,1*%
%TO.N,Net-(C1-Pad1)*%
%TA.AperFunction,SMDPad,CuDef*%
G36*
G01*
X98800000Y-63899600D02*
X98800000Y-64900400D01*
G75*
G02*
X98550400Y-65150000I-249600J0D01*
G01*
X97849600Y-65150000D01*
G75*
G02*
X97600000Y-64900400I0J249600D01*
G01*
X97600000Y-63899600D01*
G75*
G02*
X97849600Y-63650000I249600J0D01*
G01*
X98550400Y-63650000D01*
G75*
G02*
X98800000Y-63899600I0J-249600D01*
G01*
G37*
%TD.AperFunction*%
%TO.P,C1,2*%
%TO.N,Net-(C1-Pad2)*%
%TA.AperFunction,SMDPad,CuDef*%
G36*
G01*
X96800000Y-63899600D02*
X96800000Y-64900400D01*
G75*
G02*
X96550400Y-65150000I-249600J0D01*
G01*
X95849600Y-65150000D01*
G75*
G02*
X95600000Y-64900400I0J249600D01*
G01*
X95600000Y-63899600D01*
G75*
G02*
X95849600Y-63650000I249600J0D01*
G01*
X96550400Y-63650000D01*
G75*
G02*
X96800000Y-63899600I0J-249600D01*
G01*
G37*
%TD.AperFunction*%
%TD*%
D19*
%TO.N,/D+*%
X105300000Y-55600000D03*
X93000000Y-61000000D03*
%TO.N,/D-*%
X106600000Y-58600000D03*
X93000000Y-57800000D03*
%TD*%
D20*
%TO.N,GND*%
X86420000Y-83020000D02*
X86420000Y-88400000D01*
D21*
X81340000Y-77940000D02*
X86420000Y-83020000D01*
D20*
X81340000Y-73160000D02*
X81340000Y-77940000D01*
D22*
X110800000Y-60000000D02*
X118000000Y-60000000D01*
D21*
X117500000Y-50800000D02*
X117500000Y-59600000D01*
D22*
X118000000Y-51200000D02*
X110800000Y-51200000D01*
D23*
X111500000Y-51300000D02*
X112000000Y-50800000D01*
X85400000Y-67250000D02*
X83350000Y-67250000D01*
D20*
X81340000Y-70260000D02*
X81340000Y-73160000D01*
D23*
X85500000Y-66950000D02*
X85200000Y-67250000D01*
D21*
X86050000Y-66600000D02*
X85400000Y-67250000D01*
X91600000Y-66600000D02*
X93400000Y-66600000D01*
D23*
X93800000Y-67000000D02*
X93400000Y-66600000D01*
X93800000Y-69200000D02*
X93800000Y-67000000D01*
X110600000Y-51600000D02*
X110900000Y-51900000D01*
X111600000Y-51900000D02*
X111600000Y-54000000D01*
X105800000Y-51600000D02*
X110600000Y-51600000D01*
X105000000Y-52400000D02*
X105800000Y-51600000D01*
D21*
X88700000Y-62300000D02*
X88800000Y-62400000D01*
X90200000Y-66600000D02*
X86050000Y-66600000D01*
X93400000Y-66600000D02*
X90200000Y-66600000D01*
D23*
X89600000Y-66400000D02*
X89400000Y-66600000D01*
X89600000Y-65200000D02*
X89600000Y-66400000D01*
X88050000Y-63650000D02*
X89600000Y-65200000D01*
X88050000Y-62300000D02*
X88050000Y-63650000D01*
X118600000Y-61300000D02*
X116900000Y-59600000D01*
X118600000Y-73703100D02*
X118600000Y-61300000D01*
X109283100Y-83020000D02*
X118600000Y-73703100D01*
X86420000Y-83020000D02*
X109283100Y-83020000D01*
D24*
%TO.N,+5VD*%
X103050000Y-64350000D02*
X111350000Y-64350000D01*
D23*
X107000000Y-61600000D02*
X108400000Y-61600000D01*
X102650000Y-57250000D02*
X107000000Y-61600000D01*
X101550000Y-57250000D02*
X102650000Y-57250000D01*
X108400000Y-62000000D02*
X108400000Y-57903102D01*
X109103102Y-57200000D02*
X111500000Y-57200000D01*
X110750000Y-64350000D02*
X108400000Y-62000000D01*
X111950000Y-64350000D02*
X110750000Y-64350000D01*
X108400000Y-57903102D02*
X109103102Y-57200000D01*
X114400000Y-66800000D02*
X111950000Y-64350000D01*
X114400000Y-67600000D02*
X114400000Y-66800000D01*
D21*
%TO.N,Net-(C1-Pad2)*%
X93400000Y-64600000D02*
X93400000Y-64400000D01*
X93800000Y-64200000D02*
X93400000Y-64600000D01*
X96400000Y-64200000D02*
X93800000Y-64200000D01*
%TO.N,Net-(Q1-PadG)*%
X102400000Y-59950000D02*
X101550000Y-59100000D01*
X102400000Y-61500000D02*
X102400000Y-59950000D01*
%TO.N,/D+*%
X93200000Y-61000000D02*
X93400000Y-61200000D01*
D25*
X105200000Y-55600000D02*
X111100000Y-55600000D01*
D26*
X91400000Y-59800000D02*
X93000000Y-61400000D01*
X87850000Y-59800000D02*
X91400000Y-59800000D01*
%TO.N,/D-*%
X87850000Y-57800000D02*
X93200000Y-57800000D01*
D23*
X106800000Y-58200000D02*
X106800000Y-59000000D01*
X108600000Y-56400000D02*
X106800000Y-58200000D01*
X110900000Y-56400000D02*
X108600000Y-56400000D01*
D21*
%TO.N,Net-(A1-Pad22)*%
X99000000Y-73040000D02*
X99120000Y-73160000D01*
X99000000Y-69650000D02*
X99000000Y-73040000D01*
%TO.N,Net-(C1-Pad1)*%
X98800000Y-67150000D02*
X98800000Y-66000000D01*
X98600000Y-66200000D02*
X98800000Y-66000000D01*
X97600000Y-66200000D02*
X98600000Y-66200000D01*
X95800000Y-68000000D02*
X97600000Y-66200000D01*
X95800000Y-69200000D02*
X95800000Y-68000000D01*
X98800000Y-65000000D02*
X98200000Y-64400000D01*
X98800000Y-66000000D02*
X98800000Y-65000000D01*
X100400000Y-62200000D02*
X98200000Y-64400000D01*
X100400000Y-61500000D02*
X100400000Y-62200000D01*
D24*
X103050000Y-68850000D02*
X111350000Y-68850000D01*
D21*
X101850000Y-68850000D02*
X103050000Y-68850000D01*
X100150000Y-67150000D02*
X101850000Y-68850000D01*
X99000000Y-67150000D02*
X100150000Y-67150000D01*
%TO.N,Net-(D1-PadK)*%
X103000000Y-52400000D02*
X99440000Y-52400000D01*
D20*
%TO.N,Net-(D1-PadA)*%
X93900000Y-55300000D02*
X87850000Y-55300000D01*
X96800000Y-58200000D02*
X93900000Y-55300000D01*
X98850000Y-58200000D02*
X96800000Y-58200000D01*
D21*
X94100000Y-55300000D02*
X97000000Y-52400000D01*
X93900000Y-55300000D02*
X94100000Y-55300000D01*
%TO.N,Net-(A1-Pad27)*%
X86420000Y-74420000D02*
X86420000Y-73160000D01*
X87150000Y-75150000D02*
X86420000Y-74420000D01*
X115050000Y-75150000D02*
X87150000Y-75150000D01*
X116100000Y-74100000D02*
X115050000Y-75150000D01*
X116100000Y-70900000D02*
X116100000Y-74100000D01*
X114800000Y-69600000D02*
X116100000Y-70900000D01*
X114400000Y-69600000D02*
X114800000Y-69600000D01*
%TD*%
D27*
%TO.N,GND*%
X81569482Y-49500000D02*
X81573000Y-49645250D01*
X81754750Y-49827000D01*
X83927000Y-49827000D01*
X83927000Y-49807000D01*
X86673000Y-49807000D01*
X86673000Y-49827000D01*
X88845250Y-49827000D01*
X89027000Y-49645250D01*
X89030518Y-49500000D01*
X89018403Y-49377000D01*
X119023000Y-49377000D01*
X119023000Y-49647238D01*
X118945492Y-49585799D01*
X118818068Y-49520444D01*
X118680342Y-49481204D01*
X118604750Y-49473000D01*
X118423000Y-49654750D01*
X118423000Y-50327000D01*
X118550000Y-50327000D01*
X118550000Y-52073000D01*
X118423000Y-52073000D01*
X118423000Y-52745250D01*
X118604750Y-52927000D01*
X118680342Y-52918796D01*
X118818068Y-52879556D01*
X118945492Y-52814201D01*
X119023000Y-52752762D01*
X119023000Y-58447238D01*
X118945492Y-58385799D01*
X118818068Y-58320444D01*
X118680342Y-58281204D01*
X118604750Y-58273000D01*
X118423000Y-58454750D01*
X118423000Y-59127000D01*
X118550000Y-59127000D01*
X118550000Y-60873000D01*
X118423000Y-60873000D01*
X118423000Y-61545250D01*
X118604750Y-61727000D01*
X118680342Y-61718796D01*
X118818068Y-61679556D01*
X118945492Y-61614201D01*
X119023000Y-61552762D01*
X119023001Y-95223000D01*
X75077000Y-95223000D01*
X75077000Y-92649604D01*
X76073000Y-92649604D01*
X76073000Y-92950396D01*
X76131681Y-93245410D01*
X76246790Y-93523306D01*
X76413901Y-93773406D01*
X76626594Y-93986099D01*
X76876694Y-94153210D01*
X77154590Y-94268319D01*
X77449604Y-94327000D01*
X77750396Y-94327000D01*
X78045410Y-94268319D01*
X78323306Y-94153210D01*
X78573406Y-93986099D01*
X78786099Y-93773406D01*
X78953210Y-93523306D01*
X79068319Y-93245410D01*
X79127000Y-92950396D01*
X79127000Y-92649604D01*
X115073000Y-92649604D01*
X115073000Y-92950396D01*
X115131681Y-93245410D01*
X115246790Y-93523306D01*
X115413901Y-93773406D01*
X115626594Y-93986099D01*
X115876694Y-94153210D01*
X116154590Y-94268319D01*
X116449604Y-94327000D01*
X116750396Y-94327000D01*
X117045410Y-94268319D01*
X117323306Y-94153210D01*
X117573406Y-93986099D01*
X117786099Y-93773406D01*
X117953210Y-93523306D01*
X118068319Y-93245410D01*
X118127000Y-92950396D01*
X118127000Y-92649604D01*
X118068319Y-92354590D01*
X117953210Y-92076694D01*
X117786099Y-91826594D01*
X117573406Y-91613901D01*
X117323306Y-91446790D01*
X117045410Y-91331681D01*
X116750396Y-91273000D01*
X116449604Y-91273000D01*
X116154590Y-91331681D01*
X115876694Y-91446790D01*
X115626594Y-91613901D01*
X115413901Y-91826594D01*
X115246790Y-92076694D01*
X115131681Y-92354590D01*
X115073000Y-92649604D01*
X79127000Y-92649604D01*
X79068319Y-92354590D01*
X78953210Y-92076694D01*
X78786099Y-91826594D01*
X78573406Y-91613901D01*
X78323306Y-91446790D01*
X78045410Y-91331681D01*
X77750396Y-91273000D01*
X77449604Y-91273000D01*
X77154590Y-91331681D01*
X76876694Y-91446790D01*
X76626594Y-91613901D01*
X76413901Y-91826594D01*
X76246790Y-92076694D01*
X76131681Y-92354590D01*
X76073000Y-92649604D01*
X75077000Y-92649604D01*
X75077000Y-87450000D01*
X77270451Y-87450000D01*
X77270451Y-89350000D01*
X77286391Y-89511837D01*
X77333597Y-89667455D01*
X77410255Y-89810873D01*
X77513420Y-89936580D01*
X77639127Y-90039745D01*
X77782545Y-90116403D01*
X77938163Y-90163609D01*
X78100000Y-90179549D01*
X79500000Y-90179549D01*
X79661837Y-90163609D01*
X79817455Y-90116403D01*
X79960873Y-90039745D01*
X80086580Y-89936580D01*
X80189745Y-89810873D01*
X80240059Y-89716741D01*
X80255024Y-89734976D01*
X80487541Y-89925797D01*
X80752816Y-90067590D01*
X81040657Y-90154905D01*
X81340000Y-90184388D01*
X81639344Y-90154905D01*
X81927185Y-90067590D01*
X82192460Y-89925797D01*
X82424976Y-89734976D01*
X82610000Y-89509524D01*
X82795024Y-89734976D01*
X83027541Y-89925797D01*
X83292816Y-90067590D01*
X83580657Y-90154905D01*
X83880000Y-90184388D01*
X84179344Y-90154905D01*
X84467185Y-90067590D01*
X84732460Y-89925797D01*
X84964976Y-89734976D01*
X85022715Y-89664621D01*
X85052387Y-89711741D01*
X85285801Y-89958148D01*
X85562801Y-90154284D01*
X85872743Y-90292611D01*
X86029038Y-90332164D01*
X86297000Y-90190347D01*
X86297000Y-88523000D01*
X86277000Y-88523000D01*
X86277000Y-88277000D01*
X86297000Y-88277000D01*
X86297000Y-86609653D01*
X86543000Y-86609653D01*
X86543000Y-88277000D01*
X86563000Y-88277000D01*
X86563000Y-88523000D01*
X86543000Y-88523000D01*
X86543000Y-90190347D01*
X86810962Y-90332164D01*
X86967257Y-90292611D01*
X87277199Y-90154284D01*
X87554199Y-89958148D01*
X87787613Y-89711741D01*
X87817285Y-89664621D01*
X87875024Y-89734976D01*
X88107541Y-89925797D01*
X88372816Y-90067590D01*
X88660657Y-90154905D01*
X88960000Y-90184388D01*
X89259344Y-90154905D01*
X89547185Y-90067590D01*
X89812460Y-89925797D01*
X90044976Y-89734976D01*
X90230000Y-89509524D01*
X90415024Y-89734976D01*
X90647541Y-89925797D01*
X90912816Y-90067590D01*
X91200657Y-90154905D01*
X91500000Y-90184388D01*
X91799344Y-90154905D01*
X92087185Y-90067590D01*
X92352460Y-89925797D01*
X92584976Y-89734976D01*
X92770000Y-89509524D01*
X92955024Y-89734976D01*
X93187541Y-89925797D01*
X93452816Y-90067590D01*
X93740657Y-90154905D01*
X94040000Y-90184388D01*
X94339344Y-90154905D01*
X94627185Y-90067590D01*
X94892460Y-89925797D01*
X95124976Y-89734976D01*
X95310000Y-89509524D01*
X95495024Y-89734976D01*
X95727541Y-89925797D01*
X95992816Y-90067590D01*
X96280657Y-90154905D01*
X96580000Y-90184388D01*
X96879344Y-90154905D01*
X97167185Y-90067590D01*
X97432460Y-89925797D01*
X97664976Y-89734976D01*
X97850000Y-89509524D01*
X98035024Y-89734976D01*
X98267541Y-89925797D01*
X98532816Y-90067590D01*
X98820657Y-90154905D01*
X99120000Y-90184388D01*
X99419344Y-90154905D01*
X99707185Y-90067590D01*
X99972460Y-89925797D01*
X100204976Y-89734976D01*
X100390000Y-89509524D01*
X100575024Y-89734976D01*
X100807541Y-89925797D01*
X101072816Y-90067590D01*
X101360657Y-90154905D01*
X101660000Y-90184388D01*
X101959344Y-90154905D01*
X102247185Y-90067590D01*
X102512460Y-89925797D01*
X102744976Y-89734976D01*
X102930000Y-89509524D01*
X103115024Y-89734976D01*
X103347541Y-89925797D01*
X103612816Y-90067590D01*
X103900657Y-90154905D01*
X104200000Y-90184388D01*
X104499344Y-90154905D01*
X104787185Y-90067590D01*
X105052460Y-89925797D01*
X105284976Y-89734976D01*
X105470000Y-89509524D01*
X105655024Y-89734976D01*
X105887541Y-89925797D01*
X106152816Y-90067590D01*
X106440657Y-90154905D01*
X106740000Y-90184388D01*
X107039344Y-90154905D01*
X107327185Y-90067590D01*
X107592460Y-89925797D01*
X107824976Y-89734976D01*
X108010000Y-89509524D01*
X108195024Y-89734976D01*
X108427541Y-89925797D01*
X108692816Y-90067590D01*
X108980657Y-90154905D01*
X109280000Y-90184388D01*
X109579344Y-90154905D01*
X109867185Y-90067590D01*
X110132460Y-89925797D01*
X110364976Y-89734976D01*
X110550000Y-89509524D01*
X110735024Y-89734976D01*
X110967541Y-89925797D01*
X111232816Y-90067590D01*
X111520657Y-90154905D01*
X111820000Y-90184388D01*
X112119344Y-90154905D01*
X112407185Y-90067590D01*
X112672460Y-89925797D01*
X112904976Y-89734976D01*
X113090000Y-89509524D01*
X113275024Y-89734976D01*
X113507541Y-89925797D01*
X113772816Y-90067590D01*
X114060657Y-90154905D01*
X114360000Y-90184388D01*
X114659344Y-90154905D01*
X114947185Y-90067590D01*
X115212460Y-89925797D01*
X115444976Y-89734976D01*
X115635797Y-89502460D01*
X115777590Y-89237185D01*
X115864905Y-88949343D01*
X115887000Y-88725010D01*
X115887000Y-88074989D01*
X115864905Y-87850656D01*
X115777590Y-87562815D01*
X115635797Y-87297540D01*
X115444976Y-87065024D01*
X115212459Y-86874203D01*
X114947184Y-86732410D01*
X114659343Y-86645095D01*
X114360000Y-86615612D01*
X114060656Y-86645095D01*
X113772815Y-86732410D01*
X113507540Y-86874203D01*
X113275024Y-87065024D01*
X113090000Y-87290477D01*
X112904976Y-87065024D01*
X112672459Y-86874203D01*
X112407184Y-86732410D01*
X112119343Y-86645095D01*
X111820000Y-86615612D01*
X111520656Y-86645095D01*
X111232815Y-86732410D01*
X110967540Y-86874203D01*
X110735024Y-87065024D01*
X110550000Y-87290477D01*
X110364976Y-87065024D01*
X110132459Y-86874203D01*
X109867184Y-86732410D01*
X109579343Y-86645095D01*
X109280000Y-86615612D01*
X108980656Y-86645095D01*
X108692815Y-86732410D01*
X108427540Y-86874203D01*
X108195024Y-87065024D01*
X108010000Y-87290477D01*
X107824976Y-87065024D01*
X107592459Y-86874203D01*
X107327184Y-86732410D01*
X107039343Y-86645095D01*
X106740000Y-86615612D01*
X106440656Y-86645095D01*
X106152815Y-86732410D01*
X105887540Y-86874203D01*
X105655024Y-87065024D01*
X105470000Y-87290477D01*
X105284976Y-87065024D01*
X105052459Y-86874203D01*
X104787184Y-86732410D01*
X104499343Y-86645095D01*
X104200000Y-86615612D01*
X103900656Y-86645095D01*
X103612815Y-86732410D01*
X103347540Y-86874203D01*
X103115024Y-87065024D01*
X102930000Y-87290477D01*
X102744976Y-87065024D01*
X102512459Y-86874203D01*
X102247184Y-86732410D01*
X101959343Y-86645095D01*
X101660000Y-86615612D01*
X101360656Y-86645095D01*
X101072815Y-86732410D01*
X100807540Y-86874203D01*
X100575024Y-87065024D01*
X100390000Y-87290477D01*
X100204976Y-87065024D01*
X99972459Y-86874203D01*
X99707184Y-86732410D01*
X99419343Y-86645095D01*
X99120000Y-86615612D01*
X98820656Y-86645095D01*
X98532815Y-86732410D01*
X98267540Y-86874203D01*
X98035024Y-87065024D01*
X97850000Y-87290477D01*
X97664976Y-87065024D01*
X97432459Y-86874203D01*
X97167184Y-86732410D01*
X96879343Y-86645095D01*
X96580000Y-86615612D01*
X96280656Y-86645095D01*
X95992815Y-86732410D01*
X95727540Y-86874203D01*
X95495024Y-87065024D01*
X95310000Y-87290477D01*
X95124976Y-87065024D01*
X94892459Y-86874203D01*
X94627184Y-86732410D01*
X94339343Y-86645095D01*
X94040000Y-86615612D01*
X93740656Y-86645095D01*
X93452815Y-86732410D01*
X93187540Y-86874203D01*
X92955024Y-87065024D01*
X92770000Y-87290477D01*
X92584976Y-87065024D01*
X92352459Y-86874203D01*
X92087184Y-86732410D01*
X91799343Y-86645095D01*
X91500000Y-86615612D01*
X91200656Y-86645095D01*
X90912815Y-86732410D01*
X90647540Y-86874203D01*
X90415024Y-87065024D01*
X90230000Y-87290477D01*
X90044976Y-87065024D01*
X89812459Y-86874203D01*
X89547184Y-86732410D01*
X89259343Y-86645095D01*
X88960000Y-86615612D01*
X88660656Y-86645095D01*
X88372815Y-86732410D01*
X88107540Y-86874203D01*
X87875024Y-87065024D01*
X87817285Y-87135379D01*
X87787613Y-87088259D01*
X87554199Y-86841852D01*
X87277199Y-86645716D01*
X86967257Y-86507389D01*
X86810962Y-86467836D01*
X86543000Y-86609653D01*
X86297000Y-86609653D01*
X86029038Y-86467836D01*
X85872743Y-86507389D01*
X85562801Y-86645716D01*
X85285801Y-86841852D01*
X85052387Y-87088259D01*
X85022715Y-87135379D01*
X84964976Y-87065024D01*
X84732459Y-86874203D01*
X84467184Y-86732410D01*
X84179343Y-86645095D01*
X83880000Y-86615612D01*
X83580656Y-86645095D01*
X83292815Y-86732410D01*
X83027540Y-86874203D01*
X82795024Y-87065024D01*
X82610000Y-87290477D01*
X82424976Y-87065024D01*
X82192459Y-86874203D01*
X81927184Y-86732410D01*
X81639343Y-86645095D01*
X81340000Y-86615612D01*
X81040656Y-86645095D01*
X80752815Y-86732410D01*
X80487540Y-86874203D01*
X80255024Y-87065024D01*
X80240059Y-87083259D01*
X80189745Y-86989127D01*
X80086580Y-86863420D01*
X79960873Y-86760255D01*
X79817455Y-86683597D01*
X79661837Y-86636391D01*
X79500000Y-86620451D01*
X78100000Y-86620451D01*
X77938163Y-86636391D01*
X77782545Y-86683597D01*
X77639127Y-86760255D01*
X77513420Y-86863420D01*
X77410255Y-86989127D01*
X77333597Y-87132545D01*
X77286391Y-87288163D01*
X77270451Y-87450000D01*
X75077000Y-87450000D01*
X75077000Y-72834990D01*
X77273000Y-72834990D01*
X77273000Y-73485011D01*
X77295095Y-73709344D01*
X77382410Y-73997185D01*
X77524203Y-74262460D01*
X77715024Y-74494976D01*
X77947541Y-74685797D01*
X78212816Y-74827590D01*
X78500657Y-74914905D01*
X78800000Y-74944388D01*
X79099344Y-74914905D01*
X79387185Y-74827590D01*
X79652460Y-74685797D01*
X79884976Y-74494976D01*
X79942715Y-74424621D01*
X79972387Y-74471741D01*
X80205801Y-74718148D01*
X80482801Y-74914284D01*
X80792743Y-75052611D01*
X80949038Y-75092164D01*
X81217000Y-74950347D01*
X81217000Y-73283000D01*
X81197000Y-73283000D01*
X81197000Y-73037000D01*
X81217000Y-73037000D01*
X81217000Y-71369653D01*
X81463000Y-71369653D01*
X81463000Y-73037000D01*
X81483000Y-73037000D01*
X81483000Y-73283000D01*
X81463000Y-73283000D01*
X81463000Y-74950347D01*
X81730962Y-75092164D01*
X81887257Y-75052611D01*
X82197199Y-74914284D01*
X82474199Y-74718148D01*
X82707613Y-74471741D01*
X82737285Y-74424621D01*
X82795024Y-74494976D01*
X83027541Y-74685797D01*
X83292816Y-74827590D01*
X83580657Y-74914905D01*
X83880000Y-74944388D01*
X84179344Y-74914905D01*
X84467185Y-74827590D01*
X84732460Y-74685797D01*
X84964976Y-74494976D01*
X85150000Y-74269524D01*
X85335024Y-74494976D01*
X85567541Y-74685797D01*
X85649746Y-74729736D01*
X85652255Y-74738009D01*
X85652256Y-74738010D01*
X85729048Y-74881679D01*
X85756422Y-74915034D01*
X85832394Y-75007606D01*
X85863952Y-75033505D01*
X86536499Y-75706053D01*
X86562394Y-75737606D01*
X86593947Y-75763501D01*
X86593948Y-75763502D01*
X86688320Y-75840952D01*
X86765113Y-75881998D01*
X86831990Y-75917745D01*
X86987880Y-75965034D01*
X87109376Y-75977000D01*
X87109386Y-75977000D01*
X87150000Y-75981000D01*
X87190614Y-75977000D01*
X115009386Y-75977000D01*
X115050000Y-75981000D01*
X115090614Y-75977000D01*
X115090624Y-75977000D01*
X115212120Y-75965034D01*
X115368010Y-75917745D01*
X115511679Y-75840952D01*
X115637606Y-75737606D01*
X115663505Y-75706048D01*
X116656053Y-74713501D01*
X116687606Y-74687606D01*
X116713502Y-74656052D01*
X116790952Y-74561681D01*
X116867744Y-74418011D01*
X116867745Y-74418010D01*
X116915034Y-74262120D01*
X116927000Y-74140624D01*
X116927000Y-74140615D01*
X116931000Y-74100001D01*
X116927000Y-74059387D01*
X116927000Y-70940614D01*
X116931000Y-70900000D01*
X116927000Y-70859386D01*
X116927000Y-70859376D01*
X116915034Y-70737880D01*
X116867745Y-70581990D01*
X116804987Y-70464578D01*
X116790952Y-70438320D01*
X116713503Y-70343948D01*
X116713496Y-70343941D01*
X116687606Y-70312394D01*
X116656059Y-70286504D01*
X115679549Y-69309996D01*
X115679549Y-69249600D01*
X115664578Y-69097596D01*
X115620240Y-68951433D01*
X115548239Y-68816728D01*
X115451342Y-68698658D01*
X115333272Y-68601761D01*
X115329977Y-68600000D01*
X115333272Y-68598239D01*
X115451342Y-68501342D01*
X115548239Y-68383272D01*
X115620240Y-68248567D01*
X115664578Y-68102404D01*
X115679549Y-67950400D01*
X115679549Y-67249600D01*
X115664578Y-67097596D01*
X115620240Y-66951433D01*
X115548239Y-66816728D01*
X115451342Y-66698658D01*
X115333272Y-66601761D01*
X115198567Y-66529760D01*
X115123035Y-66506848D01*
X115121327Y-66501216D01*
X115057741Y-66382256D01*
X115049177Y-66366233D01*
X114976409Y-66277565D01*
X114976408Y-66277564D01*
X114952080Y-66247920D01*
X114922436Y-66223592D01*
X112979549Y-64280706D01*
X112979549Y-64249604D01*
X115073000Y-64249604D01*
X115073000Y-64550396D01*
X115131681Y-64845410D01*
X115246790Y-65123306D01*
X115413901Y-65373406D01*
X115626594Y-65586099D01*
X115876694Y-65753210D01*
X116154590Y-65868319D01*
X116449604Y-65927000D01*
X116750396Y-65927000D01*
X117045410Y-65868319D01*
X117323306Y-65753210D01*
X117573406Y-65586099D01*
X117786099Y-65373406D01*
X117953210Y-65123306D01*
X118068319Y-64845410D01*
X118127000Y-64550396D01*
X118127000Y-64249604D01*
X118068319Y-63954590D01*
X117953210Y-63676694D01*
X117786099Y-63426594D01*
X117573406Y-63213901D01*
X117323306Y-63046790D01*
X117045410Y-62931681D01*
X116750396Y-62873000D01*
X116449604Y-62873000D01*
X116154590Y-62931681D01*
X115876694Y-63046790D01*
X115626594Y-63213901D01*
X115413901Y-63426594D01*
X115246790Y-63676694D01*
X115131681Y-63954590D01*
X115073000Y-64249604D01*
X112979549Y-64249604D01*
X112979549Y-63350000D01*
X112969374Y-63246690D01*
X112939239Y-63147350D01*
X112890304Y-63055798D01*
X112824448Y-62975552D01*
X112744202Y-62909696D01*
X112652650Y-62860761D01*
X112553310Y-62830626D01*
X112450000Y-62820451D01*
X110319295Y-62820451D01*
X109177000Y-61678157D01*
X109177000Y-61638166D01*
X109180759Y-61600000D01*
X109177000Y-61561834D01*
X109177000Y-61054750D01*
X109823000Y-61054750D01*
X109836039Y-61154651D01*
X109879929Y-61290966D01*
X109949569Y-61416100D01*
X110042283Y-61525243D01*
X110154508Y-61614201D01*
X110281932Y-61679556D01*
X110419658Y-61718796D01*
X110495250Y-61727000D01*
X110677000Y-61545250D01*
X110677000Y-60873000D01*
X112923000Y-60873000D01*
X112923000Y-61545250D01*
X113104750Y-61727000D01*
X113180342Y-61718796D01*
X113318068Y-61679556D01*
X113445492Y-61614201D01*
X113557717Y-61525243D01*
X113650431Y-61416100D01*
X113720071Y-61290966D01*
X113763961Y-61154651D01*
X113777000Y-61054750D01*
X115323000Y-61054750D01*
X115336039Y-61154651D01*
X115379929Y-61290966D01*
X115449569Y-61416100D01*
X115542283Y-61525243D01*
X115654508Y-61614201D01*
X115781932Y-61679556D01*
X115919658Y-61718796D01*
X115995250Y-61727000D01*
X116177000Y-61545250D01*
X116177000Y-60873000D01*
X115504750Y-60873000D01*
X115323000Y-61054750D01*
X113777000Y-61054750D01*
X113595250Y-60873000D01*
X112923000Y-60873000D01*
X110677000Y-60873000D01*
X110004750Y-60873000D01*
X109823000Y-61054750D01*
X109177000Y-61054750D01*
X109177000Y-58945250D01*
X109823000Y-58945250D01*
X110004750Y-59127000D01*
X110677000Y-59127000D01*
X110677000Y-58454750D01*
X112923000Y-58454750D01*
X112923000Y-59127000D01*
X113595250Y-59127000D01*
X113777000Y-58945250D01*
X115323000Y-58945250D01*
X115504750Y-59127000D01*
X116177000Y-59127000D01*
X116177000Y-58454750D01*
X115995250Y-58273000D01*
X115919658Y-58281204D01*
X115781932Y-58320444D01*
X115654508Y-58385799D01*
X115542283Y-58474757D01*
X115449569Y-58583900D01*
X115379929Y-58709034D01*
X115336039Y-58845349D01*
X115323000Y-58945250D01*
X113777000Y-58945250D01*
X113763961Y-58845349D01*
X113720071Y-58709034D01*
X113650431Y-58583900D01*
X113557717Y-58474757D01*
X113445492Y-58385799D01*
X113318068Y-58320444D01*
X113180342Y-58281204D01*
X113104750Y-58273000D01*
X112923000Y-58454750D01*
X110677000Y-58454750D01*
X110495250Y-58273000D01*
X110419658Y-58281204D01*
X110281932Y-58320444D01*
X110154508Y-58385799D01*
X110042283Y-58474757D01*
X109949569Y-58583900D01*
X109879929Y-58709034D01*
X109836039Y-58845349D01*
X109823000Y-58945250D01*
X109177000Y-58945250D01*
X109177000Y-58224945D01*
X109424946Y-57977000D01*
X109524119Y-57977000D01*
X109550000Y-57979549D01*
X113050000Y-57979549D01*
X113153310Y-57969374D01*
X113252650Y-57939239D01*
X113344202Y-57890304D01*
X113423000Y-57825636D01*
X113423000Y-57896226D01*
X113460546Y-58084980D01*
X113534194Y-58262783D01*
X113641115Y-58422801D01*
X113777199Y-58558885D01*
X113937217Y-58665806D01*
X114115020Y-58739454D01*
X114303774Y-58777000D01*
X114496226Y-58777000D01*
X114684980Y-58739454D01*
X114862783Y-58665806D01*
X115022801Y-58558885D01*
X115158885Y-58422801D01*
X115265806Y-58262783D01*
X115339454Y-58084980D01*
X115377000Y-57896226D01*
X115377000Y-57703774D01*
X115339454Y-57515020D01*
X115265806Y-57337217D01*
X115158885Y-57177199D01*
X115022801Y-57041115D01*
X114862783Y-56934194D01*
X114684980Y-56860546D01*
X114496226Y-56823000D01*
X114303774Y-56823000D01*
X114115020Y-56860546D01*
X113937217Y-56934194D01*
X113777199Y-57041115D01*
X113641115Y-57177199D01*
X113579549Y-57269339D01*
X113579549Y-56950000D01*
X113569374Y-56846690D01*
X113555210Y-56800000D01*
X113569374Y-56753310D01*
X113579549Y-56650000D01*
X113579549Y-56150000D01*
X113569374Y-56046690D01*
X113555210Y-56000000D01*
X113569374Y-55953310D01*
X113579549Y-55850000D01*
X113579549Y-55350000D01*
X113569374Y-55246690D01*
X113555210Y-55200000D01*
X113569374Y-55153310D01*
X113579549Y-55050000D01*
X113579549Y-54749787D01*
X113652096Y-54663687D01*
X113721233Y-54538275D01*
X113764575Y-54401784D01*
X113777000Y-54304750D01*
X113595252Y-54123002D01*
X113741316Y-54123002D01*
X113777199Y-54158885D01*
X113937217Y-54265806D01*
X114115020Y-54339454D01*
X114303774Y-54377000D01*
X114496226Y-54377000D01*
X114684980Y-54339454D01*
X114862783Y-54265806D01*
X115022801Y-54158885D01*
X115158885Y-54022801D01*
X115265806Y-53862783D01*
X115339454Y-53684980D01*
X115377000Y-53496226D01*
X115377000Y-53303774D01*
X115339454Y-53115020D01*
X115265806Y-52937217D01*
X115158885Y-52777199D01*
X115022801Y-52641115D01*
X114862783Y-52534194D01*
X114684980Y-52460546D01*
X114496226Y-52423000D01*
X114303774Y-52423000D01*
X114115020Y-52460546D01*
X113937217Y-52534194D01*
X113777199Y-52641115D01*
X113641115Y-52777199D01*
X113534194Y-52937217D01*
X113460546Y-53115020D01*
X113454979Y-53143006D01*
X113447953Y-53137391D01*
X113320793Y-53071525D01*
X113183226Y-53031733D01*
X113040539Y-53019543D01*
X111604750Y-53023000D01*
X111423000Y-53204750D01*
X111423000Y-53877000D01*
X111443000Y-53877000D01*
X111443000Y-54020451D01*
X109550000Y-54020451D01*
X109446690Y-54030626D01*
X109347350Y-54060761D01*
X109255798Y-54109696D01*
X109239587Y-54123000D01*
X109004750Y-54123000D01*
X108823000Y-54304750D01*
X108835425Y-54401784D01*
X108878767Y-54538275D01*
X108947904Y-54663687D01*
X109020451Y-54749787D01*
X109020451Y-54833000D01*
X106503746Y-54833000D01*
X106408424Y-54690340D01*
X106209660Y-54491576D01*
X105975938Y-54335409D01*
X105716241Y-54227838D01*
X105440547Y-54173000D01*
X105159453Y-54173000D01*
X104883759Y-54227838D01*
X104624062Y-54335409D01*
X104390340Y-54491576D01*
X104191576Y-54690340D01*
X104035409Y-54924062D01*
X103927838Y-55183759D01*
X103873000Y-55459453D01*
X103873000Y-55740547D01*
X103927838Y-56016241D01*
X104035409Y-56275938D01*
X104191576Y-56509660D01*
X104390340Y-56708424D01*
X104624062Y-56864591D01*
X104883759Y-56972162D01*
X105159453Y-57027000D01*
X105440547Y-57027000D01*
X105716241Y-56972162D01*
X105975938Y-56864591D01*
X106209660Y-56708424D01*
X106408424Y-56509660D01*
X106503746Y-56367000D01*
X107534156Y-56367000D01*
X106728157Y-57173000D01*
X106459453Y-57173000D01*
X106183759Y-57227838D01*
X105924062Y-57335409D01*
X105690340Y-57491576D01*
X105491576Y-57690340D01*
X105335409Y-57924062D01*
X105227838Y-58183759D01*
X105173000Y-58459453D01*
X105173000Y-58674157D01*
X103226413Y-56727570D01*
X103202080Y-56697920D01*
X103083766Y-56600823D01*
X102948784Y-56528673D01*
X102802319Y-56484243D01*
X102688166Y-56473000D01*
X102688163Y-56473000D01*
X102666789Y-56470895D01*
X102608647Y-56423179D01*
X102503264Y-56366850D01*
X102388917Y-56332163D01*
X102270000Y-56320451D01*
X100830000Y-56320451D01*
X100711083Y-56332163D01*
X100596736Y-56366850D01*
X100491353Y-56423179D01*
X100398984Y-56498984D01*
X100323179Y-56591353D01*
X100266850Y-56696736D01*
X100232163Y-56811083D01*
X100220451Y-56930000D01*
X100220451Y-57570000D01*
X100232163Y-57688917D01*
X100266850Y-57803264D01*
X100323179Y-57908647D01*
X100398984Y-58001016D01*
X100491353Y-58076821D01*
X100596736Y-58133150D01*
X100711083Y-58167837D01*
X100783812Y-58175000D01*
X100711083Y-58182163D01*
X100596736Y-58216850D01*
X100491353Y-58273179D01*
X100398984Y-58348984D01*
X100323179Y-58441353D01*
X100266850Y-58546736D01*
X100232163Y-58661083D01*
X100220451Y-58780000D01*
X100220451Y-59420000D01*
X100232163Y-59538917D01*
X100266850Y-59653264D01*
X100323179Y-59758647D01*
X100398984Y-59851016D01*
X100491353Y-59926821D01*
X100596736Y-59983150D01*
X100711083Y-60017837D01*
X100830000Y-60029549D01*
X101309995Y-60029549D01*
X101573001Y-60292555D01*
X101573001Y-60387647D01*
X101498658Y-60448658D01*
X101401761Y-60566728D01*
X101400000Y-60570023D01*
X101398239Y-60566728D01*
X101301342Y-60448658D01*
X101183272Y-60351761D01*
X101048567Y-60279760D01*
X100902404Y-60235422D01*
X100750400Y-60220451D01*
X100049600Y-60220451D01*
X99897596Y-60235422D01*
X99751433Y-60279760D01*
X99616728Y-60351761D01*
X99498658Y-60448658D01*
X99401761Y-60566728D01*
X99329760Y-60701433D01*
X99285422Y-60847596D01*
X99270451Y-60999600D01*
X99270451Y-62000400D01*
X99284760Y-62145686D01*
X98309996Y-63120451D01*
X97849600Y-63120451D01*
X97697596Y-63135422D01*
X97551433Y-63179760D01*
X97416728Y-63251761D01*
X97298658Y-63348658D01*
X97201761Y-63466728D01*
X97200000Y-63470023D01*
X97198239Y-63466728D01*
X97101342Y-63348658D01*
X96983272Y-63251761D01*
X96848567Y-63179760D01*
X96702404Y-63135422D01*
X96550400Y-63120451D01*
X95849600Y-63120451D01*
X95697596Y-63135422D01*
X95551433Y-63179760D01*
X95416728Y-63251761D01*
X95298658Y-63348658D01*
X95278681Y-63373000D01*
X93840610Y-63373000D01*
X93799999Y-63369000D01*
X93759388Y-63373000D01*
X93759376Y-63373000D01*
X93637880Y-63384966D01*
X93481990Y-63432255D01*
X93410531Y-63470451D01*
X92899600Y-63470451D01*
X92747596Y-63485422D01*
X92601433Y-63529760D01*
X92466728Y-63601761D01*
X92348658Y-63698658D01*
X92251761Y-63816728D01*
X92179760Y-63951433D01*
X92135422Y-64097596D01*
X92120451Y-64249600D01*
X92120451Y-64950400D01*
X92135422Y-65102404D01*
X92179760Y-65248567D01*
X92251761Y-65383272D01*
X92254758Y-65386924D01*
X92244146Y-65392596D01*
X92133446Y-65483446D01*
X92042596Y-65594146D01*
X91975089Y-65720443D01*
X91933519Y-65857483D01*
X91919482Y-66000000D01*
X91923000Y-66295250D01*
X92104750Y-66477000D01*
X93277000Y-66477000D01*
X93277000Y-66457000D01*
X93523000Y-66457000D01*
X93523000Y-66477000D01*
X94695250Y-66477000D01*
X94877000Y-66295250D01*
X94880518Y-66000000D01*
X94866481Y-65857483D01*
X94824911Y-65720443D01*
X94757404Y-65594146D01*
X94666554Y-65483446D01*
X94555854Y-65392596D01*
X94545242Y-65386924D01*
X94548239Y-65383272D01*
X94620240Y-65248567D01*
X94664578Y-65102404D01*
X94672005Y-65027000D01*
X95082920Y-65027000D01*
X95085422Y-65052404D01*
X95129760Y-65198567D01*
X95201761Y-65333272D01*
X95298658Y-65451342D01*
X95416728Y-65548239D01*
X95551433Y-65620240D01*
X95697596Y-65664578D01*
X95849600Y-65679549D01*
X96550400Y-65679549D01*
X96702404Y-65664578D01*
X96848567Y-65620240D01*
X96983272Y-65548239D01*
X97101342Y-65451342D01*
X97198239Y-65333272D01*
X97200000Y-65329977D01*
X97201761Y-65333272D01*
X97282794Y-65432011D01*
X97281990Y-65432255D01*
X97226942Y-65461679D01*
X97138319Y-65509049D01*
X97043947Y-65586498D01*
X97043941Y-65586504D01*
X97012394Y-65612394D01*
X96986503Y-65643942D01*
X95243948Y-67386499D01*
X95212395Y-67412394D01*
X95186500Y-67443947D01*
X95186498Y-67443949D01*
X95109048Y-67538321D01*
X95032256Y-67681990D01*
X94984967Y-67837880D01*
X94969233Y-67997635D01*
X94916554Y-67933446D01*
X94805854Y-67842596D01*
X94679557Y-67775089D01*
X94617987Y-67756412D01*
X94666554Y-67716554D01*
X94757404Y-67605854D01*
X94824911Y-67479557D01*
X94866481Y-67342517D01*
X94880518Y-67200000D01*
X94877000Y-66904750D01*
X94695250Y-66723000D01*
X93523000Y-66723000D01*
X93523000Y-66743000D01*
X93277000Y-66743000D01*
X93277000Y-66723000D01*
X92104750Y-66723000D01*
X91923000Y-66904750D01*
X91919482Y-67200000D01*
X91933519Y-67342517D01*
X91975089Y-67479557D01*
X92042596Y-67605854D01*
X92133446Y-67716554D01*
X92244146Y-67807404D01*
X92370443Y-67874911D01*
X92507483Y-67916481D01*
X92650000Y-67930518D01*
X92687374Y-67930223D01*
X92683446Y-67933446D01*
X92592596Y-68044146D01*
X92525089Y-68170443D01*
X92483519Y-68307483D01*
X92469482Y-68450000D01*
X92473000Y-68895250D01*
X92654750Y-69077000D01*
X93677000Y-69077000D01*
X93677000Y-69057000D01*
X93923000Y-69057000D01*
X93923000Y-69077000D01*
X93943000Y-69077000D01*
X93943000Y-69323000D01*
X93923000Y-69323000D01*
X93923000Y-70495250D01*
X94104750Y-70677000D01*
X94400000Y-70680518D01*
X94542517Y-70666481D01*
X94679557Y-70624911D01*
X94805854Y-70557404D01*
X94916554Y-70466554D01*
X95007404Y-70355854D01*
X95013076Y-70345242D01*
X95016728Y-70348239D01*
X95151433Y-70420240D01*
X95297596Y-70464578D01*
X95449600Y-70479549D01*
X96150400Y-70479549D01*
X96302404Y-70464578D01*
X96448567Y-70420240D01*
X96583272Y-70348239D01*
X96701342Y-70251342D01*
X96798239Y-70133272D01*
X96870240Y-69998567D01*
X96914578Y-69852404D01*
X96929549Y-69700400D01*
X96929549Y-68699600D01*
X96914578Y-68547596D01*
X96870240Y-68401433D01*
X96798239Y-68266728D01*
X96755231Y-68214322D01*
X97770451Y-67199104D01*
X97770451Y-67650000D01*
X97780626Y-67753310D01*
X97810761Y-67852650D01*
X97859696Y-67944202D01*
X97925552Y-68024448D01*
X98005798Y-68090304D01*
X98097350Y-68139239D01*
X98196690Y-68169374D01*
X98300000Y-68179549D01*
X99300000Y-68179549D01*
X99403310Y-68169374D01*
X99502650Y-68139239D01*
X99594202Y-68090304D01*
X99674448Y-68024448D01*
X99713387Y-67977000D01*
X99807447Y-67977000D01*
X101020451Y-69190005D01*
X101020451Y-69850000D01*
X101030626Y-69953310D01*
X101060761Y-70052650D01*
X101109696Y-70144202D01*
X101175552Y-70224448D01*
X101255798Y-70290304D01*
X101347350Y-70339239D01*
X101446690Y-70369374D01*
X101550000Y-70379549D01*
X104150000Y-70379549D01*
X104253310Y-70369374D01*
X104352650Y-70339239D01*
X104375548Y-70327000D01*
X109624452Y-70327000D01*
X109647350Y-70339239D01*
X109746690Y-70369374D01*
X109850000Y-70379549D01*
X112450000Y-70379549D01*
X112553310Y-70369374D01*
X112652650Y-70339239D01*
X112744202Y-70290304D01*
X112824448Y-70224448D01*
X112890304Y-70144202D01*
X112939239Y-70052650D01*
X112969374Y-69953310D01*
X112979549Y-69850000D01*
X112979549Y-67850000D01*
X112969374Y-67746690D01*
X112939239Y-67647350D01*
X112890304Y-67555798D01*
X112824448Y-67475552D01*
X112744202Y-67409696D01*
X112652650Y-67360761D01*
X112553310Y-67330626D01*
X112450000Y-67320451D01*
X109850000Y-67320451D01*
X109746690Y-67330626D01*
X109647350Y-67360761D01*
X109624452Y-67373000D01*
X104375548Y-67373000D01*
X104352650Y-67360761D01*
X104253310Y-67330626D01*
X104150000Y-67320451D01*
X101550000Y-67320451D01*
X101495384Y-67325830D01*
X100763505Y-66593952D01*
X100737606Y-66562394D01*
X100611679Y-66459048D01*
X100468010Y-66382255D01*
X100312120Y-66334966D01*
X100190624Y-66323000D01*
X100190614Y-66323000D01*
X100150000Y-66319000D01*
X100109386Y-66323000D01*
X99713387Y-66323000D01*
X99674448Y-66275552D01*
X99627000Y-66236613D01*
X99627000Y-66040614D01*
X99631000Y-66000000D01*
X99627000Y-65959386D01*
X99627000Y-65040613D01*
X99631000Y-64999999D01*
X99627000Y-64959385D01*
X99627000Y-64959376D01*
X99615034Y-64837880D01*
X99567745Y-64681990D01*
X99544450Y-64638407D01*
X99490952Y-64538319D01*
X99413502Y-64443948D01*
X99413501Y-64443947D01*
X99387606Y-64412394D01*
X99370883Y-64398670D01*
X100956053Y-62813501D01*
X100987606Y-62787606D01*
X101013502Y-62756052D01*
X101041012Y-62722532D01*
X101048567Y-62720240D01*
X101183272Y-62648239D01*
X101301342Y-62551342D01*
X101398239Y-62433272D01*
X101400000Y-62429977D01*
X101401761Y-62433272D01*
X101498658Y-62551342D01*
X101616728Y-62648239D01*
X101751433Y-62720240D01*
X101897596Y-62764578D01*
X102049600Y-62779549D01*
X102750400Y-62779549D01*
X102902404Y-62764578D01*
X103048567Y-62720240D01*
X103183272Y-62648239D01*
X103301342Y-62551342D01*
X103398239Y-62433272D01*
X103470240Y-62298567D01*
X103514578Y-62152404D01*
X103529549Y-62000400D01*
X103529549Y-60999600D01*
X103514578Y-60847596D01*
X103470240Y-60701433D01*
X103398239Y-60566728D01*
X103301342Y-60448658D01*
X103227000Y-60387647D01*
X103227000Y-59990614D01*
X103231000Y-59950000D01*
X103227000Y-59909386D01*
X103227000Y-59909376D01*
X103215034Y-59787880D01*
X103175044Y-59656051D01*
X103167745Y-59631989D01*
X103090952Y-59488320D01*
X103013503Y-59393948D01*
X103013496Y-59393941D01*
X102987606Y-59362394D01*
X102956058Y-59336503D01*
X102879549Y-59259994D01*
X102879549Y-58780000D01*
X102867837Y-58661083D01*
X102833150Y-58546736D01*
X102816221Y-58515064D01*
X106423592Y-62122436D01*
X106447920Y-62152080D01*
X106477564Y-62176408D01*
X106477565Y-62176409D01*
X106566233Y-62249177D01*
X106689443Y-62315034D01*
X106701216Y-62321327D01*
X106847681Y-62365757D01*
X106961834Y-62377000D01*
X106961836Y-62377000D01*
X107000000Y-62380759D01*
X107038163Y-62377000D01*
X107720481Y-62377000D01*
X107750823Y-62433766D01*
X107786304Y-62477000D01*
X107847920Y-62552080D01*
X107877569Y-62576412D01*
X108174157Y-62873000D01*
X104375548Y-62873000D01*
X104352650Y-62860761D01*
X104253310Y-62830626D01*
X104150000Y-62820451D01*
X101550000Y-62820451D01*
X101446690Y-62830626D01*
X101347350Y-62860761D01*
X101255798Y-62909696D01*
X101175552Y-62975552D01*
X101109696Y-63055798D01*
X101060761Y-63147350D01*
X101030626Y-63246690D01*
X101020451Y-63350000D01*
X101020451Y-65350000D01*
X101030626Y-65453310D01*
X101060761Y-65552650D01*
X101109696Y-65644202D01*
X101175552Y-65724448D01*
X101255798Y-65790304D01*
X101347350Y-65839239D01*
X101446690Y-65869374D01*
X101550000Y-65879549D01*
X104150000Y-65879549D01*
X104253310Y-65869374D01*
X104352650Y-65839239D01*
X104375548Y-65827000D01*
X109624452Y-65827000D01*
X109647350Y-65839239D01*
X109746690Y-65869374D01*
X109850000Y-65879549D01*
X112380706Y-65879549D01*
X113281566Y-66780410D01*
X113251761Y-66816728D01*
X113179760Y-66951433D01*
X113135422Y-67097596D01*
X113120451Y-67249600D01*
X113120451Y-67950400D01*
X113135422Y-68102404D01*
X113179760Y-68248567D01*
X113251761Y-68383272D01*
X113348658Y-68501342D01*
X113466728Y-68598239D01*
X113470023Y-68600000D01*
X113466728Y-68601761D01*
X113348658Y-68698658D01*
X113251761Y-68816728D01*
X113179760Y-68951433D01*
X113135422Y-69097596D01*
X113120451Y-69249600D01*
X113120451Y-69950400D01*
X113135422Y-70102404D01*
X113179760Y-70248567D01*
X113251761Y-70383272D01*
X113348658Y-70501342D01*
X113466728Y-70598239D01*
X113601433Y-70670240D01*
X113747596Y-70714578D01*
X113899600Y-70729549D01*
X114759995Y-70729549D01*
X115273000Y-71242555D01*
X115273000Y-71683888D01*
X115212459Y-71634203D01*
X114947184Y-71492410D01*
X114659343Y-71405095D01*
X114360000Y-71375612D01*
X114060656Y-71405095D01*
X113772815Y-71492410D01*
X113507540Y-71634203D01*
X113275024Y-71825024D01*
X113090000Y-72050477D01*
X112904976Y-71825024D01*
X112672459Y-71634203D01*
X112407184Y-71492410D01*
X112119343Y-71405095D01*
X111820000Y-71375612D01*
X111520656Y-71405095D01*
X111232815Y-71492410D01*
X110967540Y-71634203D01*
X110735024Y-71825024D01*
X110550000Y-72050477D01*
X110364976Y-71825024D01*
X110132459Y-71634203D01*
X109867184Y-71492410D01*
X109579343Y-71405095D01*
X109280000Y-71375612D01*
X108980656Y-71405095D01*
X108692815Y-71492410D01*
X108427540Y-71634203D01*
X108195024Y-71825024D01*
X108010000Y-72050477D01*
X107824976Y-71825024D01*
X107592459Y-71634203D01*
X107327184Y-71492410D01*
X107039343Y-71405095D01*
X106740000Y-71375612D01*
X106440656Y-71405095D01*
X106152815Y-71492410D01*
X105887540Y-71634203D01*
X105655024Y-71825024D01*
X105470000Y-72050477D01*
X105284976Y-71825024D01*
X105052459Y-71634203D01*
X104787184Y-71492410D01*
X104499343Y-71405095D01*
X104200000Y-71375612D01*
X103900656Y-71405095D01*
X103612815Y-71492410D01*
X103347540Y-71634203D01*
X103115024Y-71825024D01*
X102930000Y-72050477D01*
X102744976Y-71825024D01*
X102512459Y-71634203D01*
X102247184Y-71492410D01*
X101959343Y-71405095D01*
X101660000Y-71375612D01*
X101360656Y-71405095D01*
X101072815Y-71492410D01*
X100807540Y-71634203D01*
X100575024Y-71825024D01*
X100390000Y-72050477D01*
X100204976Y-71825024D01*
X99972459Y-71634203D01*
X99827000Y-71556453D01*
X99827000Y-70175881D01*
X99829549Y-70150000D01*
X99829549Y-69150000D01*
X99819374Y-69046690D01*
X99789239Y-68947350D01*
X99740304Y-68855798D01*
X99674448Y-68775552D01*
X99594202Y-68709696D01*
X99502650Y-68660761D01*
X99403310Y-68630626D01*
X99300000Y-68620451D01*
X98300000Y-68620451D01*
X98196690Y-68630626D01*
X98097350Y-68660761D01*
X98005798Y-68709696D01*
X97925552Y-68775552D01*
X97859696Y-68855798D01*
X97810761Y-68947350D01*
X97780626Y-69046690D01*
X97770451Y-69150000D01*
X97770451Y-70150000D01*
X97780626Y-70253310D01*
X97810761Y-70352650D01*
X97859696Y-70444202D01*
X97925552Y-70524448D01*
X98005798Y-70590304D01*
X98097350Y-70639239D01*
X98173000Y-70662188D01*
X98173001Y-71711789D01*
X98035024Y-71825024D01*
X97850000Y-72050477D01*
X97664976Y-71825024D01*
X97432459Y-71634203D01*
X97167184Y-71492410D01*
X96879343Y-71405095D01*
X96580000Y-71375612D01*
X96280656Y-71405095D01*
X95992815Y-71492410D01*
X95727540Y-71634203D01*
X95495024Y-71825024D01*
X95310000Y-72050477D01*
X95124976Y-71825024D01*
X94892459Y-71634203D01*
X94627184Y-71492410D01*
X94339343Y-71405095D01*
X94040000Y-71375612D01*
X93740656Y-71405095D01*
X93452815Y-71492410D01*
X93187540Y-71634203D01*
X92955024Y-71825024D01*
X92770000Y-72050477D01*
X92584976Y-71825024D01*
X92352459Y-71634203D01*
X92087184Y-71492410D01*
X91799343Y-71405095D01*
X91500000Y-71375612D01*
X91200656Y-71405095D01*
X90912815Y-71492410D01*
X90647540Y-71634203D01*
X90415024Y-71825024D01*
X90230000Y-72050477D01*
X90044976Y-71825024D01*
X89812459Y-71634203D01*
X89547184Y-71492410D01*
X89259343Y-71405095D01*
X88960000Y-71375612D01*
X88660656Y-71405095D01*
X88372815Y-71492410D01*
X88107540Y-71634203D01*
X87875024Y-71825024D01*
X87690000Y-72050477D01*
X87504976Y-71825024D01*
X87272459Y-71634203D01*
X87007184Y-71492410D01*
X86719343Y-71405095D01*
X86420000Y-71375612D01*
X86120656Y-71405095D01*
X85832815Y-71492410D01*
X85567540Y-71634203D01*
X85335024Y-71825024D01*
X85150000Y-72050477D01*
X84964976Y-71825024D01*
X84732459Y-71634203D01*
X84467184Y-71492410D01*
X84179343Y-71405095D01*
X83880000Y-71375612D01*
X83580656Y-71405095D01*
X83292815Y-71492410D01*
X83027540Y-71634203D01*
X82795024Y-71825024D01*
X82737285Y-71895379D01*
X82707613Y-71848259D01*
X82474199Y-71601852D01*
X82197199Y-71405716D01*
X81887257Y-71267389D01*
X81730962Y-71227836D01*
X81463000Y-71369653D01*
X81217000Y-71369653D01*
X80949038Y-71227836D01*
X80792743Y-71267389D01*
X80482801Y-71405716D01*
X80205801Y-71601852D01*
X79972387Y-71848259D01*
X79942715Y-71895379D01*
X79884976Y-71825024D01*
X79652459Y-71634203D01*
X79387184Y-71492410D01*
X79099343Y-71405095D01*
X78800000Y-71375612D01*
X78500656Y-71405095D01*
X78212815Y-71492410D01*
X77947540Y-71634203D01*
X77715024Y-71825024D01*
X77524203Y-72057541D01*
X77382410Y-72322816D01*
X77295095Y-72610657D01*
X77273000Y-72834990D01*
X75077000Y-72834990D01*
X75077000Y-68449604D01*
X76073000Y-68449604D01*
X76073000Y-68750396D01*
X76131681Y-69045410D01*
X76246790Y-69323306D01*
X76413901Y-69573406D01*
X76626594Y-69786099D01*
X76876694Y-69953210D01*
X77154590Y-70068319D01*
X77449604Y-70127000D01*
X77750396Y-70127000D01*
X78045410Y-70068319D01*
X78323306Y-69953210D01*
X78328110Y-69950000D01*
X92469482Y-69950000D01*
X92483519Y-70092517D01*
X92525089Y-70229557D01*
X92592596Y-70355854D01*
X92683446Y-70466554D01*
X92794146Y-70557404D01*
X92920443Y-70624911D01*
X93057483Y-70666481D01*
X93200000Y-70680518D01*
X93495250Y-70677000D01*
X93677000Y-70495250D01*
X93677000Y-69323000D01*
X92654750Y-69323000D01*
X92473000Y-69504750D01*
X92469482Y-69950000D01*
X78328110Y-69950000D01*
X78573406Y-69786099D01*
X78786099Y-69573406D01*
X78953210Y-69323306D01*
X79068319Y-69045410D01*
X79127000Y-68750396D01*
X79127000Y-68449604D01*
X79068319Y-68154590D01*
X79045707Y-68100000D01*
X81569482Y-68100000D01*
X81583519Y-68242517D01*
X81625089Y-68379557D01*
X81692596Y-68505854D01*
X81783446Y-68616554D01*
X81894146Y-68707404D01*
X82020443Y-68774911D01*
X82157483Y-68816481D01*
X82300000Y-68830518D01*
X83745250Y-68827000D01*
X83927000Y-68645250D01*
X83927000Y-67773000D01*
X86673000Y-67773000D01*
X86673000Y-68645250D01*
X86854750Y-68827000D01*
X88300000Y-68830518D01*
X88442517Y-68816481D01*
X88579557Y-68774911D01*
X88705854Y-68707404D01*
X88816554Y-68616554D01*
X88907404Y-68505854D01*
X88974911Y-68379557D01*
X89016481Y-68242517D01*
X89030518Y-68100000D01*
X89027000Y-67954750D01*
X88845250Y-67773000D01*
X86673000Y-67773000D01*
X83927000Y-67773000D01*
X81754750Y-67773000D01*
X81573000Y-67954750D01*
X81569482Y-68100000D01*
X79045707Y-68100000D01*
X78953210Y-67876694D01*
X78786099Y-67626594D01*
X78573406Y-67413901D01*
X78323306Y-67246790D01*
X78045410Y-67131681D01*
X77750396Y-67073000D01*
X77449604Y-67073000D01*
X77154590Y-67131681D01*
X76876694Y-67246790D01*
X76626594Y-67413901D01*
X76413901Y-67626594D01*
X76246790Y-67876694D01*
X76131681Y-68154590D01*
X76073000Y-68449604D01*
X75077000Y-68449604D01*
X75077000Y-64700000D01*
X81569482Y-64700000D01*
X81573000Y-64845250D01*
X81754750Y-65027000D01*
X83927000Y-65027000D01*
X83927000Y-64154750D01*
X86673000Y-64154750D01*
X86673000Y-65027000D01*
X88845250Y-65027000D01*
X89027000Y-64845250D01*
X89030518Y-64700000D01*
X89016481Y-64557483D01*
X88974911Y-64420443D01*
X88907404Y-64294146D01*
X88816554Y-64183446D01*
X88705854Y-64092596D01*
X88579557Y-64025089D01*
X88442517Y-63983519D01*
X88300000Y-63969482D01*
X86854750Y-63973000D01*
X86673000Y-64154750D01*
X83927000Y-64154750D01*
X83745250Y-63973000D01*
X82300000Y-63969482D01*
X82157483Y-63983519D01*
X82020443Y-64025089D01*
X81894146Y-64092596D01*
X81783446Y-64183446D01*
X81692596Y-64294146D01*
X81625089Y-64420443D01*
X81583519Y-64557483D01*
X81569482Y-64700000D01*
X75077000Y-64700000D01*
X75077000Y-62800000D01*
X85719482Y-62800000D01*
X85733519Y-62942517D01*
X85775089Y-63079557D01*
X85842596Y-63205854D01*
X85933446Y-63316554D01*
X86044146Y-63407404D01*
X86170443Y-63474911D01*
X86307483Y-63516481D01*
X86450000Y-63530518D01*
X87595250Y-63527000D01*
X87777000Y-63345250D01*
X87777000Y-62573000D01*
X88323000Y-62573000D01*
X88323000Y-63345250D01*
X88504750Y-63527000D01*
X89650000Y-63530518D01*
X89792517Y-63516481D01*
X89929557Y-63474911D01*
X90055854Y-63407404D01*
X90166554Y-63316554D01*
X90257404Y-63205854D01*
X90324911Y-63079557D01*
X90366481Y-62942517D01*
X90380518Y-62800000D01*
X90377000Y-62754750D01*
X90195250Y-62573000D01*
X88323000Y-62573000D01*
X87777000Y-62573000D01*
X85904750Y-62573000D01*
X85723000Y-62754750D01*
X85719482Y-62800000D01*
X75077000Y-62800000D01*
X75077000Y-61184076D01*
X82823000Y-61184076D01*
X82823000Y-61415924D01*
X82868231Y-61643318D01*
X82956956Y-61857519D01*
X83085764Y-62050294D01*
X83249706Y-62214236D01*
X83442481Y-62343044D01*
X83656682Y-62431769D01*
X83884076Y-62477000D01*
X84115924Y-62477000D01*
X84343318Y-62431769D01*
X84557519Y-62343044D01*
X84750294Y-62214236D01*
X84914236Y-62050294D01*
X85043044Y-61857519D01*
X85066869Y-61800000D01*
X85719482Y-61800000D01*
X85723000Y-61845250D01*
X85904750Y-62027000D01*
X87777000Y-62027000D01*
X87777000Y-61254750D01*
X88323000Y-61254750D01*
X88323000Y-62027000D01*
X90195250Y-62027000D01*
X90377000Y-61845250D01*
X90380518Y-61800000D01*
X90366481Y-61657483D01*
X90324911Y-61520443D01*
X90257404Y-61394146D01*
X90166554Y-61283446D01*
X90055854Y-61192596D01*
X89929557Y-61125089D01*
X89792517Y-61083519D01*
X89650000Y-61069482D01*
X88504750Y-61073000D01*
X88323000Y-61254750D01*
X87777000Y-61254750D01*
X87595250Y-61073000D01*
X86450000Y-61069482D01*
X86307483Y-61083519D01*
X86170443Y-61125089D01*
X86044146Y-61192596D01*
X85933446Y-61283446D01*
X85842596Y-61394146D01*
X85775089Y-61520443D01*
X85733519Y-61657483D01*
X85719482Y-61800000D01*
X85066869Y-61800000D01*
X85131769Y-61643318D01*
X85177000Y-61415924D01*
X85177000Y-61184076D01*
X85131769Y-60956682D01*
X85043044Y-60742481D01*
X84914236Y-60549706D01*
X84750294Y-60385764D01*
X84557519Y-60256956D01*
X84343318Y-60168231D01*
X84115924Y-60123000D01*
X83884076Y-60123000D01*
X83656682Y-60168231D01*
X83442481Y-60256956D01*
X83249706Y-60385764D01*
X83085764Y-60549706D01*
X82956956Y-60742481D01*
X82868231Y-60956682D01*
X82823000Y-61184076D01*
X75077000Y-61184076D01*
X75077000Y-56184076D01*
X82823000Y-56184076D01*
X82823000Y-56415924D01*
X82868231Y-56643318D01*
X82956956Y-56857519D01*
X83085764Y-57050294D01*
X83249706Y-57214236D01*
X83442481Y-57343044D01*
X83656682Y-57431769D01*
X83884076Y-57477000D01*
X84115924Y-57477000D01*
X84343318Y-57431769D01*
X84516583Y-57360000D01*
X85920451Y-57360000D01*
X85920451Y-58240000D01*
X85931779Y-58355015D01*
X85965328Y-58465611D01*
X86019808Y-58567536D01*
X86093126Y-58656874D01*
X86182464Y-58730192D01*
X86284389Y-58784672D01*
X86334919Y-58800000D01*
X86284389Y-58815328D01*
X86182464Y-58869808D01*
X86093126Y-58943126D01*
X86019808Y-59032464D01*
X85965328Y-59134389D01*
X85931779Y-59244985D01*
X85920451Y-59360000D01*
X85920451Y-60240000D01*
X85931779Y-60355015D01*
X85965328Y-60465611D01*
X86019808Y-60567536D01*
X86093126Y-60656874D01*
X86182464Y-60730192D01*
X86284389Y-60784672D01*
X86394985Y-60818221D01*
X86510000Y-60829549D01*
X89590000Y-60829549D01*
X89705015Y-60818221D01*
X89815611Y-60784672D01*
X89829964Y-60777000D01*
X90995314Y-60777000D01*
X91626170Y-61407856D01*
X91627838Y-61416241D01*
X91735409Y-61675938D01*
X91891576Y-61909660D01*
X92090340Y-62108424D01*
X92324062Y-62264591D01*
X92583759Y-62372162D01*
X92859453Y-62427000D01*
X93140547Y-62427000D01*
X93416241Y-62372162D01*
X93675938Y-62264591D01*
X93909660Y-62108424D01*
X94108424Y-61909660D01*
X94264591Y-61675938D01*
X94372162Y-61416241D01*
X94427000Y-61140547D01*
X94427000Y-60859453D01*
X94372162Y-60583759D01*
X94264591Y-60324062D01*
X94108424Y-60090340D01*
X93909660Y-59891576D01*
X93675938Y-59735409D01*
X93416241Y-59627838D01*
X93140547Y-59573000D01*
X92859453Y-59573000D01*
X92605249Y-59623563D01*
X92124784Y-59143098D01*
X92094186Y-59105814D01*
X91945418Y-58983724D01*
X91775691Y-58893003D01*
X91591525Y-58837137D01*
X91447993Y-58823000D01*
X91400000Y-58818273D01*
X91352007Y-58823000D01*
X89829964Y-58823000D01*
X89815611Y-58815328D01*
X89765081Y-58800000D01*
X89815611Y-58784672D01*
X89829964Y-58777000D01*
X91958916Y-58777000D01*
X92090340Y-58908424D01*
X92324062Y-59064591D01*
X92583759Y-59172162D01*
X92859453Y-59227000D01*
X93140547Y-59227000D01*
X93416241Y-59172162D01*
X93675938Y-59064591D01*
X93909660Y-58908424D01*
X94108424Y-58709660D01*
X94264591Y-58475938D01*
X94372162Y-58216241D01*
X94427000Y-57940547D01*
X94427000Y-57659453D01*
X94372162Y-57383759D01*
X94264591Y-57124062D01*
X94108424Y-56890340D01*
X93909660Y-56691576D01*
X93675938Y-56535409D01*
X93416241Y-56427838D01*
X93140547Y-56373000D01*
X92859453Y-56373000D01*
X92583759Y-56427838D01*
X92324062Y-56535409D01*
X92090340Y-56691576D01*
X91958916Y-56823000D01*
X89829964Y-56823000D01*
X89815611Y-56815328D01*
X89705015Y-56781779D01*
X89590000Y-56770451D01*
X86510000Y-56770451D01*
X86394985Y-56781779D01*
X86284389Y-56815328D01*
X86182464Y-56869808D01*
X86093126Y-56943126D01*
X86019808Y-57032464D01*
X85965328Y-57134389D01*
X85931779Y-57244985D01*
X85920451Y-57360000D01*
X84516583Y-57360000D01*
X84557519Y-57343044D01*
X84750294Y-57214236D01*
X84914236Y-57050294D01*
X85043044Y-56857519D01*
X85131769Y-56643318D01*
X85177000Y-56415924D01*
X85177000Y-56184076D01*
X85131769Y-55956682D01*
X85043044Y-55742481D01*
X84914236Y-55549706D01*
X84750294Y-55385764D01*
X84557519Y-55256956D01*
X84343318Y-55168231D01*
X84115924Y-55123000D01*
X83884076Y-55123000D01*
X83656682Y-55168231D01*
X83442481Y-55256956D01*
X83249706Y-55385764D01*
X83085764Y-55549706D01*
X82956956Y-55742481D01*
X82868231Y-55956682D01*
X82823000Y-56184076D01*
X75077000Y-56184076D01*
X75077000Y-54860000D01*
X85920451Y-54860000D01*
X85920451Y-55740000D01*
X85931779Y-55855015D01*
X85965328Y-55965611D01*
X86019808Y-56067536D01*
X86093126Y-56156874D01*
X86182464Y-56230192D01*
X86284389Y-56284672D01*
X86394985Y-56318221D01*
X86510000Y-56329549D01*
X89590000Y-56329549D01*
X89705015Y-56318221D01*
X89815611Y-56284672D01*
X89917536Y-56230192D01*
X89921425Y-56227000D01*
X93516025Y-56227000D01*
X96112312Y-58823287D01*
X96141341Y-58858659D01*
X96176712Y-58887687D01*
X96282494Y-58974501D01*
X96360584Y-59016241D01*
X96443536Y-59060580D01*
X96618276Y-59113587D01*
X96754462Y-59127000D01*
X96754474Y-59127000D01*
X96799999Y-59131484D01*
X96845524Y-59127000D01*
X98104119Y-59127000D01*
X98130000Y-59129549D01*
X99570000Y-59129549D01*
X99688917Y-59117837D01*
X99803264Y-59083150D01*
X99908647Y-59026821D01*
X100001016Y-58951016D01*
X100076821Y-58858647D01*
X100133150Y-58753264D01*
X100167837Y-58638917D01*
X100179549Y-58520000D01*
X100179549Y-57880000D01*
X100167837Y-57761083D01*
X100133150Y-57646736D01*
X100076821Y-57541353D01*
X100001016Y-57448984D01*
X99908647Y-57373179D01*
X99803264Y-57316850D01*
X99688917Y-57282163D01*
X99570000Y-57270451D01*
X98130000Y-57270451D01*
X98104119Y-57273000D01*
X97183975Y-57273000D01*
X95240264Y-55329289D01*
X96021428Y-54548126D01*
X96032551Y-54554072D01*
X96218558Y-54610497D01*
X96412000Y-54629549D01*
X97588000Y-54629549D01*
X97781442Y-54610497D01*
X97967449Y-54554072D01*
X98138875Y-54462443D01*
X98289131Y-54339131D01*
X98412443Y-54188875D01*
X98421420Y-54172080D01*
X98659628Y-54367572D01*
X98933589Y-54514007D01*
X99230855Y-54604182D01*
X99540000Y-54634630D01*
X99849146Y-54604182D01*
X100146412Y-54514007D01*
X100420373Y-54367572D01*
X100660503Y-54170503D01*
X100857572Y-53930373D01*
X101004007Y-53656412D01*
X101094182Y-53359146D01*
X101107197Y-53227000D01*
X101944958Y-53227000D01*
X102001761Y-53333272D01*
X102098658Y-53451342D01*
X102216728Y-53548239D01*
X102351433Y-53620240D01*
X102497596Y-53664578D01*
X102649600Y-53679549D01*
X103350400Y-53679549D01*
X103502404Y-53664578D01*
X103648567Y-53620240D01*
X103783272Y-53548239D01*
X103786924Y-53545242D01*
X103792596Y-53555854D01*
X103883446Y-53666554D01*
X103994146Y-53757404D01*
X104120443Y-53824911D01*
X104257483Y-53866481D01*
X104400000Y-53880518D01*
X104695250Y-53877000D01*
X104877000Y-53695250D01*
X104877000Y-52523000D01*
X105123000Y-52523000D01*
X105123000Y-53695250D01*
X105304750Y-53877000D01*
X105600000Y-53880518D01*
X105742517Y-53866481D01*
X105879557Y-53824911D01*
X106005854Y-53757404D01*
X106081588Y-53695250D01*
X108823000Y-53695250D01*
X109004750Y-53877000D01*
X111177000Y-53877000D01*
X111177000Y-53204750D01*
X110995250Y-53023000D01*
X109559461Y-53019543D01*
X109416774Y-53031733D01*
X109279207Y-53071525D01*
X109152047Y-53137391D01*
X109040179Y-53226799D01*
X108947904Y-53336313D01*
X108878767Y-53461725D01*
X108835425Y-53598216D01*
X108823000Y-53695250D01*
X106081588Y-53695250D01*
X106116554Y-53666554D01*
X106207404Y-53555854D01*
X106274911Y-53429557D01*
X106316481Y-53292517D01*
X106330518Y-53150000D01*
X106327000Y-52704750D01*
X106145250Y-52523000D01*
X105123000Y-52523000D01*
X104877000Y-52523000D01*
X104857000Y-52523000D01*
X104857000Y-52277000D01*
X104877000Y-52277000D01*
X104877000Y-51104750D01*
X105123000Y-51104750D01*
X105123000Y-52277000D01*
X106145250Y-52277000D01*
X106167500Y-52254750D01*
X109823000Y-52254750D01*
X109836039Y-52354651D01*
X109879929Y-52490966D01*
X109949569Y-52616100D01*
X110042283Y-52725243D01*
X110154508Y-52814201D01*
X110281932Y-52879556D01*
X110419658Y-52918796D01*
X110495250Y-52927000D01*
X110677000Y-52745250D01*
X110677000Y-52073000D01*
X112923000Y-52073000D01*
X112923000Y-52745250D01*
X113104750Y-52927000D01*
X113180342Y-52918796D01*
X113318068Y-52879556D01*
X113445492Y-52814201D01*
X113557717Y-52725243D01*
X113650431Y-52616100D01*
X113720071Y-52490966D01*
X113763961Y-52354651D01*
X113777000Y-52254750D01*
X115323000Y-52254750D01*
X115336039Y-52354651D01*
X115379929Y-52490966D01*
X115449569Y-52616100D01*
X115542283Y-52725243D01*
X115654508Y-52814201D01*
X115781932Y-52879556D01*
X115919658Y-52918796D01*
X115995250Y-52927000D01*
X116177000Y-52745250D01*
X116177000Y-52073000D01*
X115504750Y-52073000D01*
X115323000Y-52254750D01*
X113777000Y-52254750D01*
X113595250Y-52073000D01*
X112923000Y-52073000D01*
X110677000Y-52073000D01*
X110004750Y-52073000D01*
X109823000Y-52254750D01*
X106167500Y-52254750D01*
X106327000Y-52095250D01*
X106330518Y-51650000D01*
X106316481Y-51507483D01*
X106274911Y-51370443D01*
X106207404Y-51244146D01*
X106116554Y-51133446D01*
X106005854Y-51042596D01*
X105879557Y-50975089D01*
X105742517Y-50933519D01*
X105600000Y-50919482D01*
X105304750Y-50923000D01*
X105123000Y-51104750D01*
X104877000Y-51104750D01*
X104695250Y-50923000D01*
X104400000Y-50919482D01*
X104257483Y-50933519D01*
X104120443Y-50975089D01*
X103994146Y-51042596D01*
X103883446Y-51133446D01*
X103792596Y-51244146D01*
X103786924Y-51254758D01*
X103783272Y-51251761D01*
X103648567Y-51179760D01*
X103502404Y-51135422D01*
X103350400Y-51120451D01*
X102649600Y-51120451D01*
X102497596Y-51135422D01*
X102351433Y-51179760D01*
X102216728Y-51251761D01*
X102098658Y-51348658D01*
X102001761Y-51466728D01*
X101944958Y-51573000D01*
X101012929Y-51573000D01*
X101004007Y-51543588D01*
X100857572Y-51269627D01*
X100660503Y-51029497D01*
X100420372Y-50832428D01*
X100146411Y-50685993D01*
X99849145Y-50595818D01*
X99540000Y-50565370D01*
X99230854Y-50595818D01*
X98933588Y-50685993D01*
X98659627Y-50832428D01*
X98421420Y-51027919D01*
X98412443Y-51011125D01*
X98289131Y-50860869D01*
X98138875Y-50737557D01*
X97967449Y-50645928D01*
X97781442Y-50589503D01*
X97588000Y-50570451D01*
X96412000Y-50570451D01*
X96218558Y-50589503D01*
X96032551Y-50645928D01*
X95861125Y-50737557D01*
X95710869Y-50860869D01*
X95587557Y-51011125D01*
X95495928Y-51182551D01*
X95439503Y-51368558D01*
X95420451Y-51562000D01*
X95420451Y-52809995D01*
X93857772Y-54372675D01*
X93854473Y-54373000D01*
X89921425Y-54373000D01*
X89917536Y-54369808D01*
X89815611Y-54315328D01*
X89705015Y-54281779D01*
X89590000Y-54270451D01*
X86510000Y-54270451D01*
X86394985Y-54281779D01*
X86284389Y-54315328D01*
X86182464Y-54369808D01*
X86093126Y-54443126D01*
X86019808Y-54532464D01*
X85965328Y-54634389D01*
X85931779Y-54744985D01*
X85920451Y-54860000D01*
X75077000Y-54860000D01*
X75077000Y-52900000D01*
X81569482Y-52900000D01*
X81583519Y-53042517D01*
X81625089Y-53179557D01*
X81692596Y-53305854D01*
X81783446Y-53416554D01*
X81894146Y-53507404D01*
X82020443Y-53574911D01*
X82157483Y-53616481D01*
X82300000Y-53630518D01*
X83745250Y-53627000D01*
X83927000Y-53445250D01*
X83927000Y-52573000D01*
X86673000Y-52573000D01*
X86673000Y-53445250D01*
X86854750Y-53627000D01*
X88300000Y-53630518D01*
X88442517Y-53616481D01*
X88579557Y-53574911D01*
X88705854Y-53507404D01*
X88816554Y-53416554D01*
X88907404Y-53305854D01*
X88974911Y-53179557D01*
X89016481Y-53042517D01*
X89030518Y-52900000D01*
X89027000Y-52754750D01*
X88845250Y-52573000D01*
X86673000Y-52573000D01*
X83927000Y-52573000D01*
X81754750Y-52573000D01*
X81573000Y-52754750D01*
X81569482Y-52900000D01*
X75077000Y-52900000D01*
X75077000Y-50145250D01*
X109823000Y-50145250D01*
X110004750Y-50327000D01*
X110677000Y-50327000D01*
X110677000Y-49654750D01*
X112923000Y-49654750D01*
X112923000Y-50327000D01*
X113595250Y-50327000D01*
X113777000Y-50145250D01*
X115323000Y-50145250D01*
X115504750Y-50327000D01*
X116177000Y-50327000D01*
X116177000Y-49654750D01*
X115995250Y-49473000D01*
X115919658Y-49481204D01*
X115781932Y-49520444D01*
X115654508Y-49585799D01*
X115542283Y-49674757D01*
X115449569Y-49783900D01*
X115379929Y-49909034D01*
X115336039Y-50045349D01*
X115323000Y-50145250D01*
X113777000Y-50145250D01*
X113763961Y-50045349D01*
X113720071Y-49909034D01*
X113650431Y-49783900D01*
X113557717Y-49674757D01*
X113445492Y-49585799D01*
X113318068Y-49520444D01*
X113180342Y-49481204D01*
X113104750Y-49473000D01*
X112923000Y-49654750D01*
X110677000Y-49654750D01*
X110495250Y-49473000D01*
X110419658Y-49481204D01*
X110281932Y-49520444D01*
X110154508Y-49585799D01*
X110042283Y-49674757D01*
X109949569Y-49783900D01*
X109879929Y-49909034D01*
X109836039Y-50045349D01*
X109823000Y-50145250D01*
X75077000Y-50145250D01*
X75077000Y-49377000D01*
X81581597Y-49377000D01*
X81569482Y-49500000D01*
%TA.AperFunction,Conductor*%
D28*
G36*
X81569482Y-49500000D02*
G01*
X81573000Y-49645250D01*
X81754750Y-49827000D01*
X83927000Y-49827000D01*
X83927000Y-49807000D01*
X86673000Y-49807000D01*
X86673000Y-49827000D01*
X88845250Y-49827000D01*
X89027000Y-49645250D01*
X89030518Y-49500000D01*
X89018403Y-49377000D01*
X119023000Y-49377000D01*
X119023000Y-49647238D01*
X118945492Y-49585799D01*
X118818068Y-49520444D01*
X118680342Y-49481204D01*
X118604750Y-49473000D01*
X118423000Y-49654750D01*
X118423000Y-50327000D01*
X118550000Y-50327000D01*
X118550000Y-52073000D01*
X118423000Y-52073000D01*
X118423000Y-52745250D01*
X118604750Y-52927000D01*
X118680342Y-52918796D01*
X118818068Y-52879556D01*
X118945492Y-52814201D01*
X119023000Y-52752762D01*
X119023000Y-58447238D01*
X118945492Y-58385799D01*
X118818068Y-58320444D01*
X118680342Y-58281204D01*
X118604750Y-58273000D01*
X118423000Y-58454750D01*
X118423000Y-59127000D01*
X118550000Y-59127000D01*
X118550000Y-60873000D01*
X118423000Y-60873000D01*
X118423000Y-61545250D01*
X118604750Y-61727000D01*
X118680342Y-61718796D01*
X118818068Y-61679556D01*
X118945492Y-61614201D01*
X119023000Y-61552762D01*
X119023001Y-95223000D01*
X75077000Y-95223000D01*
X75077000Y-92649604D01*
X76073000Y-92649604D01*
X76073000Y-92950396D01*
X76131681Y-93245410D01*
X76246790Y-93523306D01*
X76413901Y-93773406D01*
X76626594Y-93986099D01*
X76876694Y-94153210D01*
X77154590Y-94268319D01*
X77449604Y-94327000D01*
X77750396Y-94327000D01*
X78045410Y-94268319D01*
X78323306Y-94153210D01*
X78573406Y-93986099D01*
X78786099Y-93773406D01*
X78953210Y-93523306D01*
X79068319Y-93245410D01*
X79127000Y-92950396D01*
X79127000Y-92649604D01*
X115073000Y-92649604D01*
X115073000Y-92950396D01*
X115131681Y-93245410D01*
X115246790Y-93523306D01*
X115413901Y-93773406D01*
X115626594Y-93986099D01*
X115876694Y-94153210D01*
X116154590Y-94268319D01*
X116449604Y-94327000D01*
X116750396Y-94327000D01*
X117045410Y-94268319D01*
X117323306Y-94153210D01*
X117573406Y-93986099D01*
X117786099Y-93773406D01*
X117953210Y-93523306D01*
X118068319Y-93245410D01*
X118127000Y-92950396D01*
X118127000Y-92649604D01*
X118068319Y-92354590D01*
X117953210Y-92076694D01*
X117786099Y-91826594D01*
X117573406Y-91613901D01*
X117323306Y-91446790D01*
X117045410Y-91331681D01*
X116750396Y-91273000D01*
X116449604Y-91273000D01*
X116154590Y-91331681D01*
X115876694Y-91446790D01*
X115626594Y-91613901D01*
X115413901Y-91826594D01*
X115246790Y-92076694D01*
X115131681Y-92354590D01*
X115073000Y-92649604D01*
X79127000Y-92649604D01*
X79068319Y-92354590D01*
X78953210Y-92076694D01*
X78786099Y-91826594D01*
X78573406Y-91613901D01*
X78323306Y-91446790D01*
X78045410Y-91331681D01*
X77750396Y-91273000D01*
X77449604Y-91273000D01*
X77154590Y-91331681D01*
X76876694Y-91446790D01*
X76626594Y-91613901D01*
X76413901Y-91826594D01*
X76246790Y-92076694D01*
X76131681Y-92354590D01*
X76073000Y-92649604D01*
X75077000Y-92649604D01*
X75077000Y-87450000D01*
X77270451Y-87450000D01*
X77270451Y-89350000D01*
X77286391Y-89511837D01*
X77333597Y-89667455D01*
X77410255Y-89810873D01*
X77513420Y-89936580D01*
X77639127Y-90039745D01*
X77782545Y-90116403D01*
X77938163Y-90163609D01*
X78100000Y-90179549D01*
X79500000Y-90179549D01*
X79661837Y-90163609D01*
X79817455Y-90116403D01*
X79960873Y-90039745D01*
X80086580Y-89936580D01*
X80189745Y-89810873D01*
X80240059Y-89716741D01*
X80255024Y-89734976D01*
X80487541Y-89925797D01*
X80752816Y-90067590D01*
X81040657Y-90154905D01*
X81340000Y-90184388D01*
X81639344Y-90154905D01*
X81927185Y-90067590D01*
X82192460Y-89925797D01*
X82424976Y-89734976D01*
X82610000Y-89509524D01*
X82795024Y-89734976D01*
X83027541Y-89925797D01*
X83292816Y-90067590D01*
X83580657Y-90154905D01*
X83880000Y-90184388D01*
X84179344Y-90154905D01*
X84467185Y-90067590D01*
X84732460Y-89925797D01*
X84964976Y-89734976D01*
X85022715Y-89664621D01*
X85052387Y-89711741D01*
X85285801Y-89958148D01*
X85562801Y-90154284D01*
X85872743Y-90292611D01*
X86029038Y-90332164D01*
X86297000Y-90190347D01*
X86297000Y-88523000D01*
X86277000Y-88523000D01*
X86277000Y-88277000D01*
X86297000Y-88277000D01*
X86297000Y-86609653D01*
X86543000Y-86609653D01*
X86543000Y-88277000D01*
X86563000Y-88277000D01*
X86563000Y-88523000D01*
X86543000Y-88523000D01*
X86543000Y-90190347D01*
X86810962Y-90332164D01*
X86967257Y-90292611D01*
X87277199Y-90154284D01*
X87554199Y-89958148D01*
X87787613Y-89711741D01*
X87817285Y-89664621D01*
X87875024Y-89734976D01*
X88107541Y-89925797D01*
X88372816Y-90067590D01*
X88660657Y-90154905D01*
X88960000Y-90184388D01*
X89259344Y-90154905D01*
X89547185Y-90067590D01*
X89812460Y-89925797D01*
X90044976Y-89734976D01*
X90230000Y-89509524D01*
X90415024Y-89734976D01*
X90647541Y-89925797D01*
X90912816Y-90067590D01*
X91200657Y-90154905D01*
X91500000Y-90184388D01*
X91799344Y-90154905D01*
X92087185Y-90067590D01*
X92352460Y-89925797D01*
X92584976Y-89734976D01*
X92770000Y-89509524D01*
X92955024Y-89734976D01*
X93187541Y-89925797D01*
X93452816Y-90067590D01*
X93740657Y-90154905D01*
X94040000Y-90184388D01*
X94339344Y-90154905D01*
X94627185Y-90067590D01*
X94892460Y-89925797D01*
X95124976Y-89734976D01*
X95310000Y-89509524D01*
X95495024Y-89734976D01*
X95727541Y-89925797D01*
X95992816Y-90067590D01*
X96280657Y-90154905D01*
X96580000Y-90184388D01*
X96879344Y-90154905D01*
X97167185Y-90067590D01*
X97432460Y-89925797D01*
X97664976Y-89734976D01*
X97850000Y-89509524D01*
X98035024Y-89734976D01*
X98267541Y-89925797D01*
X98532816Y-90067590D01*
X98820657Y-90154905D01*
X99120000Y-90184388D01*
X99419344Y-90154905D01*
X99707185Y-90067590D01*
X99972460Y-89925797D01*
X100204976Y-89734976D01*
X100390000Y-89509524D01*
X100575024Y-89734976D01*
X100807541Y-89925797D01*
X101072816Y-90067590D01*
X101360657Y-90154905D01*
X101660000Y-90184388D01*
X101959344Y-90154905D01*
X102247185Y-90067590D01*
X102512460Y-89925797D01*
X102744976Y-89734976D01*
X102930000Y-89509524D01*
X103115024Y-89734976D01*
X103347541Y-89925797D01*
X103612816Y-90067590D01*
X103900657Y-90154905D01*
X104200000Y-90184388D01*
X104499344Y-90154905D01*
X104787185Y-90067590D01*
X105052460Y-89925797D01*
X105284976Y-89734976D01*
X105470000Y-89509524D01*
X105655024Y-89734976D01*
X105887541Y-89925797D01*
X106152816Y-90067590D01*
X106440657Y-90154905D01*
X106740000Y-90184388D01*
X107039344Y-90154905D01*
X107327185Y-90067590D01*
X107592460Y-89925797D01*
X107824976Y-89734976D01*
X108010000Y-89509524D01*
X108195024Y-89734976D01*
X108427541Y-89925797D01*
X108692816Y-90067590D01*
X108980657Y-90154905D01*
X109280000Y-90184388D01*
X109579344Y-90154905D01*
X109867185Y-90067590D01*
X110132460Y-89925797D01*
X110364976Y-89734976D01*
X110550000Y-89509524D01*
X110735024Y-89734976D01*
X110967541Y-89925797D01*
X111232816Y-90067590D01*
X111520657Y-90154905D01*
X111820000Y-90184388D01*
X112119344Y-90154905D01*
X112407185Y-90067590D01*
X112672460Y-89925797D01*
X112904976Y-89734976D01*
X113090000Y-89509524D01*
X113275024Y-89734976D01*
X113507541Y-89925797D01*
X113772816Y-90067590D01*
X114060657Y-90154905D01*
X114360000Y-90184388D01*
X114659344Y-90154905D01*
X114947185Y-90067590D01*
X115212460Y-89925797D01*
X115444976Y-89734976D01*
X115635797Y-89502460D01*
X115777590Y-89237185D01*
X115864905Y-88949343D01*
X115887000Y-88725010D01*
X115887000Y-88074989D01*
X115864905Y-87850656D01*
X115777590Y-87562815D01*
X115635797Y-87297540D01*
X115444976Y-87065024D01*
X115212459Y-86874203D01*
X114947184Y-86732410D01*
X114659343Y-86645095D01*
X114360000Y-86615612D01*
X114060656Y-86645095D01*
X113772815Y-86732410D01*
X113507540Y-86874203D01*
X113275024Y-87065024D01*
X113090000Y-87290477D01*
X112904976Y-87065024D01*
X112672459Y-86874203D01*
X112407184Y-86732410D01*
X112119343Y-86645095D01*
X111820000Y-86615612D01*
X111520656Y-86645095D01*
X111232815Y-86732410D01*
X110967540Y-86874203D01*
X110735024Y-87065024D01*
X110550000Y-87290477D01*
X110364976Y-87065024D01*
X110132459Y-86874203D01*
X109867184Y-86732410D01*
X109579343Y-86645095D01*
X109280000Y-86615612D01*
X108980656Y-86645095D01*
X108692815Y-86732410D01*
X108427540Y-86874203D01*
X108195024Y-87065024D01*
X108010000Y-87290477D01*
X107824976Y-87065024D01*
X107592459Y-86874203D01*
X107327184Y-86732410D01*
X107039343Y-86645095D01*
X106740000Y-86615612D01*
X106440656Y-86645095D01*
X106152815Y-86732410D01*
X105887540Y-86874203D01*
X105655024Y-87065024D01*
X105470000Y-87290477D01*
X105284976Y-87065024D01*
X105052459Y-86874203D01*
X104787184Y-86732410D01*
X104499343Y-86645095D01*
X104200000Y-86615612D01*
X103900656Y-86645095D01*
X103612815Y-86732410D01*
X103347540Y-86874203D01*
X103115024Y-87065024D01*
X102930000Y-87290477D01*
X102744976Y-87065024D01*
X102512459Y-86874203D01*
X102247184Y-86732410D01*
X101959343Y-86645095D01*
X101660000Y-86615612D01*
X101360656Y-86645095D01*
X101072815Y-86732410D01*
X100807540Y-86874203D01*
X100575024Y-87065024D01*
X100390000Y-87290477D01*
X100204976Y-87065024D01*
X99972459Y-86874203D01*
X99707184Y-86732410D01*
X99419343Y-86645095D01*
X99120000Y-86615612D01*
X98820656Y-86645095D01*
X98532815Y-86732410D01*
X98267540Y-86874203D01*
X98035024Y-87065024D01*
X97850000Y-87290477D01*
X97664976Y-87065024D01*
X97432459Y-86874203D01*
X97167184Y-86732410D01*
X96879343Y-86645095D01*
X96580000Y-86615612D01*
X96280656Y-86645095D01*
X95992815Y-86732410D01*
X95727540Y-86874203D01*
X95495024Y-87065024D01*
X95310000Y-87290477D01*
X95124976Y-87065024D01*
X94892459Y-86874203D01*
X94627184Y-86732410D01*
X94339343Y-86645095D01*
X94040000Y-86615612D01*
X93740656Y-86645095D01*
X93452815Y-86732410D01*
X93187540Y-86874203D01*
X92955024Y-87065024D01*
X92770000Y-87290477D01*
X92584976Y-87065024D01*
X92352459Y-86874203D01*
X92087184Y-86732410D01*
X91799343Y-86645095D01*
X91500000Y-86615612D01*
X91200656Y-86645095D01*
X90912815Y-86732410D01*
X90647540Y-86874203D01*
X90415024Y-87065024D01*
X90230000Y-87290477D01*
X90044976Y-87065024D01*
X89812459Y-86874203D01*
X89547184Y-86732410D01*
X89259343Y-86645095D01*
X88960000Y-86615612D01*
X88660656Y-86645095D01*
X88372815Y-86732410D01*
X88107540Y-86874203D01*
X87875024Y-87065024D01*
X87817285Y-87135379D01*
X87787613Y-87088259D01*
X87554199Y-86841852D01*
X87277199Y-86645716D01*
X86967257Y-86507389D01*
X86810962Y-86467836D01*
X86543000Y-86609653D01*
X86297000Y-86609653D01*
X86029038Y-86467836D01*
X85872743Y-86507389D01*
X85562801Y-86645716D01*
X85285801Y-86841852D01*
X85052387Y-87088259D01*
X85022715Y-87135379D01*
X84964976Y-87065024D01*
X84732459Y-86874203D01*
X84467184Y-86732410D01*
X84179343Y-86645095D01*
X83880000Y-86615612D01*
X83580656Y-86645095D01*
X83292815Y-86732410D01*
X83027540Y-86874203D01*
X82795024Y-87065024D01*
X82610000Y-87290477D01*
X82424976Y-87065024D01*
X82192459Y-86874203D01*
X81927184Y-86732410D01*
X81639343Y-86645095D01*
X81340000Y-86615612D01*
X81040656Y-86645095D01*
X80752815Y-86732410D01*
X80487540Y-86874203D01*
X80255024Y-87065024D01*
X80240059Y-87083259D01*
X80189745Y-86989127D01*
X80086580Y-86863420D01*
X79960873Y-86760255D01*
X79817455Y-86683597D01*
X79661837Y-86636391D01*
X79500000Y-86620451D01*
X78100000Y-86620451D01*
X77938163Y-86636391D01*
X77782545Y-86683597D01*
X77639127Y-86760255D01*
X77513420Y-86863420D01*
X77410255Y-86989127D01*
X77333597Y-87132545D01*
X77286391Y-87288163D01*
X77270451Y-87450000D01*
X75077000Y-87450000D01*
X75077000Y-72834990D01*
X77273000Y-72834990D01*
X77273000Y-73485011D01*
X77295095Y-73709344D01*
X77382410Y-73997185D01*
X77524203Y-74262460D01*
X77715024Y-74494976D01*
X77947541Y-74685797D01*
X78212816Y-74827590D01*
X78500657Y-74914905D01*
X78800000Y-74944388D01*
X79099344Y-74914905D01*
X79387185Y-74827590D01*
X79652460Y-74685797D01*
X79884976Y-74494976D01*
X79942715Y-74424621D01*
X79972387Y-74471741D01*
X80205801Y-74718148D01*
X80482801Y-74914284D01*
X80792743Y-75052611D01*
X80949038Y-75092164D01*
X81217000Y-74950347D01*
X81217000Y-73283000D01*
X81197000Y-73283000D01*
X81197000Y-73037000D01*
X81217000Y-73037000D01*
X81217000Y-71369653D01*
X81463000Y-71369653D01*
X81463000Y-73037000D01*
X81483000Y-73037000D01*
X81483000Y-73283000D01*
X81463000Y-73283000D01*
X81463000Y-74950347D01*
X81730962Y-75092164D01*
X81887257Y-75052611D01*
X82197199Y-74914284D01*
X82474199Y-74718148D01*
X82707613Y-74471741D01*
X82737285Y-74424621D01*
X82795024Y-74494976D01*
X83027541Y-74685797D01*
X83292816Y-74827590D01*
X83580657Y-74914905D01*
X83880000Y-74944388D01*
X84179344Y-74914905D01*
X84467185Y-74827590D01*
X84732460Y-74685797D01*
X84964976Y-74494976D01*
X85150000Y-74269524D01*
X85335024Y-74494976D01*
X85567541Y-74685797D01*
X85649746Y-74729736D01*
X85652255Y-74738009D01*
X85652256Y-74738010D01*
X85729048Y-74881679D01*
X85756422Y-74915034D01*
X85832394Y-75007606D01*
X85863952Y-75033505D01*
X86536499Y-75706053D01*
X86562394Y-75737606D01*
X86593947Y-75763501D01*
X86593948Y-75763502D01*
X86688320Y-75840952D01*
X86765113Y-75881998D01*
X86831990Y-75917745D01*
X86987880Y-75965034D01*
X87109376Y-75977000D01*
X87109386Y-75977000D01*
X87150000Y-75981000D01*
X87190614Y-75977000D01*
X115009386Y-75977000D01*
X115050000Y-75981000D01*
X115090614Y-75977000D01*
X115090624Y-75977000D01*
X115212120Y-75965034D01*
X115368010Y-75917745D01*
X115511679Y-75840952D01*
X115637606Y-75737606D01*
X115663505Y-75706048D01*
X116656053Y-74713501D01*
X116687606Y-74687606D01*
X116713502Y-74656052D01*
X116790952Y-74561681D01*
X116867744Y-74418011D01*
X116867745Y-74418010D01*
X116915034Y-74262120D01*
X116927000Y-74140624D01*
X116927000Y-74140615D01*
X116931000Y-74100001D01*
X116927000Y-74059387D01*
X116927000Y-70940614D01*
X116931000Y-70900000D01*
X116927000Y-70859386D01*
X116927000Y-70859376D01*
X116915034Y-70737880D01*
X116867745Y-70581990D01*
X116804987Y-70464578D01*
X116790952Y-70438320D01*
X116713503Y-70343948D01*
X116713496Y-70343941D01*
X116687606Y-70312394D01*
X116656059Y-70286504D01*
X115679549Y-69309996D01*
X115679549Y-69249600D01*
X115664578Y-69097596D01*
X115620240Y-68951433D01*
X115548239Y-68816728D01*
X115451342Y-68698658D01*
X115333272Y-68601761D01*
X115329977Y-68600000D01*
X115333272Y-68598239D01*
X115451342Y-68501342D01*
X115548239Y-68383272D01*
X115620240Y-68248567D01*
X115664578Y-68102404D01*
X115679549Y-67950400D01*
X115679549Y-67249600D01*
X115664578Y-67097596D01*
X115620240Y-66951433D01*
X115548239Y-66816728D01*
X115451342Y-66698658D01*
X115333272Y-66601761D01*
X115198567Y-66529760D01*
X115123035Y-66506848D01*
X115121327Y-66501216D01*
X115057741Y-66382256D01*
X115049177Y-66366233D01*
X114976409Y-66277565D01*
X114976408Y-66277564D01*
X114952080Y-66247920D01*
X114922436Y-66223592D01*
X112979549Y-64280706D01*
X112979549Y-64249604D01*
X115073000Y-64249604D01*
X115073000Y-64550396D01*
X115131681Y-64845410D01*
X115246790Y-65123306D01*
X115413901Y-65373406D01*
X115626594Y-65586099D01*
X115876694Y-65753210D01*
X116154590Y-65868319D01*
X116449604Y-65927000D01*
X116750396Y-65927000D01*
X117045410Y-65868319D01*
X117323306Y-65753210D01*
X117573406Y-65586099D01*
X117786099Y-65373406D01*
X117953210Y-65123306D01*
X118068319Y-64845410D01*
X118127000Y-64550396D01*
X118127000Y-64249604D01*
X118068319Y-63954590D01*
X117953210Y-63676694D01*
X117786099Y-63426594D01*
X117573406Y-63213901D01*
X117323306Y-63046790D01*
X117045410Y-62931681D01*
X116750396Y-62873000D01*
X116449604Y-62873000D01*
X116154590Y-62931681D01*
X115876694Y-63046790D01*
X115626594Y-63213901D01*
X115413901Y-63426594D01*
X115246790Y-63676694D01*
X115131681Y-63954590D01*
X115073000Y-64249604D01*
X112979549Y-64249604D01*
X112979549Y-63350000D01*
X112969374Y-63246690D01*
X112939239Y-63147350D01*
X112890304Y-63055798D01*
X112824448Y-62975552D01*
X112744202Y-62909696D01*
X112652650Y-62860761D01*
X112553310Y-62830626D01*
X112450000Y-62820451D01*
X110319295Y-62820451D01*
X109177000Y-61678157D01*
X109177000Y-61638166D01*
X109180759Y-61600000D01*
X109177000Y-61561834D01*
X109177000Y-61054750D01*
X109823000Y-61054750D01*
X109836039Y-61154651D01*
X109879929Y-61290966D01*
X109949569Y-61416100D01*
X110042283Y-61525243D01*
X110154508Y-61614201D01*
X110281932Y-61679556D01*
X110419658Y-61718796D01*
X110495250Y-61727000D01*
X110677000Y-61545250D01*
X110677000Y-60873000D01*
X112923000Y-60873000D01*
X112923000Y-61545250D01*
X113104750Y-61727000D01*
X113180342Y-61718796D01*
X113318068Y-61679556D01*
X113445492Y-61614201D01*
X113557717Y-61525243D01*
X113650431Y-61416100D01*
X113720071Y-61290966D01*
X113763961Y-61154651D01*
X113777000Y-61054750D01*
X115323000Y-61054750D01*
X115336039Y-61154651D01*
X115379929Y-61290966D01*
X115449569Y-61416100D01*
X115542283Y-61525243D01*
X115654508Y-61614201D01*
X115781932Y-61679556D01*
X115919658Y-61718796D01*
X115995250Y-61727000D01*
X116177000Y-61545250D01*
X116177000Y-60873000D01*
X115504750Y-60873000D01*
X115323000Y-61054750D01*
X113777000Y-61054750D01*
X113595250Y-60873000D01*
X112923000Y-60873000D01*
X110677000Y-60873000D01*
X110004750Y-60873000D01*
X109823000Y-61054750D01*
X109177000Y-61054750D01*
X109177000Y-58945250D01*
X109823000Y-58945250D01*
X110004750Y-59127000D01*
X110677000Y-59127000D01*
X110677000Y-58454750D01*
X112923000Y-58454750D01*
X112923000Y-59127000D01*
X113595250Y-59127000D01*
X113777000Y-58945250D01*
X115323000Y-58945250D01*
X115504750Y-59127000D01*
X116177000Y-59127000D01*
X116177000Y-58454750D01*
X115995250Y-58273000D01*
X115919658Y-58281204D01*
X115781932Y-58320444D01*
X115654508Y-58385799D01*
X115542283Y-58474757D01*
X115449569Y-58583900D01*
X115379929Y-58709034D01*
X115336039Y-58845349D01*
X115323000Y-58945250D01*
X113777000Y-58945250D01*
X113763961Y-58845349D01*
X113720071Y-58709034D01*
X113650431Y-58583900D01*
X113557717Y-58474757D01*
X113445492Y-58385799D01*
X113318068Y-58320444D01*
X113180342Y-58281204D01*
X113104750Y-58273000D01*
X112923000Y-58454750D01*
X110677000Y-58454750D01*
X110495250Y-58273000D01*
X110419658Y-58281204D01*
X110281932Y-58320444D01*
X110154508Y-58385799D01*
X110042283Y-58474757D01*
X109949569Y-58583900D01*
X109879929Y-58709034D01*
X109836039Y-58845349D01*
X109823000Y-58945250D01*
X109177000Y-58945250D01*
X109177000Y-58224945D01*
X109424946Y-57977000D01*
X109524119Y-57977000D01*
X109550000Y-57979549D01*
X113050000Y-57979549D01*
X113153310Y-57969374D01*
X113252650Y-57939239D01*
X113344202Y-57890304D01*
X113423000Y-57825636D01*
X113423000Y-57896226D01*
X113460546Y-58084980D01*
X113534194Y-58262783D01*
X113641115Y-58422801D01*
X113777199Y-58558885D01*
X113937217Y-58665806D01*
X114115020Y-58739454D01*
X114303774Y-58777000D01*
X114496226Y-58777000D01*
X114684980Y-58739454D01*
X114862783Y-58665806D01*
X115022801Y-58558885D01*
X115158885Y-58422801D01*
X115265806Y-58262783D01*
X115339454Y-58084980D01*
X115377000Y-57896226D01*
X115377000Y-57703774D01*
X115339454Y-57515020D01*
X115265806Y-57337217D01*
X115158885Y-57177199D01*
X115022801Y-57041115D01*
X114862783Y-56934194D01*
X114684980Y-56860546D01*
X114496226Y-56823000D01*
X114303774Y-56823000D01*
X114115020Y-56860546D01*
X113937217Y-56934194D01*
X113777199Y-57041115D01*
X113641115Y-57177199D01*
X113579549Y-57269339D01*
X113579549Y-56950000D01*
X113569374Y-56846690D01*
X113555210Y-56800000D01*
X113569374Y-56753310D01*
X113579549Y-56650000D01*
X113579549Y-56150000D01*
X113569374Y-56046690D01*
X113555210Y-56000000D01*
X113569374Y-55953310D01*
X113579549Y-55850000D01*
X113579549Y-55350000D01*
X113569374Y-55246690D01*
X113555210Y-55200000D01*
X113569374Y-55153310D01*
X113579549Y-55050000D01*
X113579549Y-54749787D01*
X113652096Y-54663687D01*
X113721233Y-54538275D01*
X113764575Y-54401784D01*
X113777000Y-54304750D01*
X113595252Y-54123002D01*
X113741316Y-54123002D01*
X113777199Y-54158885D01*
X113937217Y-54265806D01*
X114115020Y-54339454D01*
X114303774Y-54377000D01*
X114496226Y-54377000D01*
X114684980Y-54339454D01*
X114862783Y-54265806D01*
X115022801Y-54158885D01*
X115158885Y-54022801D01*
X115265806Y-53862783D01*
X115339454Y-53684980D01*
X115377000Y-53496226D01*
X115377000Y-53303774D01*
X115339454Y-53115020D01*
X115265806Y-52937217D01*
X115158885Y-52777199D01*
X115022801Y-52641115D01*
X114862783Y-52534194D01*
X114684980Y-52460546D01*
X114496226Y-52423000D01*
X114303774Y-52423000D01*
X114115020Y-52460546D01*
X113937217Y-52534194D01*
X113777199Y-52641115D01*
X113641115Y-52777199D01*
X113534194Y-52937217D01*
X113460546Y-53115020D01*
X113454979Y-53143006D01*
X113447953Y-53137391D01*
X113320793Y-53071525D01*
X113183226Y-53031733D01*
X113040539Y-53019543D01*
X111604750Y-53023000D01*
X111423000Y-53204750D01*
X111423000Y-53877000D01*
X111443000Y-53877000D01*
X111443000Y-54020451D01*
X109550000Y-54020451D01*
X109446690Y-54030626D01*
X109347350Y-54060761D01*
X109255798Y-54109696D01*
X109239587Y-54123000D01*
X109004750Y-54123000D01*
X108823000Y-54304750D01*
X108835425Y-54401784D01*
X108878767Y-54538275D01*
X108947904Y-54663687D01*
X109020451Y-54749787D01*
X109020451Y-54833000D01*
X106503746Y-54833000D01*
X106408424Y-54690340D01*
X106209660Y-54491576D01*
X105975938Y-54335409D01*
X105716241Y-54227838D01*
X105440547Y-54173000D01*
X105159453Y-54173000D01*
X104883759Y-54227838D01*
X104624062Y-54335409D01*
X104390340Y-54491576D01*
X104191576Y-54690340D01*
X104035409Y-54924062D01*
X103927838Y-55183759D01*
X103873000Y-55459453D01*
X103873000Y-55740547D01*
X103927838Y-56016241D01*
X104035409Y-56275938D01*
X104191576Y-56509660D01*
X104390340Y-56708424D01*
X104624062Y-56864591D01*
X104883759Y-56972162D01*
X105159453Y-57027000D01*
X105440547Y-57027000D01*
X105716241Y-56972162D01*
X105975938Y-56864591D01*
X106209660Y-56708424D01*
X106408424Y-56509660D01*
X106503746Y-56367000D01*
X107534156Y-56367000D01*
X106728157Y-57173000D01*
X106459453Y-57173000D01*
X106183759Y-57227838D01*
X105924062Y-57335409D01*
X105690340Y-57491576D01*
X105491576Y-57690340D01*
X105335409Y-57924062D01*
X105227838Y-58183759D01*
X105173000Y-58459453D01*
X105173000Y-58674157D01*
X103226413Y-56727570D01*
X103202080Y-56697920D01*
X103083766Y-56600823D01*
X102948784Y-56528673D01*
X102802319Y-56484243D01*
X102688166Y-56473000D01*
X102688163Y-56473000D01*
X102666789Y-56470895D01*
X102608647Y-56423179D01*
X102503264Y-56366850D01*
X102388917Y-56332163D01*
X102270000Y-56320451D01*
X100830000Y-56320451D01*
X100711083Y-56332163D01*
X100596736Y-56366850D01*
X100491353Y-56423179D01*
X100398984Y-56498984D01*
X100323179Y-56591353D01*
X100266850Y-56696736D01*
X100232163Y-56811083D01*
X100220451Y-56930000D01*
X100220451Y-57570000D01*
X100232163Y-57688917D01*
X100266850Y-57803264D01*
X100323179Y-57908647D01*
X100398984Y-58001016D01*
X100491353Y-58076821D01*
X100596736Y-58133150D01*
X100711083Y-58167837D01*
X100783812Y-58175000D01*
X100711083Y-58182163D01*
X100596736Y-58216850D01*
X100491353Y-58273179D01*
X100398984Y-58348984D01*
X100323179Y-58441353D01*
X100266850Y-58546736D01*
X100232163Y-58661083D01*
X100220451Y-58780000D01*
X100220451Y-59420000D01*
X100232163Y-59538917D01*
X100266850Y-59653264D01*
X100323179Y-59758647D01*
X100398984Y-59851016D01*
X100491353Y-59926821D01*
X100596736Y-59983150D01*
X100711083Y-60017837D01*
X100830000Y-60029549D01*
X101309995Y-60029549D01*
X101573001Y-60292555D01*
X101573001Y-60387647D01*
X101498658Y-60448658D01*
X101401761Y-60566728D01*
X101400000Y-60570023D01*
X101398239Y-60566728D01*
X101301342Y-60448658D01*
X101183272Y-60351761D01*
X101048567Y-60279760D01*
X100902404Y-60235422D01*
X100750400Y-60220451D01*
X100049600Y-60220451D01*
X99897596Y-60235422D01*
X99751433Y-60279760D01*
X99616728Y-60351761D01*
X99498658Y-60448658D01*
X99401761Y-60566728D01*
X99329760Y-60701433D01*
X99285422Y-60847596D01*
X99270451Y-60999600D01*
X99270451Y-62000400D01*
X99284760Y-62145686D01*
X98309996Y-63120451D01*
X97849600Y-63120451D01*
X97697596Y-63135422D01*
X97551433Y-63179760D01*
X97416728Y-63251761D01*
X97298658Y-63348658D01*
X97201761Y-63466728D01*
X97200000Y-63470023D01*
X97198239Y-63466728D01*
X97101342Y-63348658D01*
X96983272Y-63251761D01*
X96848567Y-63179760D01*
X96702404Y-63135422D01*
X96550400Y-63120451D01*
X95849600Y-63120451D01*
X95697596Y-63135422D01*
X95551433Y-63179760D01*
X95416728Y-63251761D01*
X95298658Y-63348658D01*
X95278681Y-63373000D01*
X93840610Y-63373000D01*
X93799999Y-63369000D01*
X93759388Y-63373000D01*
X93759376Y-63373000D01*
X93637880Y-63384966D01*
X93481990Y-63432255D01*
X93410531Y-63470451D01*
X92899600Y-63470451D01*
X92747596Y-63485422D01*
X92601433Y-63529760D01*
X92466728Y-63601761D01*
X92348658Y-63698658D01*
X92251761Y-63816728D01*
X92179760Y-63951433D01*
X92135422Y-64097596D01*
X92120451Y-64249600D01*
X92120451Y-64950400D01*
X92135422Y-65102404D01*
X92179760Y-65248567D01*
X92251761Y-65383272D01*
X92254758Y-65386924D01*
X92244146Y-65392596D01*
X92133446Y-65483446D01*
X92042596Y-65594146D01*
X91975089Y-65720443D01*
X91933519Y-65857483D01*
X91919482Y-66000000D01*
X91923000Y-66295250D01*
X92104750Y-66477000D01*
X93277000Y-66477000D01*
X93277000Y-66457000D01*
X93523000Y-66457000D01*
X93523000Y-66477000D01*
X94695250Y-66477000D01*
X94877000Y-66295250D01*
X94880518Y-66000000D01*
X94866481Y-65857483D01*
X94824911Y-65720443D01*
X94757404Y-65594146D01*
X94666554Y-65483446D01*
X94555854Y-65392596D01*
X94545242Y-65386924D01*
X94548239Y-65383272D01*
X94620240Y-65248567D01*
X94664578Y-65102404D01*
X94672005Y-65027000D01*
X95082920Y-65027000D01*
X95085422Y-65052404D01*
X95129760Y-65198567D01*
X95201761Y-65333272D01*
X95298658Y-65451342D01*
X95416728Y-65548239D01*
X95551433Y-65620240D01*
X95697596Y-65664578D01*
X95849600Y-65679549D01*
X96550400Y-65679549D01*
X96702404Y-65664578D01*
X96848567Y-65620240D01*
X96983272Y-65548239D01*
X97101342Y-65451342D01*
X97198239Y-65333272D01*
X97200000Y-65329977D01*
X97201761Y-65333272D01*
X97282794Y-65432011D01*
X97281990Y-65432255D01*
X97226942Y-65461679D01*
X97138319Y-65509049D01*
X97043947Y-65586498D01*
X97043941Y-65586504D01*
X97012394Y-65612394D01*
X96986503Y-65643942D01*
X95243948Y-67386499D01*
X95212395Y-67412394D01*
X95186500Y-67443947D01*
X95186498Y-67443949D01*
X95109048Y-67538321D01*
X95032256Y-67681990D01*
X94984967Y-67837880D01*
X94969233Y-67997635D01*
X94916554Y-67933446D01*
X94805854Y-67842596D01*
X94679557Y-67775089D01*
X94617987Y-67756412D01*
X94666554Y-67716554D01*
X94757404Y-67605854D01*
X94824911Y-67479557D01*
X94866481Y-67342517D01*
X94880518Y-67200000D01*
X94877000Y-66904750D01*
X94695250Y-66723000D01*
X93523000Y-66723000D01*
X93523000Y-66743000D01*
X93277000Y-66743000D01*
X93277000Y-66723000D01*
X92104750Y-66723000D01*
X91923000Y-66904750D01*
X91919482Y-67200000D01*
X91933519Y-67342517D01*
X91975089Y-67479557D01*
X92042596Y-67605854D01*
X92133446Y-67716554D01*
X92244146Y-67807404D01*
X92370443Y-67874911D01*
X92507483Y-67916481D01*
X92650000Y-67930518D01*
X92687374Y-67930223D01*
X92683446Y-67933446D01*
X92592596Y-68044146D01*
X92525089Y-68170443D01*
X92483519Y-68307483D01*
X92469482Y-68450000D01*
X92473000Y-68895250D01*
X92654750Y-69077000D01*
X93677000Y-69077000D01*
X93677000Y-69057000D01*
X93923000Y-69057000D01*
X93923000Y-69077000D01*
X93943000Y-69077000D01*
X93943000Y-69323000D01*
X93923000Y-69323000D01*
X93923000Y-70495250D01*
X94104750Y-70677000D01*
X94400000Y-70680518D01*
X94542517Y-70666481D01*
X94679557Y-70624911D01*
X94805854Y-70557404D01*
X94916554Y-70466554D01*
X95007404Y-70355854D01*
X95013076Y-70345242D01*
X95016728Y-70348239D01*
X95151433Y-70420240D01*
X95297596Y-70464578D01*
X95449600Y-70479549D01*
X96150400Y-70479549D01*
X96302404Y-70464578D01*
X96448567Y-70420240D01*
X96583272Y-70348239D01*
X96701342Y-70251342D01*
X96798239Y-70133272D01*
X96870240Y-69998567D01*
X96914578Y-69852404D01*
X96929549Y-69700400D01*
X96929549Y-68699600D01*
X96914578Y-68547596D01*
X96870240Y-68401433D01*
X96798239Y-68266728D01*
X96755231Y-68214322D01*
X97770451Y-67199104D01*
X97770451Y-67650000D01*
X97780626Y-67753310D01*
X97810761Y-67852650D01*
X97859696Y-67944202D01*
X97925552Y-68024448D01*
X98005798Y-68090304D01*
X98097350Y-68139239D01*
X98196690Y-68169374D01*
X98300000Y-68179549D01*
X99300000Y-68179549D01*
X99403310Y-68169374D01*
X99502650Y-68139239D01*
X99594202Y-68090304D01*
X99674448Y-68024448D01*
X99713387Y-67977000D01*
X99807447Y-67977000D01*
X101020451Y-69190005D01*
X101020451Y-69850000D01*
X101030626Y-69953310D01*
X101060761Y-70052650D01*
X101109696Y-70144202D01*
X101175552Y-70224448D01*
X101255798Y-70290304D01*
X101347350Y-70339239D01*
X101446690Y-70369374D01*
X101550000Y-70379549D01*
X104150000Y-70379549D01*
X104253310Y-70369374D01*
X104352650Y-70339239D01*
X104375548Y-70327000D01*
X109624452Y-70327000D01*
X109647350Y-70339239D01*
X109746690Y-70369374D01*
X109850000Y-70379549D01*
X112450000Y-70379549D01*
X112553310Y-70369374D01*
X112652650Y-70339239D01*
X112744202Y-70290304D01*
X112824448Y-70224448D01*
X112890304Y-70144202D01*
X112939239Y-70052650D01*
X112969374Y-69953310D01*
X112979549Y-69850000D01*
X112979549Y-67850000D01*
X112969374Y-67746690D01*
X112939239Y-67647350D01*
X112890304Y-67555798D01*
X112824448Y-67475552D01*
X112744202Y-67409696D01*
X112652650Y-67360761D01*
X112553310Y-67330626D01*
X112450000Y-67320451D01*
X109850000Y-67320451D01*
X109746690Y-67330626D01*
X109647350Y-67360761D01*
X109624452Y-67373000D01*
X104375548Y-67373000D01*
X104352650Y-67360761D01*
X104253310Y-67330626D01*
X104150000Y-67320451D01*
X101550000Y-67320451D01*
X101495384Y-67325830D01*
X100763505Y-66593952D01*
X100737606Y-66562394D01*
X100611679Y-66459048D01*
X100468010Y-66382255D01*
X100312120Y-66334966D01*
X100190624Y-66323000D01*
X100190614Y-66323000D01*
X100150000Y-66319000D01*
X100109386Y-66323000D01*
X99713387Y-66323000D01*
X99674448Y-66275552D01*
X99627000Y-66236613D01*
X99627000Y-66040614D01*
X99631000Y-66000000D01*
X99627000Y-65959386D01*
X99627000Y-65040613D01*
X99631000Y-64999999D01*
X99627000Y-64959385D01*
X99627000Y-64959376D01*
X99615034Y-64837880D01*
X99567745Y-64681990D01*
X99544450Y-64638407D01*
X99490952Y-64538319D01*
X99413502Y-64443948D01*
X99413501Y-64443947D01*
X99387606Y-64412394D01*
X99370883Y-64398670D01*
X100956053Y-62813501D01*
X100987606Y-62787606D01*
X101013502Y-62756052D01*
X101041012Y-62722532D01*
X101048567Y-62720240D01*
X101183272Y-62648239D01*
X101301342Y-62551342D01*
X101398239Y-62433272D01*
X101400000Y-62429977D01*
X101401761Y-62433272D01*
X101498658Y-62551342D01*
X101616728Y-62648239D01*
X101751433Y-62720240D01*
X101897596Y-62764578D01*
X102049600Y-62779549D01*
X102750400Y-62779549D01*
X102902404Y-62764578D01*
X103048567Y-62720240D01*
X103183272Y-62648239D01*
X103301342Y-62551342D01*
X103398239Y-62433272D01*
X103470240Y-62298567D01*
X103514578Y-62152404D01*
X103529549Y-62000400D01*
X103529549Y-60999600D01*
X103514578Y-60847596D01*
X103470240Y-60701433D01*
X103398239Y-60566728D01*
X103301342Y-60448658D01*
X103227000Y-60387647D01*
X103227000Y-59990614D01*
X103231000Y-59950000D01*
X103227000Y-59909386D01*
X103227000Y-59909376D01*
X103215034Y-59787880D01*
X103175044Y-59656051D01*
X103167745Y-59631989D01*
X103090952Y-59488320D01*
X103013503Y-59393948D01*
X103013496Y-59393941D01*
X102987606Y-59362394D01*
X102956058Y-59336503D01*
X102879549Y-59259994D01*
X102879549Y-58780000D01*
X102867837Y-58661083D01*
X102833150Y-58546736D01*
X102816221Y-58515064D01*
X106423592Y-62122436D01*
X106447920Y-62152080D01*
X106477564Y-62176408D01*
X106477565Y-62176409D01*
X106566233Y-62249177D01*
X106689443Y-62315034D01*
X106701216Y-62321327D01*
X106847681Y-62365757D01*
X106961834Y-62377000D01*
X106961836Y-62377000D01*
X107000000Y-62380759D01*
X107038163Y-62377000D01*
X107720481Y-62377000D01*
X107750823Y-62433766D01*
X107786304Y-62477000D01*
X107847920Y-62552080D01*
X107877569Y-62576412D01*
X108174157Y-62873000D01*
X104375548Y-62873000D01*
X104352650Y-62860761D01*
X104253310Y-62830626D01*
X104150000Y-62820451D01*
X101550000Y-62820451D01*
X101446690Y-62830626D01*
X101347350Y-62860761D01*
X101255798Y-62909696D01*
X101175552Y-62975552D01*
X101109696Y-63055798D01*
X101060761Y-63147350D01*
X101030626Y-63246690D01*
X101020451Y-63350000D01*
X101020451Y-65350000D01*
X101030626Y-65453310D01*
X101060761Y-65552650D01*
X101109696Y-65644202D01*
X101175552Y-65724448D01*
X101255798Y-65790304D01*
X101347350Y-65839239D01*
X101446690Y-65869374D01*
X101550000Y-65879549D01*
X104150000Y-65879549D01*
X104253310Y-65869374D01*
X104352650Y-65839239D01*
X104375548Y-65827000D01*
X109624452Y-65827000D01*
X109647350Y-65839239D01*
X109746690Y-65869374D01*
X109850000Y-65879549D01*
X112380706Y-65879549D01*
X113281566Y-66780410D01*
X113251761Y-66816728D01*
X113179760Y-66951433D01*
X113135422Y-67097596D01*
X113120451Y-67249600D01*
X113120451Y-67950400D01*
X113135422Y-68102404D01*
X113179760Y-68248567D01*
X113251761Y-68383272D01*
X113348658Y-68501342D01*
X113466728Y-68598239D01*
X113470023Y-68600000D01*
X113466728Y-68601761D01*
X113348658Y-68698658D01*
X113251761Y-68816728D01*
X113179760Y-68951433D01*
X113135422Y-69097596D01*
X113120451Y-69249600D01*
X113120451Y-69950400D01*
X113135422Y-70102404D01*
X113179760Y-70248567D01*
X113251761Y-70383272D01*
X113348658Y-70501342D01*
X113466728Y-70598239D01*
X113601433Y-70670240D01*
X113747596Y-70714578D01*
X113899600Y-70729549D01*
X114759995Y-70729549D01*
X115273000Y-71242555D01*
X115273000Y-71683888D01*
X115212459Y-71634203D01*
X114947184Y-71492410D01*
X114659343Y-71405095D01*
X114360000Y-71375612D01*
X114060656Y-71405095D01*
X113772815Y-71492410D01*
X113507540Y-71634203D01*
X113275024Y-71825024D01*
X113090000Y-72050477D01*
X112904976Y-71825024D01*
X112672459Y-71634203D01*
X112407184Y-71492410D01*
X112119343Y-71405095D01*
X111820000Y-71375612D01*
X111520656Y-71405095D01*
X111232815Y-71492410D01*
X110967540Y-71634203D01*
X110735024Y-71825024D01*
X110550000Y-72050477D01*
X110364976Y-71825024D01*
X110132459Y-71634203D01*
X109867184Y-71492410D01*
X109579343Y-71405095D01*
X109280000Y-71375612D01*
X108980656Y-71405095D01*
X108692815Y-71492410D01*
X108427540Y-71634203D01*
X108195024Y-71825024D01*
X108010000Y-72050477D01*
X107824976Y-71825024D01*
X107592459Y-71634203D01*
X107327184Y-71492410D01*
X107039343Y-71405095D01*
X106740000Y-71375612D01*
X106440656Y-71405095D01*
X106152815Y-71492410D01*
X105887540Y-71634203D01*
X105655024Y-71825024D01*
X105470000Y-72050477D01*
X105284976Y-71825024D01*
X105052459Y-71634203D01*
X104787184Y-71492410D01*
X104499343Y-71405095D01*
X104200000Y-71375612D01*
X103900656Y-71405095D01*
X103612815Y-71492410D01*
X103347540Y-71634203D01*
X103115024Y-71825024D01*
X102930000Y-72050477D01*
X102744976Y-71825024D01*
X102512459Y-71634203D01*
X102247184Y-71492410D01*
X101959343Y-71405095D01*
X101660000Y-71375612D01*
X101360656Y-71405095D01*
X101072815Y-71492410D01*
X100807540Y-71634203D01*
X100575024Y-71825024D01*
X100390000Y-72050477D01*
X100204976Y-71825024D01*
X99972459Y-71634203D01*
X99827000Y-71556453D01*
X99827000Y-70175881D01*
X99829549Y-70150000D01*
X99829549Y-69150000D01*
X99819374Y-69046690D01*
X99789239Y-68947350D01*
X99740304Y-68855798D01*
X99674448Y-68775552D01*
X99594202Y-68709696D01*
X99502650Y-68660761D01*
X99403310Y-68630626D01*
X99300000Y-68620451D01*
X98300000Y-68620451D01*
X98196690Y-68630626D01*
X98097350Y-68660761D01*
X98005798Y-68709696D01*
X97925552Y-68775552D01*
X97859696Y-68855798D01*
X97810761Y-68947350D01*
X97780626Y-69046690D01*
X97770451Y-69150000D01*
X97770451Y-70150000D01*
X97780626Y-70253310D01*
X97810761Y-70352650D01*
X97859696Y-70444202D01*
X97925552Y-70524448D01*
X98005798Y-70590304D01*
X98097350Y-70639239D01*
X98173000Y-70662188D01*
X98173001Y-71711789D01*
X98035024Y-71825024D01*
X97850000Y-72050477D01*
X97664976Y-71825024D01*
X97432459Y-71634203D01*
X97167184Y-71492410D01*
X96879343Y-71405095D01*
X96580000Y-71375612D01*
X96280656Y-71405095D01*
X95992815Y-71492410D01*
X95727540Y-71634203D01*
X95495024Y-71825024D01*
X95310000Y-72050477D01*
X95124976Y-71825024D01*
X94892459Y-71634203D01*
X94627184Y-71492410D01*
X94339343Y-71405095D01*
X94040000Y-71375612D01*
X93740656Y-71405095D01*
X93452815Y-71492410D01*
X93187540Y-71634203D01*
X92955024Y-71825024D01*
X92770000Y-72050477D01*
X92584976Y-71825024D01*
X92352459Y-71634203D01*
X92087184Y-71492410D01*
X91799343Y-71405095D01*
X91500000Y-71375612D01*
X91200656Y-71405095D01*
X90912815Y-71492410D01*
X90647540Y-71634203D01*
X90415024Y-71825024D01*
X90230000Y-72050477D01*
X90044976Y-71825024D01*
X89812459Y-71634203D01*
X89547184Y-71492410D01*
X89259343Y-71405095D01*
X88960000Y-71375612D01*
X88660656Y-71405095D01*
X88372815Y-71492410D01*
X88107540Y-71634203D01*
X87875024Y-71825024D01*
X87690000Y-72050477D01*
X87504976Y-71825024D01*
X87272459Y-71634203D01*
X87007184Y-71492410D01*
X86719343Y-71405095D01*
X86420000Y-71375612D01*
X86120656Y-71405095D01*
X85832815Y-71492410D01*
X85567540Y-71634203D01*
X85335024Y-71825024D01*
X85150000Y-72050477D01*
X84964976Y-71825024D01*
X84732459Y-71634203D01*
X84467184Y-71492410D01*
X84179343Y-71405095D01*
X83880000Y-71375612D01*
X83580656Y-71405095D01*
X83292815Y-71492410D01*
X83027540Y-71634203D01*
X82795024Y-71825024D01*
X82737285Y-71895379D01*
X82707613Y-71848259D01*
X82474199Y-71601852D01*
X82197199Y-71405716D01*
X81887257Y-71267389D01*
X81730962Y-71227836D01*
X81463000Y-71369653D01*
X81217000Y-71369653D01*
X80949038Y-71227836D01*
X80792743Y-71267389D01*
X80482801Y-71405716D01*
X80205801Y-71601852D01*
X79972387Y-71848259D01*
X79942715Y-71895379D01*
X79884976Y-71825024D01*
X79652459Y-71634203D01*
X79387184Y-71492410D01*
X79099343Y-71405095D01*
X78800000Y-71375612D01*
X78500656Y-71405095D01*
X78212815Y-71492410D01*
X77947540Y-71634203D01*
X77715024Y-71825024D01*
X77524203Y-72057541D01*
X77382410Y-72322816D01*
X77295095Y-72610657D01*
X77273000Y-72834990D01*
X75077000Y-72834990D01*
X75077000Y-68449604D01*
X76073000Y-68449604D01*
X76073000Y-68750396D01*
X76131681Y-69045410D01*
X76246790Y-69323306D01*
X76413901Y-69573406D01*
X76626594Y-69786099D01*
X76876694Y-69953210D01*
X77154590Y-70068319D01*
X77449604Y-70127000D01*
X77750396Y-70127000D01*
X78045410Y-70068319D01*
X78323306Y-69953210D01*
X78328110Y-69950000D01*
X92469482Y-69950000D01*
X92483519Y-70092517D01*
X92525089Y-70229557D01*
X92592596Y-70355854D01*
X92683446Y-70466554D01*
X92794146Y-70557404D01*
X92920443Y-70624911D01*
X93057483Y-70666481D01*
X93200000Y-70680518D01*
X93495250Y-70677000D01*
X93677000Y-70495250D01*
X93677000Y-69323000D01*
X92654750Y-69323000D01*
X92473000Y-69504750D01*
X92469482Y-69950000D01*
X78328110Y-69950000D01*
X78573406Y-69786099D01*
X78786099Y-69573406D01*
X78953210Y-69323306D01*
X79068319Y-69045410D01*
X79127000Y-68750396D01*
X79127000Y-68449604D01*
X79068319Y-68154590D01*
X79045707Y-68100000D01*
X81569482Y-68100000D01*
X81583519Y-68242517D01*
X81625089Y-68379557D01*
X81692596Y-68505854D01*
X81783446Y-68616554D01*
X81894146Y-68707404D01*
X82020443Y-68774911D01*
X82157483Y-68816481D01*
X82300000Y-68830518D01*
X83745250Y-68827000D01*
X83927000Y-68645250D01*
X83927000Y-67773000D01*
X86673000Y-67773000D01*
X86673000Y-68645250D01*
X86854750Y-68827000D01*
X88300000Y-68830518D01*
X88442517Y-68816481D01*
X88579557Y-68774911D01*
X88705854Y-68707404D01*
X88816554Y-68616554D01*
X88907404Y-68505854D01*
X88974911Y-68379557D01*
X89016481Y-68242517D01*
X89030518Y-68100000D01*
X89027000Y-67954750D01*
X88845250Y-67773000D01*
X86673000Y-67773000D01*
X83927000Y-67773000D01*
X81754750Y-67773000D01*
X81573000Y-67954750D01*
X81569482Y-68100000D01*
X79045707Y-68100000D01*
X78953210Y-67876694D01*
X78786099Y-67626594D01*
X78573406Y-67413901D01*
X78323306Y-67246790D01*
X78045410Y-67131681D01*
X77750396Y-67073000D01*
X77449604Y-67073000D01*
X77154590Y-67131681D01*
X76876694Y-67246790D01*
X76626594Y-67413901D01*
X76413901Y-67626594D01*
X76246790Y-67876694D01*
X76131681Y-68154590D01*
X76073000Y-68449604D01*
X75077000Y-68449604D01*
X75077000Y-64700000D01*
X81569482Y-64700000D01*
X81573000Y-64845250D01*
X81754750Y-65027000D01*
X83927000Y-65027000D01*
X83927000Y-64154750D01*
X86673000Y-64154750D01*
X86673000Y-65027000D01*
X88845250Y-65027000D01*
X89027000Y-64845250D01*
X89030518Y-64700000D01*
X89016481Y-64557483D01*
X88974911Y-64420443D01*
X88907404Y-64294146D01*
X88816554Y-64183446D01*
X88705854Y-64092596D01*
X88579557Y-64025089D01*
X88442517Y-63983519D01*
X88300000Y-63969482D01*
X86854750Y-63973000D01*
X86673000Y-64154750D01*
X83927000Y-64154750D01*
X83745250Y-63973000D01*
X82300000Y-63969482D01*
X82157483Y-63983519D01*
X82020443Y-64025089D01*
X81894146Y-64092596D01*
X81783446Y-64183446D01*
X81692596Y-64294146D01*
X81625089Y-64420443D01*
X81583519Y-64557483D01*
X81569482Y-64700000D01*
X75077000Y-64700000D01*
X75077000Y-62800000D01*
X85719482Y-62800000D01*
X85733519Y-62942517D01*
X85775089Y-63079557D01*
X85842596Y-63205854D01*
X85933446Y-63316554D01*
X86044146Y-63407404D01*
X86170443Y-63474911D01*
X86307483Y-63516481D01*
X86450000Y-63530518D01*
X87595250Y-63527000D01*
X87777000Y-63345250D01*
X87777000Y-62573000D01*
X88323000Y-62573000D01*
X88323000Y-63345250D01*
X88504750Y-63527000D01*
X89650000Y-63530518D01*
X89792517Y-63516481D01*
X89929557Y-63474911D01*
X90055854Y-63407404D01*
X90166554Y-63316554D01*
X90257404Y-63205854D01*
X90324911Y-63079557D01*
X90366481Y-62942517D01*
X90380518Y-62800000D01*
X90377000Y-62754750D01*
X90195250Y-62573000D01*
X88323000Y-62573000D01*
X87777000Y-62573000D01*
X85904750Y-62573000D01*
X85723000Y-62754750D01*
X85719482Y-62800000D01*
X75077000Y-62800000D01*
X75077000Y-61184076D01*
X82823000Y-61184076D01*
X82823000Y-61415924D01*
X82868231Y-61643318D01*
X82956956Y-61857519D01*
X83085764Y-62050294D01*
X83249706Y-62214236D01*
X83442481Y-62343044D01*
X83656682Y-62431769D01*
X83884076Y-62477000D01*
X84115924Y-62477000D01*
X84343318Y-62431769D01*
X84557519Y-62343044D01*
X84750294Y-62214236D01*
X84914236Y-62050294D01*
X85043044Y-61857519D01*
X85066869Y-61800000D01*
X85719482Y-61800000D01*
X85723000Y-61845250D01*
X85904750Y-62027000D01*
X87777000Y-62027000D01*
X87777000Y-61254750D01*
X88323000Y-61254750D01*
X88323000Y-62027000D01*
X90195250Y-62027000D01*
X90377000Y-61845250D01*
X90380518Y-61800000D01*
X90366481Y-61657483D01*
X90324911Y-61520443D01*
X90257404Y-61394146D01*
X90166554Y-61283446D01*
X90055854Y-61192596D01*
X89929557Y-61125089D01*
X89792517Y-61083519D01*
X89650000Y-61069482D01*
X88504750Y-61073000D01*
X88323000Y-61254750D01*
X87777000Y-61254750D01*
X87595250Y-61073000D01*
X86450000Y-61069482D01*
X86307483Y-61083519D01*
X86170443Y-61125089D01*
X86044146Y-61192596D01*
X85933446Y-61283446D01*
X85842596Y-61394146D01*
X85775089Y-61520443D01*
X85733519Y-61657483D01*
X85719482Y-61800000D01*
X85066869Y-61800000D01*
X85131769Y-61643318D01*
X85177000Y-61415924D01*
X85177000Y-61184076D01*
X85131769Y-60956682D01*
X85043044Y-60742481D01*
X84914236Y-60549706D01*
X84750294Y-60385764D01*
X84557519Y-60256956D01*
X84343318Y-60168231D01*
X84115924Y-60123000D01*
X83884076Y-60123000D01*
X83656682Y-60168231D01*
X83442481Y-60256956D01*
X83249706Y-60385764D01*
X83085764Y-60549706D01*
X82956956Y-60742481D01*
X82868231Y-60956682D01*
X82823000Y-61184076D01*
X75077000Y-61184076D01*
X75077000Y-56184076D01*
X82823000Y-56184076D01*
X82823000Y-56415924D01*
X82868231Y-56643318D01*
X82956956Y-56857519D01*
X83085764Y-57050294D01*
X83249706Y-57214236D01*
X83442481Y-57343044D01*
X83656682Y-57431769D01*
X83884076Y-57477000D01*
X84115924Y-57477000D01*
X84343318Y-57431769D01*
X84516583Y-57360000D01*
X85920451Y-57360000D01*
X85920451Y-58240000D01*
X85931779Y-58355015D01*
X85965328Y-58465611D01*
X86019808Y-58567536D01*
X86093126Y-58656874D01*
X86182464Y-58730192D01*
X86284389Y-58784672D01*
X86334919Y-58800000D01*
X86284389Y-58815328D01*
X86182464Y-58869808D01*
X86093126Y-58943126D01*
X86019808Y-59032464D01*
X85965328Y-59134389D01*
X85931779Y-59244985D01*
X85920451Y-59360000D01*
X85920451Y-60240000D01*
X85931779Y-60355015D01*
X85965328Y-60465611D01*
X86019808Y-60567536D01*
X86093126Y-60656874D01*
X86182464Y-60730192D01*
X86284389Y-60784672D01*
X86394985Y-60818221D01*
X86510000Y-60829549D01*
X89590000Y-60829549D01*
X89705015Y-60818221D01*
X89815611Y-60784672D01*
X89829964Y-60777000D01*
X90995314Y-60777000D01*
X91626170Y-61407856D01*
X91627838Y-61416241D01*
X91735409Y-61675938D01*
X91891576Y-61909660D01*
X92090340Y-62108424D01*
X92324062Y-62264591D01*
X92583759Y-62372162D01*
X92859453Y-62427000D01*
X93140547Y-62427000D01*
X93416241Y-62372162D01*
X93675938Y-62264591D01*
X93909660Y-62108424D01*
X94108424Y-61909660D01*
X94264591Y-61675938D01*
X94372162Y-61416241D01*
X94427000Y-61140547D01*
X94427000Y-60859453D01*
X94372162Y-60583759D01*
X94264591Y-60324062D01*
X94108424Y-60090340D01*
X93909660Y-59891576D01*
X93675938Y-59735409D01*
X93416241Y-59627838D01*
X93140547Y-59573000D01*
X92859453Y-59573000D01*
X92605249Y-59623563D01*
X92124784Y-59143098D01*
X92094186Y-59105814D01*
X91945418Y-58983724D01*
X91775691Y-58893003D01*
X91591525Y-58837137D01*
X91447993Y-58823000D01*
X91400000Y-58818273D01*
X91352007Y-58823000D01*
X89829964Y-58823000D01*
X89815611Y-58815328D01*
X89765081Y-58800000D01*
X89815611Y-58784672D01*
X89829964Y-58777000D01*
X91958916Y-58777000D01*
X92090340Y-58908424D01*
X92324062Y-59064591D01*
X92583759Y-59172162D01*
X92859453Y-59227000D01*
X93140547Y-59227000D01*
X93416241Y-59172162D01*
X93675938Y-59064591D01*
X93909660Y-58908424D01*
X94108424Y-58709660D01*
X94264591Y-58475938D01*
X94372162Y-58216241D01*
X94427000Y-57940547D01*
X94427000Y-57659453D01*
X94372162Y-57383759D01*
X94264591Y-57124062D01*
X94108424Y-56890340D01*
X93909660Y-56691576D01*
X93675938Y-56535409D01*
X93416241Y-56427838D01*
X93140547Y-56373000D01*
X92859453Y-56373000D01*
X92583759Y-56427838D01*
X92324062Y-56535409D01*
X92090340Y-56691576D01*
X91958916Y-56823000D01*
X89829964Y-56823000D01*
X89815611Y-56815328D01*
X89705015Y-56781779D01*
X89590000Y-56770451D01*
X86510000Y-56770451D01*
X86394985Y-56781779D01*
X86284389Y-56815328D01*
X86182464Y-56869808D01*
X86093126Y-56943126D01*
X86019808Y-57032464D01*
X85965328Y-57134389D01*
X85931779Y-57244985D01*
X85920451Y-57360000D01*
X84516583Y-57360000D01*
X84557519Y-57343044D01*
X84750294Y-57214236D01*
X84914236Y-57050294D01*
X85043044Y-56857519D01*
X85131769Y-56643318D01*
X85177000Y-56415924D01*
X85177000Y-56184076D01*
X85131769Y-55956682D01*
X85043044Y-55742481D01*
X84914236Y-55549706D01*
X84750294Y-55385764D01*
X84557519Y-55256956D01*
X84343318Y-55168231D01*
X84115924Y-55123000D01*
X83884076Y-55123000D01*
X83656682Y-55168231D01*
X83442481Y-55256956D01*
X83249706Y-55385764D01*
X83085764Y-55549706D01*
X82956956Y-55742481D01*
X82868231Y-55956682D01*
X82823000Y-56184076D01*
X75077000Y-56184076D01*
X75077000Y-54860000D01*
X85920451Y-54860000D01*
X85920451Y-55740000D01*
X85931779Y-55855015D01*
X85965328Y-55965611D01*
X86019808Y-56067536D01*
X86093126Y-56156874D01*
X86182464Y-56230192D01*
X86284389Y-56284672D01*
X86394985Y-56318221D01*
X86510000Y-56329549D01*
X89590000Y-56329549D01*
X89705015Y-56318221D01*
X89815611Y-56284672D01*
X89917536Y-56230192D01*
X89921425Y-56227000D01*
X93516025Y-56227000D01*
X96112312Y-58823287D01*
X96141341Y-58858659D01*
X96176712Y-58887687D01*
X96282494Y-58974501D01*
X96360584Y-59016241D01*
X96443536Y-59060580D01*
X96618276Y-59113587D01*
X96754462Y-59127000D01*
X96754474Y-59127000D01*
X96799999Y-59131484D01*
X96845524Y-59127000D01*
X98104119Y-59127000D01*
X98130000Y-59129549D01*
X99570000Y-59129549D01*
X99688917Y-59117837D01*
X99803264Y-59083150D01*
X99908647Y-59026821D01*
X100001016Y-58951016D01*
X100076821Y-58858647D01*
X100133150Y-58753264D01*
X100167837Y-58638917D01*
X100179549Y-58520000D01*
X100179549Y-57880000D01*
X100167837Y-57761083D01*
X100133150Y-57646736D01*
X100076821Y-57541353D01*
X100001016Y-57448984D01*
X99908647Y-57373179D01*
X99803264Y-57316850D01*
X99688917Y-57282163D01*
X99570000Y-57270451D01*
X98130000Y-57270451D01*
X98104119Y-57273000D01*
X97183975Y-57273000D01*
X95240264Y-55329289D01*
X96021428Y-54548126D01*
X96032551Y-54554072D01*
X96218558Y-54610497D01*
X96412000Y-54629549D01*
X97588000Y-54629549D01*
X97781442Y-54610497D01*
X97967449Y-54554072D01*
X98138875Y-54462443D01*
X98289131Y-54339131D01*
X98412443Y-54188875D01*
X98421420Y-54172080D01*
X98659628Y-54367572D01*
X98933589Y-54514007D01*
X99230855Y-54604182D01*
X99540000Y-54634630D01*
X99849146Y-54604182D01*
X100146412Y-54514007D01*
X100420373Y-54367572D01*
X100660503Y-54170503D01*
X100857572Y-53930373D01*
X101004007Y-53656412D01*
X101094182Y-53359146D01*
X101107197Y-53227000D01*
X101944958Y-53227000D01*
X102001761Y-53333272D01*
X102098658Y-53451342D01*
X102216728Y-53548239D01*
X102351433Y-53620240D01*
X102497596Y-53664578D01*
X102649600Y-53679549D01*
X103350400Y-53679549D01*
X103502404Y-53664578D01*
X103648567Y-53620240D01*
X103783272Y-53548239D01*
X103786924Y-53545242D01*
X103792596Y-53555854D01*
X103883446Y-53666554D01*
X103994146Y-53757404D01*
X104120443Y-53824911D01*
X104257483Y-53866481D01*
X104400000Y-53880518D01*
X104695250Y-53877000D01*
X104877000Y-53695250D01*
X104877000Y-52523000D01*
X105123000Y-52523000D01*
X105123000Y-53695250D01*
X105304750Y-53877000D01*
X105600000Y-53880518D01*
X105742517Y-53866481D01*
X105879557Y-53824911D01*
X106005854Y-53757404D01*
X106081588Y-53695250D01*
X108823000Y-53695250D01*
X109004750Y-53877000D01*
X111177000Y-53877000D01*
X111177000Y-53204750D01*
X110995250Y-53023000D01*
X109559461Y-53019543D01*
X109416774Y-53031733D01*
X109279207Y-53071525D01*
X109152047Y-53137391D01*
X109040179Y-53226799D01*
X108947904Y-53336313D01*
X108878767Y-53461725D01*
X108835425Y-53598216D01*
X108823000Y-53695250D01*
X106081588Y-53695250D01*
X106116554Y-53666554D01*
X106207404Y-53555854D01*
X106274911Y-53429557D01*
X106316481Y-53292517D01*
X106330518Y-53150000D01*
X106327000Y-52704750D01*
X106145250Y-52523000D01*
X105123000Y-52523000D01*
X104877000Y-52523000D01*
X104857000Y-52523000D01*
X104857000Y-52277000D01*
X104877000Y-52277000D01*
X104877000Y-51104750D01*
X105123000Y-51104750D01*
X105123000Y-52277000D01*
X106145250Y-52277000D01*
X106167500Y-52254750D01*
X109823000Y-52254750D01*
X109836039Y-52354651D01*
X109879929Y-52490966D01*
X109949569Y-52616100D01*
X110042283Y-52725243D01*
X110154508Y-52814201D01*
X110281932Y-52879556D01*
X110419658Y-52918796D01*
X110495250Y-52927000D01*
X110677000Y-52745250D01*
X110677000Y-52073000D01*
X112923000Y-52073000D01*
X112923000Y-52745250D01*
X113104750Y-52927000D01*
X113180342Y-52918796D01*
X113318068Y-52879556D01*
X113445492Y-52814201D01*
X113557717Y-52725243D01*
X113650431Y-52616100D01*
X113720071Y-52490966D01*
X113763961Y-52354651D01*
X113777000Y-52254750D01*
X115323000Y-52254750D01*
X115336039Y-52354651D01*
X115379929Y-52490966D01*
X115449569Y-52616100D01*
X115542283Y-52725243D01*
X115654508Y-52814201D01*
X115781932Y-52879556D01*
X115919658Y-52918796D01*
X115995250Y-52927000D01*
X116177000Y-52745250D01*
X116177000Y-52073000D01*
X115504750Y-52073000D01*
X115323000Y-52254750D01*
X113777000Y-52254750D01*
X113595250Y-52073000D01*
X112923000Y-52073000D01*
X110677000Y-52073000D01*
X110004750Y-52073000D01*
X109823000Y-52254750D01*
X106167500Y-52254750D01*
X106327000Y-52095250D01*
X106330518Y-51650000D01*
X106316481Y-51507483D01*
X106274911Y-51370443D01*
X106207404Y-51244146D01*
X106116554Y-51133446D01*
X106005854Y-51042596D01*
X105879557Y-50975089D01*
X105742517Y-50933519D01*
X105600000Y-50919482D01*
X105304750Y-50923000D01*
X105123000Y-51104750D01*
X104877000Y-51104750D01*
X104695250Y-50923000D01*
X104400000Y-50919482D01*
X104257483Y-50933519D01*
X104120443Y-50975089D01*
X103994146Y-51042596D01*
X103883446Y-51133446D01*
X103792596Y-51244146D01*
X103786924Y-51254758D01*
X103783272Y-51251761D01*
X103648567Y-51179760D01*
X103502404Y-51135422D01*
X103350400Y-51120451D01*
X102649600Y-51120451D01*
X102497596Y-51135422D01*
X102351433Y-51179760D01*
X102216728Y-51251761D01*
X102098658Y-51348658D01*
X102001761Y-51466728D01*
X101944958Y-51573000D01*
X101012929Y-51573000D01*
X101004007Y-51543588D01*
X100857572Y-51269627D01*
X100660503Y-51029497D01*
X100420372Y-50832428D01*
X100146411Y-50685993D01*
X99849145Y-50595818D01*
X99540000Y-50565370D01*
X99230854Y-50595818D01*
X98933588Y-50685993D01*
X98659627Y-50832428D01*
X98421420Y-51027919D01*
X98412443Y-51011125D01*
X98289131Y-50860869D01*
X98138875Y-50737557D01*
X97967449Y-50645928D01*
X97781442Y-50589503D01*
X97588000Y-50570451D01*
X96412000Y-50570451D01*
X96218558Y-50589503D01*
X96032551Y-50645928D01*
X95861125Y-50737557D01*
X95710869Y-50860869D01*
X95587557Y-51011125D01*
X95495928Y-51182551D01*
X95439503Y-51368558D01*
X95420451Y-51562000D01*
X95420451Y-52809995D01*
X93857772Y-54372675D01*
X93854473Y-54373000D01*
X89921425Y-54373000D01*
X89917536Y-54369808D01*
X89815611Y-54315328D01*
X89705015Y-54281779D01*
X89590000Y-54270451D01*
X86510000Y-54270451D01*
X86394985Y-54281779D01*
X86284389Y-54315328D01*
X86182464Y-54369808D01*
X86093126Y-54443126D01*
X86019808Y-54532464D01*
X85965328Y-54634389D01*
X85931779Y-54744985D01*
X85920451Y-54860000D01*
X75077000Y-54860000D01*
X75077000Y-52900000D01*
X81569482Y-52900000D01*
X81583519Y-53042517D01*
X81625089Y-53179557D01*
X81692596Y-53305854D01*
X81783446Y-53416554D01*
X81894146Y-53507404D01*
X82020443Y-53574911D01*
X82157483Y-53616481D01*
X82300000Y-53630518D01*
X83745250Y-53627000D01*
X83927000Y-53445250D01*
X83927000Y-52573000D01*
X86673000Y-52573000D01*
X86673000Y-53445250D01*
X86854750Y-53627000D01*
X88300000Y-53630518D01*
X88442517Y-53616481D01*
X88579557Y-53574911D01*
X88705854Y-53507404D01*
X88816554Y-53416554D01*
X88907404Y-53305854D01*
X88974911Y-53179557D01*
X89016481Y-53042517D01*
X89030518Y-52900000D01*
X89027000Y-52754750D01*
X88845250Y-52573000D01*
X86673000Y-52573000D01*
X83927000Y-52573000D01*
X81754750Y-52573000D01*
X81573000Y-52754750D01*
X81569482Y-52900000D01*
X75077000Y-52900000D01*
X75077000Y-50145250D01*
X109823000Y-50145250D01*
X110004750Y-50327000D01*
X110677000Y-50327000D01*
X110677000Y-49654750D01*
X112923000Y-49654750D01*
X112923000Y-50327000D01*
X113595250Y-50327000D01*
X113777000Y-50145250D01*
X115323000Y-50145250D01*
X115504750Y-50327000D01*
X116177000Y-50327000D01*
X116177000Y-49654750D01*
X115995250Y-49473000D01*
X115919658Y-49481204D01*
X115781932Y-49520444D01*
X115654508Y-49585799D01*
X115542283Y-49674757D01*
X115449569Y-49783900D01*
X115379929Y-49909034D01*
X115336039Y-50045349D01*
X115323000Y-50145250D01*
X113777000Y-50145250D01*
X113763961Y-50045349D01*
X113720071Y-49909034D01*
X113650431Y-49783900D01*
X113557717Y-49674757D01*
X113445492Y-49585799D01*
X113318068Y-49520444D01*
X113180342Y-49481204D01*
X113104750Y-49473000D01*
X112923000Y-49654750D01*
X110677000Y-49654750D01*
X110495250Y-49473000D01*
X110419658Y-49481204D01*
X110281932Y-49520444D01*
X110154508Y-49585799D01*
X110042283Y-49674757D01*
X109949569Y-49783900D01*
X109879929Y-49909034D01*
X109836039Y-50045349D01*
X109823000Y-50145250D01*
X75077000Y-50145250D01*
X75077000Y-49377000D01*
X81581597Y-49377000D01*
X81569482Y-49500000D01*
G37*
%TD.AperFunction*%
%TD*%
M02*
