M48
; DRILL file {KiCad (6.0.7)} date Tue Dec 27 14:57:16 2022
; FORMAT={-:-/ absolute / metric / decimal}
; #@! TF.CreationDate,2022-12-27T14:57:16-05:00
; #@! TF.GenerationSoftware,Kicad,Pcbnew,(6.0.7)
; #@! TF.FileFunction,MixedPlating,1,2
FMAT,2
METRIC
; #@! TA.AperFunction,Plated,PTH,ViaDrill
T1C0.600
; #@! TA.AperFunction,Plated,PTH,ComponentDrill
T2C0.800
; #@! TA.AperFunction,Plated,PTH,ComponentDrill
T3C2.000
%
G90
G05
T1
X55.4Y-43.9
X55.4Y-73.15
X55.45Y-47.15
X68.2Y-36.7
X68.25Y-40.2
X96.2Y-37.0
T2
X59.4Y-71.135
X59.4Y-73.675
X60.55Y-50.31
X60.55Y-65.31
X61.53Y-36.52
X63.09Y-50.31
X63.09Y-65.31
X64.07Y-36.52
X65.27Y-70.56
X65.27Y-73.1
X65.27Y-75.64
X65.63Y-50.31
X65.63Y-65.31
X68.17Y-50.31
X68.17Y-65.31
X70.71Y-50.31
X70.71Y-65.31
X71.18Y-41.6
X71.94Y-73.6
X73.25Y-50.31
X73.25Y-65.31
X73.72Y-41.6
X75.79Y-50.31
X75.79Y-65.31
X76.26Y-41.6
X78.33Y-50.31
X78.33Y-65.31
X78.8Y-41.6
X79.56Y-73.6
X80.87Y-50.31
X80.87Y-65.31
X83.18Y-42.57
X83.41Y-50.31
X83.41Y-65.31
X85.72Y-42.57
X85.95Y-50.31
X85.95Y-65.31
X87.18Y-71.625
X88.49Y-50.31
X88.49Y-65.31
X89.72Y-71.625
X90.29Y-41.47
X91.03Y-50.31
X91.03Y-65.31
X92.26Y-71.625
X92.83Y-41.47
X93.57Y-50.31
X93.57Y-65.31
X94.8Y-71.625
X95.37Y-41.47
X96.11Y-50.31
X96.11Y-65.31
X97.91Y-41.47
T3
X56.0Y-33.8
X56.0Y-77.0
X99.0Y-33.8
X99.0Y-77.0
T0
M30
