M48
METRIC,TZ
VER,1
FMAT,2
DETECT,ON
ATC,ON
T1C0.900
T2C0.600
T3C1.500
T4C3.000
%
T1
X71946Y9464
Y3904
X56048Y17948
X58588
X61128
X63668
X66208
X68748
X71288
X73828
X76368
X78908
X81448
X83988
X86528
X89068
X53508Y32548
X89068
X86528
X83988
X81448
X78908
X76368
X73828
X71288
X68748
X66208
X63668
X61128
X58588
X56048
X53508Y17948
X26008Y60148
Y56648
X35008Y60148
Y56648
X67248Y54148
X59628
X52008Y61768
X54548Y54148
X57088
X62168
X59628Y61768
X54548
X57088
X62168
X64708Y54148
X67248Y61768
X64708
X52008Y54148
X9412Y50092
X6110
X70008Y47608
Y50148
Y45068
Y42528
X5008Y21188
Y18648
Y23728
Y28808
Y26268
Y31348
X89008Y6148
X83928
X86468
X81388
X50050Y13088
X62750
T2
X63246Y7366
X95504Y9652
X31808Y19282
Y17504
Y15726
Y13948
X46228Y16256
X30734Y24638
X32512
X30734Y26416
X32512
X50038Y26670
X71882Y26924
X19558Y28448
X95758Y27940
X27940Y28956
X44958Y30480
X83058Y29210
X89154Y38354
X39878Y40894
X95758Y40386
X43688Y45720
X63754Y45212
X88138Y51054
X46482Y54610
X83820Y55372
X24384Y3500
X20000
X15500Y3556
Y9144
Y15240
X20000Y16500
X24384
X13462Y42418
Y36830
X17272Y32258
X22098
X17780Y45500
X22352
X10922Y9144
T3
X14008Y60648
Y56648
T4
X4000Y4000
Y61000
X96000
Y4000
M30
