M48
; DRILL file {KiCad (5.1.10)-1} date 11/21/21 11:10:27
; FORMAT={-:-/ absolute / metric / decimal}
; #@! TF.CreationDate,2021-11-21T11:10:27-05:00
; #@! TF.GenerationSoftware,Kicad,Pcbnew,(5.1.10)-1
FMAT,2
METRIC
T1C0.800
T2C1.600
T3C2.000
%
G90
G05
T1
X2.0Y-44.6
X5.8Y-44.6
X11.3Y-36.45
X11.3Y-51.95
X14.0Y-9.8
X16.54Y-9.8
X19.8Y-9.2
X31.0Y-27.8
X32.1Y-17.1
X32.1Y-32.1
X34.3Y-36.45
X34.3Y-51.95
X34.64Y-17.1
X34.64Y-32.1
X37.18Y-17.1
X37.18Y-32.1
X37.9Y-9.8
X39.72Y-17.1
X39.72Y-32.1
X40.36Y-50.9
X42.26Y-17.1
X42.26Y-32.1
X42.8Y-9.8
X42.9Y-50.9
X44.8Y-17.1
X44.8Y-32.1
X45.75Y-23.15
X47.0Y-9.8
X47.34Y-17.1
X47.34Y-32.1
X47.88Y-39.3
X49.88Y-17.1
X49.88Y-32.1
X50.42Y-39.3
X52.42Y-17.1
X52.42Y-32.1
X52.96Y-39.3
X54.96Y-17.1
X54.96Y-32.1
X55.5Y-39.3
X56.48Y-9.9
X57.5Y-17.1
X57.5Y-32.1
X59.02Y-9.9
X59.9Y-27.8
X60.04Y-17.1
X60.04Y-32.1
X60.99Y-23.15
X61.56Y-9.9
X62.58Y-17.1
X62.58Y-32.1
X64.1Y-9.9
X65.12Y-17.1
X65.12Y-32.1
X67.66Y-17.1
X67.66Y-32.1
T2
X1.6Y-34.9
X5.56Y-34.9
X21.14Y-22.6
X25.1Y-22.6
T3
X1.4Y-6.9
X1.4Y-51.7
X69.7Y-6.9
X69.7Y-51.7
T0
M30
