%FSLAX45Y45*%
G04 Gerber Fmt 4.5, Leading zero omitted, Abs format (unit mm)*
G04 Created by KiCad (PCBNEW (5.1.10)-1) date 2021-11-21 11:10:27*
%MOMM*%
%LPD*%
G01*
G04 APERTURE LIST*
%TA.AperFunction,Profile*%
%ADD10C,0.100000*%
%TD*%
%ADD11C,0.200000*%
%ADD12C,0.300000*%
G04 APERTURE END LIST*
D10*
X7270000Y-400000D02*
X7270000Y-5480000D01*
X-140000Y-400000D02*
X7270000Y-400000D01*
X-140000Y-5480000D02*
X-140000Y-400000D01*
X7270000Y-5480000D02*
X-140000Y-5480000D01*
D11*
X160000Y-4420000D02*
X240000Y-4500000D01*
X240000Y-4420000D02*
X160000Y-4500000D01*
X540000Y-4420000D02*
X620000Y-4500000D01*
X620000Y-4420000D02*
X540000Y-4500000D01*
X1090000Y-3605000D02*
X1170000Y-3685000D01*
X1170000Y-3605000D02*
X1090000Y-3685000D01*
X1090000Y-5155000D02*
X1170000Y-5235000D01*
X1170000Y-5155000D02*
X1090000Y-5235000D01*
X1360000Y-940000D02*
X1440000Y-1020000D01*
X1440000Y-940000D02*
X1360000Y-1020000D01*
X1614000Y-940000D02*
X1694000Y-1020000D01*
X1694000Y-940000D02*
X1614000Y-1020000D01*
X1940000Y-880000D02*
X2020000Y-960000D01*
X2020000Y-880000D02*
X1940000Y-960000D01*
X3060000Y-2740000D02*
X3140000Y-2820000D01*
X3140000Y-2740000D02*
X3060000Y-2820000D01*
X3170000Y-1670000D02*
X3250000Y-1750000D01*
X3250000Y-1670000D02*
X3170000Y-1750000D01*
X3170000Y-3170000D02*
X3250000Y-3250000D01*
X3250000Y-3170000D02*
X3170000Y-3250000D01*
X3390000Y-3605000D02*
X3470000Y-3685000D01*
X3470000Y-3605000D02*
X3390000Y-3685000D01*
X3390000Y-5155000D02*
X3470000Y-5235000D01*
X3470000Y-5155000D02*
X3390000Y-5235000D01*
X3424000Y-1670000D02*
X3504000Y-1750000D01*
X3504000Y-1670000D02*
X3424000Y-1750000D01*
X3424000Y-3170000D02*
X3504000Y-3250000D01*
X3504000Y-3170000D02*
X3424000Y-3250000D01*
X3678000Y-1670000D02*
X3758000Y-1750000D01*
X3758000Y-1670000D02*
X3678000Y-1750000D01*
X3678000Y-3170000D02*
X3758000Y-3250000D01*
X3758000Y-3170000D02*
X3678000Y-3250000D01*
X3750000Y-940000D02*
X3830000Y-1020000D01*
X3830000Y-940000D02*
X3750000Y-1020000D01*
X3932000Y-1670000D02*
X4012000Y-1750000D01*
X4012000Y-1670000D02*
X3932000Y-1750000D01*
X3932000Y-3170000D02*
X4012000Y-3250000D01*
X4012000Y-3170000D02*
X3932000Y-3250000D01*
X3996000Y-5050000D02*
X4076000Y-5130000D01*
X4076000Y-5050000D02*
X3996000Y-5130000D01*
X4186000Y-1670000D02*
X4266000Y-1750000D01*
X4266000Y-1670000D02*
X4186000Y-1750000D01*
X4186000Y-3170000D02*
X4266000Y-3250000D01*
X4266000Y-3170000D02*
X4186000Y-3250000D01*
X4240000Y-940000D02*
X4320000Y-1020000D01*
X4320000Y-940000D02*
X4240000Y-1020000D01*
X4250000Y-5050000D02*
X4330000Y-5130000D01*
X4330000Y-5050000D02*
X4250000Y-5130000D01*
X4440000Y-1670000D02*
X4520000Y-1750000D01*
X4520000Y-1670000D02*
X4440000Y-1750000D01*
X4440000Y-3170000D02*
X4520000Y-3250000D01*
X4520000Y-3170000D02*
X4440000Y-3250000D01*
X4535000Y-2275000D02*
X4615000Y-2355000D01*
X4615000Y-2275000D02*
X4535000Y-2355000D01*
X4660000Y-940000D02*
X4740000Y-1020000D01*
X4740000Y-940000D02*
X4660000Y-1020000D01*
X4694000Y-1670000D02*
X4774000Y-1750000D01*
X4774000Y-1670000D02*
X4694000Y-1750000D01*
X4694000Y-3170000D02*
X4774000Y-3250000D01*
X4774000Y-3170000D02*
X4694000Y-3250000D01*
X4748000Y-3890000D02*
X4828000Y-3970000D01*
X4828000Y-3890000D02*
X4748000Y-3970000D01*
X4948000Y-1670000D02*
X5028000Y-1750000D01*
X5028000Y-1670000D02*
X4948000Y-1750000D01*
X4948000Y-3170000D02*
X5028000Y-3250000D01*
X5028000Y-3170000D02*
X4948000Y-3250000D01*
X5002000Y-3890000D02*
X5082000Y-3970000D01*
X5082000Y-3890000D02*
X5002000Y-3970000D01*
X5202000Y-1670000D02*
X5282000Y-1750000D01*
X5282000Y-1670000D02*
X5202000Y-1750000D01*
X5202000Y-3170000D02*
X5282000Y-3250000D01*
X5282000Y-3170000D02*
X5202000Y-3250000D01*
X5256000Y-3890000D02*
X5336000Y-3970000D01*
X5336000Y-3890000D02*
X5256000Y-3970000D01*
X5456000Y-1670000D02*
X5536000Y-1750000D01*
X5536000Y-1670000D02*
X5456000Y-1750000D01*
X5456000Y-3170000D02*
X5536000Y-3250000D01*
X5536000Y-3170000D02*
X5456000Y-3250000D01*
X5510000Y-3890000D02*
X5590000Y-3970000D01*
X5590000Y-3890000D02*
X5510000Y-3970000D01*
X5608000Y-950000D02*
X5688000Y-1030000D01*
X5688000Y-950000D02*
X5608000Y-1030000D01*
X5710000Y-1670000D02*
X5790000Y-1750000D01*
X5790000Y-1670000D02*
X5710000Y-1750000D01*
X5710000Y-3170000D02*
X5790000Y-3250000D01*
X5790000Y-3170000D02*
X5710000Y-3250000D01*
X5862000Y-950000D02*
X5942000Y-1030000D01*
X5942000Y-950000D02*
X5862000Y-1030000D01*
X5950000Y-2740000D02*
X6030000Y-2820000D01*
X6030000Y-2740000D02*
X5950000Y-2820000D01*
X5964000Y-1670000D02*
X6044000Y-1750000D01*
X6044000Y-1670000D02*
X5964000Y-1750000D01*
X5964000Y-3170000D02*
X6044000Y-3250000D01*
X6044000Y-3170000D02*
X5964000Y-3250000D01*
X6059000Y-2275000D02*
X6139000Y-2355000D01*
X6139000Y-2275000D02*
X6059000Y-2355000D01*
X6116000Y-950000D02*
X6196000Y-1030000D01*
X6196000Y-950000D02*
X6116000Y-1030000D01*
X6218000Y-1670000D02*
X6298000Y-1750000D01*
X6298000Y-1670000D02*
X6218000Y-1750000D01*
X6218000Y-3170000D02*
X6298000Y-3250000D01*
X6298000Y-3170000D02*
X6218000Y-3250000D01*
X6370000Y-950000D02*
X6450000Y-1030000D01*
X6450000Y-950000D02*
X6370000Y-1030000D01*
X6472000Y-1670000D02*
X6552000Y-1750000D01*
X6552000Y-1670000D02*
X6472000Y-1750000D01*
X6472000Y-3170000D02*
X6552000Y-3250000D01*
X6552000Y-3170000D02*
X6472000Y-3250000D01*
X6726000Y-1670000D02*
X6806000Y-1750000D01*
X6806000Y-1670000D02*
X6726000Y-1750000D01*
X6726000Y-3170000D02*
X6806000Y-3250000D01*
X6806000Y-3170000D02*
X6726000Y-3250000D01*
X240000Y-3490000D02*
G75*
G03*
X240000Y-3490000I-80000J0D01*
G01*
X636000Y-3490000D02*
G75*
G03*
X636000Y-3490000I-80000J0D01*
G01*
X2194000Y-2260000D02*
G75*
G03*
X2194000Y-2260000I-80000J0D01*
G01*
X2590000Y-2260000D02*
G75*
G03*
X2590000Y-2260000I-80000J0D01*
G01*
X140000Y-590000D02*
X140000Y-790000D01*
X40000Y-690000D02*
X240000Y-690000D01*
X140000Y-5070000D02*
X140000Y-5270000D01*
X40000Y-5170000D02*
X240000Y-5170000D01*
X6970000Y-590000D02*
X6970000Y-790000D01*
X6870000Y-690000D02*
X7070000Y-690000D01*
X6970000Y-5070000D02*
X6970000Y-5270000D01*
X6870000Y-5170000D02*
X7070000Y-5170000D01*
D12*
X141428Y-5950714D02*
X141428Y-5650714D01*
X212857Y-5650714D01*
X255714Y-5665000D01*
X284286Y-5693571D01*
X298571Y-5722143D01*
X312857Y-5779286D01*
X312857Y-5822143D01*
X298571Y-5879286D01*
X284286Y-5907857D01*
X255714Y-5936429D01*
X212857Y-5950714D01*
X141428Y-5950714D01*
X441428Y-5950714D02*
X441428Y-5750714D01*
X441428Y-5807857D02*
X455714Y-5779286D01*
X470000Y-5765000D01*
X498571Y-5750714D01*
X527143Y-5750714D01*
X627143Y-5950714D02*
X627143Y-5750714D01*
X627143Y-5650714D02*
X612857Y-5665000D01*
X627143Y-5679286D01*
X641428Y-5665000D01*
X627143Y-5650714D01*
X627143Y-5679286D01*
X812857Y-5950714D02*
X784286Y-5936429D01*
X770000Y-5907857D01*
X770000Y-5650714D01*
X970000Y-5950714D02*
X941428Y-5936429D01*
X927143Y-5907857D01*
X927143Y-5650714D01*
X1312857Y-5950714D02*
X1312857Y-5650714D01*
X1412857Y-5865000D01*
X1512857Y-5650714D01*
X1512857Y-5950714D01*
X1784286Y-5950714D02*
X1784286Y-5793571D01*
X1770000Y-5765000D01*
X1741428Y-5750714D01*
X1684286Y-5750714D01*
X1655714Y-5765000D01*
X1784286Y-5936429D02*
X1755714Y-5950714D01*
X1684286Y-5950714D01*
X1655714Y-5936429D01*
X1641428Y-5907857D01*
X1641428Y-5879286D01*
X1655714Y-5850714D01*
X1684286Y-5836429D01*
X1755714Y-5836429D01*
X1784286Y-5822143D01*
X1927143Y-5750714D02*
X1927143Y-6050714D01*
X1927143Y-5765000D02*
X1955714Y-5750714D01*
X2012857Y-5750714D01*
X2041428Y-5765000D01*
X2055714Y-5779286D01*
X2070000Y-5807857D01*
X2070000Y-5893571D01*
X2055714Y-5922143D01*
X2041428Y-5936429D01*
X2012857Y-5950714D01*
X1955714Y-5950714D01*
X1927143Y-5936429D01*
X2198571Y-5922143D02*
X2212857Y-5936429D01*
X2198571Y-5950714D01*
X2184286Y-5936429D01*
X2198571Y-5922143D01*
X2198571Y-5950714D01*
X2198571Y-5765000D02*
X2212857Y-5779286D01*
X2198571Y-5793571D01*
X2184286Y-5779286D01*
X2198571Y-5765000D01*
X2198571Y-5793571D01*
X-225000Y-6405000D02*
X-145000Y-6485000D01*
X-145000Y-6405000D02*
X-225000Y-6485000D01*
X198571Y-6280714D02*
X227143Y-6280714D01*
X255714Y-6295000D01*
X270000Y-6309286D01*
X284286Y-6337857D01*
X298571Y-6395000D01*
X298571Y-6466429D01*
X284286Y-6523571D01*
X270000Y-6552143D01*
X255714Y-6566429D01*
X227143Y-6580714D01*
X198571Y-6580714D01*
X170000Y-6566429D01*
X155714Y-6552143D01*
X141428Y-6523571D01*
X127143Y-6466429D01*
X127143Y-6395000D01*
X141428Y-6337857D01*
X155714Y-6309286D01*
X170000Y-6295000D01*
X198571Y-6280714D01*
X427143Y-6552143D02*
X441428Y-6566429D01*
X427143Y-6580714D01*
X412857Y-6566429D01*
X427143Y-6552143D01*
X427143Y-6580714D01*
X612857Y-6409286D02*
X584286Y-6395000D01*
X570000Y-6380714D01*
X555714Y-6352143D01*
X555714Y-6337857D01*
X570000Y-6309286D01*
X584286Y-6295000D01*
X612857Y-6280714D01*
X670000Y-6280714D01*
X698571Y-6295000D01*
X712857Y-6309286D01*
X727143Y-6337857D01*
X727143Y-6352143D01*
X712857Y-6380714D01*
X698571Y-6395000D01*
X670000Y-6409286D01*
X612857Y-6409286D01*
X584286Y-6423571D01*
X570000Y-6437857D01*
X555714Y-6466429D01*
X555714Y-6523571D01*
X570000Y-6552143D01*
X584286Y-6566429D01*
X612857Y-6580714D01*
X670000Y-6580714D01*
X698571Y-6566429D01*
X712857Y-6552143D01*
X727143Y-6523571D01*
X727143Y-6466429D01*
X712857Y-6437857D01*
X698571Y-6423571D01*
X670000Y-6409286D01*
X912857Y-6280714D02*
X941428Y-6280714D01*
X970000Y-6295000D01*
X984286Y-6309286D01*
X998571Y-6337857D01*
X1012857Y-6395000D01*
X1012857Y-6466429D01*
X998571Y-6523571D01*
X984286Y-6552143D01*
X970000Y-6566429D01*
X941428Y-6580714D01*
X912857Y-6580714D01*
X884286Y-6566429D01*
X870000Y-6552143D01*
X855714Y-6523571D01*
X841428Y-6466429D01*
X841428Y-6395000D01*
X855714Y-6337857D01*
X870000Y-6309286D01*
X884286Y-6295000D01*
X912857Y-6280714D01*
X1198571Y-6280714D02*
X1227143Y-6280714D01*
X1255714Y-6295000D01*
X1270000Y-6309286D01*
X1284286Y-6337857D01*
X1298571Y-6395000D01*
X1298571Y-6466429D01*
X1284286Y-6523571D01*
X1270000Y-6552143D01*
X1255714Y-6566429D01*
X1227143Y-6580714D01*
X1198571Y-6580714D01*
X1170000Y-6566429D01*
X1155714Y-6552143D01*
X1141428Y-6523571D01*
X1127143Y-6466429D01*
X1127143Y-6395000D01*
X1141428Y-6337857D01*
X1155714Y-6309286D01*
X1170000Y-6295000D01*
X1198571Y-6280714D01*
X1427143Y-6580714D02*
X1427143Y-6380714D01*
X1427143Y-6409286D02*
X1441428Y-6395000D01*
X1470000Y-6380714D01*
X1512857Y-6380714D01*
X1541428Y-6395000D01*
X1555714Y-6423571D01*
X1555714Y-6580714D01*
X1555714Y-6423571D02*
X1570000Y-6395000D01*
X1598571Y-6380714D01*
X1641428Y-6380714D01*
X1670000Y-6395000D01*
X1684286Y-6423571D01*
X1684286Y-6580714D01*
X1827143Y-6580714D02*
X1827143Y-6380714D01*
X1827143Y-6409286D02*
X1841428Y-6395000D01*
X1870000Y-6380714D01*
X1912857Y-6380714D01*
X1941428Y-6395000D01*
X1955714Y-6423571D01*
X1955714Y-6580714D01*
X1955714Y-6423571D02*
X1970000Y-6395000D01*
X1998571Y-6380714D01*
X2041428Y-6380714D01*
X2070000Y-6395000D01*
X2084286Y-6423571D01*
X2084286Y-6580714D01*
X2670000Y-6266429D02*
X2412857Y-6652143D01*
X3055714Y-6280714D02*
X3084286Y-6280714D01*
X3112857Y-6295000D01*
X3127143Y-6309286D01*
X3141428Y-6337857D01*
X3155714Y-6395000D01*
X3155714Y-6466429D01*
X3141428Y-6523571D01*
X3127143Y-6552143D01*
X3112857Y-6566429D01*
X3084286Y-6580714D01*
X3055714Y-6580714D01*
X3027143Y-6566429D01*
X3012857Y-6552143D01*
X2998571Y-6523571D01*
X2984286Y-6466429D01*
X2984286Y-6395000D01*
X2998571Y-6337857D01*
X3012857Y-6309286D01*
X3027143Y-6295000D01*
X3055714Y-6280714D01*
X3284286Y-6552143D02*
X3298571Y-6566429D01*
X3284286Y-6580714D01*
X3270000Y-6566429D01*
X3284286Y-6552143D01*
X3284286Y-6580714D01*
X3484286Y-6280714D02*
X3512857Y-6280714D01*
X3541428Y-6295000D01*
X3555714Y-6309286D01*
X3570000Y-6337857D01*
X3584286Y-6395000D01*
X3584286Y-6466429D01*
X3570000Y-6523571D01*
X3555714Y-6552143D01*
X3541428Y-6566429D01*
X3512857Y-6580714D01*
X3484286Y-6580714D01*
X3455714Y-6566429D01*
X3441428Y-6552143D01*
X3427143Y-6523571D01*
X3412857Y-6466429D01*
X3412857Y-6395000D01*
X3427143Y-6337857D01*
X3441428Y-6309286D01*
X3455714Y-6295000D01*
X3484286Y-6280714D01*
X3684286Y-6280714D02*
X3870000Y-6280714D01*
X3770000Y-6395000D01*
X3812857Y-6395000D01*
X3841428Y-6409286D01*
X3855714Y-6423571D01*
X3870000Y-6452143D01*
X3870000Y-6523571D01*
X3855714Y-6552143D01*
X3841428Y-6566429D01*
X3812857Y-6580714D01*
X3727143Y-6580714D01*
X3698571Y-6566429D01*
X3684286Y-6552143D01*
X4155714Y-6580714D02*
X3984286Y-6580714D01*
X4070000Y-6580714D02*
X4070000Y-6280714D01*
X4041428Y-6323571D01*
X4012857Y-6352143D01*
X3984286Y-6366429D01*
X4427143Y-6280714D02*
X4284286Y-6280714D01*
X4270000Y-6423571D01*
X4284286Y-6409286D01*
X4312857Y-6395000D01*
X4384286Y-6395000D01*
X4412857Y-6409286D01*
X4427143Y-6423571D01*
X4441428Y-6452143D01*
X4441428Y-6523571D01*
X4427143Y-6552143D01*
X4412857Y-6566429D01*
X4384286Y-6580714D01*
X4312857Y-6580714D01*
X4284286Y-6566429D01*
X4270000Y-6552143D01*
X4555714Y-6280714D02*
X4555714Y-6337857D01*
X4670000Y-6280714D02*
X4670000Y-6337857D01*
X5112857Y-6695000D02*
X5098571Y-6680714D01*
X5070000Y-6637857D01*
X5055714Y-6609286D01*
X5041428Y-6566429D01*
X5027143Y-6495000D01*
X5027143Y-6437857D01*
X5041428Y-6366429D01*
X5055714Y-6323571D01*
X5070000Y-6295000D01*
X5098571Y-6252143D01*
X5112857Y-6237857D01*
X5370000Y-6280714D02*
X5227143Y-6280714D01*
X5212857Y-6423571D01*
X5227143Y-6409286D01*
X5255714Y-6395000D01*
X5327143Y-6395000D01*
X5355714Y-6409286D01*
X5370000Y-6423571D01*
X5384286Y-6452143D01*
X5384286Y-6523571D01*
X5370000Y-6552143D01*
X5355714Y-6566429D01*
X5327143Y-6580714D01*
X5255714Y-6580714D01*
X5227143Y-6566429D01*
X5212857Y-6552143D01*
X5641428Y-6280714D02*
X5584286Y-6280714D01*
X5555714Y-6295000D01*
X5541428Y-6309286D01*
X5512857Y-6352143D01*
X5498571Y-6409286D01*
X5498571Y-6523571D01*
X5512857Y-6552143D01*
X5527143Y-6566429D01*
X5555714Y-6580714D01*
X5612857Y-6580714D01*
X5641428Y-6566429D01*
X5655714Y-6552143D01*
X5670000Y-6523571D01*
X5670000Y-6452143D01*
X5655714Y-6423571D01*
X5641428Y-6409286D01*
X5612857Y-6395000D01*
X5555714Y-6395000D01*
X5527143Y-6409286D01*
X5512857Y-6423571D01*
X5498571Y-6452143D01*
X6027143Y-6580714D02*
X6027143Y-6280714D01*
X6155714Y-6580714D02*
X6155714Y-6423571D01*
X6141428Y-6395000D01*
X6112857Y-6380714D01*
X6070000Y-6380714D01*
X6041428Y-6395000D01*
X6027143Y-6409286D01*
X6341428Y-6580714D02*
X6312857Y-6566429D01*
X6298571Y-6552143D01*
X6284286Y-6523571D01*
X6284286Y-6437857D01*
X6298571Y-6409286D01*
X6312857Y-6395000D01*
X6341428Y-6380714D01*
X6384286Y-6380714D01*
X6412857Y-6395000D01*
X6427143Y-6409286D01*
X6441428Y-6437857D01*
X6441428Y-6523571D01*
X6427143Y-6552143D01*
X6412857Y-6566429D01*
X6384286Y-6580714D01*
X6341428Y-6580714D01*
X6612857Y-6580714D02*
X6584286Y-6566429D01*
X6570000Y-6537857D01*
X6570000Y-6280714D01*
X6841428Y-6566429D02*
X6812857Y-6580714D01*
X6755714Y-6580714D01*
X6727143Y-6566429D01*
X6712857Y-6537857D01*
X6712857Y-6423571D01*
X6727143Y-6395000D01*
X6755714Y-6380714D01*
X6812857Y-6380714D01*
X6841428Y-6395000D01*
X6855714Y-6423571D01*
X6855714Y-6452143D01*
X6712857Y-6480714D01*
X6970000Y-6566429D02*
X6998571Y-6580714D01*
X7055714Y-6580714D01*
X7084286Y-6566429D01*
X7098571Y-6537857D01*
X7098571Y-6523571D01*
X7084286Y-6495000D01*
X7055714Y-6480714D01*
X7012857Y-6480714D01*
X6984286Y-6466429D01*
X6970000Y-6437857D01*
X6970000Y-6423571D01*
X6984286Y-6395000D01*
X7012857Y-6380714D01*
X7055714Y-6380714D01*
X7084286Y-6395000D01*
X7198571Y-6695000D02*
X7212857Y-6680714D01*
X7241428Y-6637857D01*
X7255714Y-6609286D01*
X7270000Y-6566429D01*
X7284286Y-6495000D01*
X7284286Y-6437857D01*
X7270000Y-6366429D01*
X7255714Y-6323571D01*
X7241428Y-6295000D01*
X7212857Y-6252143D01*
X7198571Y-6237857D01*
X-145000Y-6841000D02*
G75*
G03*
X-145000Y-6841000I-80000J0D01*
G01*
X298571Y-6976714D02*
X127143Y-6976714D01*
X212857Y-6976714D02*
X212857Y-6676714D01*
X184286Y-6719571D01*
X155714Y-6748143D01*
X127143Y-6762429D01*
X427143Y-6948143D02*
X441428Y-6962429D01*
X427143Y-6976714D01*
X412857Y-6962429D01*
X427143Y-6948143D01*
X427143Y-6976714D01*
X698571Y-6676714D02*
X641428Y-6676714D01*
X612857Y-6691000D01*
X598571Y-6705286D01*
X570000Y-6748143D01*
X555714Y-6805286D01*
X555714Y-6919571D01*
X570000Y-6948143D01*
X584286Y-6962429D01*
X612857Y-6976714D01*
X670000Y-6976714D01*
X698571Y-6962429D01*
X712857Y-6948143D01*
X727143Y-6919571D01*
X727143Y-6848143D01*
X712857Y-6819571D01*
X698571Y-6805286D01*
X670000Y-6791000D01*
X612857Y-6791000D01*
X584286Y-6805286D01*
X570000Y-6819571D01*
X555714Y-6848143D01*
X912857Y-6676714D02*
X941428Y-6676714D01*
X970000Y-6691000D01*
X984286Y-6705286D01*
X998571Y-6733857D01*
X1012857Y-6791000D01*
X1012857Y-6862429D01*
X998571Y-6919571D01*
X984286Y-6948143D01*
X970000Y-6962429D01*
X941428Y-6976714D01*
X912857Y-6976714D01*
X884286Y-6962429D01*
X870000Y-6948143D01*
X855714Y-6919571D01*
X841428Y-6862429D01*
X841428Y-6791000D01*
X855714Y-6733857D01*
X870000Y-6705286D01*
X884286Y-6691000D01*
X912857Y-6676714D01*
X1198571Y-6676714D02*
X1227143Y-6676714D01*
X1255714Y-6691000D01*
X1270000Y-6705286D01*
X1284286Y-6733857D01*
X1298571Y-6791000D01*
X1298571Y-6862429D01*
X1284286Y-6919571D01*
X1270000Y-6948143D01*
X1255714Y-6962429D01*
X1227143Y-6976714D01*
X1198571Y-6976714D01*
X1170000Y-6962429D01*
X1155714Y-6948143D01*
X1141428Y-6919571D01*
X1127143Y-6862429D01*
X1127143Y-6791000D01*
X1141428Y-6733857D01*
X1155714Y-6705286D01*
X1170000Y-6691000D01*
X1198571Y-6676714D01*
X1427143Y-6976714D02*
X1427143Y-6776714D01*
X1427143Y-6805286D02*
X1441428Y-6791000D01*
X1470000Y-6776714D01*
X1512857Y-6776714D01*
X1541428Y-6791000D01*
X1555714Y-6819571D01*
X1555714Y-6976714D01*
X1555714Y-6819571D02*
X1570000Y-6791000D01*
X1598571Y-6776714D01*
X1641428Y-6776714D01*
X1670000Y-6791000D01*
X1684286Y-6819571D01*
X1684286Y-6976714D01*
X1827143Y-6976714D02*
X1827143Y-6776714D01*
X1827143Y-6805286D02*
X1841428Y-6791000D01*
X1870000Y-6776714D01*
X1912857Y-6776714D01*
X1941428Y-6791000D01*
X1955714Y-6819571D01*
X1955714Y-6976714D01*
X1955714Y-6819571D02*
X1970000Y-6791000D01*
X1998571Y-6776714D01*
X2041428Y-6776714D01*
X2070000Y-6791000D01*
X2084286Y-6819571D01*
X2084286Y-6976714D01*
X2670000Y-6662429D02*
X2412857Y-7048143D01*
X3055714Y-6676714D02*
X3084286Y-6676714D01*
X3112857Y-6691000D01*
X3127143Y-6705286D01*
X3141428Y-6733857D01*
X3155714Y-6791000D01*
X3155714Y-6862429D01*
X3141428Y-6919571D01*
X3127143Y-6948143D01*
X3112857Y-6962429D01*
X3084286Y-6976714D01*
X3055714Y-6976714D01*
X3027143Y-6962429D01*
X3012857Y-6948143D01*
X2998571Y-6919571D01*
X2984286Y-6862429D01*
X2984286Y-6791000D01*
X2998571Y-6733857D01*
X3012857Y-6705286D01*
X3027143Y-6691000D01*
X3055714Y-6676714D01*
X3284286Y-6948143D02*
X3298571Y-6962429D01*
X3284286Y-6976714D01*
X3270000Y-6962429D01*
X3284286Y-6948143D01*
X3284286Y-6976714D01*
X3484286Y-6676714D02*
X3512857Y-6676714D01*
X3541428Y-6691000D01*
X3555714Y-6705286D01*
X3570000Y-6733857D01*
X3584286Y-6791000D01*
X3584286Y-6862429D01*
X3570000Y-6919571D01*
X3555714Y-6948143D01*
X3541428Y-6962429D01*
X3512857Y-6976714D01*
X3484286Y-6976714D01*
X3455714Y-6962429D01*
X3441428Y-6948143D01*
X3427143Y-6919571D01*
X3412857Y-6862429D01*
X3412857Y-6791000D01*
X3427143Y-6733857D01*
X3441428Y-6705286D01*
X3455714Y-6691000D01*
X3484286Y-6676714D01*
X3841428Y-6676714D02*
X3784286Y-6676714D01*
X3755714Y-6691000D01*
X3741428Y-6705286D01*
X3712857Y-6748143D01*
X3698571Y-6805286D01*
X3698571Y-6919571D01*
X3712857Y-6948143D01*
X3727143Y-6962429D01*
X3755714Y-6976714D01*
X3812857Y-6976714D01*
X3841428Y-6962429D01*
X3855714Y-6948143D01*
X3870000Y-6919571D01*
X3870000Y-6848143D01*
X3855714Y-6819571D01*
X3841428Y-6805286D01*
X3812857Y-6791000D01*
X3755714Y-6791000D01*
X3727143Y-6805286D01*
X3712857Y-6819571D01*
X3698571Y-6848143D01*
X3970000Y-6676714D02*
X4155714Y-6676714D01*
X4055714Y-6791000D01*
X4098571Y-6791000D01*
X4127143Y-6805286D01*
X4141428Y-6819571D01*
X4155714Y-6848143D01*
X4155714Y-6919571D01*
X4141428Y-6948143D01*
X4127143Y-6962429D01*
X4098571Y-6976714D01*
X4012857Y-6976714D01*
X3984286Y-6962429D01*
X3970000Y-6948143D01*
X4341428Y-6676714D02*
X4370000Y-6676714D01*
X4398571Y-6691000D01*
X4412857Y-6705286D01*
X4427143Y-6733857D01*
X4441428Y-6791000D01*
X4441428Y-6862429D01*
X4427143Y-6919571D01*
X4412857Y-6948143D01*
X4398571Y-6962429D01*
X4370000Y-6976714D01*
X4341428Y-6976714D01*
X4312857Y-6962429D01*
X4298571Y-6948143D01*
X4284286Y-6919571D01*
X4270000Y-6862429D01*
X4270000Y-6791000D01*
X4284286Y-6733857D01*
X4298571Y-6705286D01*
X4312857Y-6691000D01*
X4341428Y-6676714D01*
X4555714Y-6676714D02*
X4555714Y-6733857D01*
X4670000Y-6676714D02*
X4670000Y-6733857D01*
X5112857Y-7091000D02*
X5098571Y-7076714D01*
X5070000Y-7033857D01*
X5055714Y-7005286D01*
X5041428Y-6962429D01*
X5027143Y-6891000D01*
X5027143Y-6833857D01*
X5041428Y-6762429D01*
X5055714Y-6719571D01*
X5070000Y-6691000D01*
X5098571Y-6648143D01*
X5112857Y-6633857D01*
X5355714Y-6776714D02*
X5355714Y-6976714D01*
X5284286Y-6662429D02*
X5212857Y-6876714D01*
X5398571Y-6876714D01*
X5741428Y-6976714D02*
X5741428Y-6676714D01*
X5870000Y-6976714D02*
X5870000Y-6819571D01*
X5855714Y-6791000D01*
X5827143Y-6776714D01*
X5784286Y-6776714D01*
X5755714Y-6791000D01*
X5741428Y-6805286D01*
X6055714Y-6976714D02*
X6027143Y-6962429D01*
X6012857Y-6948143D01*
X5998571Y-6919571D01*
X5998571Y-6833857D01*
X6012857Y-6805286D01*
X6027143Y-6791000D01*
X6055714Y-6776714D01*
X6098571Y-6776714D01*
X6127143Y-6791000D01*
X6141428Y-6805286D01*
X6155714Y-6833857D01*
X6155714Y-6919571D01*
X6141428Y-6948143D01*
X6127143Y-6962429D01*
X6098571Y-6976714D01*
X6055714Y-6976714D01*
X6327143Y-6976714D02*
X6298571Y-6962429D01*
X6284286Y-6933857D01*
X6284286Y-6676714D01*
X6555714Y-6962429D02*
X6527143Y-6976714D01*
X6470000Y-6976714D01*
X6441428Y-6962429D01*
X6427143Y-6933857D01*
X6427143Y-6819571D01*
X6441428Y-6791000D01*
X6470000Y-6776714D01*
X6527143Y-6776714D01*
X6555714Y-6791000D01*
X6570000Y-6819571D01*
X6570000Y-6848143D01*
X6427143Y-6876714D01*
X6684286Y-6962429D02*
X6712857Y-6976714D01*
X6770000Y-6976714D01*
X6798571Y-6962429D01*
X6812857Y-6933857D01*
X6812857Y-6919571D01*
X6798571Y-6891000D01*
X6770000Y-6876714D01*
X6727143Y-6876714D01*
X6698571Y-6862429D01*
X6684286Y-6833857D01*
X6684286Y-6819571D01*
X6698571Y-6791000D01*
X6727143Y-6776714D01*
X6770000Y-6776714D01*
X6798571Y-6791000D01*
X6912857Y-7091000D02*
X6927143Y-7076714D01*
X6955714Y-7033857D01*
X6970000Y-7005286D01*
X6984286Y-6962429D01*
X6998571Y-6891000D01*
X6998571Y-6833857D01*
X6984286Y-6762429D01*
X6970000Y-6719571D01*
X6955714Y-6691000D01*
X6927143Y-6648143D01*
X6912857Y-6633857D01*
X-245000Y-7137000D02*
X-245000Y-7337000D01*
X-345000Y-7237000D02*
X-145000Y-7237000D01*
X127143Y-7101286D02*
X141428Y-7087000D01*
X170000Y-7072714D01*
X241428Y-7072714D01*
X270000Y-7087000D01*
X284286Y-7101286D01*
X298571Y-7129857D01*
X298571Y-7158429D01*
X284286Y-7201286D01*
X112857Y-7372714D01*
X298571Y-7372714D01*
X427143Y-7344143D02*
X441428Y-7358429D01*
X427143Y-7372714D01*
X412857Y-7358429D01*
X427143Y-7344143D01*
X427143Y-7372714D01*
X627143Y-7072714D02*
X655714Y-7072714D01*
X684286Y-7087000D01*
X698571Y-7101286D01*
X712857Y-7129857D01*
X727143Y-7187000D01*
X727143Y-7258429D01*
X712857Y-7315571D01*
X698571Y-7344143D01*
X684286Y-7358429D01*
X655714Y-7372714D01*
X627143Y-7372714D01*
X598571Y-7358429D01*
X584286Y-7344143D01*
X570000Y-7315571D01*
X555714Y-7258429D01*
X555714Y-7187000D01*
X570000Y-7129857D01*
X584286Y-7101286D01*
X598571Y-7087000D01*
X627143Y-7072714D01*
X912857Y-7072714D02*
X941428Y-7072714D01*
X970000Y-7087000D01*
X984286Y-7101286D01*
X998571Y-7129857D01*
X1012857Y-7187000D01*
X1012857Y-7258429D01*
X998571Y-7315571D01*
X984286Y-7344143D01*
X970000Y-7358429D01*
X941428Y-7372714D01*
X912857Y-7372714D01*
X884286Y-7358429D01*
X870000Y-7344143D01*
X855714Y-7315571D01*
X841428Y-7258429D01*
X841428Y-7187000D01*
X855714Y-7129857D01*
X870000Y-7101286D01*
X884286Y-7087000D01*
X912857Y-7072714D01*
X1198571Y-7072714D02*
X1227143Y-7072714D01*
X1255714Y-7087000D01*
X1270000Y-7101286D01*
X1284286Y-7129857D01*
X1298571Y-7187000D01*
X1298571Y-7258429D01*
X1284286Y-7315571D01*
X1270000Y-7344143D01*
X1255714Y-7358429D01*
X1227143Y-7372714D01*
X1198571Y-7372714D01*
X1170000Y-7358429D01*
X1155714Y-7344143D01*
X1141428Y-7315571D01*
X1127143Y-7258429D01*
X1127143Y-7187000D01*
X1141428Y-7129857D01*
X1155714Y-7101286D01*
X1170000Y-7087000D01*
X1198571Y-7072714D01*
X1427143Y-7372714D02*
X1427143Y-7172714D01*
X1427143Y-7201286D02*
X1441428Y-7187000D01*
X1470000Y-7172714D01*
X1512857Y-7172714D01*
X1541428Y-7187000D01*
X1555714Y-7215571D01*
X1555714Y-7372714D01*
X1555714Y-7215571D02*
X1570000Y-7187000D01*
X1598571Y-7172714D01*
X1641428Y-7172714D01*
X1670000Y-7187000D01*
X1684286Y-7215571D01*
X1684286Y-7372714D01*
X1827143Y-7372714D02*
X1827143Y-7172714D01*
X1827143Y-7201286D02*
X1841428Y-7187000D01*
X1870000Y-7172714D01*
X1912857Y-7172714D01*
X1941428Y-7187000D01*
X1955714Y-7215571D01*
X1955714Y-7372714D01*
X1955714Y-7215571D02*
X1970000Y-7187000D01*
X1998571Y-7172714D01*
X2041428Y-7172714D01*
X2070000Y-7187000D01*
X2084286Y-7215571D01*
X2084286Y-7372714D01*
X2670000Y-7058429D02*
X2412857Y-7444143D01*
X3055714Y-7072714D02*
X3084286Y-7072714D01*
X3112857Y-7087000D01*
X3127143Y-7101286D01*
X3141428Y-7129857D01*
X3155714Y-7187000D01*
X3155714Y-7258429D01*
X3141428Y-7315571D01*
X3127143Y-7344143D01*
X3112857Y-7358429D01*
X3084286Y-7372714D01*
X3055714Y-7372714D01*
X3027143Y-7358429D01*
X3012857Y-7344143D01*
X2998571Y-7315571D01*
X2984286Y-7258429D01*
X2984286Y-7187000D01*
X2998571Y-7129857D01*
X3012857Y-7101286D01*
X3027143Y-7087000D01*
X3055714Y-7072714D01*
X3284286Y-7344143D02*
X3298571Y-7358429D01*
X3284286Y-7372714D01*
X3270000Y-7358429D01*
X3284286Y-7344143D01*
X3284286Y-7372714D01*
X3484286Y-7072714D02*
X3512857Y-7072714D01*
X3541428Y-7087000D01*
X3555714Y-7101286D01*
X3570000Y-7129857D01*
X3584286Y-7187000D01*
X3584286Y-7258429D01*
X3570000Y-7315571D01*
X3555714Y-7344143D01*
X3541428Y-7358429D01*
X3512857Y-7372714D01*
X3484286Y-7372714D01*
X3455714Y-7358429D01*
X3441428Y-7344143D01*
X3427143Y-7315571D01*
X3412857Y-7258429D01*
X3412857Y-7187000D01*
X3427143Y-7129857D01*
X3441428Y-7101286D01*
X3455714Y-7087000D01*
X3484286Y-7072714D01*
X3684286Y-7072714D02*
X3884286Y-7072714D01*
X3755714Y-7372714D01*
X4041428Y-7201286D02*
X4012857Y-7187000D01*
X3998571Y-7172714D01*
X3984286Y-7144143D01*
X3984286Y-7129857D01*
X3998571Y-7101286D01*
X4012857Y-7087000D01*
X4041428Y-7072714D01*
X4098571Y-7072714D01*
X4127143Y-7087000D01*
X4141428Y-7101286D01*
X4155714Y-7129857D01*
X4155714Y-7144143D01*
X4141428Y-7172714D01*
X4127143Y-7187000D01*
X4098571Y-7201286D01*
X4041428Y-7201286D01*
X4012857Y-7215571D01*
X3998571Y-7229857D01*
X3984286Y-7258429D01*
X3984286Y-7315571D01*
X3998571Y-7344143D01*
X4012857Y-7358429D01*
X4041428Y-7372714D01*
X4098571Y-7372714D01*
X4127143Y-7358429D01*
X4141428Y-7344143D01*
X4155714Y-7315571D01*
X4155714Y-7258429D01*
X4141428Y-7229857D01*
X4127143Y-7215571D01*
X4098571Y-7201286D01*
X4255714Y-7072714D02*
X4455714Y-7072714D01*
X4327143Y-7372714D01*
X4555714Y-7072714D02*
X4555714Y-7129857D01*
X4670000Y-7072714D02*
X4670000Y-7129857D01*
X5112857Y-7487000D02*
X5098571Y-7472714D01*
X5070000Y-7429857D01*
X5055714Y-7401286D01*
X5041428Y-7358429D01*
X5027143Y-7287000D01*
X5027143Y-7229857D01*
X5041428Y-7158429D01*
X5055714Y-7115571D01*
X5070000Y-7087000D01*
X5098571Y-7044143D01*
X5112857Y-7029857D01*
X5355714Y-7172714D02*
X5355714Y-7372714D01*
X5284286Y-7058429D02*
X5212857Y-7272714D01*
X5398571Y-7272714D01*
X5741428Y-7372714D02*
X5741428Y-7072714D01*
X5870000Y-7372714D02*
X5870000Y-7215571D01*
X5855714Y-7187000D01*
X5827143Y-7172714D01*
X5784286Y-7172714D01*
X5755714Y-7187000D01*
X5741428Y-7201286D01*
X6055714Y-7372714D02*
X6027143Y-7358429D01*
X6012857Y-7344143D01*
X5998571Y-7315571D01*
X5998571Y-7229857D01*
X6012857Y-7201286D01*
X6027143Y-7187000D01*
X6055714Y-7172714D01*
X6098571Y-7172714D01*
X6127143Y-7187000D01*
X6141428Y-7201286D01*
X6155714Y-7229857D01*
X6155714Y-7315571D01*
X6141428Y-7344143D01*
X6127143Y-7358429D01*
X6098571Y-7372714D01*
X6055714Y-7372714D01*
X6327143Y-7372714D02*
X6298571Y-7358429D01*
X6284286Y-7329857D01*
X6284286Y-7072714D01*
X6555714Y-7358429D02*
X6527143Y-7372714D01*
X6470000Y-7372714D01*
X6441428Y-7358429D01*
X6427143Y-7329857D01*
X6427143Y-7215571D01*
X6441428Y-7187000D01*
X6470000Y-7172714D01*
X6527143Y-7172714D01*
X6555714Y-7187000D01*
X6570000Y-7215571D01*
X6570000Y-7244143D01*
X6427143Y-7272714D01*
X6684286Y-7358429D02*
X6712857Y-7372714D01*
X6770000Y-7372714D01*
X6798571Y-7358429D01*
X6812857Y-7329857D01*
X6812857Y-7315571D01*
X6798571Y-7287000D01*
X6770000Y-7272714D01*
X6727143Y-7272714D01*
X6698571Y-7258429D01*
X6684286Y-7229857D01*
X6684286Y-7215571D01*
X6698571Y-7187000D01*
X6727143Y-7172714D01*
X6770000Y-7172714D01*
X6798571Y-7187000D01*
X6912857Y-7487000D02*
X6927143Y-7472714D01*
X6955714Y-7429857D01*
X6970000Y-7401286D01*
X6984286Y-7358429D01*
X6998571Y-7287000D01*
X6998571Y-7229857D01*
X6984286Y-7158429D01*
X6970000Y-7115571D01*
X6955714Y-7087000D01*
X6927143Y-7044143D01*
X6912857Y-7029857D01*
M02*
