%FSLAX45Y45*%
G04 Gerber Fmt 4.5, Leading zero omitted, Abs format (unit mm)*
G04 Created by KiCad (PCBNEW (5.1.10)-1) date 2021-10-23 23:50:17*
%MOMM*%
%LPD*%
G01*
G04 APERTURE LIST*
%TA.AperFunction,Profile*%
%ADD10C,0.100000*%
%TD*%
%ADD11C,0.200000*%
%ADD12C,0.300000*%
G04 APERTURE END LIST*
D10*
X7270000Y-400000D02*
X7270000Y-4840000D01*
X380000Y-400000D02*
X7270000Y-400000D01*
X380000Y-4840000D02*
X380000Y-400000D01*
X7270000Y-4840000D02*
X380000Y-4840000D01*
D11*
X670000Y-3900000D02*
X750000Y-3980000D01*
X750000Y-3900000D02*
X670000Y-3980000D01*
X1050000Y-3900000D02*
X1130000Y-3980000D01*
X1130000Y-3900000D02*
X1050000Y-3980000D01*
X1480000Y-3530000D02*
X1560000Y-3610000D01*
X1560000Y-3530000D02*
X1480000Y-3610000D01*
X1480000Y-4590000D02*
X1560000Y-4670000D01*
X1560000Y-4590000D02*
X1480000Y-4670000D01*
X1590000Y-1150000D02*
X1670000Y-1230000D01*
X1670000Y-1150000D02*
X1590000Y-1230000D01*
X1625000Y-2970000D02*
X1705000Y-3050000D01*
X1705000Y-2970000D02*
X1625000Y-3050000D01*
X1844000Y-1150000D02*
X1924000Y-1230000D01*
X1924000Y-1150000D02*
X1844000Y-1230000D01*
X2005000Y-2970000D02*
X2085000Y-3050000D01*
X2085000Y-2970000D02*
X2005000Y-3050000D01*
X2090000Y-1000000D02*
X2170000Y-1080000D01*
X2170000Y-1000000D02*
X2090000Y-1080000D01*
X2470000Y-2520000D02*
X2550000Y-2600000D01*
X2550000Y-2520000D02*
X2470000Y-2600000D01*
X3140000Y-3530000D02*
X3220000Y-3610000D01*
X3220000Y-3530000D02*
X3140000Y-3610000D01*
X3140000Y-4590000D02*
X3220000Y-4670000D01*
X3220000Y-4590000D02*
X3140000Y-4670000D01*
X3170000Y-1660000D02*
X3250000Y-1740000D01*
X3250000Y-1660000D02*
X3170000Y-1740000D01*
X3170000Y-3184000D02*
X3250000Y-3264000D01*
X3250000Y-3184000D02*
X3170000Y-3264000D01*
X3424000Y-1660000D02*
X3504000Y-1740000D01*
X3504000Y-1660000D02*
X3424000Y-1740000D01*
X3424000Y-3184000D02*
X3504000Y-3264000D01*
X3504000Y-3184000D02*
X3424000Y-3264000D01*
X3500000Y-4310000D02*
X3580000Y-4390000D01*
X3580000Y-4310000D02*
X3500000Y-4390000D01*
X3678000Y-1660000D02*
X3758000Y-1740000D01*
X3758000Y-1660000D02*
X3678000Y-1740000D01*
X3678000Y-3184000D02*
X3758000Y-3264000D01*
X3758000Y-3184000D02*
X3678000Y-3264000D01*
X3750000Y-1010000D02*
X3830000Y-1090000D01*
X3830000Y-1010000D02*
X3750000Y-1090000D01*
X3754000Y-4310000D02*
X3834000Y-4390000D01*
X3834000Y-4310000D02*
X3754000Y-4390000D01*
X3932000Y-1660000D02*
X4012000Y-1740000D01*
X4012000Y-1660000D02*
X3932000Y-1740000D01*
X3932000Y-3184000D02*
X4012000Y-3264000D01*
X4012000Y-3184000D02*
X3932000Y-3264000D01*
X4186000Y-1660000D02*
X4266000Y-1740000D01*
X4266000Y-1660000D02*
X4186000Y-1740000D01*
X4186000Y-3184000D02*
X4266000Y-3264000D01*
X4266000Y-3184000D02*
X4186000Y-3264000D01*
X4240000Y-940000D02*
X4320000Y-1020000D01*
X4320000Y-940000D02*
X4240000Y-1020000D01*
X4375000Y-2755000D02*
X4455000Y-2835000D01*
X4455000Y-2755000D02*
X4375000Y-2835000D01*
X4440000Y-1660000D02*
X4520000Y-1740000D01*
X4520000Y-1660000D02*
X4440000Y-1740000D01*
X4440000Y-3184000D02*
X4520000Y-3264000D01*
X4520000Y-3184000D02*
X4440000Y-3264000D01*
X4660000Y-940000D02*
X4740000Y-1020000D01*
X4740000Y-940000D02*
X4660000Y-1020000D01*
X4694000Y-1660000D02*
X4774000Y-1740000D01*
X4774000Y-1660000D02*
X4694000Y-1740000D01*
X4694000Y-3184000D02*
X4774000Y-3264000D01*
X4774000Y-3184000D02*
X4694000Y-3264000D01*
X4768000Y-3720000D02*
X4848000Y-3800000D01*
X4848000Y-3720000D02*
X4768000Y-3800000D01*
X4948000Y-1660000D02*
X5028000Y-1740000D01*
X5028000Y-1660000D02*
X4948000Y-1740000D01*
X4948000Y-3184000D02*
X5028000Y-3264000D01*
X5028000Y-3184000D02*
X4948000Y-3264000D01*
X5022000Y-3720000D02*
X5102000Y-3800000D01*
X5102000Y-3720000D02*
X5022000Y-3800000D01*
X5202000Y-1660000D02*
X5282000Y-1740000D01*
X5282000Y-1660000D02*
X5202000Y-1740000D01*
X5202000Y-3184000D02*
X5282000Y-3264000D01*
X5282000Y-3184000D02*
X5202000Y-3264000D01*
X5276000Y-3720000D02*
X5356000Y-3800000D01*
X5356000Y-3720000D02*
X5276000Y-3800000D01*
X5456000Y-1660000D02*
X5536000Y-1740000D01*
X5536000Y-1660000D02*
X5456000Y-1740000D01*
X5456000Y-3184000D02*
X5536000Y-3264000D01*
X5536000Y-3184000D02*
X5456000Y-3264000D01*
X5530000Y-3720000D02*
X5610000Y-3800000D01*
X5610000Y-3720000D02*
X5530000Y-3800000D01*
X5590000Y-2500000D02*
X5670000Y-2580000D01*
X5670000Y-2500000D02*
X5590000Y-2580000D01*
X5608000Y-950000D02*
X5688000Y-1030000D01*
X5688000Y-950000D02*
X5608000Y-1030000D01*
X5710000Y-1660000D02*
X5790000Y-1740000D01*
X5790000Y-1660000D02*
X5710000Y-1740000D01*
X5710000Y-3184000D02*
X5790000Y-3264000D01*
X5790000Y-3184000D02*
X5710000Y-3264000D01*
X5862000Y-950000D02*
X5942000Y-1030000D01*
X5942000Y-950000D02*
X5862000Y-1030000D01*
X5899000Y-2755000D02*
X5979000Y-2835000D01*
X5979000Y-2755000D02*
X5899000Y-2835000D01*
X5964000Y-1660000D02*
X6044000Y-1740000D01*
X6044000Y-1660000D02*
X5964000Y-1740000D01*
X5964000Y-3184000D02*
X6044000Y-3264000D01*
X6044000Y-3184000D02*
X5964000Y-3264000D01*
X6116000Y-950000D02*
X6196000Y-1030000D01*
X6196000Y-950000D02*
X6116000Y-1030000D01*
X6218000Y-1660000D02*
X6298000Y-1740000D01*
X6298000Y-1660000D02*
X6218000Y-1740000D01*
X6218000Y-3184000D02*
X6298000Y-3264000D01*
X6298000Y-3184000D02*
X6218000Y-3264000D01*
X6370000Y-950000D02*
X6450000Y-1030000D01*
X6450000Y-950000D02*
X6370000Y-1030000D01*
X6472000Y-1660000D02*
X6552000Y-1740000D01*
X6552000Y-1660000D02*
X6472000Y-1740000D01*
X6472000Y-3184000D02*
X6552000Y-3264000D01*
X6552000Y-3184000D02*
X6472000Y-3264000D01*
X6726000Y-1660000D02*
X6806000Y-1740000D01*
X6806000Y-1660000D02*
X6726000Y-1740000D01*
X6726000Y-3184000D02*
X6806000Y-3264000D01*
X6806000Y-3184000D02*
X6726000Y-3264000D01*
X810000Y-3060000D02*
G75*
G03*
X810000Y-3060000I-80000J0D01*
G01*
X1206000Y-3060000D02*
G75*
G03*
X1206000Y-3060000I-80000J0D01*
G01*
X2204000Y-1850000D02*
G75*
G03*
X2204000Y-1850000I-80000J0D01*
G01*
X2600000Y-1850000D02*
G75*
G03*
X2600000Y-1850000I-80000J0D01*
G01*
X680000Y-580000D02*
X680000Y-780000D01*
X580000Y-680000D02*
X780000Y-680000D01*
X680000Y-4450000D02*
X680000Y-4650000D01*
X580000Y-4550000D02*
X780000Y-4550000D01*
X6980000Y-590000D02*
X6980000Y-790000D01*
X6880000Y-690000D02*
X7080000Y-690000D01*
X6980000Y-4450000D02*
X6980000Y-4650000D01*
X6880000Y-4550000D02*
X7080000Y-4550000D01*
D12*
X661428Y-5310714D02*
X661428Y-5010714D01*
X732857Y-5010714D01*
X775714Y-5025000D01*
X804286Y-5053572D01*
X818571Y-5082143D01*
X832857Y-5139286D01*
X832857Y-5182143D01*
X818571Y-5239286D01*
X804286Y-5267857D01*
X775714Y-5296429D01*
X732857Y-5310714D01*
X661428Y-5310714D01*
X961428Y-5310714D02*
X961428Y-5110714D01*
X961428Y-5167857D02*
X975714Y-5139286D01*
X990000Y-5125000D01*
X1018571Y-5110714D01*
X1047143Y-5110714D01*
X1147143Y-5310714D02*
X1147143Y-5110714D01*
X1147143Y-5010714D02*
X1132857Y-5025000D01*
X1147143Y-5039286D01*
X1161428Y-5025000D01*
X1147143Y-5010714D01*
X1147143Y-5039286D01*
X1332857Y-5310714D02*
X1304286Y-5296429D01*
X1290000Y-5267857D01*
X1290000Y-5010714D01*
X1490000Y-5310714D02*
X1461428Y-5296429D01*
X1447143Y-5267857D01*
X1447143Y-5010714D01*
X1832857Y-5310714D02*
X1832857Y-5010714D01*
X1932857Y-5225000D01*
X2032857Y-5010714D01*
X2032857Y-5310714D01*
X2304286Y-5310714D02*
X2304286Y-5153572D01*
X2290000Y-5125000D01*
X2261428Y-5110714D01*
X2204286Y-5110714D01*
X2175714Y-5125000D01*
X2304286Y-5296429D02*
X2275714Y-5310714D01*
X2204286Y-5310714D01*
X2175714Y-5296429D01*
X2161428Y-5267857D01*
X2161428Y-5239286D01*
X2175714Y-5210714D01*
X2204286Y-5196429D01*
X2275714Y-5196429D01*
X2304286Y-5182143D01*
X2447143Y-5110714D02*
X2447143Y-5410714D01*
X2447143Y-5125000D02*
X2475714Y-5110714D01*
X2532857Y-5110714D01*
X2561428Y-5125000D01*
X2575714Y-5139286D01*
X2590000Y-5167857D01*
X2590000Y-5253572D01*
X2575714Y-5282143D01*
X2561428Y-5296429D01*
X2532857Y-5310714D01*
X2475714Y-5310714D01*
X2447143Y-5296429D01*
X2718571Y-5282143D02*
X2732857Y-5296429D01*
X2718571Y-5310714D01*
X2704286Y-5296429D01*
X2718571Y-5282143D01*
X2718571Y-5310714D01*
X2718571Y-5125000D02*
X2732857Y-5139286D01*
X2718571Y-5153572D01*
X2704286Y-5139286D01*
X2718571Y-5125000D01*
X2718571Y-5153572D01*
X295000Y-5765000D02*
X375000Y-5845000D01*
X375000Y-5765000D02*
X295000Y-5845000D01*
X718571Y-5640714D02*
X747143Y-5640714D01*
X775714Y-5655000D01*
X790000Y-5669286D01*
X804286Y-5697857D01*
X818571Y-5755000D01*
X818571Y-5826429D01*
X804286Y-5883571D01*
X790000Y-5912143D01*
X775714Y-5926429D01*
X747143Y-5940714D01*
X718571Y-5940714D01*
X690000Y-5926429D01*
X675714Y-5912143D01*
X661428Y-5883571D01*
X647143Y-5826429D01*
X647143Y-5755000D01*
X661428Y-5697857D01*
X675714Y-5669286D01*
X690000Y-5655000D01*
X718571Y-5640714D01*
X947143Y-5912143D02*
X961428Y-5926429D01*
X947143Y-5940714D01*
X932857Y-5926429D01*
X947143Y-5912143D01*
X947143Y-5940714D01*
X1132857Y-5769286D02*
X1104286Y-5755000D01*
X1090000Y-5740714D01*
X1075714Y-5712143D01*
X1075714Y-5697857D01*
X1090000Y-5669286D01*
X1104286Y-5655000D01*
X1132857Y-5640714D01*
X1190000Y-5640714D01*
X1218571Y-5655000D01*
X1232857Y-5669286D01*
X1247143Y-5697857D01*
X1247143Y-5712143D01*
X1232857Y-5740714D01*
X1218571Y-5755000D01*
X1190000Y-5769286D01*
X1132857Y-5769286D01*
X1104286Y-5783571D01*
X1090000Y-5797857D01*
X1075714Y-5826429D01*
X1075714Y-5883571D01*
X1090000Y-5912143D01*
X1104286Y-5926429D01*
X1132857Y-5940714D01*
X1190000Y-5940714D01*
X1218571Y-5926429D01*
X1232857Y-5912143D01*
X1247143Y-5883571D01*
X1247143Y-5826429D01*
X1232857Y-5797857D01*
X1218571Y-5783571D01*
X1190000Y-5769286D01*
X1432857Y-5640714D02*
X1461428Y-5640714D01*
X1490000Y-5655000D01*
X1504286Y-5669286D01*
X1518571Y-5697857D01*
X1532857Y-5755000D01*
X1532857Y-5826429D01*
X1518571Y-5883571D01*
X1504286Y-5912143D01*
X1490000Y-5926429D01*
X1461428Y-5940714D01*
X1432857Y-5940714D01*
X1404286Y-5926429D01*
X1390000Y-5912143D01*
X1375714Y-5883571D01*
X1361428Y-5826429D01*
X1361428Y-5755000D01*
X1375714Y-5697857D01*
X1390000Y-5669286D01*
X1404286Y-5655000D01*
X1432857Y-5640714D01*
X1718571Y-5640714D02*
X1747143Y-5640714D01*
X1775714Y-5655000D01*
X1790000Y-5669286D01*
X1804286Y-5697857D01*
X1818571Y-5755000D01*
X1818571Y-5826429D01*
X1804286Y-5883571D01*
X1790000Y-5912143D01*
X1775714Y-5926429D01*
X1747143Y-5940714D01*
X1718571Y-5940714D01*
X1690000Y-5926429D01*
X1675714Y-5912143D01*
X1661428Y-5883571D01*
X1647143Y-5826429D01*
X1647143Y-5755000D01*
X1661428Y-5697857D01*
X1675714Y-5669286D01*
X1690000Y-5655000D01*
X1718571Y-5640714D01*
X1947143Y-5940714D02*
X1947143Y-5740714D01*
X1947143Y-5769286D02*
X1961428Y-5755000D01*
X1990000Y-5740714D01*
X2032857Y-5740714D01*
X2061428Y-5755000D01*
X2075714Y-5783571D01*
X2075714Y-5940714D01*
X2075714Y-5783571D02*
X2090000Y-5755000D01*
X2118571Y-5740714D01*
X2161428Y-5740714D01*
X2190000Y-5755000D01*
X2204286Y-5783571D01*
X2204286Y-5940714D01*
X2347143Y-5940714D02*
X2347143Y-5740714D01*
X2347143Y-5769286D02*
X2361428Y-5755000D01*
X2390000Y-5740714D01*
X2432857Y-5740714D01*
X2461428Y-5755000D01*
X2475714Y-5783571D01*
X2475714Y-5940714D01*
X2475714Y-5783571D02*
X2490000Y-5755000D01*
X2518571Y-5740714D01*
X2561428Y-5740714D01*
X2590000Y-5755000D01*
X2604286Y-5783571D01*
X2604286Y-5940714D01*
X3190000Y-5626429D02*
X2932857Y-6012143D01*
X3575714Y-5640714D02*
X3604286Y-5640714D01*
X3632857Y-5655000D01*
X3647143Y-5669286D01*
X3661428Y-5697857D01*
X3675714Y-5755000D01*
X3675714Y-5826429D01*
X3661428Y-5883571D01*
X3647143Y-5912143D01*
X3632857Y-5926429D01*
X3604286Y-5940714D01*
X3575714Y-5940714D01*
X3547143Y-5926429D01*
X3532857Y-5912143D01*
X3518571Y-5883571D01*
X3504286Y-5826429D01*
X3504286Y-5755000D01*
X3518571Y-5697857D01*
X3532857Y-5669286D01*
X3547143Y-5655000D01*
X3575714Y-5640714D01*
X3804286Y-5912143D02*
X3818571Y-5926429D01*
X3804286Y-5940714D01*
X3790000Y-5926429D01*
X3804286Y-5912143D01*
X3804286Y-5940714D01*
X4004286Y-5640714D02*
X4032857Y-5640714D01*
X4061428Y-5655000D01*
X4075714Y-5669286D01*
X4090000Y-5697857D01*
X4104286Y-5755000D01*
X4104286Y-5826429D01*
X4090000Y-5883571D01*
X4075714Y-5912143D01*
X4061428Y-5926429D01*
X4032857Y-5940714D01*
X4004286Y-5940714D01*
X3975714Y-5926429D01*
X3961428Y-5912143D01*
X3947143Y-5883571D01*
X3932857Y-5826429D01*
X3932857Y-5755000D01*
X3947143Y-5697857D01*
X3961428Y-5669286D01*
X3975714Y-5655000D01*
X4004286Y-5640714D01*
X4204286Y-5640714D02*
X4390000Y-5640714D01*
X4290000Y-5755000D01*
X4332857Y-5755000D01*
X4361428Y-5769286D01*
X4375714Y-5783571D01*
X4390000Y-5812143D01*
X4390000Y-5883571D01*
X4375714Y-5912143D01*
X4361428Y-5926429D01*
X4332857Y-5940714D01*
X4247143Y-5940714D01*
X4218571Y-5926429D01*
X4204286Y-5912143D01*
X4675714Y-5940714D02*
X4504286Y-5940714D01*
X4590000Y-5940714D02*
X4590000Y-5640714D01*
X4561428Y-5683571D01*
X4532857Y-5712143D01*
X4504286Y-5726429D01*
X4947143Y-5640714D02*
X4804286Y-5640714D01*
X4790000Y-5783571D01*
X4804286Y-5769286D01*
X4832857Y-5755000D01*
X4904286Y-5755000D01*
X4932857Y-5769286D01*
X4947143Y-5783571D01*
X4961428Y-5812143D01*
X4961428Y-5883571D01*
X4947143Y-5912143D01*
X4932857Y-5926429D01*
X4904286Y-5940714D01*
X4832857Y-5940714D01*
X4804286Y-5926429D01*
X4790000Y-5912143D01*
X5075714Y-5640714D02*
X5075714Y-5697857D01*
X5190000Y-5640714D02*
X5190000Y-5697857D01*
X5632857Y-6055000D02*
X5618571Y-6040714D01*
X5590000Y-5997857D01*
X5575714Y-5969286D01*
X5561428Y-5926429D01*
X5547143Y-5855000D01*
X5547143Y-5797857D01*
X5561428Y-5726429D01*
X5575714Y-5683571D01*
X5590000Y-5655000D01*
X5618571Y-5612143D01*
X5632857Y-5597857D01*
X5890000Y-5640714D02*
X5747143Y-5640714D01*
X5732857Y-5783571D01*
X5747143Y-5769286D01*
X5775714Y-5755000D01*
X5847143Y-5755000D01*
X5875714Y-5769286D01*
X5890000Y-5783571D01*
X5904286Y-5812143D01*
X5904286Y-5883571D01*
X5890000Y-5912143D01*
X5875714Y-5926429D01*
X5847143Y-5940714D01*
X5775714Y-5940714D01*
X5747143Y-5926429D01*
X5732857Y-5912143D01*
X6075714Y-5769286D02*
X6047143Y-5755000D01*
X6032857Y-5740714D01*
X6018571Y-5712143D01*
X6018571Y-5697857D01*
X6032857Y-5669286D01*
X6047143Y-5655000D01*
X6075714Y-5640714D01*
X6132857Y-5640714D01*
X6161428Y-5655000D01*
X6175714Y-5669286D01*
X6190000Y-5697857D01*
X6190000Y-5712143D01*
X6175714Y-5740714D01*
X6161428Y-5755000D01*
X6132857Y-5769286D01*
X6075714Y-5769286D01*
X6047143Y-5783571D01*
X6032857Y-5797857D01*
X6018571Y-5826429D01*
X6018571Y-5883571D01*
X6032857Y-5912143D01*
X6047143Y-5926429D01*
X6075714Y-5940714D01*
X6132857Y-5940714D01*
X6161428Y-5926429D01*
X6175714Y-5912143D01*
X6190000Y-5883571D01*
X6190000Y-5826429D01*
X6175714Y-5797857D01*
X6161428Y-5783571D01*
X6132857Y-5769286D01*
X6547143Y-5940714D02*
X6547143Y-5640714D01*
X6675714Y-5940714D02*
X6675714Y-5783571D01*
X6661428Y-5755000D01*
X6632857Y-5740714D01*
X6590000Y-5740714D01*
X6561428Y-5755000D01*
X6547143Y-5769286D01*
X6861428Y-5940714D02*
X6832857Y-5926429D01*
X6818571Y-5912143D01*
X6804286Y-5883571D01*
X6804286Y-5797857D01*
X6818571Y-5769286D01*
X6832857Y-5755000D01*
X6861428Y-5740714D01*
X6904286Y-5740714D01*
X6932857Y-5755000D01*
X6947143Y-5769286D01*
X6961428Y-5797857D01*
X6961428Y-5883571D01*
X6947143Y-5912143D01*
X6932857Y-5926429D01*
X6904286Y-5940714D01*
X6861428Y-5940714D01*
X7132857Y-5940714D02*
X7104286Y-5926429D01*
X7090000Y-5897857D01*
X7090000Y-5640714D01*
X7361428Y-5926429D02*
X7332857Y-5940714D01*
X7275714Y-5940714D01*
X7247143Y-5926429D01*
X7232857Y-5897857D01*
X7232857Y-5783571D01*
X7247143Y-5755000D01*
X7275714Y-5740714D01*
X7332857Y-5740714D01*
X7361428Y-5755000D01*
X7375714Y-5783571D01*
X7375714Y-5812143D01*
X7232857Y-5840714D01*
X7490000Y-5926429D02*
X7518571Y-5940714D01*
X7575714Y-5940714D01*
X7604286Y-5926429D01*
X7618571Y-5897857D01*
X7618571Y-5883571D01*
X7604286Y-5855000D01*
X7575714Y-5840714D01*
X7532857Y-5840714D01*
X7504286Y-5826429D01*
X7490000Y-5797857D01*
X7490000Y-5783571D01*
X7504286Y-5755000D01*
X7532857Y-5740714D01*
X7575714Y-5740714D01*
X7604286Y-5755000D01*
X7718571Y-6055000D02*
X7732857Y-6040714D01*
X7761428Y-5997857D01*
X7775714Y-5969286D01*
X7790000Y-5926429D01*
X7804286Y-5855000D01*
X7804286Y-5797857D01*
X7790000Y-5726429D01*
X7775714Y-5683571D01*
X7761428Y-5655000D01*
X7732857Y-5612143D01*
X7718571Y-5597857D01*
X375000Y-6201000D02*
G75*
G03*
X375000Y-6201000I-80000J0D01*
G01*
X818571Y-6336714D02*
X647143Y-6336714D01*
X732857Y-6336714D02*
X732857Y-6036714D01*
X704286Y-6079571D01*
X675714Y-6108143D01*
X647143Y-6122429D01*
X947143Y-6308143D02*
X961428Y-6322429D01*
X947143Y-6336714D01*
X932857Y-6322429D01*
X947143Y-6308143D01*
X947143Y-6336714D01*
X1218571Y-6036714D02*
X1161428Y-6036714D01*
X1132857Y-6051000D01*
X1118571Y-6065286D01*
X1090000Y-6108143D01*
X1075714Y-6165286D01*
X1075714Y-6279571D01*
X1090000Y-6308143D01*
X1104286Y-6322429D01*
X1132857Y-6336714D01*
X1190000Y-6336714D01*
X1218571Y-6322429D01*
X1232857Y-6308143D01*
X1247143Y-6279571D01*
X1247143Y-6208143D01*
X1232857Y-6179571D01*
X1218571Y-6165286D01*
X1190000Y-6151000D01*
X1132857Y-6151000D01*
X1104286Y-6165286D01*
X1090000Y-6179571D01*
X1075714Y-6208143D01*
X1432857Y-6036714D02*
X1461428Y-6036714D01*
X1490000Y-6051000D01*
X1504286Y-6065286D01*
X1518571Y-6093857D01*
X1532857Y-6151000D01*
X1532857Y-6222429D01*
X1518571Y-6279571D01*
X1504286Y-6308143D01*
X1490000Y-6322429D01*
X1461428Y-6336714D01*
X1432857Y-6336714D01*
X1404286Y-6322429D01*
X1390000Y-6308143D01*
X1375714Y-6279571D01*
X1361428Y-6222429D01*
X1361428Y-6151000D01*
X1375714Y-6093857D01*
X1390000Y-6065286D01*
X1404286Y-6051000D01*
X1432857Y-6036714D01*
X1718571Y-6036714D02*
X1747143Y-6036714D01*
X1775714Y-6051000D01*
X1790000Y-6065286D01*
X1804286Y-6093857D01*
X1818571Y-6151000D01*
X1818571Y-6222429D01*
X1804286Y-6279571D01*
X1790000Y-6308143D01*
X1775714Y-6322429D01*
X1747143Y-6336714D01*
X1718571Y-6336714D01*
X1690000Y-6322429D01*
X1675714Y-6308143D01*
X1661428Y-6279571D01*
X1647143Y-6222429D01*
X1647143Y-6151000D01*
X1661428Y-6093857D01*
X1675714Y-6065286D01*
X1690000Y-6051000D01*
X1718571Y-6036714D01*
X1947143Y-6336714D02*
X1947143Y-6136714D01*
X1947143Y-6165286D02*
X1961428Y-6151000D01*
X1990000Y-6136714D01*
X2032857Y-6136714D01*
X2061428Y-6151000D01*
X2075714Y-6179571D01*
X2075714Y-6336714D01*
X2075714Y-6179571D02*
X2090000Y-6151000D01*
X2118571Y-6136714D01*
X2161428Y-6136714D01*
X2190000Y-6151000D01*
X2204286Y-6179571D01*
X2204286Y-6336714D01*
X2347143Y-6336714D02*
X2347143Y-6136714D01*
X2347143Y-6165286D02*
X2361428Y-6151000D01*
X2390000Y-6136714D01*
X2432857Y-6136714D01*
X2461428Y-6151000D01*
X2475714Y-6179571D01*
X2475714Y-6336714D01*
X2475714Y-6179571D02*
X2490000Y-6151000D01*
X2518571Y-6136714D01*
X2561428Y-6136714D01*
X2590000Y-6151000D01*
X2604286Y-6179571D01*
X2604286Y-6336714D01*
X3190000Y-6022429D02*
X2932857Y-6408143D01*
X3575714Y-6036714D02*
X3604286Y-6036714D01*
X3632857Y-6051000D01*
X3647143Y-6065286D01*
X3661428Y-6093857D01*
X3675714Y-6151000D01*
X3675714Y-6222429D01*
X3661428Y-6279571D01*
X3647143Y-6308143D01*
X3632857Y-6322429D01*
X3604286Y-6336714D01*
X3575714Y-6336714D01*
X3547143Y-6322429D01*
X3532857Y-6308143D01*
X3518571Y-6279571D01*
X3504286Y-6222429D01*
X3504286Y-6151000D01*
X3518571Y-6093857D01*
X3532857Y-6065286D01*
X3547143Y-6051000D01*
X3575714Y-6036714D01*
X3804286Y-6308143D02*
X3818571Y-6322429D01*
X3804286Y-6336714D01*
X3790000Y-6322429D01*
X3804286Y-6308143D01*
X3804286Y-6336714D01*
X4004286Y-6036714D02*
X4032857Y-6036714D01*
X4061428Y-6051000D01*
X4075714Y-6065286D01*
X4090000Y-6093857D01*
X4104286Y-6151000D01*
X4104286Y-6222429D01*
X4090000Y-6279571D01*
X4075714Y-6308143D01*
X4061428Y-6322429D01*
X4032857Y-6336714D01*
X4004286Y-6336714D01*
X3975714Y-6322429D01*
X3961428Y-6308143D01*
X3947143Y-6279571D01*
X3932857Y-6222429D01*
X3932857Y-6151000D01*
X3947143Y-6093857D01*
X3961428Y-6065286D01*
X3975714Y-6051000D01*
X4004286Y-6036714D01*
X4361428Y-6036714D02*
X4304286Y-6036714D01*
X4275714Y-6051000D01*
X4261428Y-6065286D01*
X4232857Y-6108143D01*
X4218571Y-6165286D01*
X4218571Y-6279571D01*
X4232857Y-6308143D01*
X4247143Y-6322429D01*
X4275714Y-6336714D01*
X4332857Y-6336714D01*
X4361428Y-6322429D01*
X4375714Y-6308143D01*
X4390000Y-6279571D01*
X4390000Y-6208143D01*
X4375714Y-6179571D01*
X4361428Y-6165286D01*
X4332857Y-6151000D01*
X4275714Y-6151000D01*
X4247143Y-6165286D01*
X4232857Y-6179571D01*
X4218571Y-6208143D01*
X4490000Y-6036714D02*
X4675714Y-6036714D01*
X4575714Y-6151000D01*
X4618571Y-6151000D01*
X4647143Y-6165286D01*
X4661428Y-6179571D01*
X4675714Y-6208143D01*
X4675714Y-6279571D01*
X4661428Y-6308143D01*
X4647143Y-6322429D01*
X4618571Y-6336714D01*
X4532857Y-6336714D01*
X4504286Y-6322429D01*
X4490000Y-6308143D01*
X4861428Y-6036714D02*
X4890000Y-6036714D01*
X4918571Y-6051000D01*
X4932857Y-6065286D01*
X4947143Y-6093857D01*
X4961428Y-6151000D01*
X4961428Y-6222429D01*
X4947143Y-6279571D01*
X4932857Y-6308143D01*
X4918571Y-6322429D01*
X4890000Y-6336714D01*
X4861428Y-6336714D01*
X4832857Y-6322429D01*
X4818571Y-6308143D01*
X4804286Y-6279571D01*
X4790000Y-6222429D01*
X4790000Y-6151000D01*
X4804286Y-6093857D01*
X4818571Y-6065286D01*
X4832857Y-6051000D01*
X4861428Y-6036714D01*
X5075714Y-6036714D02*
X5075714Y-6093857D01*
X5190000Y-6036714D02*
X5190000Y-6093857D01*
X5632857Y-6451000D02*
X5618571Y-6436714D01*
X5590000Y-6393857D01*
X5575714Y-6365286D01*
X5561428Y-6322429D01*
X5547143Y-6251000D01*
X5547143Y-6193857D01*
X5561428Y-6122429D01*
X5575714Y-6079571D01*
X5590000Y-6051000D01*
X5618571Y-6008143D01*
X5632857Y-5993857D01*
X5875714Y-6136714D02*
X5875714Y-6336714D01*
X5804286Y-6022429D02*
X5732857Y-6236714D01*
X5918571Y-6236714D01*
X6261428Y-6336714D02*
X6261428Y-6036714D01*
X6390000Y-6336714D02*
X6390000Y-6179571D01*
X6375714Y-6151000D01*
X6347143Y-6136714D01*
X6304286Y-6136714D01*
X6275714Y-6151000D01*
X6261428Y-6165286D01*
X6575714Y-6336714D02*
X6547143Y-6322429D01*
X6532857Y-6308143D01*
X6518571Y-6279571D01*
X6518571Y-6193857D01*
X6532857Y-6165286D01*
X6547143Y-6151000D01*
X6575714Y-6136714D01*
X6618571Y-6136714D01*
X6647143Y-6151000D01*
X6661428Y-6165286D01*
X6675714Y-6193857D01*
X6675714Y-6279571D01*
X6661428Y-6308143D01*
X6647143Y-6322429D01*
X6618571Y-6336714D01*
X6575714Y-6336714D01*
X6847143Y-6336714D02*
X6818571Y-6322429D01*
X6804286Y-6293857D01*
X6804286Y-6036714D01*
X7075714Y-6322429D02*
X7047143Y-6336714D01*
X6990000Y-6336714D01*
X6961428Y-6322429D01*
X6947143Y-6293857D01*
X6947143Y-6179571D01*
X6961428Y-6151000D01*
X6990000Y-6136714D01*
X7047143Y-6136714D01*
X7075714Y-6151000D01*
X7090000Y-6179571D01*
X7090000Y-6208143D01*
X6947143Y-6236714D01*
X7204286Y-6322429D02*
X7232857Y-6336714D01*
X7290000Y-6336714D01*
X7318571Y-6322429D01*
X7332857Y-6293857D01*
X7332857Y-6279571D01*
X7318571Y-6251000D01*
X7290000Y-6236714D01*
X7247143Y-6236714D01*
X7218571Y-6222429D01*
X7204286Y-6193857D01*
X7204286Y-6179571D01*
X7218571Y-6151000D01*
X7247143Y-6136714D01*
X7290000Y-6136714D01*
X7318571Y-6151000D01*
X7432857Y-6451000D02*
X7447143Y-6436714D01*
X7475714Y-6393857D01*
X7490000Y-6365286D01*
X7504286Y-6322429D01*
X7518571Y-6251000D01*
X7518571Y-6193857D01*
X7504286Y-6122429D01*
X7490000Y-6079571D01*
X7475714Y-6051000D01*
X7447143Y-6008143D01*
X7432857Y-5993857D01*
X275000Y-6497000D02*
X275000Y-6697000D01*
X175000Y-6597000D02*
X375000Y-6597000D01*
X647143Y-6461286D02*
X661428Y-6447000D01*
X690000Y-6432714D01*
X761428Y-6432714D01*
X790000Y-6447000D01*
X804286Y-6461286D01*
X818571Y-6489857D01*
X818571Y-6518429D01*
X804286Y-6561286D01*
X632857Y-6732714D01*
X818571Y-6732714D01*
X947143Y-6704143D02*
X961428Y-6718429D01*
X947143Y-6732714D01*
X932857Y-6718429D01*
X947143Y-6704143D01*
X947143Y-6732714D01*
X1147143Y-6432714D02*
X1175714Y-6432714D01*
X1204286Y-6447000D01*
X1218571Y-6461286D01*
X1232857Y-6489857D01*
X1247143Y-6547000D01*
X1247143Y-6618429D01*
X1232857Y-6675571D01*
X1218571Y-6704143D01*
X1204286Y-6718429D01*
X1175714Y-6732714D01*
X1147143Y-6732714D01*
X1118571Y-6718429D01*
X1104286Y-6704143D01*
X1090000Y-6675571D01*
X1075714Y-6618429D01*
X1075714Y-6547000D01*
X1090000Y-6489857D01*
X1104286Y-6461286D01*
X1118571Y-6447000D01*
X1147143Y-6432714D01*
X1432857Y-6432714D02*
X1461428Y-6432714D01*
X1490000Y-6447000D01*
X1504286Y-6461286D01*
X1518571Y-6489857D01*
X1532857Y-6547000D01*
X1532857Y-6618429D01*
X1518571Y-6675571D01*
X1504286Y-6704143D01*
X1490000Y-6718429D01*
X1461428Y-6732714D01*
X1432857Y-6732714D01*
X1404286Y-6718429D01*
X1390000Y-6704143D01*
X1375714Y-6675571D01*
X1361428Y-6618429D01*
X1361428Y-6547000D01*
X1375714Y-6489857D01*
X1390000Y-6461286D01*
X1404286Y-6447000D01*
X1432857Y-6432714D01*
X1718571Y-6432714D02*
X1747143Y-6432714D01*
X1775714Y-6447000D01*
X1790000Y-6461286D01*
X1804286Y-6489857D01*
X1818571Y-6547000D01*
X1818571Y-6618429D01*
X1804286Y-6675571D01*
X1790000Y-6704143D01*
X1775714Y-6718429D01*
X1747143Y-6732714D01*
X1718571Y-6732714D01*
X1690000Y-6718429D01*
X1675714Y-6704143D01*
X1661428Y-6675571D01*
X1647143Y-6618429D01*
X1647143Y-6547000D01*
X1661428Y-6489857D01*
X1675714Y-6461286D01*
X1690000Y-6447000D01*
X1718571Y-6432714D01*
X1947143Y-6732714D02*
X1947143Y-6532714D01*
X1947143Y-6561286D02*
X1961428Y-6547000D01*
X1990000Y-6532714D01*
X2032857Y-6532714D01*
X2061428Y-6547000D01*
X2075714Y-6575571D01*
X2075714Y-6732714D01*
X2075714Y-6575571D02*
X2090000Y-6547000D01*
X2118571Y-6532714D01*
X2161428Y-6532714D01*
X2190000Y-6547000D01*
X2204286Y-6575571D01*
X2204286Y-6732714D01*
X2347143Y-6732714D02*
X2347143Y-6532714D01*
X2347143Y-6561286D02*
X2361428Y-6547000D01*
X2390000Y-6532714D01*
X2432857Y-6532714D01*
X2461428Y-6547000D01*
X2475714Y-6575571D01*
X2475714Y-6732714D01*
X2475714Y-6575571D02*
X2490000Y-6547000D01*
X2518571Y-6532714D01*
X2561428Y-6532714D01*
X2590000Y-6547000D01*
X2604286Y-6575571D01*
X2604286Y-6732714D01*
X3190000Y-6418429D02*
X2932857Y-6804143D01*
X3575714Y-6432714D02*
X3604286Y-6432714D01*
X3632857Y-6447000D01*
X3647143Y-6461286D01*
X3661428Y-6489857D01*
X3675714Y-6547000D01*
X3675714Y-6618429D01*
X3661428Y-6675571D01*
X3647143Y-6704143D01*
X3632857Y-6718429D01*
X3604286Y-6732714D01*
X3575714Y-6732714D01*
X3547143Y-6718429D01*
X3532857Y-6704143D01*
X3518571Y-6675571D01*
X3504286Y-6618429D01*
X3504286Y-6547000D01*
X3518571Y-6489857D01*
X3532857Y-6461286D01*
X3547143Y-6447000D01*
X3575714Y-6432714D01*
X3804286Y-6704143D02*
X3818571Y-6718429D01*
X3804286Y-6732714D01*
X3790000Y-6718429D01*
X3804286Y-6704143D01*
X3804286Y-6732714D01*
X4004286Y-6432714D02*
X4032857Y-6432714D01*
X4061428Y-6447000D01*
X4075714Y-6461286D01*
X4090000Y-6489857D01*
X4104286Y-6547000D01*
X4104286Y-6618429D01*
X4090000Y-6675571D01*
X4075714Y-6704143D01*
X4061428Y-6718429D01*
X4032857Y-6732714D01*
X4004286Y-6732714D01*
X3975714Y-6718429D01*
X3961428Y-6704143D01*
X3947143Y-6675571D01*
X3932857Y-6618429D01*
X3932857Y-6547000D01*
X3947143Y-6489857D01*
X3961428Y-6461286D01*
X3975714Y-6447000D01*
X4004286Y-6432714D01*
X4204286Y-6432714D02*
X4404286Y-6432714D01*
X4275714Y-6732714D01*
X4561428Y-6561286D02*
X4532857Y-6547000D01*
X4518571Y-6532714D01*
X4504286Y-6504143D01*
X4504286Y-6489857D01*
X4518571Y-6461286D01*
X4532857Y-6447000D01*
X4561428Y-6432714D01*
X4618571Y-6432714D01*
X4647143Y-6447000D01*
X4661428Y-6461286D01*
X4675714Y-6489857D01*
X4675714Y-6504143D01*
X4661428Y-6532714D01*
X4647143Y-6547000D01*
X4618571Y-6561286D01*
X4561428Y-6561286D01*
X4532857Y-6575571D01*
X4518571Y-6589857D01*
X4504286Y-6618429D01*
X4504286Y-6675571D01*
X4518571Y-6704143D01*
X4532857Y-6718429D01*
X4561428Y-6732714D01*
X4618571Y-6732714D01*
X4647143Y-6718429D01*
X4661428Y-6704143D01*
X4675714Y-6675571D01*
X4675714Y-6618429D01*
X4661428Y-6589857D01*
X4647143Y-6575571D01*
X4618571Y-6561286D01*
X4775714Y-6432714D02*
X4975714Y-6432714D01*
X4847143Y-6732714D01*
X5075714Y-6432714D02*
X5075714Y-6489857D01*
X5190000Y-6432714D02*
X5190000Y-6489857D01*
X5632857Y-6847000D02*
X5618571Y-6832714D01*
X5590000Y-6789857D01*
X5575714Y-6761286D01*
X5561428Y-6718429D01*
X5547143Y-6647000D01*
X5547143Y-6589857D01*
X5561428Y-6518429D01*
X5575714Y-6475571D01*
X5590000Y-6447000D01*
X5618571Y-6404143D01*
X5632857Y-6389857D01*
X5875714Y-6532714D02*
X5875714Y-6732714D01*
X5804286Y-6418429D02*
X5732857Y-6632714D01*
X5918571Y-6632714D01*
X6261428Y-6732714D02*
X6261428Y-6432714D01*
X6390000Y-6732714D02*
X6390000Y-6575571D01*
X6375714Y-6547000D01*
X6347143Y-6532714D01*
X6304286Y-6532714D01*
X6275714Y-6547000D01*
X6261428Y-6561286D01*
X6575714Y-6732714D02*
X6547143Y-6718429D01*
X6532857Y-6704143D01*
X6518571Y-6675571D01*
X6518571Y-6589857D01*
X6532857Y-6561286D01*
X6547143Y-6547000D01*
X6575714Y-6532714D01*
X6618571Y-6532714D01*
X6647143Y-6547000D01*
X6661428Y-6561286D01*
X6675714Y-6589857D01*
X6675714Y-6675571D01*
X6661428Y-6704143D01*
X6647143Y-6718429D01*
X6618571Y-6732714D01*
X6575714Y-6732714D01*
X6847143Y-6732714D02*
X6818571Y-6718429D01*
X6804286Y-6689857D01*
X6804286Y-6432714D01*
X7075714Y-6718429D02*
X7047143Y-6732714D01*
X6990000Y-6732714D01*
X6961428Y-6718429D01*
X6947143Y-6689857D01*
X6947143Y-6575571D01*
X6961428Y-6547000D01*
X6990000Y-6532714D01*
X7047143Y-6532714D01*
X7075714Y-6547000D01*
X7090000Y-6575571D01*
X7090000Y-6604143D01*
X6947143Y-6632714D01*
X7204286Y-6718429D02*
X7232857Y-6732714D01*
X7290000Y-6732714D01*
X7318571Y-6718429D01*
X7332857Y-6689857D01*
X7332857Y-6675571D01*
X7318571Y-6647000D01*
X7290000Y-6632714D01*
X7247143Y-6632714D01*
X7218571Y-6618429D01*
X7204286Y-6589857D01*
X7204286Y-6575571D01*
X7218571Y-6547000D01*
X7247143Y-6532714D01*
X7290000Y-6532714D01*
X7318571Y-6547000D01*
X7432857Y-6847000D02*
X7447143Y-6832714D01*
X7475714Y-6789857D01*
X7490000Y-6761286D01*
X7504286Y-6718429D01*
X7518571Y-6647000D01*
X7518571Y-6589857D01*
X7504286Y-6518429D01*
X7490000Y-6475571D01*
X7475714Y-6447000D01*
X7447143Y-6404143D01*
X7432857Y-6389857D01*
M02*
