M48
; DRILL file {KiCad (5.1.10)-1} date 10/23/21 23:50:16
; FORMAT={-:-/ absolute / metric / decimal}
; #@! TF.CreationDate,2021-10-23T23:50:16-04:00
; #@! TF.GenerationSoftware,Kicad,Pcbnew,(5.1.10)-1
FMAT,2
METRIC
T1C0.800
T2C1.600
T3C2.000
%
G90
G05
T1
X7.1Y-39.4
X10.9Y-39.4
X15.2Y-35.7
X15.2Y-46.3
X16.3Y-11.9
X16.65Y-30.1
X18.84Y-11.9
X20.45Y-30.1
X21.3Y-10.4
X25.1Y-25.6
X31.8Y-35.7
X31.8Y-46.3
X32.1Y-17.0
X32.1Y-32.24
X34.64Y-17.0
X34.64Y-32.24
X35.4Y-43.5
X37.18Y-17.0
X37.18Y-32.24
X37.9Y-10.5
X37.94Y-43.5
X39.72Y-17.0
X39.72Y-32.24
X42.26Y-17.0
X42.26Y-32.24
X42.8Y-9.8
X44.15Y-27.95
X44.8Y-17.0
X44.8Y-32.24
X47.0Y-9.8
X47.34Y-17.0
X47.34Y-32.24
X48.08Y-37.6
X49.88Y-17.0
X49.88Y-32.24
X50.62Y-37.6
X52.42Y-17.0
X52.42Y-32.24
X53.16Y-37.6
X54.96Y-17.0
X54.96Y-32.24
X55.7Y-37.6
X56.3Y-25.4
X56.48Y-9.9
X57.5Y-17.0
X57.5Y-32.24
X59.02Y-9.9
X59.39Y-27.95
X60.04Y-17.0
X60.04Y-32.24
X61.56Y-9.9
X62.58Y-17.0
X62.58Y-32.24
X64.1Y-9.9
X65.12Y-17.0
X65.12Y-32.24
X67.66Y-17.0
X67.66Y-32.24
T2
X7.3Y-30.6
X11.26Y-30.6
X21.24Y-18.5
X25.2Y-18.5
T3
X6.8Y-6.8
X6.8Y-45.5
X69.8Y-6.9
X69.8Y-45.5
T0
M30
