M48
METRIC,TZ
VER,1
FMAT,2
DETECT,ON
ATC,ON
T1C0.6000
T2C0.8000
%
T1
X563880Y157480
X612563
X370840Y468000
X472440
X624840
X345440Y452000
X396240
X447040
X548640
X599440
X421640Y468000
X523240
X574040
X345440Y195580
X370840Y182880
X396240Y165100
X320040Y175260
X421640Y165100
X447040
X472440Y182880
X523240
X548640Y203200
X822960Y693420
X789940
X853440
X243840Y187960
X269240
X294640
X497600Y452000
X66040Y425000
X406400Y628120
X431800
X457200
X482600
X508000
X533400
X406400Y523120
X431800
X457200
X482600
X508000
X533400
X838200Y137160
Y162560
Y187960
X723900Y281940
X424180Y688340
X228600Y647700
X307340Y688340
X838200Y447040
X810260Y411480
X777240Y635000
Y609600
X878840
X853440
X828040
X878840Y635000
X802640
Y609600
X828040Y635000
X853440
X218440Y238760
X624840
X269240Y391160
X193040
X167640
X142240
X243840
X218440
X421640
X345440
X320040
X294640
X396240
X370840
X497840
X472440
X447040
X574040
X548640
X523240
X599440
X624840
X142240Y238760
X269240
X193040
X167640
X243840
X421640
X345440
X320040
X294640
X370840
X396240
X497840
X447040
X472440
X574040
X523240
X548640
X599440
X835660Y518160
X231140Y533400
X474980Y687000
X723900Y431800
X66040Y127000
X33020Y612140
X177800Y614680
X810260Y492760
X307340Y581660
X688340Y198120
Y109220
X891540Y226060
T2
X279400Y106680
Y151553
X214207Y106680
Y151553
M30
