G04 Generated by Ultiboard 14.0 *
%FSLAX34Y34*%
%MOMM*%

%ADD10C,0.0001*%
%ADD11C,0.1778*%
%ADD12C,0.0010*%
%ADD13C,0.1270*%


G04 ColorRGB 00FF00 for the following layer *
%LN3D-Info Bottom*%
%LPD*%
G54D10*
G54D11*
X29977Y311578D02*
X51221Y311578D01*
X51221Y277764D01*
X29977Y277764D01*
X29977Y311578D01*
X508503Y130382D02*
X487259Y130382D01*
X487259Y164196D01*
X508503Y164196D01*
X508503Y130382D01*
X778938Y190663D02*
X745124Y190663D01*
X745124Y169419D01*
X778938Y169419D01*
X778938Y190663D01*
X65537Y311578D02*
X86781Y311578D01*
X86781Y277764D01*
X65537Y277764D01*
X65537Y311578D01*
X40137Y509698D02*
X61381Y509698D01*
X61381Y475884D01*
X40137Y475884D01*
X40137Y509698D01*
X145337Y530018D02*
X166581Y530018D01*
X166581Y496204D01*
X145337Y496204D01*
X145337Y530018D01*
X184337Y530018D02*
X205581Y530018D01*
X205581Y496204D01*
X184337Y496204D01*
X184337Y530018D01*
X75697Y530018D02*
X96941Y530018D01*
X96941Y496204D01*
X75697Y496204D01*
X75697Y530018D01*
X111257Y550338D02*
X132501Y550338D01*
X132501Y516524D01*
X111257Y516524D01*
X111257Y550338D01*
X217937Y509698D02*
X239181Y509698D01*
X239181Y475884D01*
X217937Y475884D01*
X217937Y509698D01*
X278897Y499538D02*
X300141Y499538D01*
X300141Y465724D01*
X278897Y465724D01*
X278897Y499538D01*
X159178Y137663D02*
X125364Y137663D01*
X125364Y116419D01*
X159178Y116419D01*
X159178Y137663D01*
X554990Y120650D02*
X554990Y92710D01*
X572770Y92710D02*
X572770Y120650D01*
X554990Y92710D02*
X572770Y92710D01*
X572770Y120650D02*
X554990Y120650D01*
X605790Y120650D02*
X605790Y92710D01*
X623570Y92710D02*
X623570Y120650D01*
X605790Y92710D02*
X623570Y92710D01*
X623570Y120650D02*
X605790Y120650D01*
X328440Y152423D02*
X362370Y152423D01*
X362370Y101495D01*
X328440Y101495D01*
X328440Y152423D01*
X-5583Y357298D02*
X15661Y357298D01*
X15661Y323484D01*
X-5583Y323484D01*
X-5583Y357298D01*
X-30983Y311578D02*
X-9739Y311578D01*
X-9739Y277764D01*
X-30983Y277764D01*
X-30983Y311578D01*
G54D12*
X521320Y710960D02*
X535320Y710960D01*
X535320Y680960D02*
X521320Y680960D01*
X521320Y710960D01*
X535320Y710960D02*
X535320Y680960D01*
X64120Y670320D02*
X78120Y670320D01*
X78120Y640320D02*
X64120Y640320D01*
X64120Y670320D01*
X78120Y670320D02*
X78120Y640320D01*
X348600Y713000D02*
X362600Y713000D01*
X362600Y683000D02*
X348600Y683000D01*
X348600Y713000D01*
X362600Y713000D02*
X362600Y683000D01*
X-1920Y594120D02*
X12080Y594120D01*
X12080Y564120D02*
X-1920Y564120D01*
X-1920Y594120D01*
X12080Y594120D02*
X12080Y564120D01*
X876490Y362620D02*
X932490Y362620D01*
X932490Y287620D01*
X876490Y287620D01*
X876490Y362620D01*
X899990Y369120D02*
X908990Y369120D01*
X908990Y281120D01*
X899990Y281120D01*
X899990Y369120D01*
X885490Y362620D02*
X932490Y362620D01*
X932490Y287620D01*
X885490Y287620D01*
X885490Y362620D01*
X876490Y326370D02*
X884240Y326370D01*
X884240Y323870D01*
X876490Y323870D01*
X876490Y326370D01*
X887990Y342620D02*
X913990Y342620D01*
X913990Y307620D01*
X887990Y307620D01*
X887990Y342620D01*
X884240Y326370D02*
X909240Y326370D01*
X909240Y323870D01*
X884240Y323870D01*
X884240Y326370D01*
X882990Y326370D01*
X882990Y323870D01*
X884240Y323870D01*
X884240Y326370D01*
X876490Y342620D02*
X881490Y342620D01*
X881490Y307620D01*
X876490Y307620D01*
X876490Y342620D01*
X885490Y362620D02*
X890490Y362620D01*
X890490Y287620D01*
X885490Y287620D01*
X885490Y362620D01*
X876490Y362620D02*
X932490Y362620D01*
X932490Y357620D01*
X876490Y357620D01*
X876490Y362620D01*
X884240Y339370D02*
X909240Y339370D01*
X909240Y336870D01*
X884240Y336870D01*
X884240Y339370D01*
X884240Y332870D02*
X909240Y332870D01*
X909240Y330370D01*
X884240Y330370D01*
X884240Y332870D01*
X876490Y332870D02*
X884240Y332870D01*
X884240Y330370D01*
X876490Y330370D01*
X876490Y332870D01*
X876490Y339370D02*
X884240Y339370D01*
X884240Y336870D01*
X876490Y336870D01*
X876490Y339370D01*
X876490Y362620D02*
X885490Y362620D01*
X885490Y344620D01*
X876490Y344620D01*
X876490Y362620D01*
X884240Y339370D02*
X882990Y339370D01*
X882990Y336870D01*
X884240Y336870D01*
X884240Y339370D01*
X884240Y332870D02*
X882990Y332870D01*
X882990Y330370D01*
X884240Y330370D01*
X884240Y332870D01*
X932490Y287620D02*
X876490Y287620D01*
X876490Y292620D01*
X932490Y292620D01*
X932490Y287620D01*
X884240Y319870D02*
X909240Y319870D01*
X909240Y317370D01*
X884240Y317370D01*
X884240Y319870D01*
X884240Y313370D02*
X909240Y313370D01*
X909240Y310870D01*
X884240Y310870D01*
X884240Y313370D01*
X876490Y319870D02*
X884240Y319870D01*
X884240Y317370D01*
X876490Y317370D01*
X876490Y319870D01*
X876490Y313370D02*
X884240Y313370D01*
X884240Y310870D01*
X876490Y310870D01*
X876490Y313370D01*
X885490Y287620D02*
X876490Y287620D01*
X876490Y305620D01*
X885490Y305620D01*
X885490Y287620D01*
X884240Y319870D02*
X882990Y319870D01*
X882990Y317370D01*
X884240Y317370D01*
X884240Y319870D01*
X884240Y313370D02*
X882990Y313370D01*
X882990Y310870D01*
X884240Y310870D01*
X884240Y313370D01*
G54D13*
X-50800Y63480D02*
X-50800Y130792D01*
X-50800Y63480D02*
X48676Y63480D01*
X943963Y63480D02*
X844487Y63480D01*
X943963Y63480D02*
X943963Y130792D01*
X943963Y736600D02*
X943963Y669288D01*
X943963Y736600D02*
X844487Y736600D01*
X-50800Y736600D02*
X48676Y736600D01*
X-50800Y736600D02*
X-50800Y669288D01*
X-100800Y63480D02*
X-200800Y63480D01*
X-150800Y13480D02*
X-150800Y113480D01*
X-188300Y63480D02*
G75*
D01*
G02X-188300Y63480I37500J0*
G01*
X993963Y63480D02*
X1093963Y63480D01*
X1043963Y13480D02*
X1043963Y113480D01*
X1006463Y63480D02*
G75*
D01*
G02X1006463Y63480I37500J0*
G01*
X1031463Y63480D02*
G75*
D01*
G02X1031463Y63480I12500J0*
G01*
X-100800Y736600D02*
X-200800Y736600D01*
X-150800Y686600D02*
X-150800Y786600D01*
X-188300Y736600D02*
G75*
D01*
G02X-188300Y736600I37500J0*
G01*
X-175800Y736600D02*
G75*
D01*
G02X-175800Y736600I25000J0*
G01*
X-163300Y736600D02*
G75*
D01*
G02X-163300Y736600I12500J0*
G01*

M02*
