G04 Generated by Ultiboard 14.0 *
%FSLAX34Y34*%
%MOMM*%

%ADD10C,0.0001*%
%ADD11C,0.0010*%
%ADD12C,0.1270*%


G04 ColorRGB 00FFFF for the following layer *
%LNBoard Outline*%
%LPD*%
G54D10*
G54D11*
X-48260Y66020D02*
X941423Y66020D01*
X941423Y734060D01*
X-48260Y734060D01*
X-48260Y66020D01*
G54D12*
X-50800Y63480D02*
X-50800Y130792D01*
X-50800Y63480D02*
X48676Y63480D01*
X943963Y63480D02*
X844487Y63480D01*
X943963Y63480D02*
X943963Y130792D01*
X943963Y736600D02*
X943963Y669288D01*
X943963Y736600D02*
X844487Y736600D01*
X-50800Y736600D02*
X48676Y736600D01*
X-50800Y736600D02*
X-50800Y669288D01*
X-100800Y63480D02*
X-200800Y63480D01*
X-150800Y13480D02*
X-150800Y113480D01*
X-188300Y63480D02*
G75*
D01*
G02X-188300Y63480I37500J0*
G01*
X993963Y63480D02*
X1093963Y63480D01*
X1043963Y13480D02*
X1043963Y113480D01*
X1006463Y63480D02*
G75*
D01*
G02X1006463Y63480I37500J0*
G01*
X1031463Y63480D02*
G75*
D01*
G02X1031463Y63480I12500J0*
G01*
X-100800Y736600D02*
X-200800Y736600D01*
X-150800Y686600D02*
X-150800Y786600D01*
X-188300Y736600D02*
G75*
D01*
G02X-188300Y736600I37500J0*
G01*
X-175800Y736600D02*
G75*
D01*
G02X-175800Y736600I25000J0*
G01*
X-163300Y736600D02*
G75*
D01*
G02X-163300Y736600I12500J0*
G01*

M02*
