G04 Generated by Ultiboard 14.0 *
%FSLAX34Y34*%
%MOMM*%

%ADD10C,0.0001*%
%ADD11C,0.0010*%
%ADD12C,0.1270*%
%ADD13C,2.4000X0.6000*%
%ADD14R,1.1768X0.4768*%
%ADD15C,0.8232*%
%ADD16R,0.4768X1.1768*%
%ADD17R,1.2000X0.8000*%
%ADD18C,0.4000*%
%ADD19C,2.3000X0.6000*%
%ADD20R,1.0534X1.0534X0.6000*%
%ADD21C,1.2466*%
%ADD22R,0.9051X0.9051X0.6000*%
%ADD23C,1.3949*%
%ADD24C,2.9000X0.8000*%
%ADD25R,1.1768X0.3768*%
%ADD26R,2.5768X1.0768*%
%ADD27R,1.4000X1.6000*%
%ADD28R,1.3000X2.3000*%
%ADD29R,1.9000X1.8000*%
%ADD30R,1.3500X0.4000*%


G04 ColorRGB 9900CC for the following layer *
%LNSolder Mask Bottom*%
%LPD*%
G54D10*
G54D11*
G36*
X897990Y351120D02*
X897990Y374120D01*
X910990Y374120D01*
X910990Y351120D01*
X897990Y351120D01*
G37*
G36*
X894990Y327620D02*
X894990Y345620D01*
X913990Y345620D01*
X913990Y327620D01*
X894990Y327620D01*
G37*
G36*
X873250Y349140D02*
X873250Y365120D01*
X887230Y365120D01*
X887230Y349140D01*
X873250Y349140D01*
G37*
G36*
X897990Y276120D02*
X897990Y299120D01*
X910990Y299120D01*
X910990Y276120D01*
X897990Y276120D01*
G37*
G36*
X894990Y304620D02*
X894990Y322620D01*
X913990Y322620D01*
X913990Y304620D01*
X894990Y304620D01*
G37*
G36*
X873255Y285130D02*
X873255Y301110D01*
X887235Y301110D01*
X887235Y285130D01*
X873255Y285130D01*
G37*
G54D12*
X-50800Y63480D02*
X-50800Y130792D01*
X-50800Y63480D02*
X48676Y63480D01*
X943963Y63480D02*
X844487Y63480D01*
X943963Y63480D02*
X943963Y130792D01*
X943963Y736600D02*
X943963Y669288D01*
X943963Y736600D02*
X844487Y736600D01*
X-50800Y736600D02*
X48676Y736600D01*
X-50800Y736600D02*
X-50800Y669288D01*
X-100800Y63480D02*
X-200800Y63480D01*
X-150800Y13480D02*
X-150800Y113480D01*
X-188300Y63480D02*
G75*
D01*
G02X-188300Y63480I37500J0*
G01*
X993963Y63480D02*
X1093963Y63480D01*
X1043963Y13480D02*
X1043963Y113480D01*
X1006463Y63480D02*
G75*
D01*
G02X1006463Y63480I37500J0*
G01*
X1031463Y63480D02*
G75*
D01*
G02X1031463Y63480I12500J0*
G01*
X-100800Y736600D02*
X-200800Y736600D01*
X-150800Y686600D02*
X-150800Y786600D01*
X-188300Y736600D02*
G75*
D01*
G02X-188300Y736600I37500J0*
G01*
X-175800Y736600D02*
G75*
D01*
G02X-175800Y736600I25000J0*
G01*
X-163300Y736600D02*
G75*
D01*
G02X-163300Y736600I12500J0*
G01*
G54D13*
X563880Y157480D03*
X612563Y157480D03*
X370840Y468000D03*
X472440Y468000D03*
X624840Y468000D03*
X345440Y452000D03*
X396240Y452000D03*
X447040Y452000D03*
X548640Y452000D03*
X599440Y452000D03*
X421640Y468000D03*
X523240Y468000D03*
X574040Y468000D03*
X345440Y195580D03*
X370840Y182880D03*
X396240Y165100D03*
X320040Y175260D03*
X421640Y165100D03*
X447040Y165100D03*
X472440Y182880D03*
X523240Y182880D03*
X548640Y203200D03*
X822960Y693420D03*
X789940Y693420D03*
X853440Y693420D03*
X243840Y187960D03*
X269240Y187960D03*
X294640Y187960D03*
X497600Y452000D03*
X66040Y425000D03*
X723900Y281940D03*
X424180Y688340D03*
X228600Y647700D03*
X307340Y688340D03*
X838200Y447040D03*
X810260Y411480D03*
X835660Y518160D03*
X231140Y533400D03*
X474980Y687000D03*
X723900Y431800D03*
X66040Y127000D03*
X33020Y612140D03*
X177800Y614680D03*
X810260Y492760D03*
X307340Y581660D03*
X688340Y198120D03*
X688340Y109220D03*
X891540Y226060D03*
G54D14*
X40640Y285115D03*
X40640Y304165D03*
X497840Y156845D03*
X497840Y137795D03*
X76200Y285115D03*
X76200Y304165D03*
X50800Y502285D03*
X50800Y483235D03*
X156000Y522605D03*
X156000Y503555D03*
X195000Y503555D03*
X195000Y522605D03*
X86360Y503555D03*
X86360Y522605D03*
X121920Y542925D03*
X121920Y523875D03*
X228600Y483235D03*
X228600Y502285D03*
X289560Y492125D03*
X289560Y473075D03*
X5080Y349885D03*
X5080Y330835D03*
X-20320Y285115D03*
X-20320Y304165D03*
G54D15*
X34756Y282731D02*
X46524Y282731D01*
X46524Y287499D01*
X34756Y287499D01*
X34756Y282731D01*D02*
X34756Y301781D02*
X46524Y301781D01*
X46524Y306549D01*
X34756Y306549D01*
X34756Y301781D01*D02*
X491956Y154461D02*
X503724Y154461D01*
X503724Y159229D01*
X491956Y159229D01*
X491956Y154461D01*D02*
X491956Y135411D02*
X503724Y135411D01*
X503724Y140179D01*
X491956Y140179D01*
X491956Y135411D01*D02*
X769141Y174116D02*
X773909Y174116D01*
X773909Y185884D01*
X769141Y185884D01*
X769141Y174116D01*D02*
X750091Y174116D02*
X754859Y174116D01*
X754859Y185884D01*
X750091Y185884D01*
X750091Y174116D01*D02*
X70316Y282731D02*
X82084Y282731D01*
X82084Y287499D01*
X70316Y287499D01*
X70316Y282731D01*D02*
X70316Y301781D02*
X82084Y301781D01*
X82084Y306549D01*
X70316Y306549D01*
X70316Y301781D01*D02*
X44916Y499901D02*
X56684Y499901D01*
X56684Y504669D01*
X44916Y504669D01*
X44916Y499901D01*D02*
X44916Y480851D02*
X56684Y480851D01*
X56684Y485619D01*
X44916Y485619D01*
X44916Y480851D01*D02*
X150116Y520221D02*
X161884Y520221D01*
X161884Y524989D01*
X150116Y524989D01*
X150116Y520221D01*D02*
X150116Y501171D02*
X161884Y501171D01*
X161884Y505939D01*
X150116Y505939D01*
X150116Y501171D01*D02*
X189116Y501171D02*
X200884Y501171D01*
X200884Y505939D01*
X189116Y505939D01*
X189116Y501171D01*D02*
X189116Y520221D02*
X200884Y520221D01*
X200884Y524989D01*
X189116Y524989D01*
X189116Y520221D01*D02*
X80476Y501171D02*
X92244Y501171D01*
X92244Y505939D01*
X80476Y505939D01*
X80476Y501171D01*D02*
X80476Y520221D02*
X92244Y520221D01*
X92244Y524989D01*
X80476Y524989D01*
X80476Y520221D01*D02*
X116036Y540541D02*
X127804Y540541D01*
X127804Y545309D01*
X116036Y545309D01*
X116036Y540541D01*D02*
X116036Y521491D02*
X127804Y521491D01*
X127804Y526259D01*
X116036Y526259D01*
X116036Y521491D01*D02*
X222716Y480851D02*
X234484Y480851D01*
X234484Y485619D01*
X222716Y485619D01*
X222716Y480851D01*D02*
X222716Y499901D02*
X234484Y499901D01*
X234484Y504669D01*
X222716Y504669D01*
X222716Y499901D01*D02*
X283676Y489741D02*
X295444Y489741D01*
X295444Y494509D01*
X283676Y494509D01*
X283676Y489741D01*D02*
X283676Y470691D02*
X295444Y470691D01*
X295444Y475459D01*
X283676Y475459D01*
X283676Y470691D01*D02*
X130331Y121116D02*
X135099Y121116D01*
X135099Y132884D01*
X130331Y132884D01*
X130331Y121116D01*D02*
X149381Y121116D02*
X154149Y121116D01*
X154149Y132884D01*
X149381Y132884D01*
X149381Y121116D01*D02*
X557996Y97176D02*
X569764Y97176D01*
X569764Y100944D01*
X557996Y100944D01*
X557996Y97176D01*D02*
X557996Y112416D02*
X569764Y112416D01*
X569764Y116184D01*
X557996Y116184D01*
X557996Y112416D01*D02*
X608796Y112416D02*
X620564Y112416D01*
X620564Y116184D01*
X608796Y116184D01*
X608796Y112416D01*D02*
X608796Y97176D02*
X620564Y97176D01*
X620564Y100944D01*
X608796Y100944D01*
X608796Y97176D01*D02*
X332556Y106799D02*
X358324Y106799D01*
X358324Y117567D01*
X332556Y117567D01*
X332556Y106799D01*D02*
X332556Y136433D02*
X358324Y136433D01*
X358324Y147201D01*
X332556Y147201D01*
X332556Y136433D01*D02*
X-804Y347501D02*
X10964Y347501D01*
X10964Y352269D01*
X-804Y352269D01*
X-804Y347501D01*D02*
X-804Y328451D02*
X10964Y328451D01*
X10964Y333219D01*
X-804Y333219D01*
X-804Y328451D01*D02*
X-26204Y282731D02*
X-14436Y282731D01*
X-14436Y287499D01*
X-26204Y287499D01*
X-26204Y282731D01*D02*
X-26204Y301781D02*
X-14436Y301781D01*
X-14436Y306549D01*
X-26204Y306549D01*
X-26204Y301781D01*D02*
G54D16*
X771525Y180000D03*
X752475Y180000D03*
X132715Y127000D03*
X151765Y127000D03*
G54D17*
X516820Y686460D03*
X539820Y695960D03*
X516820Y705460D03*
X59620Y645820D03*
X59620Y664820D03*
X82620Y655320D03*
X344100Y688500D03*
X367100Y698000D03*
X344100Y707500D03*
X16580Y579120D03*
X-6420Y569620D03*
X-6420Y588620D03*
G54D18*
X510820Y682460D02*
X522820Y682460D01*
X522820Y690460D01*
X510820Y690460D01*
X510820Y682460D01*D02*
X533820Y691960D02*
X545820Y691960D01*
X545820Y699960D01*
X533820Y699960D01*
X533820Y691960D01*D02*
X510820Y701460D02*
X522820Y701460D01*
X522820Y709460D01*
X510820Y709460D01*
X510820Y701460D01*D02*
X53620Y641820D02*
X65620Y641820D01*
X65620Y649820D01*
X53620Y649820D01*
X53620Y641820D01*D02*
X53620Y660820D02*
X65620Y660820D01*
X65620Y668820D01*
X53620Y668820D01*
X53620Y660820D01*D02*
X76620Y651320D02*
X88620Y651320D01*
X88620Y659320D01*
X76620Y659320D01*
X76620Y651320D01*D02*
X338100Y684500D02*
X350100Y684500D01*
X350100Y692500D01*
X338100Y692500D01*
X338100Y684500D01*D02*
X361100Y694000D02*
X373100Y694000D01*
X373100Y702000D01*
X361100Y702000D01*
X361100Y694000D01*D02*
X338100Y703500D02*
X350100Y703500D01*
X350100Y711500D01*
X338100Y711500D01*
X338100Y703500D01*D02*
X10580Y575120D02*
X22580Y575120D01*
X22580Y583120D01*
X10580Y583120D01*
X10580Y575120D01*D02*
X-12420Y565620D02*
X-420Y565620D01*
X-420Y573620D01*
X-12420Y573620D01*
X-12420Y565620D01*D02*
X-12420Y584620D02*
X-420Y584620D01*
X-420Y592620D01*
X-12420Y592620D01*
X-12420Y584620D01*D02*
X872740Y285120D02*
X886740Y285120D01*
X886740Y301120D01*
X872740Y301120D01*
X872740Y285120D01*D02*
X897740Y276120D02*
X910740Y276120D01*
X910740Y299120D01*
X897740Y299120D01*
X897740Y276120D01*D02*
X894740Y304620D02*
X913740Y304620D01*
X913740Y322620D01*
X894740Y322620D01*
X894740Y304620D01*D02*
X894740Y327620D02*
X913740Y327620D01*
X913740Y345620D01*
X894740Y345620D01*
X894740Y327620D01*D02*
X872740Y349120D02*
X886740Y349120D01*
X886740Y365120D01*
X872740Y365120D01*
X872740Y349120D01*D02*
X897740Y351120D02*
X910740Y351120D01*
X910740Y374120D01*
X897740Y374120D01*
X897740Y351120D01*D02*
X870740Y310120D02*
X884240Y310120D01*
X884240Y314120D01*
X870740Y314120D01*
X870740Y310120D01*D02*
X870740Y323120D02*
X884240Y323120D01*
X884240Y327120D01*
X870740Y327120D01*
X870740Y323120D01*D02*
X870740Y329620D02*
X884240Y329620D01*
X884240Y333620D01*
X870740Y333620D01*
X870740Y329620D01*D02*
X870740Y316620D02*
X884240Y316620D01*
X884240Y320620D01*
X870740Y320620D01*
X870740Y316620D01*D02*
X870740Y336120D02*
X884240Y336120D01*
X884240Y340120D01*
X870740Y340120D01*
X870740Y336120D01*D02*
G54D19*
X406400Y628120D03*
X431800Y628120D03*
X457200Y628120D03*
X482600Y628120D03*
X508000Y628120D03*
X533400Y628120D03*
X431800Y523120D03*
X457200Y523120D03*
X482600Y523120D03*
X508000Y523120D03*
X533400Y523120D03*
X838200Y162560D03*
X838200Y187960D03*
X777240Y635000D03*
X878840Y609600D03*
X853440Y609600D03*
X828040Y609600D03*
X878840Y635000D03*
X802640Y635000D03*
X802640Y609600D03*
X828040Y635000D03*
X853440Y635000D03*
X218440Y238760D03*
X624840Y238760D03*
X269240Y391160D03*
X193040Y391160D03*
X167640Y391160D03*
X142240Y391160D03*
X243840Y391160D03*
X218440Y391160D03*
X421640Y391160D03*
X345440Y391160D03*
X320040Y391160D03*
X294640Y391160D03*
X396240Y391160D03*
X370840Y391160D03*
X497840Y391160D03*
X472440Y391160D03*
X447040Y391160D03*
X574040Y391160D03*
X548640Y391160D03*
X523240Y391160D03*
X599440Y391160D03*
X624840Y391160D03*
X142240Y238760D03*
X269240Y238760D03*
X193040Y238760D03*
X167640Y238760D03*
X243840Y238760D03*
X421640Y238760D03*
X345440Y238760D03*
X320040Y238760D03*
X294640Y238760D03*
X370840Y238760D03*
X396240Y238760D03*
X497840Y238760D03*
X447040Y238760D03*
X472440Y238760D03*
X574040Y238760D03*
X523240Y238760D03*
X548640Y238760D03*
X599440Y238760D03*
G54D20*
X406400Y523120D03*
G54D21*
X401133Y517853D02*
X411667Y517853D01*
X411667Y528387D01*
X401133Y528387D01*
X401133Y517853D01*D02*
G54D22*
X838200Y137160D03*
X777240Y609600D03*
G54D23*
X833675Y132635D02*
X842725Y132635D01*
X842725Y141685D01*
X833675Y141685D01*
X833675Y132635D01*D02*
X772715Y605075D02*
X781765Y605075D01*
X781765Y614125D01*
X772715Y614125D01*
X772715Y605075D01*D02*
G54D24*
X279400Y106680D03*
X279400Y151553D03*
X214207Y106680D03*
X214207Y151553D03*
G54D25*
X563880Y99060D03*
X563880Y114300D03*
X614680Y114300D03*
X614680Y99060D03*
G54D26*
X345440Y112183D03*
X345440Y141817D03*
G54D27*
X879740Y293120D03*
X879740Y357120D03*
G54D28*
X904240Y287620D03*
X904240Y362620D03*
G54D29*
X904240Y313620D03*
X904240Y336620D03*
G54D30*
X877490Y312120D03*
X877490Y325120D03*
X877490Y331620D03*
X877490Y318620D03*
X877490Y338120D03*

M02*
