G04 Generated by Ultiboard 14.0 *
%FSLAX34Y34*%
%MOMM*%

%ADD10C,0.0001*%
%ADD11C,0.2540*%
%ADD12C,1.1000*%
%ADD13C,2.0000*%
%ADD14C,1.8000*%
%ADD15C,0.1270*%
%ADD16C,2.0000X0.6000*%
%ADD17C,1.9000X0.6000*%
%ADD18R,1.0534X1.0534X0.6000*%
%ADD19C,0.8466*%
%ADD20R,0.9051X0.9051X0.6000*%
%ADD21C,0.9949*%
%ADD22C,2.5000X0.8000*%


G04 ColorRGB 00FF00 for the following layer *
%LNCopper Top*%
%LPD*%
G54D10*
G36*
X-41960Y727760D02*
X-41960Y727760D01*
X935123Y727760D01*
X935123Y72321D01*
X-41960Y72321D01*
X-41960Y727760D01*
D02*
G37*
%LPC*%
G36*
X205740Y400509D02*
G75*
D01*
G03X180340Y400509I-12700J-9349*
G01*
G75*
D01*
G03X154940Y400509I-12700J-9349*
G01*
G75*
D01*
G03X154940Y381811I-12700J-9349*
G01*
G75*
D01*
G03X180340Y381811I12700J9349*
G01*
G75*
D01*
G03X205740Y381811I12700J9349*
G01*
G75*
D01*
G03X231140Y381811I12700J9349*
G01*
G75*
D01*
G03X256540Y381811I12700J9349*
G01*
G75*
D01*
G03X281940Y381811I12700J9349*
G01*
G75*
D01*
G03X307340Y381811I12700J9349*
G01*
G75*
D01*
G03X332740Y381811I12700J9349*
G01*
G75*
D01*
G03X358140Y381811I12700J9349*
G01*
G75*
D01*
G03X383540Y381811I12700J9349*
G01*
G75*
D01*
G03X408940Y381811I12700J9349*
G01*
G75*
D01*
G03X434340Y381811I12700J9349*
G01*
G75*
D01*
G03X459740Y381811I12700J9349*
G01*
G75*
D01*
G03X485140Y381811I12700J9349*
G01*
G75*
D01*
G03X510540Y381811I12700J9349*
G01*
G75*
D01*
G03X535940Y381811I12700J9349*
G01*
G75*
D01*
G03X561340Y381811I12700J9349*
G01*
G75*
D01*
G03X586740Y381811I12700J9349*
G01*
G75*
D01*
G03X612140Y381811I12700J9349*
G01*
G75*
D01*
G03X612140Y400509I12700J9349*
G01*
G75*
D01*
G03X586740Y400509I-12700J-9349*
G01*
G75*
D01*
G03X561340Y400509I-12700J-9349*
G01*
G75*
D01*
G03X535940Y400509I-12700J-9349*
G01*
G75*
D01*
G03X510540Y400509I-12700J-9349*
G01*
G75*
D01*
G03X485140Y400509I-12700J-9349*
G01*
G75*
D01*
G03X459740Y400509I-12700J-9349*
G01*
G75*
D01*
G03X434340Y400509I-12700J-9349*
G01*
G75*
D01*
G03X408940Y400509I-12700J-9349*
G01*
G75*
D01*
G03X383540Y400509I-12700J-9349*
G01*
G75*
D01*
G03X358140Y400509I-12700J-9349*
G01*
G75*
D01*
G03X332740Y400509I-12700J-9349*
G01*
G75*
D01*
G03X307340Y400509I-12700J-9349*
G01*
G75*
D01*
G03X281940Y400509I-12700J-9349*
G01*
G75*
D01*
G03X256540Y400509I-12700J-9349*
G01*
G75*
D01*
G03X231140Y400509I-12700J-9349*
G01*
G75*
D01*
G03X205740Y400509I-12700J-9349*
G01*
D02*
G37*
G36*
X49691Y129540D02*
G75*
D01*
G03X49788Y127765I16349J3*
G01*
G75*
D01*
G03X82292Y127765I16252J-744*
G01*
G75*
D01*
G03X82389Y129540I-16251J1778*
G01*
X82389Y129540D01*
X82389Y425000D01*
G75*
D01*
G03X49691Y425000I-16349J0*
G01*
X49691Y425000D01*
X49691Y129540D01*
D02*
G37*
G36*
X205740Y248109D02*
G75*
D01*
G03X180340Y248109I-12700J-9349*
G01*
G75*
D01*
G03X154940Y248109I-12700J-9349*
G01*
G75*
D01*
G03X154940Y229411I-12700J-9349*
G01*
G75*
D01*
G03X180340Y229411I12700J9349*
G01*
G75*
D01*
G03X205740Y229411I12700J9349*
G01*
G75*
D01*
G03X231140Y229411I12700J9349*
G01*
G75*
D01*
G03X256540Y229411I12700J9349*
G01*
G75*
D01*
G03X281940Y229411I12700J9349*
G01*
G75*
D01*
G03X307340Y229411I12700J9349*
G01*
G75*
D01*
G03X332740Y229411I12700J9349*
G01*
G75*
D01*
G03X358140Y229411I12700J9349*
G01*
G75*
D01*
G03X383540Y229411I12700J9349*
G01*
G75*
D01*
G03X408940Y229411I12700J9349*
G01*
G75*
D01*
G03X434340Y229411I12700J9349*
G01*
G75*
D01*
G03X459740Y229411I12700J9349*
G01*
G75*
D01*
G03X485140Y229411I12700J9349*
G01*
G75*
D01*
G03X510540Y229411I12700J9349*
G01*
G75*
D01*
G03X535940Y229411I12700J9349*
G01*
G75*
D01*
G03X561340Y229411I12700J9349*
G01*
G75*
D01*
G03X586740Y229411I12700J9349*
G01*
G75*
D01*
G03X586740Y248109I12700J9349*
G01*
G75*
D01*
G03X561340Y248109I-12700J-9349*
G01*
G75*
D01*
G03X535940Y248109I-12700J-9349*
G01*
G75*
D01*
G03X510540Y248109I-12700J-9349*
G01*
G75*
D01*
G03X485140Y248109I-12700J-9349*
G01*
G75*
D01*
G03X459740Y248109I-12700J-9349*
G01*
G75*
D01*
G03X434340Y248109I-12700J-9349*
G01*
G75*
D01*
G03X408940Y248109I-12700J-9349*
G01*
G75*
D01*
G03X383540Y248109I-12700J-9349*
G01*
G75*
D01*
G03X358140Y248109I-12700J-9349*
G01*
G75*
D01*
G03X332740Y248109I-12700J-9349*
G01*
G75*
D01*
G03X307340Y248109I-12700J-9349*
G01*
G75*
D01*
G03X281940Y248109I-12700J-9349*
G01*
G75*
D01*
G03X256540Y248109I-12700J-9349*
G01*
G75*
D01*
G03X231140Y248109I-12700J-9349*
G01*
G75*
D01*
G03X205740Y248109I-12700J-9349*
G01*
D02*
G37*
G36*
X444500Y532469D02*
G75*
D01*
G03X420517Y534137I-12700J-9349*
G01*
G74*
D01*
G03X411667Y538941I8850J5749*
G01*
X411667Y538941D01*
X401133Y538941D01*
G75*
D01*
G03X390579Y528387I0J-10554*
G01*
X390579Y528387D01*
X390579Y517853D01*
G75*
D01*
G03X401133Y507299I10554J0*
G01*
X401133Y507299D01*
X411667Y507299D01*
G74*
D01*
G03X420517Y512103I0J10554*
G01*
G75*
D01*
G03X444500Y513771I11283J11016*
G01*
G75*
D01*
G03X469900Y513771I12700J9349*
G01*
G75*
D01*
G03X495300Y513771I12700J9349*
G01*
G75*
D01*
G03X520700Y513771I12700J9349*
G01*
G75*
D01*
G03X520700Y532469I12700J9349*
G01*
G75*
D01*
G03X495300Y532469I-12700J-9349*
G01*
G75*
D01*
G03X469900Y532469I-12700J-9349*
G01*
G75*
D01*
G03X444500Y532469I-12700J-9349*
G01*
D02*
G37*
G36*
X214791Y639096D02*
X214791Y639096D01*
X214791Y535000D01*
G75*
D01*
G03X214870Y533398I16349J3*
G01*
G75*
D01*
G03X247410Y533398I16270J0*
G01*
G75*
D01*
G03X247489Y535000I-16269J1605*
G01*
X247489Y535000D01*
X247489Y645000D01*
G74*
D01*
G03X241432Y657702I16349J1*
G01*
G75*
D01*
G03X214791Y639096I-12842J-9988*
G01*
D02*
G37*
G36*
X437687Y465313D02*
G75*
D01*
G03X405593Y465313I-16047J2685*
G01*
G75*
D01*
G03X386887Y465313I-9353J-13313*
G01*
G75*
D01*
G03X354793Y465313I-16047J2685*
G01*
G75*
D01*
G03X361487Y454687I-9353J-13313*
G01*
G75*
D01*
G03X380193Y454687I9353J13313*
G01*
G75*
D01*
G03X412287Y454687I16047J-2685*
G01*
G75*
D01*
G03X430993Y454687I9353J13313*
G01*
G75*
D01*
G03X463087Y454687I16047J-2685*
G01*
G75*
D01*
G03X481523Y454502I9353J13313*
G01*
G75*
D01*
G03X513612Y454884I16077J-2501*
G01*
G75*
D01*
G03X532593Y454687I9628J13116*
G01*
G75*
D01*
G03X564687Y454687I16047J-2685*
G01*
G75*
D01*
G03X583393Y454687I9353J13313*
G01*
G75*
D01*
G03X615487Y454687I16047J-2685*
G01*
G75*
D01*
G03X608793Y465313I9353J13313*
G01*
G75*
D01*
G03X590087Y465313I-9353J-13313*
G01*
G75*
D01*
G03X557993Y465313I-16047J2685*
G01*
G75*
D01*
G03X539287Y465313I-9353J-13313*
G01*
G75*
D01*
G03X507228Y465116I-16047J2687*
G01*
G75*
D01*
G03X488517Y465498I-9627J-13116*
G01*
G75*
D01*
G03X456393Y465313I-16077J2499*
G01*
G75*
D01*
G03X437687Y465313I-9353J-13313*
G01*
D02*
G37*
G36*
X434340Y175270D02*
G75*
D01*
G03X408940Y175270I-12700J-10170*
G01*
G75*
D01*
G03X386372Y178036I-12700J-10170*
G01*
G75*
D01*
G03X361692Y196335I-15530J4847*
G01*
G75*
D01*
G03X332463Y185767I-16251J-757*
G01*
G75*
D01*
G03X310892Y188715I-12423J-10507*
G01*
G75*
D01*
G03X281940Y198130I-16252J-753*
G01*
G75*
D01*
G03X256540Y198130I-12700J-10170*
G01*
G75*
D01*
G03X256540Y177790I-12700J-10170*
G01*
G75*
D01*
G03X281940Y177790I12700J10170*
G01*
G75*
D01*
G03X303788Y174505I12700J10170*
G01*
G75*
D01*
G03X333017Y185073I16251J757*
G01*
G75*
D01*
G03X354588Y182125I12423J10507*
G01*
G75*
D01*
G03X380708Y169944I16252J753*
G01*
G75*
D01*
G03X408940Y154930I15530J-4849*
G01*
G75*
D01*
G03X434340Y154930I12700J10170*
G01*
G75*
D01*
G03X462572Y169944I12700J10170*
G01*
G75*
D01*
G03X456908Y178036I9868J12936*
G01*
G75*
D01*
G03X434340Y175270I-9868J-12936*
G01*
D02*
G37*
G36*
X188242Y602203D02*
G75*
D01*
G03X169196Y628489I-10430J12486*
G01*
X169196Y628489D01*
X33020Y628489D01*
G75*
D01*
G03X33020Y595791I0J-16349*
G01*
X33020Y595791D01*
X175260Y595791D01*
G74*
D01*
G03X188242Y602203I1J16349*
G01*
D02*
G37*
G36*
X427084Y704349D02*
G75*
D01*
G03X408315Y691946I-2904J-16009*
G01*
G75*
D01*
G03X424180Y671651I15864J-3947*
G01*
X424180Y671651D01*
X469583Y671651D01*
G75*
D01*
G03X491231Y686216I5397J15349*
G01*
G75*
D01*
G03X474980Y704349I-16250J1785*
G01*
X474980Y704349D01*
X427084Y704349D01*
D02*
G37*
G36*
X444500Y637469D02*
G75*
D01*
G03X419100Y637469I-12700J-9349*
G01*
G75*
D01*
G03X419100Y618771I-12700J-9349*
G01*
G75*
D01*
G03X444500Y618771I12700J9349*
G01*
G75*
D01*
G03X469900Y618771I12700J9349*
G01*
G75*
D01*
G03X495300Y618771I12700J9349*
G01*
G75*
D01*
G03X520700Y618771I12700J9349*
G01*
G75*
D01*
G03X520700Y637469I12700J9349*
G01*
G75*
D01*
G03X495300Y637469I-12700J-9349*
G01*
G75*
D01*
G03X469900Y637469I-12700J-9349*
G01*
G75*
D01*
G03X444500Y637469I-12700J-9349*
G01*
D02*
G37*
G36*
X707551Y431800D02*
X707551Y431800D01*
X707551Y281940D01*
G75*
D01*
G03X740249Y281940I16349J0*
G01*
X740249Y281940D01*
X740249Y431800D01*
G75*
D01*
G03X707551Y431800I-16349J0*
G01*
D02*
G37*
G36*
X195437Y106680D02*
G75*
D01*
G03X195437Y106680I18770J0*
G01*
D02*
G37*
G36*
X260630Y106680D02*
G75*
D01*
G03X260630Y106680I18770J0*
G01*
D02*
G37*
G36*
X195437Y151553D02*
G75*
D01*
G03X195437Y151553I18770J0*
G01*
D02*
G37*
G36*
X260630Y151553D02*
G75*
D01*
G03X260630Y151553I18770J0*
G01*
D02*
G37*
G36*
X840740Y644349D02*
G75*
D01*
G03X815340Y644349I-12700J-9349*
G01*
G75*
D01*
G03X789940Y644349I-12700J-9349*
G01*
G75*
D01*
G03X766432Y623516I-12700J-9349*
G01*
G74*
D01*
G03X761416Y614125I6282J9390*
G01*
X761416Y614125D01*
X761416Y605075D01*
G75*
D01*
G03X772715Y593776I11299J0*
G01*
X772715Y593776D01*
X781765Y593776D01*
G74*
D01*
G03X791156Y598792I0J11299*
G01*
G75*
D01*
G03X815340Y600251I11484J10808*
G01*
G75*
D01*
G03X840740Y600251I12700J9349*
G01*
G75*
D01*
G03X866140Y600251I12700J9349*
G01*
G75*
D01*
G03X866140Y618949I12700J9349*
G01*
G74*
D01*
G03X862789Y622300I12700J9349*
G01*
G75*
D01*
G03X840740Y644349I-9349J12700*
G01*
D02*
G37*
G36*
X773670Y693420D02*
G75*
D01*
G03X773670Y693420I16270J0*
G01*
D02*
G37*
G36*
X838200Y699117D02*
G75*
D01*
G03X838200Y687723I-15240J-5697*
G01*
G75*
D01*
G03X838200Y699117I15240J5697*
G01*
D02*
G37*
G36*
X323344Y685408D02*
G75*
D01*
G03X291074Y688693I-16004J2931*
G01*
G74*
D01*
G03X290651Y685000I15925J3695*
G01*
X290651Y685000D01*
X290651Y583000D01*
G75*
D01*
G03X291630Y577429I16349J2*
G01*
G75*
D01*
G03X323349Y584564I15716J4207*
G01*
X323349Y584564D01*
X323349Y685000D01*
G74*
D01*
G03X323344Y685408I16349J4*
G01*
D02*
G37*
G36*
X828851Y175260D02*
G75*
D01*
G03X847549Y175260I9349J-12700*
G01*
G75*
D01*
G03X828851Y175260I-9349J12700*
G01*
D02*
G37*
G36*
X547610Y157480D02*
G75*
D01*
G03X547610Y157480I16270J0*
G01*
D02*
G37*
G36*
X596293Y157480D02*
G75*
D01*
G03X596293Y157480I16270J0*
G01*
D02*
G37*
G36*
X535663Y193387D02*
G75*
D01*
G03X536217Y192693I-12434J-10494*
G01*
G75*
D01*
G03X535663Y193387I12434J10494*
G01*
D02*
G37*
G36*
X808895Y395267D02*
G75*
D01*
G03X827349Y411480I2105J16213*
G01*
X827349Y411480D01*
X827349Y434917D01*
G75*
D01*
G03X851004Y457079I10860J12114*
G01*
X851004Y457079D01*
X851004Y512749D01*
G75*
D01*
G03X820316Y512749I-15344J5411*
G01*
X820316Y512749D01*
X820316Y505550D01*
G75*
D01*
G03X794658Y488146I-10058J-12788*
G01*
G74*
D01*
G03X794651Y487680I16341J479*
G01*
X794651Y487680D01*
X794651Y416071D01*
G75*
D01*
G03X808895Y395267I15609J-4591*
G01*
D02*
G37*
%LPD*%
G36*
X840740Y625651D02*
G74*
D01*
G02X837389Y622300I12700J9349*
G01*
G74*
D01*
G02X840740Y618949I9349J12700*
G01*
G74*
D01*
G02X844091Y622300I12700J9349*
G01*
G74*
D01*
G02X840740Y625651I9349J12700*
G01*
D02*
G37*
G36*
X815340Y625651D02*
G74*
D01*
G02X811989Y622300I12700J9349*
G01*
G74*
D01*
G02X815340Y618949I9349J12700*
G01*
G74*
D01*
G02X818691Y622300I12700J9349*
G01*
G74*
D01*
G02X815340Y625651I9349J12700*
G01*
D02*
G37*
G36*
X789940Y625651D02*
G74*
D01*
G02X788048Y623516I12700J9349*
G01*
G74*
D01*
G02X791156Y620408I6282J9390*
G01*
G74*
D01*
G02X793291Y622300I11484J10808*
G01*
G74*
D01*
G02X789940Y625651I9349J12700*
G01*
D02*
G37*
G54D11*
X840740Y625651D02*
G74*
D01*
G02X837389Y622300I12700J9349*
G01*
G74*
D01*
G02X840740Y618949I9349J12700*
G01*
G74*
D01*
G02X844091Y622300I12700J9349*
G01*
G74*
D01*
G02X840740Y625651I9349J12700*
G01*
X789940Y625651D02*
G74*
D01*
G02X788048Y623516I12700J9349*
G01*
G74*
D01*
G02X791156Y620408I6282J9390*
G01*
G74*
D01*
G02X793291Y622300I11484J10808*
G01*
G74*
D01*
G02X789940Y625651I9349J12700*
G01*
X205740Y400509D02*
G75*
D01*
G03X180340Y400509I-12700J-9349*
G01*
G75*
D01*
G03X154940Y400509I-12700J-9349*
G01*
G75*
D01*
G03X154940Y381811I-12700J-9349*
G01*
G75*
D01*
G03X180340Y381811I12700J9349*
G01*
G75*
D01*
G03X205740Y381811I12700J9349*
G01*
G75*
D01*
G03X231140Y381811I12700J9349*
G01*
G75*
D01*
G03X256540Y381811I12700J9349*
G01*
G75*
D01*
G03X281940Y381811I12700J9349*
G01*
G75*
D01*
G03X307340Y381811I12700J9349*
G01*
G75*
D01*
G03X332740Y381811I12700J9349*
G01*
G75*
D01*
G03X358140Y381811I12700J9349*
G01*
G75*
D01*
G03X383540Y381811I12700J9349*
G01*
G75*
D01*
G03X408940Y381811I12700J9349*
G01*
G75*
D01*
G03X434340Y381811I12700J9349*
G01*
G75*
D01*
G03X459740Y381811I12700J9349*
G01*
G75*
D01*
G03X485140Y381811I12700J9349*
G01*
G75*
D01*
G03X510540Y381811I12700J9349*
G01*
G75*
D01*
G03X535940Y381811I12700J9349*
G01*
G75*
D01*
G03X561340Y381811I12700J9349*
G01*
G75*
D01*
G03X586740Y381811I12700J9349*
G01*
G75*
D01*
G03X612140Y381811I12700J9349*
G01*
G75*
D01*
G03X612140Y400509I12700J9349*
G01*
G75*
D01*
G03X586740Y400509I-12700J-9349*
G01*
G75*
D01*
G03X561340Y400509I-12700J-9349*
G01*
G75*
D01*
G03X535940Y400509I-12700J-9349*
G01*
G75*
D01*
G03X510540Y400509I-12700J-9349*
G01*
G75*
D01*
G03X485140Y400509I-12700J-9349*
G01*
G75*
D01*
G03X459740Y400509I-12700J-9349*
G01*
G75*
D01*
G03X434340Y400509I-12700J-9349*
G01*
G75*
D01*
G03X408940Y400509I-12700J-9349*
G01*
G75*
D01*
G03X383540Y400509I-12700J-9349*
G01*
G75*
D01*
G03X358140Y400509I-12700J-9349*
G01*
G75*
D01*
G03X332740Y400509I-12700J-9349*
G01*
G75*
D01*
G03X307340Y400509I-12700J-9349*
G01*
G75*
D01*
G03X281940Y400509I-12700J-9349*
G01*
G75*
D01*
G03X256540Y400509I-12700J-9349*
G01*
G75*
D01*
G03X231140Y400509I-12700J-9349*
G01*
G75*
D01*
G03X205740Y400509I-12700J-9349*
G01*
X49691Y129540D02*
G75*
D01*
G03X49788Y127765I16349J3*
G01*
G75*
D01*
G03X82292Y127765I16252J-744*
G01*
G75*
D01*
G03X82389Y129540I-16251J1778*
G01*
X82389Y425000D01*
G75*
D01*
G03X49691Y425000I-16349J0*
G01*
X49691Y129540D01*
X205740Y248109D02*
G75*
D01*
G03X180340Y248109I-12700J-9349*
G01*
G75*
D01*
G03X154940Y248109I-12700J-9349*
G01*
G75*
D01*
G03X154940Y229411I-12700J-9349*
G01*
G75*
D01*
G03X180340Y229411I12700J9349*
G01*
G75*
D01*
G03X205740Y229411I12700J9349*
G01*
G75*
D01*
G03X231140Y229411I12700J9349*
G01*
G75*
D01*
G03X256540Y229411I12700J9349*
G01*
G75*
D01*
G03X281940Y229411I12700J9349*
G01*
G75*
D01*
G03X307340Y229411I12700J9349*
G01*
G75*
D01*
G03X332740Y229411I12700J9349*
G01*
G75*
D01*
G03X358140Y229411I12700J9349*
G01*
G75*
D01*
G03X383540Y229411I12700J9349*
G01*
G75*
D01*
G03X408940Y229411I12700J9349*
G01*
G75*
D01*
G03X434340Y229411I12700J9349*
G01*
G75*
D01*
G03X459740Y229411I12700J9349*
G01*
G75*
D01*
G03X485140Y229411I12700J9349*
G01*
G75*
D01*
G03X510540Y229411I12700J9349*
G01*
G75*
D01*
G03X535940Y229411I12700J9349*
G01*
G75*
D01*
G03X561340Y229411I12700J9349*
G01*
G75*
D01*
G03X586740Y229411I12700J9349*
G01*
G75*
D01*
G03X586740Y248109I12700J9349*
G01*
G75*
D01*
G03X561340Y248109I-12700J-9349*
G01*
G75*
D01*
G03X535940Y248109I-12700J-9349*
G01*
G75*
D01*
G03X510540Y248109I-12700J-9349*
G01*
G75*
D01*
G03X485140Y248109I-12700J-9349*
G01*
G75*
D01*
G03X459740Y248109I-12700J-9349*
G01*
G75*
D01*
G03X434340Y248109I-12700J-9349*
G01*
G75*
D01*
G03X408940Y248109I-12700J-9349*
G01*
G75*
D01*
G03X383540Y248109I-12700J-9349*
G01*
G75*
D01*
G03X358140Y248109I-12700J-9349*
G01*
G75*
D01*
G03X332740Y248109I-12700J-9349*
G01*
G75*
D01*
G03X307340Y248109I-12700J-9349*
G01*
G75*
D01*
G03X281940Y248109I-12700J-9349*
G01*
G75*
D01*
G03X256540Y248109I-12700J-9349*
G01*
G75*
D01*
G03X231140Y248109I-12700J-9349*
G01*
G75*
D01*
G03X205740Y248109I-12700J-9349*
G01*
X444500Y532469D02*
G75*
D01*
G03X420517Y534137I-12700J-9349*
G01*
G74*
D01*
G03X411667Y538941I8850J5749*
G01*
X401133Y538941D01*
G75*
D01*
G03X390579Y528387I0J-10554*
G01*
X390579Y517853D01*
G75*
D01*
G03X401133Y507299I10554J0*
G01*
X411667Y507299D01*
G74*
D01*
G03X420517Y512103I0J10554*
G01*
G75*
D01*
G03X444500Y513771I11283J11016*
G01*
G75*
D01*
G03X469900Y513771I12700J9349*
G01*
G75*
D01*
G03X495300Y513771I12700J9349*
G01*
G75*
D01*
G03X520700Y513771I12700J9349*
G01*
G75*
D01*
G03X520700Y532469I12700J9349*
G01*
G75*
D01*
G03X495300Y532469I-12700J-9349*
G01*
G75*
D01*
G03X469900Y532469I-12700J-9349*
G01*
G75*
D01*
G03X444500Y532469I-12700J-9349*
G01*
X214791Y639096D02*
X214791Y535000D01*
G75*
D01*
G03X214870Y533398I16349J3*
G01*
G75*
D01*
G03X247410Y533398I16270J0*
G01*
G75*
D01*
G03X247489Y535000I-16269J1605*
G01*
X247489Y645000D01*
G74*
D01*
G03X241432Y657702I16349J1*
G01*
G75*
D01*
G03X214791Y639096I-12842J-9988*
G01*
X437687Y465313D02*
G75*
D01*
G03X405593Y465313I-16047J2685*
G01*
G75*
D01*
G03X386887Y465313I-9353J-13313*
G01*
G75*
D01*
G03X354793Y465313I-16047J2685*
G01*
G75*
D01*
G03X361487Y454687I-9353J-13313*
G01*
G75*
D01*
G03X380193Y454687I9353J13313*
G01*
G75*
D01*
G03X412287Y454687I16047J-2685*
G01*
G75*
D01*
G03X430993Y454687I9353J13313*
G01*
G75*
D01*
G03X463087Y454687I16047J-2685*
G01*
G75*
D01*
G03X481523Y454502I9353J13313*
G01*
G75*
D01*
G03X513612Y454884I16077J-2501*
G01*
G75*
D01*
G03X532593Y454687I9628J13116*
G01*
G75*
D01*
G03X564687Y454687I16047J-2685*
G01*
G75*
D01*
G03X583393Y454687I9353J13313*
G01*
G75*
D01*
G03X615487Y454687I16047J-2685*
G01*
G75*
D01*
G03X608793Y465313I9353J13313*
G01*
G75*
D01*
G03X590087Y465313I-9353J-13313*
G01*
G75*
D01*
G03X557993Y465313I-16047J2685*
G01*
G75*
D01*
G03X539287Y465313I-9353J-13313*
G01*
G75*
D01*
G03X507228Y465116I-16047J2687*
G01*
G75*
D01*
G03X488517Y465498I-9627J-13116*
G01*
G75*
D01*
G03X456393Y465313I-16077J2499*
G01*
G75*
D01*
G03X437687Y465313I-9353J-13313*
G01*
X434340Y175270D02*
G75*
D01*
G03X408940Y175270I-12700J-10170*
G01*
G75*
D01*
G03X386372Y178036I-12700J-10170*
G01*
G75*
D01*
G03X361692Y196335I-15530J4847*
G01*
G75*
D01*
G03X332463Y185767I-16251J-757*
G01*
G75*
D01*
G03X310892Y188715I-12423J-10507*
G01*
G75*
D01*
G03X281940Y198130I-16252J-753*
G01*
G75*
D01*
G03X256540Y198130I-12700J-10170*
G01*
G75*
D01*
G03X256540Y177790I-12700J-10170*
G01*
G75*
D01*
G03X281940Y177790I12700J10170*
G01*
G75*
D01*
G03X303788Y174505I12700J10170*
G01*
G75*
D01*
G03X333017Y185073I16251J757*
G01*
G75*
D01*
G03X354588Y182125I12423J10507*
G01*
G75*
D01*
G03X380708Y169944I16252J753*
G01*
G75*
D01*
G03X408940Y154930I15530J-4849*
G01*
G75*
D01*
G03X434340Y154930I12700J10170*
G01*
G75*
D01*
G03X462572Y169944I12700J10170*
G01*
G75*
D01*
G03X456908Y178036I9868J12936*
G01*
G75*
D01*
G03X434340Y175270I-9868J-12936*
G01*
X188242Y602203D02*
G75*
D01*
G03X169196Y628489I-10430J12486*
G01*
X33020Y628489D01*
G75*
D01*
G03X33020Y595791I0J-16349*
G01*
X175260Y595791D01*
G74*
D01*
G03X188242Y602203I1J16349*
G01*
X427084Y704349D02*
G75*
D01*
G03X408315Y691946I-2904J-16009*
G01*
G75*
D01*
G03X424180Y671651I15864J-3947*
G01*
X469583Y671651D01*
G75*
D01*
G03X491231Y686216I5397J15349*
G01*
G75*
D01*
G03X474980Y704349I-16250J1785*
G01*
X427084Y704349D01*
X444500Y637469D02*
G75*
D01*
G03X419100Y637469I-12700J-9349*
G01*
G75*
D01*
G03X419100Y618771I-12700J-9349*
G01*
G75*
D01*
G03X444500Y618771I12700J9349*
G01*
G75*
D01*
G03X469900Y618771I12700J9349*
G01*
G75*
D01*
G03X495300Y618771I12700J9349*
G01*
G75*
D01*
G03X520700Y618771I12700J9349*
G01*
G75*
D01*
G03X520700Y637469I12700J9349*
G01*
G75*
D01*
G03X495300Y637469I-12700J-9349*
G01*
G75*
D01*
G03X469900Y637469I-12700J-9349*
G01*
G75*
D01*
G03X444500Y637469I-12700J-9349*
G01*
X707551Y431800D02*
X707551Y281940D01*
G75*
D01*
G03X740249Y281940I16349J0*
G01*
X740249Y431800D01*
G75*
D01*
G03X707551Y431800I-16349J0*
G01*
X195437Y106680D02*
G75*
D01*
G03X195437Y106680I18770J0*
G01*
X260630Y106680D02*
G75*
D01*
G03X260630Y106680I18770J0*
G01*
X195437Y151553D02*
G75*
D01*
G03X195437Y151553I18770J0*
G01*
X260630Y151553D02*
G75*
D01*
G03X260630Y151553I18770J0*
G01*
X840740Y644349D02*
G75*
D01*
G03X815340Y644349I-12700J-9349*
G01*
G75*
D01*
G03X789940Y644349I-12700J-9349*
G01*
G75*
D01*
G03X766432Y623516I-12700J-9349*
G01*
G74*
D01*
G03X761416Y614125I6282J9390*
G01*
X761416Y605075D01*
G75*
D01*
G03X772715Y593776I11299J0*
G01*
X781765Y593776D01*
G74*
D01*
G03X791156Y598792I0J11299*
G01*
G75*
D01*
G03X815340Y600251I11484J10808*
G01*
G75*
D01*
G03X840740Y600251I12700J9349*
G01*
G75*
D01*
G03X866140Y600251I12700J9349*
G01*
G75*
D01*
G03X866140Y618949I12700J9349*
G01*
G74*
D01*
G03X862789Y622300I12700J9349*
G01*
G75*
D01*
G03X840740Y644349I-9349J12700*
G01*
X773670Y693420D02*
G75*
D01*
G03X773670Y693420I16270J0*
G01*
X838200Y699117D02*
G75*
D01*
G03X838200Y687723I-15240J-5697*
G01*
G75*
D01*
G03X838200Y699117I15240J5697*
G01*
X323344Y685408D02*
G75*
D01*
G03X291074Y688693I-16004J2931*
G01*
G74*
D01*
G03X290651Y685000I15925J3695*
G01*
X290651Y583000D01*
G75*
D01*
G03X291630Y577429I16349J2*
G01*
G75*
D01*
G03X323349Y584564I15716J4207*
G01*
X323349Y685000D01*
G74*
D01*
G03X323344Y685408I16349J4*
G01*
X828851Y175260D02*
G75*
D01*
G03X847549Y175260I9349J-12700*
G01*
G75*
D01*
G03X828851Y175260I-9349J12700*
G01*
X547610Y157480D02*
G75*
D01*
G03X547610Y157480I16270J0*
G01*
X596293Y157480D02*
G75*
D01*
G03X596293Y157480I16270J0*
G01*
X535663Y193387D02*
G75*
D01*
G03X536217Y192693I-12434J-10494*
G01*
G75*
D01*
G03X535663Y193387I12434J10494*
G01*
X808895Y395267D02*
G75*
D01*
G03X827349Y411480I2105J16213*
G01*
X827349Y434917D01*
G75*
D01*
G03X851004Y457079I10860J12114*
G01*
X851004Y512749D01*
G75*
D01*
G03X820316Y512749I-15344J5411*
G01*
X820316Y505550D01*
G75*
D01*
G03X794658Y488146I-10058J-12788*
G01*
G74*
D01*
G03X794651Y487680I16341J479*
G01*
X794651Y416071D01*
G75*
D01*
G03X808895Y395267I15609J-4591*
G01*
X-41960Y727760D02*
X935123Y727760D01*
X935123Y72321D01*
X-41960Y72321D01*
X-41960Y727760D01*
X815340Y625651D02*
G74*
D01*
G02X811989Y622300I12700J9349*
G01*
G74*
D01*
G02X815340Y618949I9349J12700*
G01*
G74*
D01*
G02X818691Y622300I12700J9349*
G01*
G74*
D01*
G02X815340Y625651I9349J12700*
G01*
G54D12*
X175260Y612140D02*
X177800Y614680D01*
G54D13*
X66040Y425000D02*
X66040Y129540D01*
X688340Y198120D02*
X688340Y109220D01*
X723900Y281940D02*
X723900Y431800D01*
X33020Y612140D02*
X175260Y612140D01*
X231140Y645000D02*
X231140Y535000D01*
X424180Y688000D02*
X474980Y688000D01*
X811000Y411480D02*
X811000Y487680D01*
X307000Y583000D02*
X307000Y685000D01*
G54D14*
X835660Y518160D02*
X835660Y449580D01*
G54D15*
X-50800Y63480D02*
X-50800Y130792D01*
X-50800Y63480D02*
X48676Y63480D01*
X943963Y63480D02*
X844487Y63480D01*
X943963Y63480D02*
X943963Y130792D01*
X943963Y736600D02*
X943963Y669288D01*
X943963Y736600D02*
X844487Y736600D01*
X-50800Y736600D02*
X48676Y736600D01*
X-50800Y736600D02*
X-50800Y669288D01*
X-100800Y63480D02*
X-200800Y63480D01*
X-150800Y13480D02*
X-150800Y113480D01*
X-188300Y63480D02*
G75*
D01*
G02X-188300Y63480I37500J0*
G01*
X993963Y63480D02*
X1093963Y63480D01*
X1043963Y13480D02*
X1043963Y113480D01*
X1006463Y63480D02*
G75*
D01*
G02X1006463Y63480I37500J0*
G01*
X1031463Y63480D02*
G75*
D01*
G02X1031463Y63480I12500J0*
G01*
X-100800Y736600D02*
X-200800Y736600D01*
X-150800Y686600D02*
X-150800Y786600D01*
X-188300Y736600D02*
G75*
D01*
G02X-188300Y736600I37500J0*
G01*
X-175800Y736600D02*
G75*
D01*
G02X-175800Y736600I25000J0*
G01*
X-163300Y736600D02*
G75*
D01*
G02X-163300Y736600I12500J0*
G01*
G54D16*
X563880Y157480D03*
X612563Y157480D03*
X370840Y468000D03*
X472440Y468000D03*
X624840Y468000D03*
X345440Y452000D03*
X396240Y452000D03*
X447040Y452000D03*
X548640Y452000D03*
X599440Y452000D03*
X421640Y468000D03*
X523240Y468000D03*
X574040Y468000D03*
X345440Y195580D03*
X370840Y182880D03*
X396240Y165100D03*
X320040Y175260D03*
X421640Y165100D03*
X447040Y165100D03*
X472440Y182880D03*
X523240Y182880D03*
X548640Y203200D03*
X822960Y693420D03*
X789940Y693420D03*
X853440Y693420D03*
X243840Y187960D03*
X269240Y187960D03*
X294640Y187960D03*
X497600Y452000D03*
X66040Y425000D03*
X723900Y281940D03*
X424180Y688340D03*
X228600Y647700D03*
X307340Y688340D03*
X838200Y447040D03*
X810260Y411480D03*
X835660Y518160D03*
X231140Y533400D03*
X474980Y687000D03*
X723900Y431800D03*
X66040Y127000D03*
X33020Y612140D03*
X177800Y614680D03*
X810260Y492760D03*
X307340Y581660D03*
X688340Y198120D03*
X688340Y109220D03*
X891540Y226060D03*
G54D17*
X406400Y628120D03*
X431800Y628120D03*
X457200Y628120D03*
X482600Y628120D03*
X508000Y628120D03*
X533400Y628120D03*
X431800Y523120D03*
X457200Y523120D03*
X482600Y523120D03*
X508000Y523120D03*
X533400Y523120D03*
X838200Y162560D03*
X838200Y187960D03*
X777240Y635000D03*
X878840Y609600D03*
X853440Y609600D03*
X828040Y609600D03*
X878840Y635000D03*
X802640Y635000D03*
X802640Y609600D03*
X828040Y635000D03*
X853440Y635000D03*
X218440Y238760D03*
X624840Y238760D03*
X269240Y391160D03*
X193040Y391160D03*
X167640Y391160D03*
X142240Y391160D03*
X243840Y391160D03*
X218440Y391160D03*
X421640Y391160D03*
X345440Y391160D03*
X320040Y391160D03*
X294640Y391160D03*
X396240Y391160D03*
X370840Y391160D03*
X497840Y391160D03*
X472440Y391160D03*
X447040Y391160D03*
X574040Y391160D03*
X548640Y391160D03*
X523240Y391160D03*
X599440Y391160D03*
X624840Y391160D03*
X142240Y238760D03*
X269240Y238760D03*
X193040Y238760D03*
X167640Y238760D03*
X243840Y238760D03*
X421640Y238760D03*
X345440Y238760D03*
X320040Y238760D03*
X294640Y238760D03*
X370840Y238760D03*
X396240Y238760D03*
X497840Y238760D03*
X447040Y238760D03*
X472440Y238760D03*
X574040Y238760D03*
X523240Y238760D03*
X548640Y238760D03*
X599440Y238760D03*
G54D18*
X406400Y523120D03*
G54D19*
X401133Y517853D02*
X411667Y517853D01*
X411667Y528387D01*
X401133Y528387D01*
X401133Y517853D01*D02*
G54D20*
X838200Y137160D03*
X777240Y609600D03*
G54D21*
X833675Y132635D02*
X842725Y132635D01*
X842725Y141685D01*
X833675Y141685D01*
X833675Y132635D01*D02*
X772715Y605075D02*
X781765Y605075D01*
X781765Y614125D01*
X772715Y614125D01*
X772715Y605075D01*D02*
G54D22*
X279400Y106680D03*
X279400Y151553D03*
X214207Y106680D03*
X214207Y151553D03*

M02*
