G04 Generated by Ultiboard 14.0 *
%FSLAX34Y34*%
%MOMM*%

%ADD10C,0.0001*%
%ADD11C,0.6000*%
%ADD12C,0.8000*%


G04 ColorRGB 000000 for the following layer *
%LNDrill-Copper Top-Copper Bottom*%
%LPD*%
G54D11*
X563880Y157480D03*
X612563Y157480D03*
X370840Y468000D03*
X472440Y468000D03*
X624840Y468000D03*
X345440Y452000D03*
X396240Y452000D03*
X447040Y452000D03*
X548640Y452000D03*
X599440Y452000D03*
X421640Y468000D03*
X523240Y468000D03*
X574040Y468000D03*
X345440Y195580D03*
X370840Y182880D03*
X396240Y165100D03*
X320040Y175260D03*
X421640Y165100D03*
X447040Y165100D03*
X472440Y182880D03*
X523240Y182880D03*
X548640Y203200D03*
X822960Y693420D03*
X789940Y693420D03*
X853440Y693420D03*
X243840Y187960D03*
X269240Y187960D03*
X294640Y187960D03*
X497600Y452000D03*
X66040Y425000D03*
X406400Y628120D03*
X431800Y628120D03*
X457200Y628120D03*
X482600Y628120D03*
X508000Y628120D03*
X533400Y628120D03*
X406400Y523120D03*
X431800Y523120D03*
X457200Y523120D03*
X482600Y523120D03*
X508000Y523120D03*
X533400Y523120D03*
X838200Y137160D03*
X838200Y162560D03*
X838200Y187960D03*
X723900Y281940D03*
X424180Y688340D03*
X228600Y647700D03*
X307340Y688340D03*
X838200Y447040D03*
X810260Y411480D03*
X777240Y635000D03*
X777240Y609600D03*
X878840Y609600D03*
X853440Y609600D03*
X828040Y609600D03*
X878840Y635000D03*
X802640Y635000D03*
X802640Y609600D03*
X828040Y635000D03*
X853440Y635000D03*
X218440Y238760D03*
X624840Y238760D03*
X269240Y391160D03*
X193040Y391160D03*
X167640Y391160D03*
X142240Y391160D03*
X243840Y391160D03*
X218440Y391160D03*
X421640Y391160D03*
X345440Y391160D03*
X320040Y391160D03*
X294640Y391160D03*
X396240Y391160D03*
X370840Y391160D03*
X497840Y391160D03*
X472440Y391160D03*
X447040Y391160D03*
X574040Y391160D03*
X548640Y391160D03*
X523240Y391160D03*
X599440Y391160D03*
X624840Y391160D03*
X142240Y238760D03*
X269240Y238760D03*
X193040Y238760D03*
X167640Y238760D03*
X243840Y238760D03*
X421640Y238760D03*
X345440Y238760D03*
X320040Y238760D03*
X294640Y238760D03*
X370840Y238760D03*
X396240Y238760D03*
X497840Y238760D03*
X447040Y238760D03*
X472440Y238760D03*
X574040Y238760D03*
X523240Y238760D03*
X548640Y238760D03*
X599440Y238760D03*
X835660Y518160D03*
X231140Y533400D03*
X474980Y687000D03*
X723900Y431800D03*
X66040Y127000D03*
X33020Y612140D03*
X177800Y614680D03*
X810260Y492760D03*
X307340Y581660D03*
X688340Y198120D03*
X688340Y109220D03*
X891540Y226060D03*
G54D12*
X279400Y106680D03*
X279400Y151553D03*
X214207Y106680D03*
X214207Y151553D03*

M02*
