M48
; DRILL file {KiCad (5.1.10)-1} date 06/02/21 20:18:56
; FORMAT={-:-/ absolute / metric / decimal}
; #@! TF.CreationDate,2021-06-02T20:18:56-04:00
; #@! TF.GenerationSoftware,Kicad,Pcbnew,(5.1.10)-1
FMAT,2
METRIC
T1C0.800
T2C2.100
%
G90
G05
T1
X32.2Y-85.25
X32.2Y-101.25
X32.2Y-107.75
X32.2Y-114.75
X34.0Y-81.55
X42.5Y-74.35
X43.5Y-81.55
X45.0Y-74.35
X47.5Y-74.35
X50.0Y-74.35
X50.5Y-81.55
X54.2Y-88.75
X54.2Y-98.25
X59.43Y-73.13
X59.43Y-75.67
X59.43Y-78.21
X59.43Y-80.75
X59.43Y-88.37
X61.97Y-73.13
X61.97Y-88.37
X62.88Y-98.5
X62.88Y-104.5
X64.51Y-73.13
X64.51Y-88.37
X65.69Y-98.5
X65.69Y-104.5
X66.8Y-81.55
X67.05Y-73.13
X67.05Y-88.37
X68.21Y-114.25
X68.5Y-98.5
X68.5Y-104.5
X69.59Y-73.13
X69.59Y-88.37
X70.75Y-114.25
X72.13Y-73.13
X72.13Y-88.37
X74.67Y-73.13
X74.67Y-88.37
X75.94Y-75.67
X76.8Y-110.21
X76.8Y-112.75
X77.21Y-73.13
X77.21Y-88.37
X78.48Y-75.67
X79.0Y-102.75
X79.75Y-73.13
X79.75Y-88.37
X82.29Y-73.13
X82.29Y-88.37
X84.83Y-73.13
X84.83Y-88.37
X87.37Y-73.13
X87.37Y-88.37
X88.0Y-108.65
X88.0Y-116.25
X89.5Y-102.75
X95.0Y-77.95
X95.0Y-84.55
X95.0Y-96.75
X95.0Y-103.35
X99.5Y-77.95
X99.5Y-84.45
X99.5Y-96.75
X99.5Y-103.25
T2
X34.25Y-72.75
X34.25Y-120.0
X99.8Y-72.75
X99.8Y-120.0
T0
M30
