G04 #@! TF.GenerationSoftware,KiCad,Pcbnew,(5.1.10)-1*
G04 #@! TF.CreationDate,2021-11-25T14:37:56-05:00*
G04 #@! TF.ProjectId,pid_smt_oven,7069645f-736d-4745-9f6f-76656e2e6b69,rev?*
G04 #@! TF.SameCoordinates,Original*
G04 #@! TF.FileFunction,Copper,L2,Bot*
G04 #@! TF.FilePolarity,Positive*
%FSLAX46Y46*%
G04 Gerber Fmt 4.6, Leading zero omitted, Abs format (unit mm)*
G04 Created by KiCad (PCBNEW (5.1.10)-1) date 2021-11-25 14:37:56*
%MOMM*%
%LPD*%
G01*
G04 APERTURE LIST*
G04 #@! TA.AperFunction,ComponentPad*
%ADD10O,2.100000X2.200000*%
G04 #@! TD*
G04 #@! TA.AperFunction,ComponentPad*
%ADD11O,2.100000X2.600000*%
G04 #@! TD*
G04 #@! TA.AperFunction,ComponentPad*
%ADD12O,2.200000X2.200000*%
G04 #@! TD*
G04 #@! TA.AperFunction,ComponentPad*
%ADD13O,2.000000X2.000000*%
G04 #@! TD*
G04 #@! TA.AperFunction,ComponentPad*
%ADD14C,2.000000*%
G04 #@! TD*
G04 #@! TA.AperFunction,ComponentPad*
%ADD15C,2.200000*%
G04 #@! TD*
G04 #@! TA.AperFunction,ComponentPad*
%ADD16O,3.400000X4.000000*%
G04 #@! TD*
G04 #@! TA.AperFunction,ViaPad*
%ADD17C,1.600000*%
G04 #@! TD*
G04 #@! TA.AperFunction,ViaPad*
%ADD18C,1.200000*%
G04 #@! TD*
G04 #@! TA.AperFunction,ViaPad*
%ADD19C,1.400000*%
G04 #@! TD*
G04 #@! TA.AperFunction,Conductor*
%ADD20C,0.600000*%
G04 #@! TD*
G04 #@! TA.AperFunction,Conductor*
%ADD21C,4.000000*%
G04 #@! TD*
G04 #@! TA.AperFunction,Conductor*
%ADD22C,0.800000*%
G04 #@! TD*
G04 #@! TA.AperFunction,Conductor*
%ADD23C,1.000000*%
G04 #@! TD*
G04 #@! TA.AperFunction,Conductor*
%ADD24C,1.600000*%
G04 #@! TD*
G04 #@! TA.AperFunction,Conductor*
%ADD25C,0.254000*%
G04 #@! TD*
G04 #@! TA.AperFunction,Conductor*
%ADD26C,0.100000*%
G04 #@! TD*
G04 APERTURE END LIST*
D10*
G04 #@! TO.P,a2,16*
G04 #@! TO.N,Net-(a2-Pad16)*
X67660000Y-32100000D03*
G04 #@! TO.P,a2,15*
G04 #@! TO.N,/relayTrigger*
X67660000Y-17100000D03*
G04 #@! TO.P,a2,30*
G04 #@! TO.N,Net-(a2-Pad30)*
X32100000Y-32100000D03*
G04 #@! TO.P,a2,14*
G04 #@! TO.N,Net-(a2-Pad14)*
X65120000Y-17100000D03*
G04 #@! TO.P,a2,29*
G04 #@! TO.N,GND*
X34640000Y-32100000D03*
G04 #@! TO.P,a2,13*
G04 #@! TO.N,Net-(a2-Pad13)*
X62580000Y-17100000D03*
G04 #@! TO.P,a2,28*
G04 #@! TO.N,Net-(a2-Pad28)*
X37180000Y-32100000D03*
G04 #@! TO.P,a2,12*
G04 #@! TO.N,/rot_right_mcu*
X60040000Y-17100000D03*
G04 #@! TO.P,a2,27*
G04 #@! TO.N,V5.0*
X39720000Y-32100000D03*
G04 #@! TO.P,a2,11*
G04 #@! TO.N,/rot_left_mcu*
X57500000Y-17100000D03*
G04 #@! TO.P,a2,26*
G04 #@! TO.N,/opamp_to_adc*
X42260000Y-32100000D03*
G04 #@! TO.P,a2,10*
G04 #@! TO.N,/rot_button_mcu*
X54960000Y-17100000D03*
G04 #@! TO.P,a2,25*
G04 #@! TO.N,Net-(a2-Pad25)*
X44800000Y-32100000D03*
G04 #@! TO.P,a2,9*
G04 #@! TO.N,Net-(a2-Pad9)*
X52420000Y-17100000D03*
G04 #@! TO.P,a2,24*
G04 #@! TO.N,/scl*
X47340000Y-32100000D03*
G04 #@! TO.P,a2,8*
G04 #@! TO.N,/buzzerPwm*
X49880000Y-17100000D03*
G04 #@! TO.P,a2,23*
G04 #@! TO.N,/sda*
X49880000Y-32100000D03*
G04 #@! TO.P,a2,7*
G04 #@! TO.N,Net-(a2-Pad7)*
X47340000Y-17100000D03*
G04 #@! TO.P,a2,22*
G04 #@! TO.N,/enable_env_temp_check*
X52420000Y-32100000D03*
G04 #@! TO.P,a2,6*
G04 #@! TO.N,/enable_heater*
X44800000Y-17100000D03*
G04 #@! TO.P,a2,21*
G04 #@! TO.N,/env_temp_adc*
X54960000Y-32100000D03*
G04 #@! TO.P,a2,5*
G04 #@! TO.N,Net-(a2-Pad5)*
X42260000Y-17100000D03*
G04 #@! TO.P,a2,20*
G04 #@! TO.N,Net-(a2-Pad20)*
X57500000Y-32100000D03*
G04 #@! TO.P,a2,4*
G04 #@! TO.N,GND*
X39720000Y-17100000D03*
G04 #@! TO.P,a2,19*
G04 #@! TO.N,/20VDetect*
X60040000Y-32100000D03*
G04 #@! TO.P,a2,3*
G04 #@! TO.N,Net-(a2-Pad3)*
X37180000Y-17100000D03*
G04 #@! TO.P,a2,18*
G04 #@! TO.N,Net-(a2-Pad18)*
X62580000Y-32100000D03*
G04 #@! TO.P,a2,2*
G04 #@! TO.N,Net-(a2-Pad2)*
X34640000Y-17100000D03*
G04 #@! TO.P,a2,17*
G04 #@! TO.N,Net-(a2-Pad17)*
X65120000Y-32100000D03*
G04 #@! TO.P,a2,1*
G04 #@! TO.N,Net-(a2-Pad1)*
G04 #@! TA.AperFunction,ComponentPad*
G36*
G01*
X31365000Y-16000000D02*
X32835000Y-16000000D01*
G75*
G02*
X33150000Y-16315000I0J-315000D01*
G01*
X33150000Y-17885000D01*
G75*
G02*
X32835000Y-18200000I-315000J0D01*
G01*
X31365000Y-18200000D01*
G75*
G02*
X31050000Y-17885000I0J315000D01*
G01*
X31050000Y-16315000D01*
G75*
G02*
X31365000Y-16000000I315000J0D01*
G01*
G37*
G04 #@! TD.AperFunction*
G04 #@! TD*
G04 #@! TO.P,J5,4*
G04 #@! TO.N,/rot_button_mcu*
X54880000Y-8800000D03*
G04 #@! TO.P,J5,3*
G04 #@! TO.N,/rot_left_mcu*
X57420000Y-8800000D03*
G04 #@! TO.P,J5,1*
G04 #@! TO.N,GND*
G04 #@! TA.AperFunction,ComponentPad*
G36*
G01*
X63550000Y-8008700D02*
X63550000Y-9591300D01*
G75*
G02*
X63241300Y-9900000I-308700J0D01*
G01*
X61758700Y-9900000D01*
G75*
G02*
X61450000Y-9591300I0J308700D01*
G01*
X61450000Y-8008700D01*
G75*
G02*
X61758700Y-7700000I308700J0D01*
G01*
X63241300Y-7700000D01*
G75*
G02*
X63550000Y-8008700I0J-308700D01*
G01*
G37*
G04 #@! TD.AperFunction*
G04 #@! TO.P,J5,2*
G04 #@! TO.N,/rot_right_mcu*
X59960000Y-8800000D03*
G04 #@! TD*
D11*
G04 #@! TO.P,J4,4*
G04 #@! TO.N,/scl*
X47380000Y-40200000D03*
G04 #@! TO.P,J4,3*
G04 #@! TO.N,/sda*
X49920000Y-40200000D03*
G04 #@! TO.P,J4,2*
G04 #@! TO.N,V5.0*
X52460000Y-40200000D03*
G04 #@! TO.P,J4,1*
G04 #@! TO.N,GND*
G04 #@! TA.AperFunction,ComponentPad*
G36*
G01*
X56050000Y-39202400D02*
X56050000Y-41197600D01*
G75*
G02*
X55747600Y-41500000I-302400J0D01*
G01*
X54252400Y-41500000D01*
G75*
G02*
X53950000Y-41197600I0J302400D01*
G01*
X53950000Y-39202400D01*
G75*
G02*
X54252400Y-38900000I302400J0D01*
G01*
X55747600Y-38900000D01*
G75*
G02*
X56050000Y-39202400I0J-302400D01*
G01*
G37*
G04 #@! TD.AperFunction*
G04 #@! TD*
D10*
G04 #@! TO.P,J3,2*
G04 #@! TO.N,/thermal_couple*
X42860000Y-50800000D03*
G04 #@! TO.P,J3,1*
G04 #@! TO.N,GND*
G04 #@! TA.AperFunction,ComponentPad*
G36*
G01*
X46450000Y-50002400D02*
X46450000Y-51597600D01*
G75*
G02*
X46147600Y-51900000I-302400J0D01*
G01*
X44652400Y-51900000D01*
G75*
G02*
X44350000Y-51597600I0J302400D01*
G01*
X44350000Y-50002400D01*
G75*
G02*
X44652400Y-49700000I302400J0D01*
G01*
X46147600Y-49700000D01*
G75*
G02*
X46450000Y-50002400I0J-302400D01*
G01*
G37*
G04 #@! TD.AperFunction*
G04 #@! TD*
G04 #@! TO.P,LS1,1*
G04 #@! TO.N,Net-(D4-Pad1)*
G04 #@! TA.AperFunction,ComponentPad*
G36*
G01*
X40600000Y-10904000D02*
X40600000Y-9496000D01*
G75*
G02*
X40996000Y-9100000I396000J0D01*
G01*
X42404000Y-9100000D01*
G75*
G02*
X42800000Y-9496000I0J-396000D01*
G01*
X42800000Y-10904000D01*
G75*
G02*
X42404000Y-11300000I-396000J0D01*
G01*
X40996000Y-11300000D01*
G75*
G02*
X40600000Y-10904000I0J396000D01*
G01*
G37*
G04 #@! TD.AperFunction*
D12*
G04 #@! TO.P,LS1,2*
G04 #@! TO.N,Net-(D4-Pad2)*
X45900000Y-10200000D03*
G04 #@! TD*
D13*
G04 #@! TO.P,D5,K*
G04 #@! TO.N,Net-(D5-PadK)*
X19700000Y-8700000D03*
G04 #@! TO.P,D5,A*
G04 #@! TO.N,/heaterPower*
G04 #@! TA.AperFunction,ComponentPad*
G36*
G01*
X16160000Y-9300000D02*
X16160000Y-8100000D01*
G75*
G02*
X16560000Y-7700000I400000J0D01*
G01*
X17760000Y-7700000D01*
G75*
G02*
X18160000Y-8100000I0J-400000D01*
G01*
X18160000Y-9300000D01*
G75*
G02*
X17760000Y-9700000I-400000J0D01*
G01*
X16560000Y-9700000D01*
G75*
G02*
X16160000Y-9300000I0J400000D01*
G01*
G37*
G04 #@! TD.AperFunction*
G04 #@! TD*
D14*
G04 #@! TO.P,a1,2*
G04 #@! TO.N,Net-(C7-Pad1)*
X13300000Y-36450000D03*
G04 #@! TO.P,a1,3*
G04 #@! TO.N,Net-(C10-Pad1)*
X36300000Y-36450000D03*
G04 #@! TO.P,a1,4*
G04 #@! TO.N,GND*
X36300000Y-51950000D03*
G04 #@! TO.P,a1,1*
G04 #@! TA.AperFunction,ComponentPad*
G36*
G01*
X12300000Y-52450000D02*
X12300000Y-51450000D01*
G75*
G02*
X12800000Y-50950000I500000J0D01*
G01*
X13800000Y-50950000D01*
G75*
G02*
X14300000Y-51450000I0J-500000D01*
G01*
X14300000Y-52450000D01*
G75*
G02*
X13800000Y-52950000I-500000J0D01*
G01*
X12800000Y-52950000D01*
G75*
G02*
X12300000Y-52450000I0J500000D01*
G01*
G37*
G04 #@! TD.AperFunction*
G04 #@! TD*
G04 #@! TO.P,TH1,2*
G04 #@! TO.N,/env_temp_adc*
X61600000Y-26400000D03*
G04 #@! TO.P,TH1,1*
G04 #@! TO.N,/enable_env_temp_check*
X46360000Y-26400000D03*
G04 #@! TD*
D15*
G04 #@! TO.P,C7,2*
G04 #@! TO.N,GND*
X3900000Y-44900000D03*
G04 #@! TO.P,C7,1*
G04 #@! TO.N,Net-(C7-Pad1)*
G04 #@! TA.AperFunction,ComponentPad*
G36*
G01*
X8700000Y-44200000D02*
X8700000Y-45600000D01*
G75*
G02*
X8300000Y-46000000I-400000J0D01*
G01*
X7100000Y-46000000D01*
G75*
G02*
X6700000Y-45600000I0J400000D01*
G01*
X6700000Y-44200000D01*
G75*
G02*
X7100000Y-43800000I400000J0D01*
G01*
X8300000Y-43800000D01*
G75*
G02*
X8700000Y-44200000I0J-400000D01*
G01*
G37*
G04 #@! TD.AperFunction*
G04 #@! TD*
D16*
G04 #@! TO.P,J1,2*
G04 #@! TO.N,20V*
X7760000Y-34800000D03*
G04 #@! TO.P,J1,1*
G04 #@! TO.N,GND*
G04 #@! TA.AperFunction,ComponentPad*
G36*
G01*
X2150000Y-36493100D02*
X2150000Y-33106900D01*
G75*
G02*
X2456900Y-32800000I306900J0D01*
G01*
X5143100Y-32800000D01*
G75*
G02*
X5450000Y-33106900I0J-306900D01*
G01*
X5450000Y-36493100D01*
G75*
G02*
X5143100Y-36800000I-306900J0D01*
G01*
X2456900Y-36800000D01*
G75*
G02*
X2150000Y-36493100I0J306900D01*
G01*
G37*
G04 #@! TD.AperFunction*
G04 #@! TD*
G04 #@! TO.P,J2,2*
G04 #@! TO.N,/heaterPower*
X21140000Y-22600000D03*
G04 #@! TO.P,J2,1*
G04 #@! TO.N,GND*
G04 #@! TA.AperFunction,ComponentPad*
G36*
G01*
X26750000Y-20906900D02*
X26750000Y-24293100D01*
G75*
G02*
X26443100Y-24600000I-306900J0D01*
G01*
X23756900Y-24600000D01*
G75*
G02*
X23450000Y-24293100I0J306900D01*
G01*
X23450000Y-20906900D01*
G75*
G02*
X23756900Y-20600000I306900J0D01*
G01*
X26443100Y-20600000D01*
G75*
G02*
X26750000Y-20906900I0J-306900D01*
G01*
G37*
G04 #@! TD.AperFunction*
G04 #@! TD*
D17*
G04 #@! TO.N,GND*
X30200000Y-27200000D03*
X66900000Y-26300000D03*
X30000000Y-11400000D03*
D18*
G04 #@! TO.N,/20VDetect*
X23600000Y-46500000D03*
D17*
G04 #@! TO.N,/enable_heater*
X21700000Y-6800000D03*
X38200000Y-10200000D03*
G04 #@! TO.N,V5.0*
X52400000Y-35800000D03*
D19*
G04 #@! TO.N,20V*
X6000000Y-26300000D03*
X6800000Y-31200000D03*
D17*
G04 #@! TO.N,/heaterPower*
X10400000Y-17400000D03*
X14400000Y-17400000D03*
X10400000Y-27000000D03*
X14400000Y-27000000D03*
X17000000Y-20000000D03*
X17000000Y-24600000D03*
X22000000Y-31000000D03*
X22000000Y-14000000D03*
X13200000Y-11800000D03*
X13200000Y-31200000D03*
G04 #@! TD*
D20*
G04 #@! TO.N,GND*
X39720000Y-18950000D02*
X39720000Y-17100000D01*
X36070000Y-22600000D02*
X39720000Y-18950000D01*
X34640000Y-22860000D02*
X34900000Y-22600000D01*
X34640000Y-32100000D02*
X34640000Y-22860000D01*
X34900000Y-22600000D02*
X36070000Y-22600000D01*
D21*
X25500000Y-22600000D02*
X35300000Y-22600000D01*
D20*
G04 #@! TO.N,/20VDetect*
X23800000Y-46600000D02*
X23700000Y-46500000D01*
X60000000Y-32140000D02*
X60040000Y-32100000D01*
D22*
X54700000Y-46500000D02*
X23600000Y-46500000D01*
X60000000Y-41200000D02*
X54700000Y-46500000D01*
X60000000Y-32140000D02*
X60000000Y-41200000D01*
G04 #@! TO.N,/enable_heater*
X23449990Y-5050010D02*
X21700000Y-6800000D01*
X33150010Y-5050010D02*
X23449990Y-5050010D01*
X38200000Y-10100000D02*
X33150010Y-5050010D01*
X38200000Y-10200000D02*
X38200000Y-10100000D01*
D23*
G04 #@! TO.N,V5.0*
X39720000Y-33520000D02*
X39720000Y-32100000D01*
X40800000Y-34600000D02*
X39720000Y-33520000D01*
X51200000Y-34600000D02*
X40800000Y-34600000D01*
X52400000Y-35800000D02*
X51200000Y-34600000D01*
D22*
G04 #@! TO.N,Net-(C7-Pad1)*
X10600000Y-44900000D02*
X7700000Y-44900000D01*
X13300000Y-42200000D02*
X10600000Y-44900000D01*
X13300000Y-36450000D02*
X13300000Y-42200000D01*
D20*
G04 #@! TO.N,20V*
X6000000Y-26600000D02*
X5800000Y-26400000D01*
X7760000Y-34800000D02*
X7760000Y-34299812D01*
D24*
X6000000Y-31800000D02*
X6000000Y-26300000D01*
X7760000Y-33560000D02*
X6000000Y-31800000D01*
X7760000Y-34299812D02*
X7760000Y-33560000D01*
G04 #@! TD*
D25*
G04 #@! TO.N,GND*
X71398001Y-53998000D02*
X802000Y-53998000D01*
X802000Y-51449604D01*
X1673000Y-51449604D01*
X1673000Y-51750396D01*
X1731681Y-52045410D01*
X1846790Y-52323306D01*
X2013901Y-52573406D01*
X2226594Y-52786099D01*
X2476694Y-52953210D01*
X2754590Y-53068319D01*
X3049604Y-53127000D01*
X3350396Y-53127000D01*
X3645410Y-53068319D01*
X3919588Y-52954750D01*
X11773000Y-52954750D01*
X11780432Y-53052334D01*
X11810380Y-53151730D01*
X11859143Y-53243374D01*
X11924848Y-53323744D01*
X12004971Y-53389751D01*
X12096431Y-53438859D01*
X12195714Y-53469180D01*
X12295250Y-53477000D01*
X12427000Y-53345250D01*
X12427000Y-52823000D01*
X14173000Y-52823000D01*
X14173000Y-53345250D01*
X14304750Y-53477000D01*
X14404286Y-53469180D01*
X14503569Y-53438859D01*
X14595029Y-53389751D01*
X14675152Y-53323744D01*
X14740857Y-53243374D01*
X14789620Y-53151730D01*
X14818291Y-53056572D01*
X35438087Y-53056572D01*
X35543820Y-53285118D01*
X35818818Y-53406988D01*
X36112308Y-53472866D01*
X36413011Y-53480222D01*
X36709371Y-53428771D01*
X36989998Y-53320492D01*
X37056180Y-53285118D01*
X37161913Y-53056572D01*
X36300000Y-52194659D01*
X35438087Y-53056572D01*
X14818291Y-53056572D01*
X14819568Y-53052334D01*
X14827000Y-52954750D01*
X14695250Y-52823000D01*
X14173000Y-52823000D01*
X12427000Y-52823000D01*
X11904750Y-52823000D01*
X11773000Y-52954750D01*
X3919588Y-52954750D01*
X3923306Y-52953210D01*
X4173406Y-52786099D01*
X4386099Y-52573406D01*
X4553210Y-52323306D01*
X4661028Y-52063011D01*
X34769778Y-52063011D01*
X34821229Y-52359371D01*
X34929508Y-52639998D01*
X34964882Y-52706180D01*
X35193428Y-52811913D01*
X36055341Y-51950000D01*
X36544659Y-51950000D01*
X37406572Y-52811913D01*
X37635118Y-52706180D01*
X37756988Y-52431182D01*
X37822866Y-52137692D01*
X37830222Y-51836989D01*
X37778771Y-51540629D01*
X37670492Y-51260002D01*
X37635118Y-51193820D01*
X37406572Y-51088087D01*
X36544659Y-51950000D01*
X36055341Y-51950000D01*
X35193428Y-51088087D01*
X34964882Y-51193820D01*
X34843012Y-51468818D01*
X34777134Y-51762308D01*
X34769778Y-52063011D01*
X4661028Y-52063011D01*
X4668319Y-52045410D01*
X4727000Y-51750396D01*
X4727000Y-51449604D01*
X4668319Y-51154590D01*
X4581607Y-50945250D01*
X11773000Y-50945250D01*
X11904750Y-51077000D01*
X12427000Y-51077000D01*
X12427000Y-50554750D01*
X14173000Y-50554750D01*
X14173000Y-51077000D01*
X14695250Y-51077000D01*
X14827000Y-50945250D01*
X14819568Y-50847666D01*
X14818292Y-50843428D01*
X35438087Y-50843428D01*
X36300000Y-51705341D01*
X37161913Y-50843428D01*
X37082851Y-50672531D01*
X41283000Y-50672531D01*
X41283000Y-50927468D01*
X41305818Y-51159145D01*
X41395993Y-51456411D01*
X41542428Y-51730372D01*
X41739497Y-51970503D01*
X41979627Y-52167572D01*
X42253588Y-52314007D01*
X42550854Y-52404182D01*
X42860000Y-52434630D01*
X43169145Y-52404182D01*
X43466411Y-52314007D01*
X43740372Y-52167572D01*
X43852532Y-52075526D01*
X43860760Y-52102650D01*
X43909695Y-52194202D01*
X43975552Y-52274448D01*
X44055798Y-52340305D01*
X44147350Y-52389240D01*
X44246690Y-52419375D01*
X44350000Y-52429550D01*
X45095250Y-52427000D01*
X45227000Y-52295250D01*
X45227000Y-50973000D01*
X45573000Y-50973000D01*
X45573000Y-52295250D01*
X45704750Y-52427000D01*
X46450000Y-52429550D01*
X46553310Y-52419375D01*
X46652650Y-52389240D01*
X46744202Y-52340305D01*
X46824448Y-52274448D01*
X46890305Y-52194202D01*
X46939240Y-52102650D01*
X46969375Y-52003310D01*
X46979550Y-51900000D01*
X46978106Y-51449604D01*
X67473000Y-51449604D01*
X67473000Y-51750396D01*
X67531681Y-52045410D01*
X67646790Y-52323306D01*
X67813901Y-52573406D01*
X68026594Y-52786099D01*
X68276694Y-52953210D01*
X68554590Y-53068319D01*
X68849604Y-53127000D01*
X69150396Y-53127000D01*
X69445410Y-53068319D01*
X69723306Y-52953210D01*
X69973406Y-52786099D01*
X70186099Y-52573406D01*
X70353210Y-52323306D01*
X70468319Y-52045410D01*
X70527000Y-51750396D01*
X70527000Y-51449604D01*
X70468319Y-51154590D01*
X70353210Y-50876694D01*
X70186099Y-50626594D01*
X69973406Y-50413901D01*
X69723306Y-50246790D01*
X69445410Y-50131681D01*
X69150396Y-50073000D01*
X68849604Y-50073000D01*
X68554590Y-50131681D01*
X68276694Y-50246790D01*
X68026594Y-50413901D01*
X67813901Y-50626594D01*
X67646790Y-50876694D01*
X67531681Y-51154590D01*
X67473000Y-51449604D01*
X46978106Y-51449604D01*
X46977000Y-51104750D01*
X46845250Y-50973000D01*
X45573000Y-50973000D01*
X45227000Y-50973000D01*
X45207000Y-50973000D01*
X45207000Y-50627000D01*
X45227000Y-50627000D01*
X45227000Y-49304750D01*
X45573000Y-49304750D01*
X45573000Y-50627000D01*
X46845250Y-50627000D01*
X46977000Y-50495250D01*
X46979550Y-49700000D01*
X46969375Y-49596690D01*
X46939240Y-49497350D01*
X46890305Y-49405798D01*
X46824448Y-49325552D01*
X46744202Y-49259695D01*
X46652650Y-49210760D01*
X46553310Y-49180625D01*
X46450000Y-49170450D01*
X45704750Y-49173000D01*
X45573000Y-49304750D01*
X45227000Y-49304750D01*
X45095250Y-49173000D01*
X44350000Y-49170450D01*
X44246690Y-49180625D01*
X44147350Y-49210760D01*
X44055798Y-49259695D01*
X43975552Y-49325552D01*
X43909695Y-49405798D01*
X43860760Y-49497350D01*
X43852532Y-49524474D01*
X43740373Y-49432428D01*
X43466412Y-49285993D01*
X43169146Y-49195818D01*
X42860000Y-49165370D01*
X42550855Y-49195818D01*
X42253589Y-49285993D01*
X41979628Y-49432428D01*
X41739497Y-49629497D01*
X41542428Y-49869627D01*
X41395993Y-50143588D01*
X41305818Y-50440854D01*
X41283000Y-50672531D01*
X37082851Y-50672531D01*
X37056180Y-50614882D01*
X36781182Y-50493012D01*
X36487692Y-50427134D01*
X36186989Y-50419778D01*
X35890629Y-50471229D01*
X35610002Y-50579508D01*
X35543820Y-50614882D01*
X35438087Y-50843428D01*
X14818292Y-50843428D01*
X14789620Y-50748270D01*
X14740857Y-50656626D01*
X14675152Y-50576256D01*
X14595029Y-50510249D01*
X14503569Y-50461141D01*
X14404286Y-50430820D01*
X14304750Y-50423000D01*
X14173000Y-50554750D01*
X12427000Y-50554750D01*
X12295250Y-50423000D01*
X12195714Y-50430820D01*
X12096431Y-50461141D01*
X12004971Y-50510249D01*
X11924848Y-50576256D01*
X11859143Y-50656626D01*
X11810380Y-50748270D01*
X11780432Y-50847666D01*
X11773000Y-50945250D01*
X4581607Y-50945250D01*
X4553210Y-50876694D01*
X4386099Y-50626594D01*
X4173406Y-50413901D01*
X3923306Y-50246790D01*
X3645410Y-50131681D01*
X3350396Y-50073000D01*
X3049604Y-50073000D01*
X2754590Y-50131681D01*
X2476694Y-50246790D01*
X2226594Y-50413901D01*
X2013901Y-50626594D01*
X1846790Y-50876694D01*
X1731681Y-51154590D01*
X1673000Y-51449604D01*
X802000Y-51449604D01*
X802000Y-32927000D01*
X5250340Y-32927000D01*
X5473000Y-33149660D01*
X5473000Y-36600000D01*
X5477509Y-36668789D01*
X5497954Y-36824080D01*
X5533560Y-36956964D01*
X5593500Y-37101673D01*
X5662288Y-37220817D01*
X5757639Y-37345081D01*
X5854919Y-37442361D01*
X5979183Y-37537712D01*
X6098327Y-37606500D01*
X6243036Y-37666440D01*
X6375920Y-37702046D01*
X6531211Y-37722491D01*
X6600000Y-37727000D01*
X12373000Y-37727000D01*
X12373001Y-41816023D01*
X10216025Y-43973000D01*
X9197839Y-43973000D01*
X9158791Y-43844277D01*
X9072892Y-43683570D01*
X8957290Y-43542710D01*
X8816430Y-43427108D01*
X8655723Y-43341209D01*
X8481346Y-43288312D01*
X8300000Y-43270451D01*
X7100000Y-43270451D01*
X6918654Y-43288312D01*
X6744277Y-43341209D01*
X6583570Y-43427108D01*
X6442710Y-43542710D01*
X6327108Y-43683570D01*
X6241209Y-43844277D01*
X6188312Y-44018654D01*
X6170451Y-44200000D01*
X6170451Y-45600000D01*
X6188312Y-45781346D01*
X6241209Y-45955723D01*
X6327108Y-46116430D01*
X6442710Y-46257290D01*
X6583570Y-46372892D01*
X6744277Y-46458791D01*
X6918654Y-46511688D01*
X7100000Y-46529549D01*
X8300000Y-46529549D01*
X8481346Y-46511688D01*
X8655723Y-46458791D01*
X8786293Y-46389000D01*
X22473000Y-46389000D01*
X22473000Y-46611000D01*
X22516310Y-46828734D01*
X22601266Y-47033835D01*
X22724602Y-47218421D01*
X22881579Y-47375398D01*
X23066165Y-47498734D01*
X23271266Y-47583690D01*
X23489000Y-47627000D01*
X23711000Y-47627000D01*
X23928734Y-47583690D01*
X24133835Y-47498734D01*
X24241193Y-47427000D01*
X54654473Y-47427000D01*
X54700000Y-47431484D01*
X54745527Y-47427000D01*
X54745538Y-47427000D01*
X54881724Y-47413587D01*
X55056464Y-47360580D01*
X55217505Y-47274501D01*
X55358659Y-47158659D01*
X55387688Y-47123287D01*
X60623292Y-41887684D01*
X60658659Y-41858659D01*
X60687684Y-41823292D01*
X60687688Y-41823288D01*
X60774501Y-41717506D01*
X60860580Y-41556464D01*
X60913587Y-41381724D01*
X60927000Y-41245538D01*
X60927000Y-41245527D01*
X60931484Y-41200000D01*
X60927000Y-41154473D01*
X60927000Y-33462133D01*
X61160503Y-33270503D01*
X61310000Y-33088339D01*
X61459497Y-33270503D01*
X61699627Y-33467572D01*
X61973588Y-33614007D01*
X62270854Y-33704182D01*
X62580000Y-33734630D01*
X62889145Y-33704182D01*
X63186411Y-33614007D01*
X63460372Y-33467572D01*
X63700503Y-33270503D01*
X63850000Y-33088339D01*
X63999497Y-33270503D01*
X64239627Y-33467572D01*
X64513588Y-33614007D01*
X64810854Y-33704182D01*
X65120000Y-33734630D01*
X65429145Y-33704182D01*
X65726411Y-33614007D01*
X66000372Y-33467572D01*
X66240503Y-33270503D01*
X66390000Y-33088339D01*
X66539497Y-33270503D01*
X66779627Y-33467572D01*
X67053588Y-33614007D01*
X67350854Y-33704182D01*
X67660000Y-33734630D01*
X67969145Y-33704182D01*
X68266411Y-33614007D01*
X68540372Y-33467572D01*
X68780503Y-33270503D01*
X68977572Y-33030373D01*
X69124007Y-32756412D01*
X69214182Y-32459146D01*
X69237000Y-32227469D01*
X69237000Y-31972532D01*
X69214182Y-31740855D01*
X69124007Y-31443589D01*
X68977572Y-31169628D01*
X68780503Y-30929497D01*
X68540373Y-30732428D01*
X68266412Y-30585993D01*
X67969146Y-30495818D01*
X67660000Y-30465370D01*
X67350855Y-30495818D01*
X67053589Y-30585993D01*
X66779628Y-30732428D01*
X66539497Y-30929497D01*
X66390000Y-31111661D01*
X66240503Y-30929497D01*
X66000373Y-30732428D01*
X65726412Y-30585993D01*
X65429146Y-30495818D01*
X65120000Y-30465370D01*
X64810855Y-30495818D01*
X64513589Y-30585993D01*
X64239628Y-30732428D01*
X63999497Y-30929497D01*
X63850000Y-31111661D01*
X63700503Y-30929497D01*
X63460373Y-30732428D01*
X63186412Y-30585993D01*
X62889146Y-30495818D01*
X62580000Y-30465370D01*
X62270855Y-30495818D01*
X61973589Y-30585993D01*
X61699628Y-30732428D01*
X61459497Y-30929497D01*
X61310000Y-31111661D01*
X61160503Y-30929497D01*
X60920373Y-30732428D01*
X60646412Y-30585993D01*
X60349146Y-30495818D01*
X60040000Y-30465370D01*
X59730855Y-30495818D01*
X59433589Y-30585993D01*
X59159628Y-30732428D01*
X58919497Y-30929497D01*
X58770000Y-31111661D01*
X58620503Y-30929497D01*
X58380373Y-30732428D01*
X58106412Y-30585993D01*
X57809146Y-30495818D01*
X57500000Y-30465370D01*
X57190855Y-30495818D01*
X56893589Y-30585993D01*
X56619628Y-30732428D01*
X56379497Y-30929497D01*
X56230000Y-31111661D01*
X56080503Y-30929497D01*
X55840373Y-30732428D01*
X55566412Y-30585993D01*
X55269146Y-30495818D01*
X54960000Y-30465370D01*
X54650855Y-30495818D01*
X54353589Y-30585993D01*
X54079628Y-30732428D01*
X53839497Y-30929497D01*
X53690000Y-31111661D01*
X53540503Y-30929497D01*
X53300373Y-30732428D01*
X53026412Y-30585993D01*
X52729146Y-30495818D01*
X52420000Y-30465370D01*
X52110855Y-30495818D01*
X51813589Y-30585993D01*
X51539628Y-30732428D01*
X51299497Y-30929497D01*
X51150000Y-31111661D01*
X51000503Y-30929497D01*
X50760373Y-30732428D01*
X50486412Y-30585993D01*
X50189146Y-30495818D01*
X49880000Y-30465370D01*
X49570855Y-30495818D01*
X49273589Y-30585993D01*
X48999628Y-30732428D01*
X48759497Y-30929497D01*
X48610000Y-31111661D01*
X48460503Y-30929497D01*
X48220373Y-30732428D01*
X47946412Y-30585993D01*
X47649146Y-30495818D01*
X47340000Y-30465370D01*
X47030855Y-30495818D01*
X46733589Y-30585993D01*
X46459628Y-30732428D01*
X46219497Y-30929497D01*
X46070000Y-31111661D01*
X45920503Y-30929497D01*
X45680373Y-30732428D01*
X45406412Y-30585993D01*
X45109146Y-30495818D01*
X44800000Y-30465370D01*
X44490855Y-30495818D01*
X44193589Y-30585993D01*
X43919628Y-30732428D01*
X43679497Y-30929497D01*
X43530000Y-31111661D01*
X43380503Y-30929497D01*
X43140373Y-30732428D01*
X42866412Y-30585993D01*
X42569146Y-30495818D01*
X42260000Y-30465370D01*
X41950855Y-30495818D01*
X41653589Y-30585993D01*
X41379628Y-30732428D01*
X41139497Y-30929497D01*
X40990000Y-31111661D01*
X40840503Y-30929497D01*
X40600373Y-30732428D01*
X40326412Y-30585993D01*
X40029146Y-30495818D01*
X39720000Y-30465370D01*
X39410855Y-30495818D01*
X39113589Y-30585993D01*
X38839628Y-30732428D01*
X38599497Y-30929497D01*
X38450000Y-31111661D01*
X38300503Y-30929497D01*
X38060373Y-30732428D01*
X37786412Y-30585993D01*
X37489146Y-30495818D01*
X37180000Y-30465370D01*
X36870855Y-30495818D01*
X36573589Y-30585993D01*
X36299628Y-30732428D01*
X36059497Y-30929497D01*
X35900667Y-31123032D01*
X35782882Y-30970817D01*
X35550384Y-30768588D01*
X35282900Y-30615603D01*
X35248105Y-30594962D01*
X35013000Y-30653713D01*
X35013000Y-31727000D01*
X35033000Y-31727000D01*
X35033000Y-32473000D01*
X35013000Y-32473000D01*
X35013000Y-33546287D01*
X35248105Y-33605038D01*
X35282900Y-33584397D01*
X35550384Y-33431412D01*
X35782882Y-33229183D01*
X35900668Y-33076968D01*
X36059497Y-33270503D01*
X36299627Y-33467572D01*
X36573588Y-33614007D01*
X36870854Y-33704182D01*
X37180000Y-33734630D01*
X37489145Y-33704182D01*
X37786411Y-33614007D01*
X38060372Y-33467572D01*
X38300503Y-33270503D01*
X38450000Y-33088339D01*
X38599497Y-33270503D01*
X38693000Y-33347239D01*
X38693000Y-33469558D01*
X38688032Y-33520000D01*
X38693000Y-33570441D01*
X38693000Y-33570450D01*
X38707860Y-33721326D01*
X38766585Y-33914916D01*
X38861949Y-34093331D01*
X38990288Y-34249712D01*
X39029480Y-34281876D01*
X40038132Y-35290530D01*
X40070288Y-35329712D01*
X40109470Y-35361868D01*
X40109475Y-35361873D01*
X40208100Y-35442812D01*
X40226669Y-35458051D01*
X40405083Y-35553415D01*
X40539947Y-35594326D01*
X40598672Y-35612140D01*
X40616831Y-35613928D01*
X40749549Y-35627000D01*
X40749556Y-35627000D01*
X40800000Y-35631968D01*
X40850443Y-35627000D01*
X50774604Y-35627000D01*
X51073000Y-35925396D01*
X51073000Y-35930698D01*
X51123996Y-36187072D01*
X51224028Y-36428570D01*
X51369252Y-36645913D01*
X51554087Y-36830748D01*
X51771430Y-36975972D01*
X52012928Y-37076004D01*
X52269302Y-37127000D01*
X52530698Y-37127000D01*
X52787072Y-37076004D01*
X53028570Y-36975972D01*
X53245913Y-36830748D01*
X53430748Y-36645913D01*
X53575972Y-36428570D01*
X53676004Y-36187072D01*
X53727000Y-35930698D01*
X53727000Y-35669302D01*
X53676004Y-35412928D01*
X53575972Y-35171430D01*
X53430748Y-34954087D01*
X53245913Y-34769252D01*
X53028570Y-34624028D01*
X52787072Y-34523996D01*
X52530698Y-34473000D01*
X52525396Y-34473000D01*
X51961877Y-33909481D01*
X51929712Y-33870288D01*
X51773331Y-33741949D01*
X51594917Y-33646585D01*
X51401327Y-33587860D01*
X51250451Y-33573000D01*
X51250441Y-33573000D01*
X51200000Y-33568032D01*
X51149559Y-33573000D01*
X50563130Y-33573000D01*
X50760372Y-33467572D01*
X51000503Y-33270503D01*
X51150000Y-33088339D01*
X51299497Y-33270503D01*
X51539627Y-33467572D01*
X51813588Y-33614007D01*
X52110854Y-33704182D01*
X52420000Y-33734630D01*
X52729145Y-33704182D01*
X53026411Y-33614007D01*
X53300372Y-33467572D01*
X53540503Y-33270503D01*
X53690000Y-33088339D01*
X53839497Y-33270503D01*
X54079627Y-33467572D01*
X54353588Y-33614007D01*
X54650854Y-33704182D01*
X54960000Y-33734630D01*
X55269145Y-33704182D01*
X55566411Y-33614007D01*
X55840372Y-33467572D01*
X56080503Y-33270503D01*
X56230000Y-33088339D01*
X56379497Y-33270503D01*
X56619627Y-33467572D01*
X56893588Y-33614007D01*
X57190854Y-33704182D01*
X57500000Y-33734630D01*
X57809145Y-33704182D01*
X58106411Y-33614007D01*
X58380372Y-33467572D01*
X58620503Y-33270503D01*
X58770000Y-33088339D01*
X58919497Y-33270503D01*
X59073000Y-33396479D01*
X59073001Y-40816023D01*
X54316025Y-45573000D01*
X24241193Y-45573000D01*
X24133835Y-45501266D01*
X23928734Y-45416310D01*
X23711000Y-45373000D01*
X23489000Y-45373000D01*
X23271266Y-45416310D01*
X23066165Y-45501266D01*
X22881579Y-45624602D01*
X22724602Y-45781579D01*
X22601266Y-45966165D01*
X22516310Y-46171266D01*
X22473000Y-46389000D01*
X8786293Y-46389000D01*
X8816430Y-46372892D01*
X8957290Y-46257290D01*
X9072892Y-46116430D01*
X9158791Y-45955723D01*
X9197839Y-45827000D01*
X10554473Y-45827000D01*
X10600000Y-45831484D01*
X10645527Y-45827000D01*
X10645538Y-45827000D01*
X10781724Y-45813587D01*
X10956464Y-45760580D01*
X11117505Y-45674501D01*
X11258659Y-45558659D01*
X11287688Y-45523287D01*
X13923292Y-42887684D01*
X13958659Y-42858659D01*
X13987684Y-42823292D01*
X13987688Y-42823288D01*
X14074502Y-42717506D01*
X14160580Y-42556464D01*
X14213587Y-42381724D01*
X14227000Y-42245538D01*
X14227000Y-42245527D01*
X14231484Y-42200000D01*
X14227000Y-42154473D01*
X14227000Y-39872531D01*
X45803000Y-39872531D01*
X45803000Y-40527468D01*
X45825818Y-40759145D01*
X45915993Y-41056411D01*
X46062428Y-41330372D01*
X46259497Y-41570503D01*
X46499627Y-41767572D01*
X46773588Y-41914007D01*
X47070854Y-42004182D01*
X47380000Y-42034630D01*
X47689145Y-42004182D01*
X47986411Y-41914007D01*
X48260372Y-41767572D01*
X48500503Y-41570503D01*
X48650000Y-41388339D01*
X48799497Y-41570503D01*
X49039627Y-41767572D01*
X49313588Y-41914007D01*
X49610854Y-42004182D01*
X49920000Y-42034630D01*
X50229145Y-42004182D01*
X50526411Y-41914007D01*
X50800372Y-41767572D01*
X51040503Y-41570503D01*
X51190000Y-41388339D01*
X51339497Y-41570503D01*
X51579627Y-41767572D01*
X51853588Y-41914007D01*
X52150854Y-42004182D01*
X52460000Y-42034630D01*
X52769145Y-42004182D01*
X53066411Y-41914007D01*
X53340372Y-41767572D01*
X53452532Y-41675526D01*
X53460760Y-41702650D01*
X53509695Y-41794202D01*
X53575552Y-41874448D01*
X53655798Y-41940305D01*
X53747350Y-41989240D01*
X53846690Y-42019375D01*
X53950000Y-42029550D01*
X54595250Y-42027000D01*
X54727000Y-41895250D01*
X54727000Y-40473000D01*
X55273000Y-40473000D01*
X55273000Y-41895250D01*
X55404750Y-42027000D01*
X56050000Y-42029550D01*
X56153310Y-42019375D01*
X56252650Y-41989240D01*
X56344202Y-41940305D01*
X56424448Y-41874448D01*
X56490305Y-41794202D01*
X56539240Y-41702650D01*
X56569375Y-41603310D01*
X56579550Y-41500000D01*
X56577000Y-40604750D01*
X56445250Y-40473000D01*
X55273000Y-40473000D01*
X54727000Y-40473000D01*
X54707000Y-40473000D01*
X54707000Y-39927000D01*
X54727000Y-39927000D01*
X54727000Y-38504750D01*
X55273000Y-38504750D01*
X55273000Y-39927000D01*
X56445250Y-39927000D01*
X56577000Y-39795250D01*
X56579550Y-38900000D01*
X56569375Y-38796690D01*
X56539240Y-38697350D01*
X56490305Y-38605798D01*
X56424448Y-38525552D01*
X56344202Y-38459695D01*
X56252650Y-38410760D01*
X56153310Y-38380625D01*
X56050000Y-38370450D01*
X55404750Y-38373000D01*
X55273000Y-38504750D01*
X54727000Y-38504750D01*
X54595250Y-38373000D01*
X53950000Y-38370450D01*
X53846690Y-38380625D01*
X53747350Y-38410760D01*
X53655798Y-38459695D01*
X53575552Y-38525552D01*
X53509695Y-38605798D01*
X53460760Y-38697350D01*
X53452532Y-38724474D01*
X53340373Y-38632428D01*
X53066412Y-38485993D01*
X52769146Y-38395818D01*
X52460000Y-38365370D01*
X52150855Y-38395818D01*
X51853589Y-38485993D01*
X51579628Y-38632428D01*
X51339497Y-38829497D01*
X51190000Y-39011660D01*
X51040503Y-38829497D01*
X50800373Y-38632428D01*
X50526412Y-38485993D01*
X50229146Y-38395818D01*
X49920000Y-38365370D01*
X49610855Y-38395818D01*
X49313589Y-38485993D01*
X49039628Y-38632428D01*
X48799497Y-38829497D01*
X48650000Y-39011660D01*
X48500503Y-38829497D01*
X48260373Y-38632428D01*
X47986412Y-38485993D01*
X47689146Y-38395818D01*
X47380000Y-38365370D01*
X47070855Y-38395818D01*
X46773589Y-38485993D01*
X46499628Y-38632428D01*
X46259497Y-38829497D01*
X46062428Y-39069627D01*
X45915993Y-39343588D01*
X45825818Y-39640854D01*
X45803000Y-39872531D01*
X14227000Y-39872531D01*
X14227000Y-37727000D01*
X26200000Y-37727000D01*
X26268789Y-37722491D01*
X26424080Y-37702046D01*
X26556964Y-37666440D01*
X26701673Y-37606500D01*
X26820817Y-37537712D01*
X26945081Y-37442361D01*
X27042361Y-37345081D01*
X27137712Y-37220817D01*
X27206500Y-37101673D01*
X27266440Y-36956964D01*
X27302046Y-36824080D01*
X27322491Y-36668789D01*
X27327000Y-36600000D01*
X27327000Y-36299604D01*
X34773000Y-36299604D01*
X34773000Y-36600396D01*
X34831681Y-36895410D01*
X34946790Y-37173306D01*
X35113901Y-37423406D01*
X35326594Y-37636099D01*
X35576694Y-37803210D01*
X35854590Y-37918319D01*
X36149604Y-37977000D01*
X36450396Y-37977000D01*
X36745410Y-37918319D01*
X37023306Y-37803210D01*
X37273406Y-37636099D01*
X37486099Y-37423406D01*
X37653210Y-37173306D01*
X37768319Y-36895410D01*
X37827000Y-36600396D01*
X37827000Y-36299604D01*
X37768319Y-36004590D01*
X37653210Y-35726694D01*
X37486099Y-35476594D01*
X37273406Y-35263901D01*
X37023306Y-35096790D01*
X36745410Y-34981681D01*
X36450396Y-34923000D01*
X36149604Y-34923000D01*
X35854590Y-34981681D01*
X35576694Y-35096790D01*
X35326594Y-35263901D01*
X35113901Y-35476594D01*
X34946790Y-35726694D01*
X34831681Y-36004590D01*
X34773000Y-36299604D01*
X27327000Y-36299604D01*
X27327000Y-31972531D01*
X30523000Y-31972531D01*
X30523000Y-32227468D01*
X30545818Y-32459145D01*
X30635993Y-32756411D01*
X30782428Y-33030372D01*
X30979497Y-33270503D01*
X31219627Y-33467572D01*
X31493588Y-33614007D01*
X31790854Y-33704182D01*
X32100000Y-33734630D01*
X32409145Y-33704182D01*
X32706411Y-33614007D01*
X32980372Y-33467572D01*
X33220503Y-33270503D01*
X33379333Y-33076968D01*
X33497118Y-33229183D01*
X33729616Y-33431412D01*
X33997100Y-33584397D01*
X34031895Y-33605038D01*
X34267000Y-33546287D01*
X34267000Y-32473000D01*
X34247000Y-32473000D01*
X34247000Y-31727000D01*
X34267000Y-31727000D01*
X34267000Y-30653713D01*
X34031895Y-30594962D01*
X33997100Y-30615603D01*
X33729616Y-30768588D01*
X33497118Y-30970817D01*
X33379332Y-31123032D01*
X33220503Y-30929497D01*
X32980373Y-30732428D01*
X32706412Y-30585993D01*
X32409146Y-30495818D01*
X32100000Y-30465370D01*
X31790855Y-30495818D01*
X31493589Y-30585993D01*
X31219628Y-30732428D01*
X30979497Y-30929497D01*
X30782428Y-31169627D01*
X30635993Y-31443588D01*
X30545818Y-31740854D01*
X30523000Y-31972531D01*
X27327000Y-31972531D01*
X27327000Y-26249604D01*
X44833000Y-26249604D01*
X44833000Y-26550396D01*
X44891681Y-26845410D01*
X45006790Y-27123306D01*
X45173901Y-27373406D01*
X45386594Y-27586099D01*
X45636694Y-27753210D01*
X45914590Y-27868319D01*
X46209604Y-27927000D01*
X46510396Y-27927000D01*
X46805410Y-27868319D01*
X47083306Y-27753210D01*
X47333406Y-27586099D01*
X47546099Y-27373406D01*
X47713210Y-27123306D01*
X47828319Y-26845410D01*
X47887000Y-26550396D01*
X47887000Y-26249604D01*
X60073000Y-26249604D01*
X60073000Y-26550396D01*
X60131681Y-26845410D01*
X60246790Y-27123306D01*
X60413901Y-27373406D01*
X60626594Y-27586099D01*
X60876694Y-27753210D01*
X61154590Y-27868319D01*
X61449604Y-27927000D01*
X61750396Y-27927000D01*
X62045410Y-27868319D01*
X62323306Y-27753210D01*
X62573406Y-27586099D01*
X62786099Y-27373406D01*
X62953210Y-27123306D01*
X63068319Y-26845410D01*
X63127000Y-26550396D01*
X63127000Y-26249604D01*
X63068319Y-25954590D01*
X62953210Y-25676694D01*
X62786099Y-25426594D01*
X62573406Y-25213901D01*
X62323306Y-25046790D01*
X62045410Y-24931681D01*
X61750396Y-24873000D01*
X61449604Y-24873000D01*
X61154590Y-24931681D01*
X60876694Y-25046790D01*
X60626594Y-25213901D01*
X60413901Y-25426594D01*
X60246790Y-25676694D01*
X60131681Y-25954590D01*
X60073000Y-26249604D01*
X47887000Y-26249604D01*
X47828319Y-25954590D01*
X47713210Y-25676694D01*
X47546099Y-25426594D01*
X47333406Y-25213901D01*
X47083306Y-25046790D01*
X46805410Y-24931681D01*
X46510396Y-24873000D01*
X46209604Y-24873000D01*
X45914590Y-24931681D01*
X45636694Y-25046790D01*
X45386594Y-25213901D01*
X45173901Y-25426594D01*
X45006790Y-25676694D01*
X44891681Y-25954590D01*
X44833000Y-26249604D01*
X27327000Y-26249604D01*
X27327000Y-20727000D01*
X28800000Y-20727000D01*
X28902813Y-20716874D01*
X29001674Y-20686885D01*
X29092786Y-20638184D01*
X29172645Y-20572645D01*
X29238184Y-20492786D01*
X29286885Y-20401674D01*
X29316874Y-20302813D01*
X29327000Y-20200000D01*
X29327000Y-16315000D01*
X30520451Y-16315000D01*
X30520451Y-17885000D01*
X30536679Y-18049763D01*
X30584738Y-18208195D01*
X30662783Y-18354206D01*
X30767814Y-18482186D01*
X30895794Y-18587217D01*
X31041805Y-18665262D01*
X31200237Y-18713321D01*
X31365000Y-18729549D01*
X32835000Y-18729549D01*
X32999763Y-18713321D01*
X33158195Y-18665262D01*
X33304206Y-18587217D01*
X33432186Y-18482186D01*
X33537217Y-18354206D01*
X33562913Y-18306133D01*
X33759627Y-18467572D01*
X34033588Y-18614007D01*
X34330854Y-18704182D01*
X34640000Y-18734630D01*
X34949145Y-18704182D01*
X35246411Y-18614007D01*
X35520372Y-18467572D01*
X35760503Y-18270503D01*
X35910000Y-18088339D01*
X36059497Y-18270503D01*
X36299627Y-18467572D01*
X36573588Y-18614007D01*
X36870854Y-18704182D01*
X37180000Y-18734630D01*
X37489145Y-18704182D01*
X37786411Y-18614007D01*
X38060372Y-18467572D01*
X38300503Y-18270503D01*
X38459333Y-18076968D01*
X38577118Y-18229183D01*
X38809616Y-18431412D01*
X39077100Y-18584397D01*
X39111895Y-18605038D01*
X39347000Y-18546287D01*
X39347000Y-17473000D01*
X39327000Y-17473000D01*
X39327000Y-16727000D01*
X39347000Y-16727000D01*
X39347000Y-15653713D01*
X40093000Y-15653713D01*
X40093000Y-16727000D01*
X40113000Y-16727000D01*
X40113000Y-17473000D01*
X40093000Y-17473000D01*
X40093000Y-18546287D01*
X40328105Y-18605038D01*
X40362900Y-18584397D01*
X40630384Y-18431412D01*
X40862882Y-18229183D01*
X40980668Y-18076968D01*
X41139497Y-18270503D01*
X41379627Y-18467572D01*
X41653588Y-18614007D01*
X41950854Y-18704182D01*
X42260000Y-18734630D01*
X42569145Y-18704182D01*
X42866411Y-18614007D01*
X43140372Y-18467572D01*
X43380503Y-18270503D01*
X43530000Y-18088339D01*
X43679497Y-18270503D01*
X43919627Y-18467572D01*
X44193588Y-18614007D01*
X44490854Y-18704182D01*
X44800000Y-18734630D01*
X45109145Y-18704182D01*
X45406411Y-18614007D01*
X45680372Y-18467572D01*
X45920503Y-18270503D01*
X46070000Y-18088339D01*
X46219497Y-18270503D01*
X46459627Y-18467572D01*
X46733588Y-18614007D01*
X47030854Y-18704182D01*
X47340000Y-18734630D01*
X47649145Y-18704182D01*
X47946411Y-18614007D01*
X48220372Y-18467572D01*
X48460503Y-18270503D01*
X48610000Y-18088339D01*
X48759497Y-18270503D01*
X48999627Y-18467572D01*
X49273588Y-18614007D01*
X49570854Y-18704182D01*
X49880000Y-18734630D01*
X50189145Y-18704182D01*
X50486411Y-18614007D01*
X50760372Y-18467572D01*
X51000503Y-18270503D01*
X51150000Y-18088339D01*
X51299497Y-18270503D01*
X51539627Y-18467572D01*
X51813588Y-18614007D01*
X52110854Y-18704182D01*
X52420000Y-18734630D01*
X52729145Y-18704182D01*
X53026411Y-18614007D01*
X53300372Y-18467572D01*
X53540503Y-18270503D01*
X53690000Y-18088339D01*
X53839497Y-18270503D01*
X54079627Y-18467572D01*
X54353588Y-18614007D01*
X54650854Y-18704182D01*
X54960000Y-18734630D01*
X55269145Y-18704182D01*
X55566411Y-18614007D01*
X55840372Y-18467572D01*
X56080503Y-18270503D01*
X56230000Y-18088339D01*
X56379497Y-18270503D01*
X56619627Y-18467572D01*
X56893588Y-18614007D01*
X57190854Y-18704182D01*
X57500000Y-18734630D01*
X57809145Y-18704182D01*
X58106411Y-18614007D01*
X58380372Y-18467572D01*
X58620503Y-18270503D01*
X58770000Y-18088339D01*
X58919497Y-18270503D01*
X59159627Y-18467572D01*
X59433588Y-18614007D01*
X59730854Y-18704182D01*
X60040000Y-18734630D01*
X60349145Y-18704182D01*
X60646411Y-18614007D01*
X60920372Y-18467572D01*
X61160503Y-18270503D01*
X61310000Y-18088339D01*
X61459497Y-18270503D01*
X61699627Y-18467572D01*
X61973588Y-18614007D01*
X62270854Y-18704182D01*
X62580000Y-18734630D01*
X62889145Y-18704182D01*
X63186411Y-18614007D01*
X63460372Y-18467572D01*
X63700503Y-18270503D01*
X63850000Y-18088339D01*
X63999497Y-18270503D01*
X64239627Y-18467572D01*
X64513588Y-18614007D01*
X64810854Y-18704182D01*
X65120000Y-18734630D01*
X65429145Y-18704182D01*
X65726411Y-18614007D01*
X66000372Y-18467572D01*
X66240503Y-18270503D01*
X66390000Y-18088339D01*
X66539497Y-18270503D01*
X66779627Y-18467572D01*
X67053588Y-18614007D01*
X67350854Y-18704182D01*
X67660000Y-18734630D01*
X67969145Y-18704182D01*
X68266411Y-18614007D01*
X68540372Y-18467572D01*
X68780503Y-18270503D01*
X68977572Y-18030373D01*
X69124007Y-17756412D01*
X69214182Y-17459146D01*
X69237000Y-17227469D01*
X69237000Y-16972532D01*
X69214182Y-16740855D01*
X69124007Y-16443589D01*
X68977572Y-16169628D01*
X68780503Y-15929497D01*
X68540373Y-15732428D01*
X68266412Y-15585993D01*
X67969146Y-15495818D01*
X67660000Y-15465370D01*
X67350855Y-15495818D01*
X67053589Y-15585993D01*
X66779628Y-15732428D01*
X66539497Y-15929497D01*
X66390000Y-16111661D01*
X66240503Y-15929497D01*
X66000373Y-15732428D01*
X65726412Y-15585993D01*
X65429146Y-15495818D01*
X65120000Y-15465370D01*
X64810855Y-15495818D01*
X64513589Y-15585993D01*
X64239628Y-15732428D01*
X63999497Y-15929497D01*
X63850000Y-16111661D01*
X63700503Y-15929497D01*
X63460373Y-15732428D01*
X63186412Y-15585993D01*
X62889146Y-15495818D01*
X62580000Y-15465370D01*
X62270855Y-15495818D01*
X61973589Y-15585993D01*
X61699628Y-15732428D01*
X61459497Y-15929497D01*
X61310000Y-16111661D01*
X61160503Y-15929497D01*
X60920373Y-15732428D01*
X60646412Y-15585993D01*
X60349146Y-15495818D01*
X60040000Y-15465370D01*
X59730855Y-15495818D01*
X59433589Y-15585993D01*
X59159628Y-15732428D01*
X58919497Y-15929497D01*
X58770000Y-16111661D01*
X58620503Y-15929497D01*
X58380373Y-15732428D01*
X58106412Y-15585993D01*
X57809146Y-15495818D01*
X57500000Y-15465370D01*
X57190855Y-15495818D01*
X56893589Y-15585993D01*
X56619628Y-15732428D01*
X56379497Y-15929497D01*
X56230000Y-16111661D01*
X56080503Y-15929497D01*
X55840373Y-15732428D01*
X55566412Y-15585993D01*
X55269146Y-15495818D01*
X54960000Y-15465370D01*
X54650855Y-15495818D01*
X54353589Y-15585993D01*
X54079628Y-15732428D01*
X53839497Y-15929497D01*
X53690000Y-16111661D01*
X53540503Y-15929497D01*
X53300373Y-15732428D01*
X53026412Y-15585993D01*
X52729146Y-15495818D01*
X52420000Y-15465370D01*
X52110855Y-15495818D01*
X51813589Y-15585993D01*
X51539628Y-15732428D01*
X51299497Y-15929497D01*
X51150000Y-16111661D01*
X51000503Y-15929497D01*
X50760373Y-15732428D01*
X50486412Y-15585993D01*
X50189146Y-15495818D01*
X49880000Y-15465370D01*
X49570855Y-15495818D01*
X49273589Y-15585993D01*
X48999628Y-15732428D01*
X48759497Y-15929497D01*
X48610000Y-16111661D01*
X48460503Y-15929497D01*
X48220373Y-15732428D01*
X47946412Y-15585993D01*
X47649146Y-15495818D01*
X47340000Y-15465370D01*
X47030855Y-15495818D01*
X46733589Y-15585993D01*
X46459628Y-15732428D01*
X46219497Y-15929497D01*
X46070000Y-16111661D01*
X45920503Y-15929497D01*
X45680373Y-15732428D01*
X45406412Y-15585993D01*
X45109146Y-15495818D01*
X44800000Y-15465370D01*
X44490855Y-15495818D01*
X44193589Y-15585993D01*
X43919628Y-15732428D01*
X43679497Y-15929497D01*
X43530000Y-16111661D01*
X43380503Y-15929497D01*
X43140373Y-15732428D01*
X42866412Y-15585993D01*
X42569146Y-15495818D01*
X42260000Y-15465370D01*
X41950855Y-15495818D01*
X41653589Y-15585993D01*
X41379628Y-15732428D01*
X41139497Y-15929497D01*
X40980667Y-16123032D01*
X40862882Y-15970817D01*
X40630384Y-15768588D01*
X40362900Y-15615603D01*
X40328105Y-15594962D01*
X40093000Y-15653713D01*
X39347000Y-15653713D01*
X39111895Y-15594962D01*
X39077100Y-15615603D01*
X38809616Y-15768588D01*
X38577118Y-15970817D01*
X38459332Y-16123032D01*
X38300503Y-15929497D01*
X38060373Y-15732428D01*
X37786412Y-15585993D01*
X37489146Y-15495818D01*
X37180000Y-15465370D01*
X36870855Y-15495818D01*
X36573589Y-15585993D01*
X36299628Y-15732428D01*
X36059497Y-15929497D01*
X35910000Y-16111661D01*
X35760503Y-15929497D01*
X35520373Y-15732428D01*
X35246412Y-15585993D01*
X34949146Y-15495818D01*
X34640000Y-15465370D01*
X34330855Y-15495818D01*
X34033589Y-15585993D01*
X33759628Y-15732428D01*
X33562913Y-15893867D01*
X33537217Y-15845794D01*
X33432186Y-15717814D01*
X33304206Y-15612783D01*
X33158195Y-15534738D01*
X32999763Y-15486679D01*
X32835000Y-15470451D01*
X31365000Y-15470451D01*
X31200237Y-15486679D01*
X31041805Y-15534738D01*
X30895794Y-15612783D01*
X30767814Y-15717814D01*
X30662783Y-15845794D01*
X30584738Y-15991805D01*
X30536679Y-16150237D01*
X30520451Y-16315000D01*
X29327000Y-16315000D01*
X29327000Y-5977010D01*
X32766035Y-5977010D01*
X36873000Y-10083976D01*
X36873000Y-10330698D01*
X36923996Y-10587072D01*
X37024028Y-10828570D01*
X37169252Y-11045913D01*
X37354087Y-11230748D01*
X37571430Y-11375972D01*
X37812928Y-11476004D01*
X38069302Y-11527000D01*
X38330698Y-11527000D01*
X38587072Y-11476004D01*
X38828570Y-11375972D01*
X39045913Y-11230748D01*
X39230748Y-11045913D01*
X39375972Y-10828570D01*
X39476004Y-10587072D01*
X39527000Y-10330698D01*
X39527000Y-10069302D01*
X39476004Y-9812928D01*
X39375972Y-9571430D01*
X39325572Y-9496000D01*
X40070451Y-9496000D01*
X40070451Y-10904000D01*
X40088235Y-11084566D01*
X40140904Y-11258192D01*
X40226434Y-11418207D01*
X40341538Y-11558462D01*
X40481793Y-11673566D01*
X40641808Y-11759096D01*
X40815434Y-11811765D01*
X40996000Y-11829549D01*
X42404000Y-11829549D01*
X42584566Y-11811765D01*
X42758192Y-11759096D01*
X42918207Y-11673566D01*
X43058462Y-11558462D01*
X43173566Y-11418207D01*
X43259096Y-11258192D01*
X43311765Y-11084566D01*
X43329549Y-10904000D01*
X43329549Y-10039755D01*
X44273000Y-10039755D01*
X44273000Y-10360245D01*
X44335525Y-10674578D01*
X44458172Y-10970673D01*
X44636227Y-11237152D01*
X44862848Y-11463773D01*
X45129327Y-11641828D01*
X45425422Y-11764475D01*
X45739755Y-11827000D01*
X46060245Y-11827000D01*
X46374578Y-11764475D01*
X46670673Y-11641828D01*
X46937152Y-11463773D01*
X47163773Y-11237152D01*
X47341828Y-10970673D01*
X47464475Y-10674578D01*
X47527000Y-10360245D01*
X47527000Y-10039755D01*
X47464475Y-9725422D01*
X47341828Y-9429327D01*
X47163773Y-9162848D01*
X46937152Y-8936227D01*
X46670673Y-8758172D01*
X46463919Y-8672531D01*
X53303000Y-8672531D01*
X53303000Y-8927468D01*
X53325818Y-9159145D01*
X53415993Y-9456411D01*
X53562428Y-9730372D01*
X53759497Y-9970503D01*
X53999627Y-10167572D01*
X54273588Y-10314007D01*
X54570854Y-10404182D01*
X54880000Y-10434630D01*
X55189145Y-10404182D01*
X55486411Y-10314007D01*
X55760372Y-10167572D01*
X56000503Y-9970503D01*
X56150000Y-9788339D01*
X56299497Y-9970503D01*
X56539627Y-10167572D01*
X56813588Y-10314007D01*
X57110854Y-10404182D01*
X57420000Y-10434630D01*
X57729145Y-10404182D01*
X58026411Y-10314007D01*
X58300372Y-10167572D01*
X58540503Y-9970503D01*
X58690000Y-9788339D01*
X58839497Y-9970503D01*
X59079627Y-10167572D01*
X59353588Y-10314007D01*
X59650854Y-10404182D01*
X59960000Y-10434630D01*
X60269145Y-10404182D01*
X60566411Y-10314007D01*
X60840372Y-10167572D01*
X60952532Y-10075526D01*
X60960760Y-10102650D01*
X61009695Y-10194202D01*
X61075552Y-10274448D01*
X61155798Y-10340305D01*
X61247350Y-10389240D01*
X61346690Y-10419375D01*
X61450000Y-10429550D01*
X62195250Y-10427000D01*
X62327000Y-10295250D01*
X62327000Y-8973000D01*
X62673000Y-8973000D01*
X62673000Y-10295250D01*
X62804750Y-10427000D01*
X63550000Y-10429550D01*
X63653310Y-10419375D01*
X63752650Y-10389240D01*
X63844202Y-10340305D01*
X63924448Y-10274448D01*
X63990305Y-10194202D01*
X64039240Y-10102650D01*
X64069375Y-10003310D01*
X64079550Y-9900000D01*
X64077000Y-9104750D01*
X63945250Y-8973000D01*
X62673000Y-8973000D01*
X62327000Y-8973000D01*
X62307000Y-8973000D01*
X62307000Y-8627000D01*
X62327000Y-8627000D01*
X62327000Y-7304750D01*
X62673000Y-7304750D01*
X62673000Y-8627000D01*
X63945250Y-8627000D01*
X64077000Y-8495250D01*
X64079550Y-7700000D01*
X64069375Y-7596690D01*
X64039240Y-7497350D01*
X63990305Y-7405798D01*
X63924448Y-7325552D01*
X63844202Y-7259695D01*
X63752650Y-7210760D01*
X63653310Y-7180625D01*
X63550000Y-7170450D01*
X62804750Y-7173000D01*
X62673000Y-7304750D01*
X62327000Y-7304750D01*
X62195250Y-7173000D01*
X61450000Y-7170450D01*
X61346690Y-7180625D01*
X61247350Y-7210760D01*
X61155798Y-7259695D01*
X61075552Y-7325552D01*
X61009695Y-7405798D01*
X60960760Y-7497350D01*
X60952532Y-7524474D01*
X60840373Y-7432428D01*
X60566412Y-7285993D01*
X60269146Y-7195818D01*
X59960000Y-7165370D01*
X59650855Y-7195818D01*
X59353589Y-7285993D01*
X59079628Y-7432428D01*
X58839497Y-7629497D01*
X58690000Y-7811661D01*
X58540503Y-7629497D01*
X58300373Y-7432428D01*
X58026412Y-7285993D01*
X57729146Y-7195818D01*
X57420000Y-7165370D01*
X57110855Y-7195818D01*
X56813589Y-7285993D01*
X56539628Y-7432428D01*
X56299497Y-7629497D01*
X56150000Y-7811661D01*
X56000503Y-7629497D01*
X55760373Y-7432428D01*
X55486412Y-7285993D01*
X55189146Y-7195818D01*
X54880000Y-7165370D01*
X54570855Y-7195818D01*
X54273589Y-7285993D01*
X53999628Y-7432428D01*
X53759497Y-7629497D01*
X53562428Y-7869627D01*
X53415993Y-8143588D01*
X53325818Y-8440854D01*
X53303000Y-8672531D01*
X46463919Y-8672531D01*
X46374578Y-8635525D01*
X46060245Y-8573000D01*
X45739755Y-8573000D01*
X45425422Y-8635525D01*
X45129327Y-8758172D01*
X44862848Y-8936227D01*
X44636227Y-9162848D01*
X44458172Y-9429327D01*
X44335525Y-9725422D01*
X44273000Y-10039755D01*
X43329549Y-10039755D01*
X43329549Y-9496000D01*
X43311765Y-9315434D01*
X43259096Y-9141808D01*
X43173566Y-8981793D01*
X43058462Y-8841538D01*
X42918207Y-8726434D01*
X42758192Y-8640904D01*
X42584566Y-8588235D01*
X42404000Y-8570451D01*
X40996000Y-8570451D01*
X40815434Y-8588235D01*
X40641808Y-8640904D01*
X40481793Y-8726434D01*
X40341538Y-8841538D01*
X40226434Y-8981793D01*
X40140904Y-9141808D01*
X40088235Y-9315434D01*
X40070451Y-9496000D01*
X39325572Y-9496000D01*
X39230748Y-9354087D01*
X39045913Y-9169252D01*
X38828570Y-9024028D01*
X38587072Y-8923996D01*
X38330698Y-8873000D01*
X38283976Y-8873000D01*
X36160580Y-6749604D01*
X67473000Y-6749604D01*
X67473000Y-7050396D01*
X67531681Y-7345410D01*
X67646790Y-7623306D01*
X67813901Y-7873406D01*
X68026594Y-8086099D01*
X68276694Y-8253210D01*
X68554590Y-8368319D01*
X68849604Y-8427000D01*
X69150396Y-8427000D01*
X69445410Y-8368319D01*
X69723306Y-8253210D01*
X69973406Y-8086099D01*
X70186099Y-7873406D01*
X70353210Y-7623306D01*
X70468319Y-7345410D01*
X70527000Y-7050396D01*
X70527000Y-6749604D01*
X70468319Y-6454590D01*
X70353210Y-6176694D01*
X70186099Y-5926594D01*
X69973406Y-5713901D01*
X69723306Y-5546790D01*
X69445410Y-5431681D01*
X69150396Y-5373000D01*
X68849604Y-5373000D01*
X68554590Y-5431681D01*
X68276694Y-5546790D01*
X68026594Y-5713901D01*
X67813901Y-5926594D01*
X67646790Y-6176694D01*
X67531681Y-6454590D01*
X67473000Y-6749604D01*
X36160580Y-6749604D01*
X34212975Y-4802000D01*
X71398000Y-4802000D01*
X71398001Y-53998000D01*
G04 #@! TA.AperFunction,Conductor*
D26*
G36*
X71398001Y-53998000D02*
G01*
X802000Y-53998000D01*
X802000Y-51449604D01*
X1673000Y-51449604D01*
X1673000Y-51750396D01*
X1731681Y-52045410D01*
X1846790Y-52323306D01*
X2013901Y-52573406D01*
X2226594Y-52786099D01*
X2476694Y-52953210D01*
X2754590Y-53068319D01*
X3049604Y-53127000D01*
X3350396Y-53127000D01*
X3645410Y-53068319D01*
X3919588Y-52954750D01*
X11773000Y-52954750D01*
X11780432Y-53052334D01*
X11810380Y-53151730D01*
X11859143Y-53243374D01*
X11924848Y-53323744D01*
X12004971Y-53389751D01*
X12096431Y-53438859D01*
X12195714Y-53469180D01*
X12295250Y-53477000D01*
X12427000Y-53345250D01*
X12427000Y-52823000D01*
X14173000Y-52823000D01*
X14173000Y-53345250D01*
X14304750Y-53477000D01*
X14404286Y-53469180D01*
X14503569Y-53438859D01*
X14595029Y-53389751D01*
X14675152Y-53323744D01*
X14740857Y-53243374D01*
X14789620Y-53151730D01*
X14818291Y-53056572D01*
X35438087Y-53056572D01*
X35543820Y-53285118D01*
X35818818Y-53406988D01*
X36112308Y-53472866D01*
X36413011Y-53480222D01*
X36709371Y-53428771D01*
X36989998Y-53320492D01*
X37056180Y-53285118D01*
X37161913Y-53056572D01*
X36300000Y-52194659D01*
X35438087Y-53056572D01*
X14818291Y-53056572D01*
X14819568Y-53052334D01*
X14827000Y-52954750D01*
X14695250Y-52823000D01*
X14173000Y-52823000D01*
X12427000Y-52823000D01*
X11904750Y-52823000D01*
X11773000Y-52954750D01*
X3919588Y-52954750D01*
X3923306Y-52953210D01*
X4173406Y-52786099D01*
X4386099Y-52573406D01*
X4553210Y-52323306D01*
X4661028Y-52063011D01*
X34769778Y-52063011D01*
X34821229Y-52359371D01*
X34929508Y-52639998D01*
X34964882Y-52706180D01*
X35193428Y-52811913D01*
X36055341Y-51950000D01*
X36544659Y-51950000D01*
X37406572Y-52811913D01*
X37635118Y-52706180D01*
X37756988Y-52431182D01*
X37822866Y-52137692D01*
X37830222Y-51836989D01*
X37778771Y-51540629D01*
X37670492Y-51260002D01*
X37635118Y-51193820D01*
X37406572Y-51088087D01*
X36544659Y-51950000D01*
X36055341Y-51950000D01*
X35193428Y-51088087D01*
X34964882Y-51193820D01*
X34843012Y-51468818D01*
X34777134Y-51762308D01*
X34769778Y-52063011D01*
X4661028Y-52063011D01*
X4668319Y-52045410D01*
X4727000Y-51750396D01*
X4727000Y-51449604D01*
X4668319Y-51154590D01*
X4581607Y-50945250D01*
X11773000Y-50945250D01*
X11904750Y-51077000D01*
X12427000Y-51077000D01*
X12427000Y-50554750D01*
X14173000Y-50554750D01*
X14173000Y-51077000D01*
X14695250Y-51077000D01*
X14827000Y-50945250D01*
X14819568Y-50847666D01*
X14818292Y-50843428D01*
X35438087Y-50843428D01*
X36300000Y-51705341D01*
X37161913Y-50843428D01*
X37082851Y-50672531D01*
X41283000Y-50672531D01*
X41283000Y-50927468D01*
X41305818Y-51159145D01*
X41395993Y-51456411D01*
X41542428Y-51730372D01*
X41739497Y-51970503D01*
X41979627Y-52167572D01*
X42253588Y-52314007D01*
X42550854Y-52404182D01*
X42860000Y-52434630D01*
X43169145Y-52404182D01*
X43466411Y-52314007D01*
X43740372Y-52167572D01*
X43852532Y-52075526D01*
X43860760Y-52102650D01*
X43909695Y-52194202D01*
X43975552Y-52274448D01*
X44055798Y-52340305D01*
X44147350Y-52389240D01*
X44246690Y-52419375D01*
X44350000Y-52429550D01*
X45095250Y-52427000D01*
X45227000Y-52295250D01*
X45227000Y-50973000D01*
X45573000Y-50973000D01*
X45573000Y-52295250D01*
X45704750Y-52427000D01*
X46450000Y-52429550D01*
X46553310Y-52419375D01*
X46652650Y-52389240D01*
X46744202Y-52340305D01*
X46824448Y-52274448D01*
X46890305Y-52194202D01*
X46939240Y-52102650D01*
X46969375Y-52003310D01*
X46979550Y-51900000D01*
X46978106Y-51449604D01*
X67473000Y-51449604D01*
X67473000Y-51750396D01*
X67531681Y-52045410D01*
X67646790Y-52323306D01*
X67813901Y-52573406D01*
X68026594Y-52786099D01*
X68276694Y-52953210D01*
X68554590Y-53068319D01*
X68849604Y-53127000D01*
X69150396Y-53127000D01*
X69445410Y-53068319D01*
X69723306Y-52953210D01*
X69973406Y-52786099D01*
X70186099Y-52573406D01*
X70353210Y-52323306D01*
X70468319Y-52045410D01*
X70527000Y-51750396D01*
X70527000Y-51449604D01*
X70468319Y-51154590D01*
X70353210Y-50876694D01*
X70186099Y-50626594D01*
X69973406Y-50413901D01*
X69723306Y-50246790D01*
X69445410Y-50131681D01*
X69150396Y-50073000D01*
X68849604Y-50073000D01*
X68554590Y-50131681D01*
X68276694Y-50246790D01*
X68026594Y-50413901D01*
X67813901Y-50626594D01*
X67646790Y-50876694D01*
X67531681Y-51154590D01*
X67473000Y-51449604D01*
X46978106Y-51449604D01*
X46977000Y-51104750D01*
X46845250Y-50973000D01*
X45573000Y-50973000D01*
X45227000Y-50973000D01*
X45207000Y-50973000D01*
X45207000Y-50627000D01*
X45227000Y-50627000D01*
X45227000Y-49304750D01*
X45573000Y-49304750D01*
X45573000Y-50627000D01*
X46845250Y-50627000D01*
X46977000Y-50495250D01*
X46979550Y-49700000D01*
X46969375Y-49596690D01*
X46939240Y-49497350D01*
X46890305Y-49405798D01*
X46824448Y-49325552D01*
X46744202Y-49259695D01*
X46652650Y-49210760D01*
X46553310Y-49180625D01*
X46450000Y-49170450D01*
X45704750Y-49173000D01*
X45573000Y-49304750D01*
X45227000Y-49304750D01*
X45095250Y-49173000D01*
X44350000Y-49170450D01*
X44246690Y-49180625D01*
X44147350Y-49210760D01*
X44055798Y-49259695D01*
X43975552Y-49325552D01*
X43909695Y-49405798D01*
X43860760Y-49497350D01*
X43852532Y-49524474D01*
X43740373Y-49432428D01*
X43466412Y-49285993D01*
X43169146Y-49195818D01*
X42860000Y-49165370D01*
X42550855Y-49195818D01*
X42253589Y-49285993D01*
X41979628Y-49432428D01*
X41739497Y-49629497D01*
X41542428Y-49869627D01*
X41395993Y-50143588D01*
X41305818Y-50440854D01*
X41283000Y-50672531D01*
X37082851Y-50672531D01*
X37056180Y-50614882D01*
X36781182Y-50493012D01*
X36487692Y-50427134D01*
X36186989Y-50419778D01*
X35890629Y-50471229D01*
X35610002Y-50579508D01*
X35543820Y-50614882D01*
X35438087Y-50843428D01*
X14818292Y-50843428D01*
X14789620Y-50748270D01*
X14740857Y-50656626D01*
X14675152Y-50576256D01*
X14595029Y-50510249D01*
X14503569Y-50461141D01*
X14404286Y-50430820D01*
X14304750Y-50423000D01*
X14173000Y-50554750D01*
X12427000Y-50554750D01*
X12295250Y-50423000D01*
X12195714Y-50430820D01*
X12096431Y-50461141D01*
X12004971Y-50510249D01*
X11924848Y-50576256D01*
X11859143Y-50656626D01*
X11810380Y-50748270D01*
X11780432Y-50847666D01*
X11773000Y-50945250D01*
X4581607Y-50945250D01*
X4553210Y-50876694D01*
X4386099Y-50626594D01*
X4173406Y-50413901D01*
X3923306Y-50246790D01*
X3645410Y-50131681D01*
X3350396Y-50073000D01*
X3049604Y-50073000D01*
X2754590Y-50131681D01*
X2476694Y-50246790D01*
X2226594Y-50413901D01*
X2013901Y-50626594D01*
X1846790Y-50876694D01*
X1731681Y-51154590D01*
X1673000Y-51449604D01*
X802000Y-51449604D01*
X802000Y-32927000D01*
X5250340Y-32927000D01*
X5473000Y-33149660D01*
X5473000Y-36600000D01*
X5477509Y-36668789D01*
X5497954Y-36824080D01*
X5533560Y-36956964D01*
X5593500Y-37101673D01*
X5662288Y-37220817D01*
X5757639Y-37345081D01*
X5854919Y-37442361D01*
X5979183Y-37537712D01*
X6098327Y-37606500D01*
X6243036Y-37666440D01*
X6375920Y-37702046D01*
X6531211Y-37722491D01*
X6600000Y-37727000D01*
X12373000Y-37727000D01*
X12373001Y-41816023D01*
X10216025Y-43973000D01*
X9197839Y-43973000D01*
X9158791Y-43844277D01*
X9072892Y-43683570D01*
X8957290Y-43542710D01*
X8816430Y-43427108D01*
X8655723Y-43341209D01*
X8481346Y-43288312D01*
X8300000Y-43270451D01*
X7100000Y-43270451D01*
X6918654Y-43288312D01*
X6744277Y-43341209D01*
X6583570Y-43427108D01*
X6442710Y-43542710D01*
X6327108Y-43683570D01*
X6241209Y-43844277D01*
X6188312Y-44018654D01*
X6170451Y-44200000D01*
X6170451Y-45600000D01*
X6188312Y-45781346D01*
X6241209Y-45955723D01*
X6327108Y-46116430D01*
X6442710Y-46257290D01*
X6583570Y-46372892D01*
X6744277Y-46458791D01*
X6918654Y-46511688D01*
X7100000Y-46529549D01*
X8300000Y-46529549D01*
X8481346Y-46511688D01*
X8655723Y-46458791D01*
X8786293Y-46389000D01*
X22473000Y-46389000D01*
X22473000Y-46611000D01*
X22516310Y-46828734D01*
X22601266Y-47033835D01*
X22724602Y-47218421D01*
X22881579Y-47375398D01*
X23066165Y-47498734D01*
X23271266Y-47583690D01*
X23489000Y-47627000D01*
X23711000Y-47627000D01*
X23928734Y-47583690D01*
X24133835Y-47498734D01*
X24241193Y-47427000D01*
X54654473Y-47427000D01*
X54700000Y-47431484D01*
X54745527Y-47427000D01*
X54745538Y-47427000D01*
X54881724Y-47413587D01*
X55056464Y-47360580D01*
X55217505Y-47274501D01*
X55358659Y-47158659D01*
X55387688Y-47123287D01*
X60623292Y-41887684D01*
X60658659Y-41858659D01*
X60687684Y-41823292D01*
X60687688Y-41823288D01*
X60774501Y-41717506D01*
X60860580Y-41556464D01*
X60913587Y-41381724D01*
X60927000Y-41245538D01*
X60927000Y-41245527D01*
X60931484Y-41200000D01*
X60927000Y-41154473D01*
X60927000Y-33462133D01*
X61160503Y-33270503D01*
X61310000Y-33088339D01*
X61459497Y-33270503D01*
X61699627Y-33467572D01*
X61973588Y-33614007D01*
X62270854Y-33704182D01*
X62580000Y-33734630D01*
X62889145Y-33704182D01*
X63186411Y-33614007D01*
X63460372Y-33467572D01*
X63700503Y-33270503D01*
X63850000Y-33088339D01*
X63999497Y-33270503D01*
X64239627Y-33467572D01*
X64513588Y-33614007D01*
X64810854Y-33704182D01*
X65120000Y-33734630D01*
X65429145Y-33704182D01*
X65726411Y-33614007D01*
X66000372Y-33467572D01*
X66240503Y-33270503D01*
X66390000Y-33088339D01*
X66539497Y-33270503D01*
X66779627Y-33467572D01*
X67053588Y-33614007D01*
X67350854Y-33704182D01*
X67660000Y-33734630D01*
X67969145Y-33704182D01*
X68266411Y-33614007D01*
X68540372Y-33467572D01*
X68780503Y-33270503D01*
X68977572Y-33030373D01*
X69124007Y-32756412D01*
X69214182Y-32459146D01*
X69237000Y-32227469D01*
X69237000Y-31972532D01*
X69214182Y-31740855D01*
X69124007Y-31443589D01*
X68977572Y-31169628D01*
X68780503Y-30929497D01*
X68540373Y-30732428D01*
X68266412Y-30585993D01*
X67969146Y-30495818D01*
X67660000Y-30465370D01*
X67350855Y-30495818D01*
X67053589Y-30585993D01*
X66779628Y-30732428D01*
X66539497Y-30929497D01*
X66390000Y-31111661D01*
X66240503Y-30929497D01*
X66000373Y-30732428D01*
X65726412Y-30585993D01*
X65429146Y-30495818D01*
X65120000Y-30465370D01*
X64810855Y-30495818D01*
X64513589Y-30585993D01*
X64239628Y-30732428D01*
X63999497Y-30929497D01*
X63850000Y-31111661D01*
X63700503Y-30929497D01*
X63460373Y-30732428D01*
X63186412Y-30585993D01*
X62889146Y-30495818D01*
X62580000Y-30465370D01*
X62270855Y-30495818D01*
X61973589Y-30585993D01*
X61699628Y-30732428D01*
X61459497Y-30929497D01*
X61310000Y-31111661D01*
X61160503Y-30929497D01*
X60920373Y-30732428D01*
X60646412Y-30585993D01*
X60349146Y-30495818D01*
X60040000Y-30465370D01*
X59730855Y-30495818D01*
X59433589Y-30585993D01*
X59159628Y-30732428D01*
X58919497Y-30929497D01*
X58770000Y-31111661D01*
X58620503Y-30929497D01*
X58380373Y-30732428D01*
X58106412Y-30585993D01*
X57809146Y-30495818D01*
X57500000Y-30465370D01*
X57190855Y-30495818D01*
X56893589Y-30585993D01*
X56619628Y-30732428D01*
X56379497Y-30929497D01*
X56230000Y-31111661D01*
X56080503Y-30929497D01*
X55840373Y-30732428D01*
X55566412Y-30585993D01*
X55269146Y-30495818D01*
X54960000Y-30465370D01*
X54650855Y-30495818D01*
X54353589Y-30585993D01*
X54079628Y-30732428D01*
X53839497Y-30929497D01*
X53690000Y-31111661D01*
X53540503Y-30929497D01*
X53300373Y-30732428D01*
X53026412Y-30585993D01*
X52729146Y-30495818D01*
X52420000Y-30465370D01*
X52110855Y-30495818D01*
X51813589Y-30585993D01*
X51539628Y-30732428D01*
X51299497Y-30929497D01*
X51150000Y-31111661D01*
X51000503Y-30929497D01*
X50760373Y-30732428D01*
X50486412Y-30585993D01*
X50189146Y-30495818D01*
X49880000Y-30465370D01*
X49570855Y-30495818D01*
X49273589Y-30585993D01*
X48999628Y-30732428D01*
X48759497Y-30929497D01*
X48610000Y-31111661D01*
X48460503Y-30929497D01*
X48220373Y-30732428D01*
X47946412Y-30585993D01*
X47649146Y-30495818D01*
X47340000Y-30465370D01*
X47030855Y-30495818D01*
X46733589Y-30585993D01*
X46459628Y-30732428D01*
X46219497Y-30929497D01*
X46070000Y-31111661D01*
X45920503Y-30929497D01*
X45680373Y-30732428D01*
X45406412Y-30585993D01*
X45109146Y-30495818D01*
X44800000Y-30465370D01*
X44490855Y-30495818D01*
X44193589Y-30585993D01*
X43919628Y-30732428D01*
X43679497Y-30929497D01*
X43530000Y-31111661D01*
X43380503Y-30929497D01*
X43140373Y-30732428D01*
X42866412Y-30585993D01*
X42569146Y-30495818D01*
X42260000Y-30465370D01*
X41950855Y-30495818D01*
X41653589Y-30585993D01*
X41379628Y-30732428D01*
X41139497Y-30929497D01*
X40990000Y-31111661D01*
X40840503Y-30929497D01*
X40600373Y-30732428D01*
X40326412Y-30585993D01*
X40029146Y-30495818D01*
X39720000Y-30465370D01*
X39410855Y-30495818D01*
X39113589Y-30585993D01*
X38839628Y-30732428D01*
X38599497Y-30929497D01*
X38450000Y-31111661D01*
X38300503Y-30929497D01*
X38060373Y-30732428D01*
X37786412Y-30585993D01*
X37489146Y-30495818D01*
X37180000Y-30465370D01*
X36870855Y-30495818D01*
X36573589Y-30585993D01*
X36299628Y-30732428D01*
X36059497Y-30929497D01*
X35900667Y-31123032D01*
X35782882Y-30970817D01*
X35550384Y-30768588D01*
X35282900Y-30615603D01*
X35248105Y-30594962D01*
X35013000Y-30653713D01*
X35013000Y-31727000D01*
X35033000Y-31727000D01*
X35033000Y-32473000D01*
X35013000Y-32473000D01*
X35013000Y-33546287D01*
X35248105Y-33605038D01*
X35282900Y-33584397D01*
X35550384Y-33431412D01*
X35782882Y-33229183D01*
X35900668Y-33076968D01*
X36059497Y-33270503D01*
X36299627Y-33467572D01*
X36573588Y-33614007D01*
X36870854Y-33704182D01*
X37180000Y-33734630D01*
X37489145Y-33704182D01*
X37786411Y-33614007D01*
X38060372Y-33467572D01*
X38300503Y-33270503D01*
X38450000Y-33088339D01*
X38599497Y-33270503D01*
X38693000Y-33347239D01*
X38693000Y-33469558D01*
X38688032Y-33520000D01*
X38693000Y-33570441D01*
X38693000Y-33570450D01*
X38707860Y-33721326D01*
X38766585Y-33914916D01*
X38861949Y-34093331D01*
X38990288Y-34249712D01*
X39029480Y-34281876D01*
X40038132Y-35290530D01*
X40070288Y-35329712D01*
X40109470Y-35361868D01*
X40109475Y-35361873D01*
X40208100Y-35442812D01*
X40226669Y-35458051D01*
X40405083Y-35553415D01*
X40539947Y-35594326D01*
X40598672Y-35612140D01*
X40616831Y-35613928D01*
X40749549Y-35627000D01*
X40749556Y-35627000D01*
X40800000Y-35631968D01*
X40850443Y-35627000D01*
X50774604Y-35627000D01*
X51073000Y-35925396D01*
X51073000Y-35930698D01*
X51123996Y-36187072D01*
X51224028Y-36428570D01*
X51369252Y-36645913D01*
X51554087Y-36830748D01*
X51771430Y-36975972D01*
X52012928Y-37076004D01*
X52269302Y-37127000D01*
X52530698Y-37127000D01*
X52787072Y-37076004D01*
X53028570Y-36975972D01*
X53245913Y-36830748D01*
X53430748Y-36645913D01*
X53575972Y-36428570D01*
X53676004Y-36187072D01*
X53727000Y-35930698D01*
X53727000Y-35669302D01*
X53676004Y-35412928D01*
X53575972Y-35171430D01*
X53430748Y-34954087D01*
X53245913Y-34769252D01*
X53028570Y-34624028D01*
X52787072Y-34523996D01*
X52530698Y-34473000D01*
X52525396Y-34473000D01*
X51961877Y-33909481D01*
X51929712Y-33870288D01*
X51773331Y-33741949D01*
X51594917Y-33646585D01*
X51401327Y-33587860D01*
X51250451Y-33573000D01*
X51250441Y-33573000D01*
X51200000Y-33568032D01*
X51149559Y-33573000D01*
X50563130Y-33573000D01*
X50760372Y-33467572D01*
X51000503Y-33270503D01*
X51150000Y-33088339D01*
X51299497Y-33270503D01*
X51539627Y-33467572D01*
X51813588Y-33614007D01*
X52110854Y-33704182D01*
X52420000Y-33734630D01*
X52729145Y-33704182D01*
X53026411Y-33614007D01*
X53300372Y-33467572D01*
X53540503Y-33270503D01*
X53690000Y-33088339D01*
X53839497Y-33270503D01*
X54079627Y-33467572D01*
X54353588Y-33614007D01*
X54650854Y-33704182D01*
X54960000Y-33734630D01*
X55269145Y-33704182D01*
X55566411Y-33614007D01*
X55840372Y-33467572D01*
X56080503Y-33270503D01*
X56230000Y-33088339D01*
X56379497Y-33270503D01*
X56619627Y-33467572D01*
X56893588Y-33614007D01*
X57190854Y-33704182D01*
X57500000Y-33734630D01*
X57809145Y-33704182D01*
X58106411Y-33614007D01*
X58380372Y-33467572D01*
X58620503Y-33270503D01*
X58770000Y-33088339D01*
X58919497Y-33270503D01*
X59073000Y-33396479D01*
X59073001Y-40816023D01*
X54316025Y-45573000D01*
X24241193Y-45573000D01*
X24133835Y-45501266D01*
X23928734Y-45416310D01*
X23711000Y-45373000D01*
X23489000Y-45373000D01*
X23271266Y-45416310D01*
X23066165Y-45501266D01*
X22881579Y-45624602D01*
X22724602Y-45781579D01*
X22601266Y-45966165D01*
X22516310Y-46171266D01*
X22473000Y-46389000D01*
X8786293Y-46389000D01*
X8816430Y-46372892D01*
X8957290Y-46257290D01*
X9072892Y-46116430D01*
X9158791Y-45955723D01*
X9197839Y-45827000D01*
X10554473Y-45827000D01*
X10600000Y-45831484D01*
X10645527Y-45827000D01*
X10645538Y-45827000D01*
X10781724Y-45813587D01*
X10956464Y-45760580D01*
X11117505Y-45674501D01*
X11258659Y-45558659D01*
X11287688Y-45523287D01*
X13923292Y-42887684D01*
X13958659Y-42858659D01*
X13987684Y-42823292D01*
X13987688Y-42823288D01*
X14074502Y-42717506D01*
X14160580Y-42556464D01*
X14213587Y-42381724D01*
X14227000Y-42245538D01*
X14227000Y-42245527D01*
X14231484Y-42200000D01*
X14227000Y-42154473D01*
X14227000Y-39872531D01*
X45803000Y-39872531D01*
X45803000Y-40527468D01*
X45825818Y-40759145D01*
X45915993Y-41056411D01*
X46062428Y-41330372D01*
X46259497Y-41570503D01*
X46499627Y-41767572D01*
X46773588Y-41914007D01*
X47070854Y-42004182D01*
X47380000Y-42034630D01*
X47689145Y-42004182D01*
X47986411Y-41914007D01*
X48260372Y-41767572D01*
X48500503Y-41570503D01*
X48650000Y-41388339D01*
X48799497Y-41570503D01*
X49039627Y-41767572D01*
X49313588Y-41914007D01*
X49610854Y-42004182D01*
X49920000Y-42034630D01*
X50229145Y-42004182D01*
X50526411Y-41914007D01*
X50800372Y-41767572D01*
X51040503Y-41570503D01*
X51190000Y-41388339D01*
X51339497Y-41570503D01*
X51579627Y-41767572D01*
X51853588Y-41914007D01*
X52150854Y-42004182D01*
X52460000Y-42034630D01*
X52769145Y-42004182D01*
X53066411Y-41914007D01*
X53340372Y-41767572D01*
X53452532Y-41675526D01*
X53460760Y-41702650D01*
X53509695Y-41794202D01*
X53575552Y-41874448D01*
X53655798Y-41940305D01*
X53747350Y-41989240D01*
X53846690Y-42019375D01*
X53950000Y-42029550D01*
X54595250Y-42027000D01*
X54727000Y-41895250D01*
X54727000Y-40473000D01*
X55273000Y-40473000D01*
X55273000Y-41895250D01*
X55404750Y-42027000D01*
X56050000Y-42029550D01*
X56153310Y-42019375D01*
X56252650Y-41989240D01*
X56344202Y-41940305D01*
X56424448Y-41874448D01*
X56490305Y-41794202D01*
X56539240Y-41702650D01*
X56569375Y-41603310D01*
X56579550Y-41500000D01*
X56577000Y-40604750D01*
X56445250Y-40473000D01*
X55273000Y-40473000D01*
X54727000Y-40473000D01*
X54707000Y-40473000D01*
X54707000Y-39927000D01*
X54727000Y-39927000D01*
X54727000Y-38504750D01*
X55273000Y-38504750D01*
X55273000Y-39927000D01*
X56445250Y-39927000D01*
X56577000Y-39795250D01*
X56579550Y-38900000D01*
X56569375Y-38796690D01*
X56539240Y-38697350D01*
X56490305Y-38605798D01*
X56424448Y-38525552D01*
X56344202Y-38459695D01*
X56252650Y-38410760D01*
X56153310Y-38380625D01*
X56050000Y-38370450D01*
X55404750Y-38373000D01*
X55273000Y-38504750D01*
X54727000Y-38504750D01*
X54595250Y-38373000D01*
X53950000Y-38370450D01*
X53846690Y-38380625D01*
X53747350Y-38410760D01*
X53655798Y-38459695D01*
X53575552Y-38525552D01*
X53509695Y-38605798D01*
X53460760Y-38697350D01*
X53452532Y-38724474D01*
X53340373Y-38632428D01*
X53066412Y-38485993D01*
X52769146Y-38395818D01*
X52460000Y-38365370D01*
X52150855Y-38395818D01*
X51853589Y-38485993D01*
X51579628Y-38632428D01*
X51339497Y-38829497D01*
X51190000Y-39011660D01*
X51040503Y-38829497D01*
X50800373Y-38632428D01*
X50526412Y-38485993D01*
X50229146Y-38395818D01*
X49920000Y-38365370D01*
X49610855Y-38395818D01*
X49313589Y-38485993D01*
X49039628Y-38632428D01*
X48799497Y-38829497D01*
X48650000Y-39011660D01*
X48500503Y-38829497D01*
X48260373Y-38632428D01*
X47986412Y-38485993D01*
X47689146Y-38395818D01*
X47380000Y-38365370D01*
X47070855Y-38395818D01*
X46773589Y-38485993D01*
X46499628Y-38632428D01*
X46259497Y-38829497D01*
X46062428Y-39069627D01*
X45915993Y-39343588D01*
X45825818Y-39640854D01*
X45803000Y-39872531D01*
X14227000Y-39872531D01*
X14227000Y-37727000D01*
X26200000Y-37727000D01*
X26268789Y-37722491D01*
X26424080Y-37702046D01*
X26556964Y-37666440D01*
X26701673Y-37606500D01*
X26820817Y-37537712D01*
X26945081Y-37442361D01*
X27042361Y-37345081D01*
X27137712Y-37220817D01*
X27206500Y-37101673D01*
X27266440Y-36956964D01*
X27302046Y-36824080D01*
X27322491Y-36668789D01*
X27327000Y-36600000D01*
X27327000Y-36299604D01*
X34773000Y-36299604D01*
X34773000Y-36600396D01*
X34831681Y-36895410D01*
X34946790Y-37173306D01*
X35113901Y-37423406D01*
X35326594Y-37636099D01*
X35576694Y-37803210D01*
X35854590Y-37918319D01*
X36149604Y-37977000D01*
X36450396Y-37977000D01*
X36745410Y-37918319D01*
X37023306Y-37803210D01*
X37273406Y-37636099D01*
X37486099Y-37423406D01*
X37653210Y-37173306D01*
X37768319Y-36895410D01*
X37827000Y-36600396D01*
X37827000Y-36299604D01*
X37768319Y-36004590D01*
X37653210Y-35726694D01*
X37486099Y-35476594D01*
X37273406Y-35263901D01*
X37023306Y-35096790D01*
X36745410Y-34981681D01*
X36450396Y-34923000D01*
X36149604Y-34923000D01*
X35854590Y-34981681D01*
X35576694Y-35096790D01*
X35326594Y-35263901D01*
X35113901Y-35476594D01*
X34946790Y-35726694D01*
X34831681Y-36004590D01*
X34773000Y-36299604D01*
X27327000Y-36299604D01*
X27327000Y-31972531D01*
X30523000Y-31972531D01*
X30523000Y-32227468D01*
X30545818Y-32459145D01*
X30635993Y-32756411D01*
X30782428Y-33030372D01*
X30979497Y-33270503D01*
X31219627Y-33467572D01*
X31493588Y-33614007D01*
X31790854Y-33704182D01*
X32100000Y-33734630D01*
X32409145Y-33704182D01*
X32706411Y-33614007D01*
X32980372Y-33467572D01*
X33220503Y-33270503D01*
X33379333Y-33076968D01*
X33497118Y-33229183D01*
X33729616Y-33431412D01*
X33997100Y-33584397D01*
X34031895Y-33605038D01*
X34267000Y-33546287D01*
X34267000Y-32473000D01*
X34247000Y-32473000D01*
X34247000Y-31727000D01*
X34267000Y-31727000D01*
X34267000Y-30653713D01*
X34031895Y-30594962D01*
X33997100Y-30615603D01*
X33729616Y-30768588D01*
X33497118Y-30970817D01*
X33379332Y-31123032D01*
X33220503Y-30929497D01*
X32980373Y-30732428D01*
X32706412Y-30585993D01*
X32409146Y-30495818D01*
X32100000Y-30465370D01*
X31790855Y-30495818D01*
X31493589Y-30585993D01*
X31219628Y-30732428D01*
X30979497Y-30929497D01*
X30782428Y-31169627D01*
X30635993Y-31443588D01*
X30545818Y-31740854D01*
X30523000Y-31972531D01*
X27327000Y-31972531D01*
X27327000Y-26249604D01*
X44833000Y-26249604D01*
X44833000Y-26550396D01*
X44891681Y-26845410D01*
X45006790Y-27123306D01*
X45173901Y-27373406D01*
X45386594Y-27586099D01*
X45636694Y-27753210D01*
X45914590Y-27868319D01*
X46209604Y-27927000D01*
X46510396Y-27927000D01*
X46805410Y-27868319D01*
X47083306Y-27753210D01*
X47333406Y-27586099D01*
X47546099Y-27373406D01*
X47713210Y-27123306D01*
X47828319Y-26845410D01*
X47887000Y-26550396D01*
X47887000Y-26249604D01*
X60073000Y-26249604D01*
X60073000Y-26550396D01*
X60131681Y-26845410D01*
X60246790Y-27123306D01*
X60413901Y-27373406D01*
X60626594Y-27586099D01*
X60876694Y-27753210D01*
X61154590Y-27868319D01*
X61449604Y-27927000D01*
X61750396Y-27927000D01*
X62045410Y-27868319D01*
X62323306Y-27753210D01*
X62573406Y-27586099D01*
X62786099Y-27373406D01*
X62953210Y-27123306D01*
X63068319Y-26845410D01*
X63127000Y-26550396D01*
X63127000Y-26249604D01*
X63068319Y-25954590D01*
X62953210Y-25676694D01*
X62786099Y-25426594D01*
X62573406Y-25213901D01*
X62323306Y-25046790D01*
X62045410Y-24931681D01*
X61750396Y-24873000D01*
X61449604Y-24873000D01*
X61154590Y-24931681D01*
X60876694Y-25046790D01*
X60626594Y-25213901D01*
X60413901Y-25426594D01*
X60246790Y-25676694D01*
X60131681Y-25954590D01*
X60073000Y-26249604D01*
X47887000Y-26249604D01*
X47828319Y-25954590D01*
X47713210Y-25676694D01*
X47546099Y-25426594D01*
X47333406Y-25213901D01*
X47083306Y-25046790D01*
X46805410Y-24931681D01*
X46510396Y-24873000D01*
X46209604Y-24873000D01*
X45914590Y-24931681D01*
X45636694Y-25046790D01*
X45386594Y-25213901D01*
X45173901Y-25426594D01*
X45006790Y-25676694D01*
X44891681Y-25954590D01*
X44833000Y-26249604D01*
X27327000Y-26249604D01*
X27327000Y-20727000D01*
X28800000Y-20727000D01*
X28902813Y-20716874D01*
X29001674Y-20686885D01*
X29092786Y-20638184D01*
X29172645Y-20572645D01*
X29238184Y-20492786D01*
X29286885Y-20401674D01*
X29316874Y-20302813D01*
X29327000Y-20200000D01*
X29327000Y-16315000D01*
X30520451Y-16315000D01*
X30520451Y-17885000D01*
X30536679Y-18049763D01*
X30584738Y-18208195D01*
X30662783Y-18354206D01*
X30767814Y-18482186D01*
X30895794Y-18587217D01*
X31041805Y-18665262D01*
X31200237Y-18713321D01*
X31365000Y-18729549D01*
X32835000Y-18729549D01*
X32999763Y-18713321D01*
X33158195Y-18665262D01*
X33304206Y-18587217D01*
X33432186Y-18482186D01*
X33537217Y-18354206D01*
X33562913Y-18306133D01*
X33759627Y-18467572D01*
X34033588Y-18614007D01*
X34330854Y-18704182D01*
X34640000Y-18734630D01*
X34949145Y-18704182D01*
X35246411Y-18614007D01*
X35520372Y-18467572D01*
X35760503Y-18270503D01*
X35910000Y-18088339D01*
X36059497Y-18270503D01*
X36299627Y-18467572D01*
X36573588Y-18614007D01*
X36870854Y-18704182D01*
X37180000Y-18734630D01*
X37489145Y-18704182D01*
X37786411Y-18614007D01*
X38060372Y-18467572D01*
X38300503Y-18270503D01*
X38459333Y-18076968D01*
X38577118Y-18229183D01*
X38809616Y-18431412D01*
X39077100Y-18584397D01*
X39111895Y-18605038D01*
X39347000Y-18546287D01*
X39347000Y-17473000D01*
X39327000Y-17473000D01*
X39327000Y-16727000D01*
X39347000Y-16727000D01*
X39347000Y-15653713D01*
X40093000Y-15653713D01*
X40093000Y-16727000D01*
X40113000Y-16727000D01*
X40113000Y-17473000D01*
X40093000Y-17473000D01*
X40093000Y-18546287D01*
X40328105Y-18605038D01*
X40362900Y-18584397D01*
X40630384Y-18431412D01*
X40862882Y-18229183D01*
X40980668Y-18076968D01*
X41139497Y-18270503D01*
X41379627Y-18467572D01*
X41653588Y-18614007D01*
X41950854Y-18704182D01*
X42260000Y-18734630D01*
X42569145Y-18704182D01*
X42866411Y-18614007D01*
X43140372Y-18467572D01*
X43380503Y-18270503D01*
X43530000Y-18088339D01*
X43679497Y-18270503D01*
X43919627Y-18467572D01*
X44193588Y-18614007D01*
X44490854Y-18704182D01*
X44800000Y-18734630D01*
X45109145Y-18704182D01*
X45406411Y-18614007D01*
X45680372Y-18467572D01*
X45920503Y-18270503D01*
X46070000Y-18088339D01*
X46219497Y-18270503D01*
X46459627Y-18467572D01*
X46733588Y-18614007D01*
X47030854Y-18704182D01*
X47340000Y-18734630D01*
X47649145Y-18704182D01*
X47946411Y-18614007D01*
X48220372Y-18467572D01*
X48460503Y-18270503D01*
X48610000Y-18088339D01*
X48759497Y-18270503D01*
X48999627Y-18467572D01*
X49273588Y-18614007D01*
X49570854Y-18704182D01*
X49880000Y-18734630D01*
X50189145Y-18704182D01*
X50486411Y-18614007D01*
X50760372Y-18467572D01*
X51000503Y-18270503D01*
X51150000Y-18088339D01*
X51299497Y-18270503D01*
X51539627Y-18467572D01*
X51813588Y-18614007D01*
X52110854Y-18704182D01*
X52420000Y-18734630D01*
X52729145Y-18704182D01*
X53026411Y-18614007D01*
X53300372Y-18467572D01*
X53540503Y-18270503D01*
X53690000Y-18088339D01*
X53839497Y-18270503D01*
X54079627Y-18467572D01*
X54353588Y-18614007D01*
X54650854Y-18704182D01*
X54960000Y-18734630D01*
X55269145Y-18704182D01*
X55566411Y-18614007D01*
X55840372Y-18467572D01*
X56080503Y-18270503D01*
X56230000Y-18088339D01*
X56379497Y-18270503D01*
X56619627Y-18467572D01*
X56893588Y-18614007D01*
X57190854Y-18704182D01*
X57500000Y-18734630D01*
X57809145Y-18704182D01*
X58106411Y-18614007D01*
X58380372Y-18467572D01*
X58620503Y-18270503D01*
X58770000Y-18088339D01*
X58919497Y-18270503D01*
X59159627Y-18467572D01*
X59433588Y-18614007D01*
X59730854Y-18704182D01*
X60040000Y-18734630D01*
X60349145Y-18704182D01*
X60646411Y-18614007D01*
X60920372Y-18467572D01*
X61160503Y-18270503D01*
X61310000Y-18088339D01*
X61459497Y-18270503D01*
X61699627Y-18467572D01*
X61973588Y-18614007D01*
X62270854Y-18704182D01*
X62580000Y-18734630D01*
X62889145Y-18704182D01*
X63186411Y-18614007D01*
X63460372Y-18467572D01*
X63700503Y-18270503D01*
X63850000Y-18088339D01*
X63999497Y-18270503D01*
X64239627Y-18467572D01*
X64513588Y-18614007D01*
X64810854Y-18704182D01*
X65120000Y-18734630D01*
X65429145Y-18704182D01*
X65726411Y-18614007D01*
X66000372Y-18467572D01*
X66240503Y-18270503D01*
X66390000Y-18088339D01*
X66539497Y-18270503D01*
X66779627Y-18467572D01*
X67053588Y-18614007D01*
X67350854Y-18704182D01*
X67660000Y-18734630D01*
X67969145Y-18704182D01*
X68266411Y-18614007D01*
X68540372Y-18467572D01*
X68780503Y-18270503D01*
X68977572Y-18030373D01*
X69124007Y-17756412D01*
X69214182Y-17459146D01*
X69237000Y-17227469D01*
X69237000Y-16972532D01*
X69214182Y-16740855D01*
X69124007Y-16443589D01*
X68977572Y-16169628D01*
X68780503Y-15929497D01*
X68540373Y-15732428D01*
X68266412Y-15585993D01*
X67969146Y-15495818D01*
X67660000Y-15465370D01*
X67350855Y-15495818D01*
X67053589Y-15585993D01*
X66779628Y-15732428D01*
X66539497Y-15929497D01*
X66390000Y-16111661D01*
X66240503Y-15929497D01*
X66000373Y-15732428D01*
X65726412Y-15585993D01*
X65429146Y-15495818D01*
X65120000Y-15465370D01*
X64810855Y-15495818D01*
X64513589Y-15585993D01*
X64239628Y-15732428D01*
X63999497Y-15929497D01*
X63850000Y-16111661D01*
X63700503Y-15929497D01*
X63460373Y-15732428D01*
X63186412Y-15585993D01*
X62889146Y-15495818D01*
X62580000Y-15465370D01*
X62270855Y-15495818D01*
X61973589Y-15585993D01*
X61699628Y-15732428D01*
X61459497Y-15929497D01*
X61310000Y-16111661D01*
X61160503Y-15929497D01*
X60920373Y-15732428D01*
X60646412Y-15585993D01*
X60349146Y-15495818D01*
X60040000Y-15465370D01*
X59730855Y-15495818D01*
X59433589Y-15585993D01*
X59159628Y-15732428D01*
X58919497Y-15929497D01*
X58770000Y-16111661D01*
X58620503Y-15929497D01*
X58380373Y-15732428D01*
X58106412Y-15585993D01*
X57809146Y-15495818D01*
X57500000Y-15465370D01*
X57190855Y-15495818D01*
X56893589Y-15585993D01*
X56619628Y-15732428D01*
X56379497Y-15929497D01*
X56230000Y-16111661D01*
X56080503Y-15929497D01*
X55840373Y-15732428D01*
X55566412Y-15585993D01*
X55269146Y-15495818D01*
X54960000Y-15465370D01*
X54650855Y-15495818D01*
X54353589Y-15585993D01*
X54079628Y-15732428D01*
X53839497Y-15929497D01*
X53690000Y-16111661D01*
X53540503Y-15929497D01*
X53300373Y-15732428D01*
X53026412Y-15585993D01*
X52729146Y-15495818D01*
X52420000Y-15465370D01*
X52110855Y-15495818D01*
X51813589Y-15585993D01*
X51539628Y-15732428D01*
X51299497Y-15929497D01*
X51150000Y-16111661D01*
X51000503Y-15929497D01*
X50760373Y-15732428D01*
X50486412Y-15585993D01*
X50189146Y-15495818D01*
X49880000Y-15465370D01*
X49570855Y-15495818D01*
X49273589Y-15585993D01*
X48999628Y-15732428D01*
X48759497Y-15929497D01*
X48610000Y-16111661D01*
X48460503Y-15929497D01*
X48220373Y-15732428D01*
X47946412Y-15585993D01*
X47649146Y-15495818D01*
X47340000Y-15465370D01*
X47030855Y-15495818D01*
X46733589Y-15585993D01*
X46459628Y-15732428D01*
X46219497Y-15929497D01*
X46070000Y-16111661D01*
X45920503Y-15929497D01*
X45680373Y-15732428D01*
X45406412Y-15585993D01*
X45109146Y-15495818D01*
X44800000Y-15465370D01*
X44490855Y-15495818D01*
X44193589Y-15585993D01*
X43919628Y-15732428D01*
X43679497Y-15929497D01*
X43530000Y-16111661D01*
X43380503Y-15929497D01*
X43140373Y-15732428D01*
X42866412Y-15585993D01*
X42569146Y-15495818D01*
X42260000Y-15465370D01*
X41950855Y-15495818D01*
X41653589Y-15585993D01*
X41379628Y-15732428D01*
X41139497Y-15929497D01*
X40980667Y-16123032D01*
X40862882Y-15970817D01*
X40630384Y-15768588D01*
X40362900Y-15615603D01*
X40328105Y-15594962D01*
X40093000Y-15653713D01*
X39347000Y-15653713D01*
X39111895Y-15594962D01*
X39077100Y-15615603D01*
X38809616Y-15768588D01*
X38577118Y-15970817D01*
X38459332Y-16123032D01*
X38300503Y-15929497D01*
X38060373Y-15732428D01*
X37786412Y-15585993D01*
X37489146Y-15495818D01*
X37180000Y-15465370D01*
X36870855Y-15495818D01*
X36573589Y-15585993D01*
X36299628Y-15732428D01*
X36059497Y-15929497D01*
X35910000Y-16111661D01*
X35760503Y-15929497D01*
X35520373Y-15732428D01*
X35246412Y-15585993D01*
X34949146Y-15495818D01*
X34640000Y-15465370D01*
X34330855Y-15495818D01*
X34033589Y-15585993D01*
X33759628Y-15732428D01*
X33562913Y-15893867D01*
X33537217Y-15845794D01*
X33432186Y-15717814D01*
X33304206Y-15612783D01*
X33158195Y-15534738D01*
X32999763Y-15486679D01*
X32835000Y-15470451D01*
X31365000Y-15470451D01*
X31200237Y-15486679D01*
X31041805Y-15534738D01*
X30895794Y-15612783D01*
X30767814Y-15717814D01*
X30662783Y-15845794D01*
X30584738Y-15991805D01*
X30536679Y-16150237D01*
X30520451Y-16315000D01*
X29327000Y-16315000D01*
X29327000Y-5977010D01*
X32766035Y-5977010D01*
X36873000Y-10083976D01*
X36873000Y-10330698D01*
X36923996Y-10587072D01*
X37024028Y-10828570D01*
X37169252Y-11045913D01*
X37354087Y-11230748D01*
X37571430Y-11375972D01*
X37812928Y-11476004D01*
X38069302Y-11527000D01*
X38330698Y-11527000D01*
X38587072Y-11476004D01*
X38828570Y-11375972D01*
X39045913Y-11230748D01*
X39230748Y-11045913D01*
X39375972Y-10828570D01*
X39476004Y-10587072D01*
X39527000Y-10330698D01*
X39527000Y-10069302D01*
X39476004Y-9812928D01*
X39375972Y-9571430D01*
X39325572Y-9496000D01*
X40070451Y-9496000D01*
X40070451Y-10904000D01*
X40088235Y-11084566D01*
X40140904Y-11258192D01*
X40226434Y-11418207D01*
X40341538Y-11558462D01*
X40481793Y-11673566D01*
X40641808Y-11759096D01*
X40815434Y-11811765D01*
X40996000Y-11829549D01*
X42404000Y-11829549D01*
X42584566Y-11811765D01*
X42758192Y-11759096D01*
X42918207Y-11673566D01*
X43058462Y-11558462D01*
X43173566Y-11418207D01*
X43259096Y-11258192D01*
X43311765Y-11084566D01*
X43329549Y-10904000D01*
X43329549Y-10039755D01*
X44273000Y-10039755D01*
X44273000Y-10360245D01*
X44335525Y-10674578D01*
X44458172Y-10970673D01*
X44636227Y-11237152D01*
X44862848Y-11463773D01*
X45129327Y-11641828D01*
X45425422Y-11764475D01*
X45739755Y-11827000D01*
X46060245Y-11827000D01*
X46374578Y-11764475D01*
X46670673Y-11641828D01*
X46937152Y-11463773D01*
X47163773Y-11237152D01*
X47341828Y-10970673D01*
X47464475Y-10674578D01*
X47527000Y-10360245D01*
X47527000Y-10039755D01*
X47464475Y-9725422D01*
X47341828Y-9429327D01*
X47163773Y-9162848D01*
X46937152Y-8936227D01*
X46670673Y-8758172D01*
X46463919Y-8672531D01*
X53303000Y-8672531D01*
X53303000Y-8927468D01*
X53325818Y-9159145D01*
X53415993Y-9456411D01*
X53562428Y-9730372D01*
X53759497Y-9970503D01*
X53999627Y-10167572D01*
X54273588Y-10314007D01*
X54570854Y-10404182D01*
X54880000Y-10434630D01*
X55189145Y-10404182D01*
X55486411Y-10314007D01*
X55760372Y-10167572D01*
X56000503Y-9970503D01*
X56150000Y-9788339D01*
X56299497Y-9970503D01*
X56539627Y-10167572D01*
X56813588Y-10314007D01*
X57110854Y-10404182D01*
X57420000Y-10434630D01*
X57729145Y-10404182D01*
X58026411Y-10314007D01*
X58300372Y-10167572D01*
X58540503Y-9970503D01*
X58690000Y-9788339D01*
X58839497Y-9970503D01*
X59079627Y-10167572D01*
X59353588Y-10314007D01*
X59650854Y-10404182D01*
X59960000Y-10434630D01*
X60269145Y-10404182D01*
X60566411Y-10314007D01*
X60840372Y-10167572D01*
X60952532Y-10075526D01*
X60960760Y-10102650D01*
X61009695Y-10194202D01*
X61075552Y-10274448D01*
X61155798Y-10340305D01*
X61247350Y-10389240D01*
X61346690Y-10419375D01*
X61450000Y-10429550D01*
X62195250Y-10427000D01*
X62327000Y-10295250D01*
X62327000Y-8973000D01*
X62673000Y-8973000D01*
X62673000Y-10295250D01*
X62804750Y-10427000D01*
X63550000Y-10429550D01*
X63653310Y-10419375D01*
X63752650Y-10389240D01*
X63844202Y-10340305D01*
X63924448Y-10274448D01*
X63990305Y-10194202D01*
X64039240Y-10102650D01*
X64069375Y-10003310D01*
X64079550Y-9900000D01*
X64077000Y-9104750D01*
X63945250Y-8973000D01*
X62673000Y-8973000D01*
X62327000Y-8973000D01*
X62307000Y-8973000D01*
X62307000Y-8627000D01*
X62327000Y-8627000D01*
X62327000Y-7304750D01*
X62673000Y-7304750D01*
X62673000Y-8627000D01*
X63945250Y-8627000D01*
X64077000Y-8495250D01*
X64079550Y-7700000D01*
X64069375Y-7596690D01*
X64039240Y-7497350D01*
X63990305Y-7405798D01*
X63924448Y-7325552D01*
X63844202Y-7259695D01*
X63752650Y-7210760D01*
X63653310Y-7180625D01*
X63550000Y-7170450D01*
X62804750Y-7173000D01*
X62673000Y-7304750D01*
X62327000Y-7304750D01*
X62195250Y-7173000D01*
X61450000Y-7170450D01*
X61346690Y-7180625D01*
X61247350Y-7210760D01*
X61155798Y-7259695D01*
X61075552Y-7325552D01*
X61009695Y-7405798D01*
X60960760Y-7497350D01*
X60952532Y-7524474D01*
X60840373Y-7432428D01*
X60566412Y-7285993D01*
X60269146Y-7195818D01*
X59960000Y-7165370D01*
X59650855Y-7195818D01*
X59353589Y-7285993D01*
X59079628Y-7432428D01*
X58839497Y-7629497D01*
X58690000Y-7811661D01*
X58540503Y-7629497D01*
X58300373Y-7432428D01*
X58026412Y-7285993D01*
X57729146Y-7195818D01*
X57420000Y-7165370D01*
X57110855Y-7195818D01*
X56813589Y-7285993D01*
X56539628Y-7432428D01*
X56299497Y-7629497D01*
X56150000Y-7811661D01*
X56000503Y-7629497D01*
X55760373Y-7432428D01*
X55486412Y-7285993D01*
X55189146Y-7195818D01*
X54880000Y-7165370D01*
X54570855Y-7195818D01*
X54273589Y-7285993D01*
X53999628Y-7432428D01*
X53759497Y-7629497D01*
X53562428Y-7869627D01*
X53415993Y-8143588D01*
X53325818Y-8440854D01*
X53303000Y-8672531D01*
X46463919Y-8672531D01*
X46374578Y-8635525D01*
X46060245Y-8573000D01*
X45739755Y-8573000D01*
X45425422Y-8635525D01*
X45129327Y-8758172D01*
X44862848Y-8936227D01*
X44636227Y-9162848D01*
X44458172Y-9429327D01*
X44335525Y-9725422D01*
X44273000Y-10039755D01*
X43329549Y-10039755D01*
X43329549Y-9496000D01*
X43311765Y-9315434D01*
X43259096Y-9141808D01*
X43173566Y-8981793D01*
X43058462Y-8841538D01*
X42918207Y-8726434D01*
X42758192Y-8640904D01*
X42584566Y-8588235D01*
X42404000Y-8570451D01*
X40996000Y-8570451D01*
X40815434Y-8588235D01*
X40641808Y-8640904D01*
X40481793Y-8726434D01*
X40341538Y-8841538D01*
X40226434Y-8981793D01*
X40140904Y-9141808D01*
X40088235Y-9315434D01*
X40070451Y-9496000D01*
X39325572Y-9496000D01*
X39230748Y-9354087D01*
X39045913Y-9169252D01*
X38828570Y-9024028D01*
X38587072Y-8923996D01*
X38330698Y-8873000D01*
X38283976Y-8873000D01*
X36160580Y-6749604D01*
X67473000Y-6749604D01*
X67473000Y-7050396D01*
X67531681Y-7345410D01*
X67646790Y-7623306D01*
X67813901Y-7873406D01*
X68026594Y-8086099D01*
X68276694Y-8253210D01*
X68554590Y-8368319D01*
X68849604Y-8427000D01*
X69150396Y-8427000D01*
X69445410Y-8368319D01*
X69723306Y-8253210D01*
X69973406Y-8086099D01*
X70186099Y-7873406D01*
X70353210Y-7623306D01*
X70468319Y-7345410D01*
X70527000Y-7050396D01*
X70527000Y-6749604D01*
X70468319Y-6454590D01*
X70353210Y-6176694D01*
X70186099Y-5926594D01*
X69973406Y-5713901D01*
X69723306Y-5546790D01*
X69445410Y-5431681D01*
X69150396Y-5373000D01*
X68849604Y-5373000D01*
X68554590Y-5431681D01*
X68276694Y-5546790D01*
X68026594Y-5713901D01*
X67813901Y-5926594D01*
X67646790Y-6176694D01*
X67531681Y-6454590D01*
X67473000Y-6749604D01*
X36160580Y-6749604D01*
X34212975Y-4802000D01*
X71398000Y-4802000D01*
X71398001Y-53998000D01*
G37*
G04 #@! TD.AperFunction*
G04 #@! TD*
D25*
G04 #@! TO.N,/heaterPower*
X21716025Y-5473000D02*
X21569302Y-5473000D01*
X21312928Y-5523996D01*
X21071430Y-5624028D01*
X20854087Y-5769252D01*
X20669252Y-5954087D01*
X20524028Y-6171430D01*
X20423996Y-6412928D01*
X20373000Y-6669302D01*
X20373000Y-6930698D01*
X20423996Y-7187072D01*
X20515735Y-7408549D01*
X20423306Y-7346790D01*
X20145410Y-7231681D01*
X19850396Y-7173000D01*
X19549604Y-7173000D01*
X19254590Y-7231681D01*
X18976694Y-7346790D01*
X18726594Y-7513901D01*
X18513901Y-7726594D01*
X18346790Y-7976694D01*
X18231681Y-8254590D01*
X18173000Y-8549604D01*
X18173000Y-8850396D01*
X18231681Y-9145410D01*
X18346790Y-9423306D01*
X18513901Y-9673406D01*
X18726594Y-9886099D01*
X18976694Y-10053210D01*
X19254590Y-10168319D01*
X19549604Y-10227000D01*
X19850396Y-10227000D01*
X20145410Y-10168319D01*
X20423306Y-10053210D01*
X20673406Y-9886099D01*
X20886099Y-9673406D01*
X21053210Y-9423306D01*
X21168319Y-9145410D01*
X21227000Y-8850396D01*
X21227000Y-8549604D01*
X21168319Y-8254590D01*
X21053210Y-7976694D01*
X21037643Y-7953396D01*
X21071430Y-7975972D01*
X21312928Y-8076004D01*
X21569302Y-8127000D01*
X21830698Y-8127000D01*
X22087072Y-8076004D01*
X22328570Y-7975972D01*
X22545913Y-7830748D01*
X22730748Y-7645913D01*
X22875972Y-7428570D01*
X22976004Y-7187072D01*
X23027000Y-6930698D01*
X23027000Y-6783975D01*
X23833966Y-5977010D01*
X26673000Y-5977010D01*
X26673000Y-20073000D01*
X26468981Y-20073000D01*
X26443100Y-20070451D01*
X23756900Y-20070451D01*
X23593717Y-20086523D01*
X23436805Y-20134122D01*
X23292194Y-20211418D01*
X23165441Y-20315441D01*
X23061418Y-20442194D01*
X22984122Y-20586805D01*
X22936523Y-20743717D01*
X22920451Y-20906900D01*
X22920451Y-24293100D01*
X22936523Y-24456283D01*
X22984122Y-24613195D01*
X23061418Y-24757806D01*
X23165441Y-24884559D01*
X23292194Y-24988582D01*
X23436805Y-25065878D01*
X23593717Y-25113477D01*
X23756900Y-25129549D01*
X26443100Y-25129549D01*
X26468981Y-25127000D01*
X26673000Y-25127000D01*
X26673000Y-36591679D01*
X26655825Y-36722136D01*
X26608681Y-36835951D01*
X26533686Y-36933686D01*
X26435951Y-37008681D01*
X26322136Y-37055825D01*
X26191679Y-37073000D01*
X14694758Y-37073000D01*
X14768319Y-36895410D01*
X14827000Y-36600396D01*
X14827000Y-36299604D01*
X14768319Y-36004590D01*
X14653210Y-35726694D01*
X14486099Y-35476594D01*
X14273406Y-35263901D01*
X14023306Y-35096790D01*
X13745410Y-34981681D01*
X13450396Y-34923000D01*
X13149604Y-34923000D01*
X12854590Y-34981681D01*
X12576694Y-35096790D01*
X12326594Y-35263901D01*
X12113901Y-35476594D01*
X11946790Y-35726694D01*
X11831681Y-36004590D01*
X11773000Y-36299604D01*
X11773000Y-36600396D01*
X11831681Y-36895410D01*
X11905242Y-37073000D01*
X8793034Y-37073000D01*
X9003241Y-36960642D01*
X9342346Y-36682346D01*
X9620642Y-36343241D01*
X9827435Y-35956358D01*
X9954777Y-35536567D01*
X9987000Y-35209400D01*
X9987000Y-34390599D01*
X9954777Y-34063432D01*
X9827435Y-33643641D01*
X9620642Y-33256759D01*
X9342346Y-32917654D01*
X9003241Y-32639358D01*
X8616358Y-32432565D01*
X8462577Y-32385916D01*
X7875541Y-31798880D01*
X7887353Y-31781202D01*
X7979847Y-31557903D01*
X8027000Y-31320849D01*
X8027000Y-31079151D01*
X7979847Y-30842097D01*
X7887353Y-30618798D01*
X7753073Y-30417833D01*
X7582167Y-30246927D01*
X7381202Y-30112647D01*
X7327000Y-30090196D01*
X7327000Y-26234816D01*
X7307799Y-26039863D01*
X7231919Y-25789722D01*
X7108698Y-25559192D01*
X6942870Y-25357130D01*
X6740808Y-25191302D01*
X6510278Y-25068081D01*
X6260137Y-24992201D01*
X6127000Y-24979088D01*
X6127000Y-5008321D01*
X6144175Y-4877864D01*
X6175599Y-4802000D01*
X22387024Y-4802000D01*
X21716025Y-5473000D01*
G04 #@! TA.AperFunction,Conductor*
D26*
G36*
X21716025Y-5473000D02*
G01*
X21569302Y-5473000D01*
X21312928Y-5523996D01*
X21071430Y-5624028D01*
X20854087Y-5769252D01*
X20669252Y-5954087D01*
X20524028Y-6171430D01*
X20423996Y-6412928D01*
X20373000Y-6669302D01*
X20373000Y-6930698D01*
X20423996Y-7187072D01*
X20515735Y-7408549D01*
X20423306Y-7346790D01*
X20145410Y-7231681D01*
X19850396Y-7173000D01*
X19549604Y-7173000D01*
X19254590Y-7231681D01*
X18976694Y-7346790D01*
X18726594Y-7513901D01*
X18513901Y-7726594D01*
X18346790Y-7976694D01*
X18231681Y-8254590D01*
X18173000Y-8549604D01*
X18173000Y-8850396D01*
X18231681Y-9145410D01*
X18346790Y-9423306D01*
X18513901Y-9673406D01*
X18726594Y-9886099D01*
X18976694Y-10053210D01*
X19254590Y-10168319D01*
X19549604Y-10227000D01*
X19850396Y-10227000D01*
X20145410Y-10168319D01*
X20423306Y-10053210D01*
X20673406Y-9886099D01*
X20886099Y-9673406D01*
X21053210Y-9423306D01*
X21168319Y-9145410D01*
X21227000Y-8850396D01*
X21227000Y-8549604D01*
X21168319Y-8254590D01*
X21053210Y-7976694D01*
X21037643Y-7953396D01*
X21071430Y-7975972D01*
X21312928Y-8076004D01*
X21569302Y-8127000D01*
X21830698Y-8127000D01*
X22087072Y-8076004D01*
X22328570Y-7975972D01*
X22545913Y-7830748D01*
X22730748Y-7645913D01*
X22875972Y-7428570D01*
X22976004Y-7187072D01*
X23027000Y-6930698D01*
X23027000Y-6783975D01*
X23833966Y-5977010D01*
X26673000Y-5977010D01*
X26673000Y-20073000D01*
X26468981Y-20073000D01*
X26443100Y-20070451D01*
X23756900Y-20070451D01*
X23593717Y-20086523D01*
X23436805Y-20134122D01*
X23292194Y-20211418D01*
X23165441Y-20315441D01*
X23061418Y-20442194D01*
X22984122Y-20586805D01*
X22936523Y-20743717D01*
X22920451Y-20906900D01*
X22920451Y-24293100D01*
X22936523Y-24456283D01*
X22984122Y-24613195D01*
X23061418Y-24757806D01*
X23165441Y-24884559D01*
X23292194Y-24988582D01*
X23436805Y-25065878D01*
X23593717Y-25113477D01*
X23756900Y-25129549D01*
X26443100Y-25129549D01*
X26468981Y-25127000D01*
X26673000Y-25127000D01*
X26673000Y-36591679D01*
X26655825Y-36722136D01*
X26608681Y-36835951D01*
X26533686Y-36933686D01*
X26435951Y-37008681D01*
X26322136Y-37055825D01*
X26191679Y-37073000D01*
X14694758Y-37073000D01*
X14768319Y-36895410D01*
X14827000Y-36600396D01*
X14827000Y-36299604D01*
X14768319Y-36004590D01*
X14653210Y-35726694D01*
X14486099Y-35476594D01*
X14273406Y-35263901D01*
X14023306Y-35096790D01*
X13745410Y-34981681D01*
X13450396Y-34923000D01*
X13149604Y-34923000D01*
X12854590Y-34981681D01*
X12576694Y-35096790D01*
X12326594Y-35263901D01*
X12113901Y-35476594D01*
X11946790Y-35726694D01*
X11831681Y-36004590D01*
X11773000Y-36299604D01*
X11773000Y-36600396D01*
X11831681Y-36895410D01*
X11905242Y-37073000D01*
X8793034Y-37073000D01*
X9003241Y-36960642D01*
X9342346Y-36682346D01*
X9620642Y-36343241D01*
X9827435Y-35956358D01*
X9954777Y-35536567D01*
X9987000Y-35209400D01*
X9987000Y-34390599D01*
X9954777Y-34063432D01*
X9827435Y-33643641D01*
X9620642Y-33256759D01*
X9342346Y-32917654D01*
X9003241Y-32639358D01*
X8616358Y-32432565D01*
X8462577Y-32385916D01*
X7875541Y-31798880D01*
X7887353Y-31781202D01*
X7979847Y-31557903D01*
X8027000Y-31320849D01*
X8027000Y-31079151D01*
X7979847Y-30842097D01*
X7887353Y-30618798D01*
X7753073Y-30417833D01*
X7582167Y-30246927D01*
X7381202Y-30112647D01*
X7327000Y-30090196D01*
X7327000Y-26234816D01*
X7307799Y-26039863D01*
X7231919Y-25789722D01*
X7108698Y-25559192D01*
X6942870Y-25357130D01*
X6740808Y-25191302D01*
X6510278Y-25068081D01*
X6260137Y-24992201D01*
X6127000Y-24979088D01*
X6127000Y-5008321D01*
X6144175Y-4877864D01*
X6175599Y-4802000D01*
X22387024Y-4802000D01*
X21716025Y-5473000D01*
G37*
G04 #@! TD.AperFunction*
G04 #@! TD*
D25*
G04 #@! TO.N,/heaterPower*
X6873000Y-25299789D02*
X6740808Y-25191302D01*
X6510278Y-25068081D01*
X6260137Y-24992201D01*
X6000000Y-24966580D01*
X5739864Y-24992201D01*
X5489723Y-25068081D01*
X5259193Y-25191302D01*
X5057131Y-25357130D01*
X4891303Y-25559192D01*
X4768082Y-25789722D01*
X4692202Y-26039863D01*
X4673001Y-26234816D01*
X4673000Y-31734826D01*
X4666581Y-31800000D01*
X4673000Y-31865174D01*
X4673000Y-31865183D01*
X4692201Y-32060136D01*
X4756000Y-32270451D01*
X2456900Y-32270451D01*
X2431019Y-32273000D01*
X802000Y-32273000D01*
X802000Y-6749604D01*
X1673000Y-6749604D01*
X1673000Y-7050396D01*
X1731681Y-7345410D01*
X1846790Y-7623306D01*
X2013901Y-7873406D01*
X2226594Y-8086099D01*
X2476694Y-8253210D01*
X2754590Y-8368319D01*
X3049604Y-8427000D01*
X3350396Y-8427000D01*
X3645410Y-8368319D01*
X3923306Y-8253210D01*
X4173406Y-8086099D01*
X4386099Y-7873406D01*
X4553210Y-7623306D01*
X4668319Y-7345410D01*
X4727000Y-7050396D01*
X4727000Y-6749604D01*
X4668319Y-6454590D01*
X4553210Y-6176694D01*
X4386099Y-5926594D01*
X4173406Y-5713901D01*
X3923306Y-5546790D01*
X3645410Y-5431681D01*
X3350396Y-5373000D01*
X3049604Y-5373000D01*
X2754590Y-5431681D01*
X2476694Y-5546790D01*
X2226594Y-5713901D01*
X2013901Y-5926594D01*
X1846790Y-6176694D01*
X1731681Y-6454590D01*
X1673000Y-6749604D01*
X802000Y-6749604D01*
X802000Y-4802000D01*
X6873000Y-4802000D01*
X6873000Y-25299789D01*
G04 #@! TA.AperFunction,Conductor*
D26*
G36*
X6873000Y-25299789D02*
G01*
X6740808Y-25191302D01*
X6510278Y-25068081D01*
X6260137Y-24992201D01*
X6000000Y-24966580D01*
X5739864Y-24992201D01*
X5489723Y-25068081D01*
X5259193Y-25191302D01*
X5057131Y-25357130D01*
X4891303Y-25559192D01*
X4768082Y-25789722D01*
X4692202Y-26039863D01*
X4673001Y-26234816D01*
X4673000Y-31734826D01*
X4666581Y-31800000D01*
X4673000Y-31865174D01*
X4673000Y-31865183D01*
X4692201Y-32060136D01*
X4756000Y-32270451D01*
X2456900Y-32270451D01*
X2431019Y-32273000D01*
X802000Y-32273000D01*
X802000Y-6749604D01*
X1673000Y-6749604D01*
X1673000Y-7050396D01*
X1731681Y-7345410D01*
X1846790Y-7623306D01*
X2013901Y-7873406D01*
X2226594Y-8086099D01*
X2476694Y-8253210D01*
X2754590Y-8368319D01*
X3049604Y-8427000D01*
X3350396Y-8427000D01*
X3645410Y-8368319D01*
X3923306Y-8253210D01*
X4173406Y-8086099D01*
X4386099Y-7873406D01*
X4553210Y-7623306D01*
X4668319Y-7345410D01*
X4727000Y-7050396D01*
X4727000Y-6749604D01*
X4668319Y-6454590D01*
X4553210Y-6176694D01*
X4386099Y-5926594D01*
X4173406Y-5713901D01*
X3923306Y-5546790D01*
X3645410Y-5431681D01*
X3350396Y-5373000D01*
X3049604Y-5373000D01*
X2754590Y-5431681D01*
X2476694Y-5546790D01*
X2226594Y-5713901D01*
X2013901Y-5926594D01*
X1846790Y-6176694D01*
X1731681Y-6454590D01*
X1673000Y-6749604D01*
X802000Y-6749604D01*
X802000Y-4802000D01*
X6873000Y-4802000D01*
X6873000Y-25299789D01*
G37*
G04 #@! TD.AperFunction*
G04 #@! TD*
D25*
G04 #@! TO.N,/heaterPower*
X28673000Y-20073000D02*
X26468981Y-20073000D01*
X26443100Y-20070451D01*
X26127000Y-20070451D01*
X26127000Y-5977010D01*
X28673000Y-5977010D01*
X28673000Y-20073000D01*
G04 #@! TA.AperFunction,Conductor*
D26*
G36*
X28673000Y-20073000D02*
G01*
X26468981Y-20073000D01*
X26443100Y-20070451D01*
X26127000Y-20070451D01*
X26127000Y-5977010D01*
X28673000Y-5977010D01*
X28673000Y-20073000D01*
G37*
G04 #@! TD.AperFunction*
G04 #@! TD*
M02*
