G04 #@! TF.GenerationSoftware,KiCad,Pcbnew,(5.1.10)-1*
G04 #@! TF.CreationDate,2021-11-25T14:37:56-05:00*
G04 #@! TF.ProjectId,pid_smt_oven,7069645f-736d-4745-9f6f-76656e2e6b69,rev?*
G04 #@! TF.SameCoordinates,Original*
G04 #@! TF.FileFunction,Soldermask,Top*
G04 #@! TF.FilePolarity,Negative*
%FSLAX46Y46*%
G04 Gerber Fmt 4.6, Leading zero omitted, Abs format (unit mm)*
G04 Created by KiCad (PCBNEW (5.1.10)-1) date 2021-11-25 14:37:56*
%MOMM*%
%LPD*%
G01*
G04 APERTURE LIST*
%ADD10O,2.200000X2.300000*%
%ADD11O,2.200000X2.700000*%
%ADD12O,2.300000X2.300000*%
%ADD13O,2.100000X2.100000*%
%ADD14C,2.100000*%
%ADD15C,2.300000*%
%ADD16O,3.500000X4.100000*%
G04 APERTURE END LIST*
D10*
G04 #@! TO.C,a2*
X67660000Y-32100000D03*
X67660000Y-17100000D03*
X32100000Y-32100000D03*
X65120000Y-17100000D03*
X34640000Y-32100000D03*
X62580000Y-17100000D03*
X37180000Y-32100000D03*
X60040000Y-17100000D03*
X39720000Y-32100000D03*
X57500000Y-17100000D03*
X42260000Y-32100000D03*
X54960000Y-17100000D03*
X44800000Y-32100000D03*
X52420000Y-17100000D03*
X47340000Y-32100000D03*
X49880000Y-17100000D03*
X49880000Y-32100000D03*
X47340000Y-17100000D03*
X52420000Y-32100000D03*
X44800000Y-17100000D03*
X54960000Y-32100000D03*
X42260000Y-17100000D03*
X57500000Y-32100000D03*
X39720000Y-17100000D03*
X60040000Y-32100000D03*
X37180000Y-17100000D03*
X62580000Y-32100000D03*
X34640000Y-17100000D03*
X65120000Y-32100000D03*
G36*
G01*
X31330000Y-15950000D02*
X32870000Y-15950000D01*
G75*
G02*
X33200000Y-16280000I0J-330000D01*
G01*
X33200000Y-17920000D01*
G75*
G02*
X32870000Y-18250000I-330000J0D01*
G01*
X31330000Y-18250000D01*
G75*
G02*
X31000000Y-17920000I0J330000D01*
G01*
X31000000Y-16280000D01*
G75*
G02*
X31330000Y-15950000I330000J0D01*
G01*
G37*
G04 #@! TD*
G04 #@! TO.C,C8*
G36*
G01*
X12175000Y-39419325D02*
X12175000Y-40780675D01*
G75*
G02*
X11905675Y-41050000I-269325J0D01*
G01*
X11019325Y-41050000D01*
G75*
G02*
X10750000Y-40780675I0J269325D01*
G01*
X10750000Y-39419325D01*
G75*
G02*
X11019325Y-39150000I269325J0D01*
G01*
X11905675Y-39150000D01*
G75*
G02*
X12175000Y-39419325I0J-269325D01*
G01*
G37*
G36*
G01*
X9050000Y-39419325D02*
X9050000Y-40780675D01*
G75*
G02*
X8780675Y-41050000I-269325J0D01*
G01*
X7894325Y-41050000D01*
G75*
G02*
X7625000Y-40780675I0J269325D01*
G01*
X7625000Y-39419325D01*
G75*
G02*
X7894325Y-39150000I269325J0D01*
G01*
X8780675Y-39150000D01*
G75*
G02*
X9050000Y-39419325I0J-269325D01*
G01*
G37*
G04 #@! TD*
G04 #@! TO.C,R10*
G36*
G01*
X50219325Y-45475000D02*
X51580675Y-45475000D01*
G75*
G02*
X51850000Y-45744325I0J-269325D01*
G01*
X51850000Y-46630675D01*
G75*
G02*
X51580675Y-46900000I-269325J0D01*
G01*
X50219325Y-46900000D01*
G75*
G02*
X49950000Y-46630675I0J269325D01*
G01*
X49950000Y-45744325D01*
G75*
G02*
X50219325Y-45475000I269325J0D01*
G01*
G37*
G36*
G01*
X50219325Y-48600000D02*
X51580675Y-48600000D01*
G75*
G02*
X51850000Y-48869325I0J-269325D01*
G01*
X51850000Y-49755675D01*
G75*
G02*
X51580675Y-50025000I-269325J0D01*
G01*
X50219325Y-50025000D01*
G75*
G02*
X49950000Y-49755675I0J269325D01*
G01*
X49950000Y-48869325D01*
G75*
G02*
X50219325Y-48600000I269325J0D01*
G01*
G37*
G04 #@! TD*
G04 #@! TO.C,C17*
G36*
G01*
X57950000Y-38828100D02*
X57950000Y-35571900D01*
G75*
G02*
X58271900Y-35250000I321900J0D01*
G01*
X60528100Y-35250000D01*
G75*
G02*
X60850000Y-35571900I0J-321900D01*
G01*
X60850000Y-38828100D01*
G75*
G02*
X60528100Y-39150000I-321900J0D01*
G01*
X58271900Y-39150000D01*
G75*
G02*
X57950000Y-38828100I0J321900D01*
G01*
G37*
G36*
G01*
X64450000Y-38828100D02*
X64450000Y-35571900D01*
G75*
G02*
X64771900Y-35250000I321900J0D01*
G01*
X67028100Y-35250000D01*
G75*
G02*
X67350000Y-35571900I0J-321900D01*
G01*
X67350000Y-38828100D01*
G75*
G02*
X67028100Y-39150000I-321900J0D01*
G01*
X64771900Y-39150000D01*
G75*
G02*
X64450000Y-38828100I0J321900D01*
G01*
G37*
G04 #@! TD*
G04 #@! TO.C,R15*
G36*
G01*
X58010000Y-21779600D02*
X58010000Y-20620400D01*
G75*
G02*
X58280400Y-20350000I270400J0D01*
G01*
X59039600Y-20350000D01*
G75*
G02*
X59310000Y-20620400I0J-270400D01*
G01*
X59310000Y-21779600D01*
G75*
G02*
X59039600Y-22050000I-270400J0D01*
G01*
X58280400Y-22050000D01*
G75*
G02*
X58010000Y-21779600I0J270400D01*
G01*
G37*
G36*
G01*
X59890000Y-21779600D02*
X59890000Y-20620400D01*
G75*
G02*
X60160400Y-20350000I270400J0D01*
G01*
X60919600Y-20350000D01*
G75*
G02*
X61190000Y-20620400I0J-270400D01*
G01*
X61190000Y-21779600D01*
G75*
G02*
X60919600Y-22050000I-270400J0D01*
G01*
X60160400Y-22050000D01*
G75*
G02*
X59890000Y-21779600I0J270400D01*
G01*
G37*
G04 #@! TD*
G04 #@! TO.C,R14*
G36*
G01*
X64090000Y-12520400D02*
X64090000Y-13679600D01*
G75*
G02*
X63819600Y-13950000I-270400J0D01*
G01*
X63060400Y-13950000D01*
G75*
G02*
X62790000Y-13679600I0J270400D01*
G01*
X62790000Y-12520400D01*
G75*
G02*
X63060400Y-12250000I270400J0D01*
G01*
X63819600Y-12250000D01*
G75*
G02*
X64090000Y-12520400I0J-270400D01*
G01*
G37*
G36*
G01*
X62210000Y-12520400D02*
X62210000Y-13679600D01*
G75*
G02*
X61939600Y-13950000I-270400J0D01*
G01*
X61180400Y-13950000D01*
G75*
G02*
X60910000Y-13679600I0J270400D01*
G01*
X60910000Y-12520400D01*
G75*
G02*
X61180400Y-12250000I270400J0D01*
G01*
X61939600Y-12250000D01*
G75*
G02*
X62210000Y-12520400I0J-270400D01*
G01*
G37*
G04 #@! TD*
G04 #@! TO.C,R4*
G36*
G01*
X52210000Y-21779600D02*
X52210000Y-20620400D01*
G75*
G02*
X52480400Y-20350000I270400J0D01*
G01*
X53239600Y-20350000D01*
G75*
G02*
X53510000Y-20620400I0J-270400D01*
G01*
X53510000Y-21779600D01*
G75*
G02*
X53239600Y-22050000I-270400J0D01*
G01*
X52480400Y-22050000D01*
G75*
G02*
X52210000Y-21779600I0J270400D01*
G01*
G37*
G36*
G01*
X54090000Y-21779600D02*
X54090000Y-20620400D01*
G75*
G02*
X54360400Y-20350000I270400J0D01*
G01*
X55119600Y-20350000D01*
G75*
G02*
X55390000Y-20620400I0J-270400D01*
G01*
X55390000Y-21779600D01*
G75*
G02*
X55119600Y-22050000I-270400J0D01*
G01*
X54360400Y-22050000D01*
G75*
G02*
X54090000Y-21779600I0J270400D01*
G01*
G37*
G04 #@! TD*
G04 #@! TO.C,J5*
X54880000Y-8800000D03*
X57420000Y-8800000D03*
G36*
G01*
X63600000Y-7973400D02*
X63600000Y-9626600D01*
G75*
G02*
X63276600Y-9950000I-323400J0D01*
G01*
X61723400Y-9950000D01*
G75*
G02*
X61400000Y-9626600I0J323400D01*
G01*
X61400000Y-7973400D01*
G75*
G02*
X61723400Y-7650000I323400J0D01*
G01*
X63276600Y-7650000D01*
G75*
G02*
X63600000Y-7973400I0J-323400D01*
G01*
G37*
X59960000Y-8800000D03*
G04 #@! TD*
D11*
G04 #@! TO.C,J4*
X47380000Y-40200000D03*
X49920000Y-40200000D03*
X52460000Y-40200000D03*
G36*
G01*
X56100000Y-39166800D02*
X56100000Y-41233200D01*
G75*
G02*
X55783200Y-41550000I-316800J0D01*
G01*
X54216800Y-41550000D01*
G75*
G02*
X53900000Y-41233200I0J316800D01*
G01*
X53900000Y-39166800D01*
G75*
G02*
X54216800Y-38850000I316800J0D01*
G01*
X55783200Y-38850000D01*
G75*
G02*
X56100000Y-39166800I0J-316800D01*
G01*
G37*
G04 #@! TD*
D10*
G04 #@! TO.C,J3*
X42860000Y-50800000D03*
G36*
G01*
X46500000Y-49966800D02*
X46500000Y-51633200D01*
G75*
G02*
X46183200Y-51950000I-316800J0D01*
G01*
X44616800Y-51950000D01*
G75*
G02*
X44300000Y-51633200I0J316800D01*
G01*
X44300000Y-49966800D01*
G75*
G02*
X44616800Y-49650000I316800J0D01*
G01*
X46183200Y-49650000D01*
G75*
G02*
X46500000Y-49966800I0J-316800D01*
G01*
G37*
G04 #@! TD*
G04 #@! TO.C,C6*
G36*
G01*
X62310000Y-21779600D02*
X62310000Y-20620400D01*
G75*
G02*
X62580400Y-20350000I270400J0D01*
G01*
X63339600Y-20350000D01*
G75*
G02*
X63610000Y-20620400I0J-270400D01*
G01*
X63610000Y-21779600D01*
G75*
G02*
X63339600Y-22050000I-270400J0D01*
G01*
X62580400Y-22050000D01*
G75*
G02*
X62310000Y-21779600I0J270400D01*
G01*
G37*
G36*
G01*
X64190000Y-21779600D02*
X64190000Y-20620400D01*
G75*
G02*
X64460400Y-20350000I270400J0D01*
G01*
X65219600Y-20350000D01*
G75*
G02*
X65490000Y-20620400I0J-270400D01*
G01*
X65490000Y-21779600D01*
G75*
G02*
X65219600Y-22050000I-270400J0D01*
G01*
X64460400Y-22050000D01*
G75*
G02*
X64190000Y-21779600I0J270400D01*
G01*
G37*
G04 #@! TD*
G04 #@! TO.C,C5*
G36*
G01*
X51090000Y-20620400D02*
X51090000Y-21779600D01*
G75*
G02*
X50819600Y-22050000I-270400J0D01*
G01*
X50060400Y-22050000D01*
G75*
G02*
X49790000Y-21779600I0J270400D01*
G01*
X49790000Y-20620400D01*
G75*
G02*
X50060400Y-20350000I270400J0D01*
G01*
X50819600Y-20350000D01*
G75*
G02*
X51090000Y-20620400I0J-270400D01*
G01*
G37*
G36*
G01*
X49210000Y-20620400D02*
X49210000Y-21779600D01*
G75*
G02*
X48939600Y-22050000I-270400J0D01*
G01*
X48180400Y-22050000D01*
G75*
G02*
X47910000Y-21779600I0J270400D01*
G01*
X47910000Y-20620400D01*
G75*
G02*
X48180400Y-20350000I270400J0D01*
G01*
X48939600Y-20350000D01*
G75*
G02*
X49210000Y-20620400I0J-270400D01*
G01*
G37*
G04 #@! TD*
G04 #@! TO.C,C4*
G36*
G01*
X65310000Y-13679600D02*
X65310000Y-12520400D01*
G75*
G02*
X65580400Y-12250000I270400J0D01*
G01*
X66339600Y-12250000D01*
G75*
G02*
X66610000Y-12520400I0J-270400D01*
G01*
X66610000Y-13679600D01*
G75*
G02*
X66339600Y-13950000I-270400J0D01*
G01*
X65580400Y-13950000D01*
G75*
G02*
X65310000Y-13679600I0J270400D01*
G01*
G37*
G36*
G01*
X67190000Y-13679600D02*
X67190000Y-12520400D01*
G75*
G02*
X67460400Y-12250000I270400J0D01*
G01*
X68219600Y-12250000D01*
G75*
G02*
X68490000Y-12520400I0J-270400D01*
G01*
X68490000Y-13679600D01*
G75*
G02*
X68219600Y-13950000I-270400J0D01*
G01*
X67460400Y-13950000D01*
G75*
G02*
X67190000Y-13679600I0J270400D01*
G01*
G37*
G04 #@! TD*
G04 #@! TO.C,LS1*
G36*
G01*
X40550000Y-10936000D02*
X40550000Y-9464000D01*
G75*
G02*
X40964000Y-9050000I414000J0D01*
G01*
X42436000Y-9050000D01*
G75*
G02*
X42850000Y-9464000I0J-414000D01*
G01*
X42850000Y-10936000D01*
G75*
G02*
X42436000Y-11350000I-414000J0D01*
G01*
X40964000Y-11350000D01*
G75*
G02*
X40550000Y-10936000I0J414000D01*
G01*
G37*
D12*
X45900000Y-10200000D03*
G04 #@! TD*
D13*
G04 #@! TO.C,D5*
X19700000Y-8700000D03*
G36*
G01*
X16110000Y-9330000D02*
X16110000Y-8070000D01*
G75*
G02*
X16530000Y-7650000I420000J0D01*
G01*
X17790000Y-7650000D01*
G75*
G02*
X18210000Y-8070000I0J-420000D01*
G01*
X18210000Y-9330000D01*
G75*
G02*
X17790000Y-9750000I-420000J0D01*
G01*
X16530000Y-9750000D01*
G75*
G02*
X16110000Y-9330000I0J420000D01*
G01*
G37*
G04 #@! TD*
G04 #@! TO.C,D6*
G36*
G01*
X22150000Y-40430000D02*
X22150000Y-39170000D01*
G75*
G02*
X22420000Y-38900000I270000J0D01*
G01*
X23980000Y-38900000D01*
G75*
G02*
X24250000Y-39170000I0J-270000D01*
G01*
X24250000Y-40430000D01*
G75*
G02*
X23980000Y-40700000I-270000J0D01*
G01*
X22420000Y-40700000D01*
G75*
G02*
X22150000Y-40430000I0J270000D01*
G01*
G37*
G36*
G01*
X25750000Y-40664000D02*
X25750000Y-38936000D01*
G75*
G02*
X25786000Y-38900000I36000J0D01*
G01*
X27814000Y-38900000D01*
G75*
G02*
X27850000Y-38936000I0J-36000D01*
G01*
X27850000Y-40664000D01*
G75*
G02*
X27814000Y-40700000I-36000J0D01*
G01*
X25786000Y-40700000D01*
G75*
G02*
X25750000Y-40664000I0J36000D01*
G01*
G37*
G04 #@! TD*
G04 #@! TO.C,R2*
G36*
G01*
X17910000Y-40579600D02*
X17910000Y-39420400D01*
G75*
G02*
X18180400Y-39150000I270400J0D01*
G01*
X18939600Y-39150000D01*
G75*
G02*
X19210000Y-39420400I0J-270400D01*
G01*
X19210000Y-40579600D01*
G75*
G02*
X18939600Y-40850000I-270400J0D01*
G01*
X18180400Y-40850000D01*
G75*
G02*
X17910000Y-40579600I0J270400D01*
G01*
G37*
G36*
G01*
X19790000Y-40579600D02*
X19790000Y-39420400D01*
G75*
G02*
X20060400Y-39150000I270400J0D01*
G01*
X20819600Y-39150000D01*
G75*
G02*
X21090000Y-39420400I0J-270400D01*
G01*
X21090000Y-40579600D01*
G75*
G02*
X20819600Y-40850000I-270400J0D01*
G01*
X20060400Y-40850000D01*
G75*
G02*
X19790000Y-40579600I0J270400D01*
G01*
G37*
G04 #@! TD*
G04 #@! TO.C,R3*
G36*
G01*
X21220400Y-42010000D02*
X22379600Y-42010000D01*
G75*
G02*
X22650000Y-42280400I0J-270400D01*
G01*
X22650000Y-43039600D01*
G75*
G02*
X22379600Y-43310000I-270400J0D01*
G01*
X21220400Y-43310000D01*
G75*
G02*
X20950000Y-43039600I0J270400D01*
G01*
X20950000Y-42280400D01*
G75*
G02*
X21220400Y-42010000I270400J0D01*
G01*
G37*
G36*
G01*
X21220400Y-43890000D02*
X22379600Y-43890000D01*
G75*
G02*
X22650000Y-44160400I0J-270400D01*
G01*
X22650000Y-44919600D01*
G75*
G02*
X22379600Y-45190000I-270400J0D01*
G01*
X21220400Y-45190000D01*
G75*
G02*
X20950000Y-44919600I0J270400D01*
G01*
X20950000Y-44160400D01*
G75*
G02*
X21220400Y-43890000I270400J0D01*
G01*
G37*
G04 #@! TD*
G04 #@! TO.C,Q2*
G36*
G01*
X49700000Y-9940000D02*
X49700000Y-10660000D01*
G75*
G02*
X49610000Y-10750000I-90000J0D01*
G01*
X48090000Y-10750000D01*
G75*
G02*
X48000000Y-10660000I0J90000D01*
G01*
X48000000Y-9940000D01*
G75*
G02*
X48090000Y-9850000I90000J0D01*
G01*
X49610000Y-9850000D01*
G75*
G02*
X49700000Y-9940000I0J-90000D01*
G01*
G37*
G36*
G01*
X52300000Y-8990000D02*
X52300000Y-9710000D01*
G75*
G02*
X52210000Y-9800000I-90000J0D01*
G01*
X50690000Y-9800000D01*
G75*
G02*
X50600000Y-9710000I0J90000D01*
G01*
X50600000Y-8990000D01*
G75*
G02*
X50690000Y-8900000I90000J0D01*
G01*
X52210000Y-8900000D01*
G75*
G02*
X52300000Y-8990000I0J-90000D01*
G01*
G37*
G36*
G01*
X52300000Y-10890000D02*
X52300000Y-11610000D01*
G75*
G02*
X52210000Y-11700000I-90000J0D01*
G01*
X50690000Y-11700000D01*
G75*
G02*
X50600000Y-11610000I0J90000D01*
G01*
X50600000Y-10890000D01*
G75*
G02*
X50690000Y-10800000I90000J0D01*
G01*
X52210000Y-10800000D01*
G75*
G02*
X52300000Y-10890000I0J-90000D01*
G01*
G37*
G04 #@! TD*
G04 #@! TO.C,C11*
G36*
G01*
X37420400Y-42710000D02*
X38579600Y-42710000D01*
G75*
G02*
X38850000Y-42980400I0J-270400D01*
G01*
X38850000Y-43739600D01*
G75*
G02*
X38579600Y-44010000I-270400J0D01*
G01*
X37420400Y-44010000D01*
G75*
G02*
X37150000Y-43739600I0J270400D01*
G01*
X37150000Y-42980400D01*
G75*
G02*
X37420400Y-42710000I270400J0D01*
G01*
G37*
G36*
G01*
X37420400Y-44590000D02*
X38579600Y-44590000D01*
G75*
G02*
X38850000Y-44860400I0J-270400D01*
G01*
X38850000Y-45619600D01*
G75*
G02*
X38579600Y-45890000I-270400J0D01*
G01*
X37420400Y-45890000D01*
G75*
G02*
X37150000Y-45619600I0J270400D01*
G01*
X37150000Y-44860400D01*
G75*
G02*
X37420400Y-44590000I270400J0D01*
G01*
G37*
G04 #@! TD*
G04 #@! TO.C,C10*
G36*
G01*
X34620400Y-42710000D02*
X35779600Y-42710000D01*
G75*
G02*
X36050000Y-42980400I0J-270400D01*
G01*
X36050000Y-43739600D01*
G75*
G02*
X35779600Y-44010000I-270400J0D01*
G01*
X34620400Y-44010000D01*
G75*
G02*
X34350000Y-43739600I0J270400D01*
G01*
X34350000Y-42980400D01*
G75*
G02*
X34620400Y-42710000I270400J0D01*
G01*
G37*
G36*
G01*
X34620400Y-44590000D02*
X35779600Y-44590000D01*
G75*
G02*
X36050000Y-44860400I0J-270400D01*
G01*
X36050000Y-45619600D01*
G75*
G02*
X35779600Y-45890000I-270400J0D01*
G01*
X34620400Y-45890000D01*
G75*
G02*
X34350000Y-45619600I0J270400D01*
G01*
X34350000Y-44860400D01*
G75*
G02*
X34620400Y-44590000I270400J0D01*
G01*
G37*
G04 #@! TD*
G04 #@! TO.C,D7*
G36*
G01*
X36150000Y-39240000D02*
X36150000Y-40760000D01*
G75*
G02*
X35960000Y-40950000I-190000J0D01*
G01*
X33740000Y-40950000D01*
G75*
G02*
X33550000Y-40760000I0J190000D01*
G01*
X33550000Y-39240000D01*
G75*
G02*
X33740000Y-39050000I190000J0D01*
G01*
X35960000Y-39050000D01*
G75*
G02*
X36150000Y-39240000I0J-190000D01*
G01*
G37*
G36*
G01*
X40000000Y-39240000D02*
X40000000Y-40760000D01*
G75*
G02*
X39810000Y-40950000I-190000J0D01*
G01*
X37590000Y-40950000D01*
G75*
G02*
X37400000Y-40760000I0J190000D01*
G01*
X37400000Y-39240000D01*
G75*
G02*
X37590000Y-39050000I190000J0D01*
G01*
X39810000Y-39050000D01*
G75*
G02*
X40000000Y-39240000I0J-190000D01*
G01*
G37*
G04 #@! TD*
G04 #@! TO.C,D3*
G36*
G01*
X19760000Y-44850000D02*
X18240000Y-44850000D01*
G75*
G02*
X18050000Y-44660000I0J190000D01*
G01*
X18050000Y-42440000D01*
G75*
G02*
X18240000Y-42250000I190000J0D01*
G01*
X19760000Y-42250000D01*
G75*
G02*
X19950000Y-42440000I0J-190000D01*
G01*
X19950000Y-44660000D01*
G75*
G02*
X19760000Y-44850000I-190000J0D01*
G01*
G37*
G36*
G01*
X19760000Y-48700000D02*
X18240000Y-48700000D01*
G75*
G02*
X18050000Y-48510000I0J190000D01*
G01*
X18050000Y-46290000D01*
G75*
G02*
X18240000Y-46100000I190000J0D01*
G01*
X19760000Y-46100000D01*
G75*
G02*
X19950000Y-46290000I0J-190000D01*
G01*
X19950000Y-48510000D01*
G75*
G02*
X19760000Y-48700000I-190000J0D01*
G01*
G37*
G04 #@! TD*
D14*
G04 #@! TO.C,a1*
X13300000Y-36450000D03*
X36300000Y-36450000D03*
X36300000Y-51950000D03*
G36*
G01*
X12250000Y-52475000D02*
X12250000Y-51425000D01*
G75*
G02*
X12775000Y-50900000I525000J0D01*
G01*
X13825000Y-50900000D01*
G75*
G02*
X14350000Y-51425000I0J-525000D01*
G01*
X14350000Y-52475000D01*
G75*
G02*
X13825000Y-53000000I-525000J0D01*
G01*
X12775000Y-53000000D01*
G75*
G02*
X12250000Y-52475000I0J525000D01*
G01*
G37*
G04 #@! TD*
G04 #@! TO.C,D1*
G36*
G01*
X16260000Y-41250000D02*
X14740000Y-41250000D01*
G75*
G02*
X14550000Y-41060000I0J190000D01*
G01*
X14550000Y-38840000D01*
G75*
G02*
X14740000Y-38650000I190000J0D01*
G01*
X16260000Y-38650000D01*
G75*
G02*
X16450000Y-38840000I0J-190000D01*
G01*
X16450000Y-41060000D01*
G75*
G02*
X16260000Y-41250000I-190000J0D01*
G01*
G37*
G36*
G01*
X16260000Y-45100000D02*
X14740000Y-45100000D01*
G75*
G02*
X14550000Y-44910000I0J190000D01*
G01*
X14550000Y-42690000D01*
G75*
G02*
X14740000Y-42500000I190000J0D01*
G01*
X16260000Y-42500000D01*
G75*
G02*
X16450000Y-42690000I0J-190000D01*
G01*
X16450000Y-44910000D01*
G75*
G02*
X16260000Y-45100000I-190000J0D01*
G01*
G37*
G04 #@! TD*
G04 #@! TO.C,Q3*
G36*
G01*
X7640000Y-11100000D02*
X8360000Y-11100000D01*
G75*
G02*
X8450000Y-11190000I0J-90000D01*
G01*
X8450000Y-12710000D01*
G75*
G02*
X8360000Y-12800000I-90000J0D01*
G01*
X7640000Y-12800000D01*
G75*
G02*
X7550000Y-12710000I0J90000D01*
G01*
X7550000Y-11190000D01*
G75*
G02*
X7640000Y-11100000I90000J0D01*
G01*
G37*
G36*
G01*
X6690000Y-8500000D02*
X7410000Y-8500000D01*
G75*
G02*
X7500000Y-8590000I0J-90000D01*
G01*
X7500000Y-10110000D01*
G75*
G02*
X7410000Y-10200000I-90000J0D01*
G01*
X6690000Y-10200000D01*
G75*
G02*
X6600000Y-10110000I0J90000D01*
G01*
X6600000Y-8590000D01*
G75*
G02*
X6690000Y-8500000I90000J0D01*
G01*
G37*
G36*
G01*
X8590000Y-8500000D02*
X9310000Y-8500000D01*
G75*
G02*
X9400000Y-8590000I0J-90000D01*
G01*
X9400000Y-10110000D01*
G75*
G02*
X9310000Y-10200000I-90000J0D01*
G01*
X8590000Y-10200000D01*
G75*
G02*
X8500000Y-10110000I0J90000D01*
G01*
X8500000Y-8590000D01*
G75*
G02*
X8590000Y-8500000I90000J0D01*
G01*
G37*
G04 #@! TD*
G04 #@! TO.C,D4*
G36*
G01*
X40950000Y-7830000D02*
X40950000Y-6570000D01*
G75*
G02*
X41220000Y-6300000I270000J0D01*
G01*
X42780000Y-6300000D01*
G75*
G02*
X43050000Y-6570000I0J-270000D01*
G01*
X43050000Y-7830000D01*
G75*
G02*
X42780000Y-8100000I-270000J0D01*
G01*
X41220000Y-8100000D01*
G75*
G02*
X40950000Y-7830000I0J270000D01*
G01*
G37*
G36*
G01*
X44550000Y-8064000D02*
X44550000Y-6336000D01*
G75*
G02*
X44586000Y-6300000I36000J0D01*
G01*
X46614000Y-6300000D01*
G75*
G02*
X46650000Y-6336000I0J-36000D01*
G01*
X46650000Y-8064000D01*
G75*
G02*
X46614000Y-8100000I-36000J0D01*
G01*
X44586000Y-8100000D01*
G75*
G02*
X44550000Y-8064000I0J36000D01*
G01*
G37*
G04 #@! TD*
G04 #@! TO.C,D2*
G36*
G01*
X2350000Y-15380000D02*
X2350000Y-14120000D01*
G75*
G02*
X2620000Y-13850000I270000J0D01*
G01*
X4180000Y-13850000D01*
G75*
G02*
X4450000Y-14120000I0J-270000D01*
G01*
X4450000Y-15380000D01*
G75*
G02*
X4180000Y-15650000I-270000J0D01*
G01*
X2620000Y-15650000D01*
G75*
G02*
X2350000Y-15380000I0J270000D01*
G01*
G37*
G36*
G01*
X5950000Y-15614000D02*
X5950000Y-13886000D01*
G75*
G02*
X5986000Y-13850000I36000J0D01*
G01*
X8014000Y-13850000D01*
G75*
G02*
X8050000Y-13886000I0J-36000D01*
G01*
X8050000Y-15614000D01*
G75*
G02*
X8014000Y-15650000I-36000J0D01*
G01*
X5986000Y-15650000D01*
G75*
G02*
X5950000Y-15614000I0J36000D01*
G01*
G37*
G04 #@! TD*
G04 #@! TO.C,C9*
G36*
G01*
X29571900Y-42750000D02*
X32828100Y-42750000D01*
G75*
G02*
X33150000Y-43071900I0J-321900D01*
G01*
X33150000Y-45328100D01*
G75*
G02*
X32828100Y-45650000I-321900J0D01*
G01*
X29571900Y-45650000D01*
G75*
G02*
X29250000Y-45328100I0J321900D01*
G01*
X29250000Y-43071900D01*
G75*
G02*
X29571900Y-42750000I321900J0D01*
G01*
G37*
G36*
G01*
X29571900Y-49650000D02*
X32828100Y-49650000D01*
G75*
G02*
X33150000Y-49971900I0J-321900D01*
G01*
X33150000Y-52228100D01*
G75*
G02*
X32828100Y-52550000I-321900J0D01*
G01*
X29571900Y-52550000D01*
G75*
G02*
X29250000Y-52228100I0J321900D01*
G01*
X29250000Y-49971900D01*
G75*
G02*
X29571900Y-49650000I321900J0D01*
G01*
G37*
G04 #@! TD*
G04 #@! TO.C,R7*
G36*
G01*
X4250000Y-30179600D02*
X4250000Y-29020400D01*
G75*
G02*
X4520400Y-28750000I270400J0D01*
G01*
X5279600Y-28750000D01*
G75*
G02*
X5550000Y-29020400I0J-270400D01*
G01*
X5550000Y-30179600D01*
G75*
G02*
X5279600Y-30450000I-270400J0D01*
G01*
X4520400Y-30450000D01*
G75*
G02*
X4250000Y-30179600I0J270400D01*
G01*
G37*
G36*
G01*
X2250000Y-30179600D02*
X2250000Y-29020400D01*
G75*
G02*
X2520400Y-28750000I270400J0D01*
G01*
X3279600Y-28750000D01*
G75*
G02*
X3550000Y-29020400I0J-270400D01*
G01*
X3550000Y-30179600D01*
G75*
G02*
X3279600Y-30450000I-270400J0D01*
G01*
X2520400Y-30450000D01*
G75*
G02*
X2250000Y-30179600I0J270400D01*
G01*
G37*
G04 #@! TD*
G04 #@! TO.C,C20*
G36*
G01*
X37279600Y-26850000D02*
X36120400Y-26850000D01*
G75*
G02*
X35850000Y-26579600I0J270400D01*
G01*
X35850000Y-25820400D01*
G75*
G02*
X36120400Y-25550000I270400J0D01*
G01*
X37279600Y-25550000D01*
G75*
G02*
X37550000Y-25820400I0J-270400D01*
G01*
X37550000Y-26579600D01*
G75*
G02*
X37279600Y-26850000I-270400J0D01*
G01*
G37*
G36*
G01*
X37279600Y-28850000D02*
X36120400Y-28850000D01*
G75*
G02*
X35850000Y-28579600I0J270400D01*
G01*
X35850000Y-27820400D01*
G75*
G02*
X36120400Y-27550000I270400J0D01*
G01*
X37279600Y-27550000D01*
G75*
G02*
X37550000Y-27820400I0J-270400D01*
G01*
X37550000Y-28579600D01*
G75*
G02*
X37279600Y-28850000I-270400J0D01*
G01*
G37*
G04 #@! TD*
G04 #@! TO.C,R16*
G36*
G01*
X56450000Y-25720400D02*
X56450000Y-26879600D01*
G75*
G02*
X56179600Y-27150000I-270400J0D01*
G01*
X55420400Y-27150000D01*
G75*
G02*
X55150000Y-26879600I0J270400D01*
G01*
X55150000Y-25720400D01*
G75*
G02*
X55420400Y-25450000I270400J0D01*
G01*
X56179600Y-25450000D01*
G75*
G02*
X56450000Y-25720400I0J-270400D01*
G01*
G37*
G36*
G01*
X58450000Y-25720400D02*
X58450000Y-26879600D01*
G75*
G02*
X58179600Y-27150000I-270400J0D01*
G01*
X57420400Y-27150000D01*
G75*
G02*
X57150000Y-26879600I0J270400D01*
G01*
X57150000Y-25720400D01*
G75*
G02*
X57420400Y-25450000I270400J0D01*
G01*
X58179600Y-25450000D01*
G75*
G02*
X58450000Y-25720400I0J-270400D01*
G01*
G37*
G04 #@! TD*
G04 #@! TO.C,R13*
G36*
G01*
X24020400Y-7850000D02*
X25179600Y-7850000D01*
G75*
G02*
X25450000Y-8120400I0J-270400D01*
G01*
X25450000Y-8879600D01*
G75*
G02*
X25179600Y-9150000I-270400J0D01*
G01*
X24020400Y-9150000D01*
G75*
G02*
X23750000Y-8879600I0J270400D01*
G01*
X23750000Y-8120400D01*
G75*
G02*
X24020400Y-7850000I270400J0D01*
G01*
G37*
G36*
G01*
X24020400Y-5850000D02*
X25179600Y-5850000D01*
G75*
G02*
X25450000Y-6120400I0J-270400D01*
G01*
X25450000Y-6879600D01*
G75*
G02*
X25179600Y-7150000I-270400J0D01*
G01*
X24020400Y-7150000D01*
G75*
G02*
X23750000Y-6879600I0J270400D01*
G01*
X23750000Y-6120400D01*
G75*
G02*
X24020400Y-5850000I270400J0D01*
G01*
G37*
G04 #@! TD*
G04 #@! TO.C,R12*
G36*
G01*
X47620400Y-45650000D02*
X48779600Y-45650000D01*
G75*
G02*
X49050000Y-45920400I0J-270400D01*
G01*
X49050000Y-46679600D01*
G75*
G02*
X48779600Y-46950000I-270400J0D01*
G01*
X47620400Y-46950000D01*
G75*
G02*
X47350000Y-46679600I0J270400D01*
G01*
X47350000Y-45920400D01*
G75*
G02*
X47620400Y-45650000I270400J0D01*
G01*
G37*
G36*
G01*
X47620400Y-43650000D02*
X48779600Y-43650000D01*
G75*
G02*
X49050000Y-43920400I0J-270400D01*
G01*
X49050000Y-44679600D01*
G75*
G02*
X48779600Y-44950000I-270400J0D01*
G01*
X47620400Y-44950000D01*
G75*
G02*
X47350000Y-44679600I0J270400D01*
G01*
X47350000Y-43920400D01*
G75*
G02*
X47620400Y-43650000I270400J0D01*
G01*
G37*
G04 #@! TD*
G04 #@! TO.C,R11*
G36*
G01*
X35750000Y-7779600D02*
X35750000Y-6620400D01*
G75*
G02*
X36020400Y-6350000I270400J0D01*
G01*
X36779600Y-6350000D01*
G75*
G02*
X37050000Y-6620400I0J-270400D01*
G01*
X37050000Y-7779600D01*
G75*
G02*
X36779600Y-8050000I-270400J0D01*
G01*
X36020400Y-8050000D01*
G75*
G02*
X35750000Y-7779600I0J270400D01*
G01*
G37*
G36*
G01*
X33750000Y-7779600D02*
X33750000Y-6620400D01*
G75*
G02*
X34020400Y-6350000I270400J0D01*
G01*
X34779600Y-6350000D01*
G75*
G02*
X35050000Y-6620400I0J-270400D01*
G01*
X35050000Y-7779600D01*
G75*
G02*
X34779600Y-8050000I-270400J0D01*
G01*
X34020400Y-8050000D01*
G75*
G02*
X33750000Y-7779600I0J270400D01*
G01*
G37*
G04 #@! TD*
G04 #@! TO.C,R9*
G36*
G01*
X50350000Y-13220400D02*
X50350000Y-14379600D01*
G75*
G02*
X50079600Y-14650000I-270400J0D01*
G01*
X49320400Y-14650000D01*
G75*
G02*
X49050000Y-14379600I0J270400D01*
G01*
X49050000Y-13220400D01*
G75*
G02*
X49320400Y-12950000I270400J0D01*
G01*
X50079600Y-12950000D01*
G75*
G02*
X50350000Y-13220400I0J-270400D01*
G01*
G37*
G36*
G01*
X52350000Y-13220400D02*
X52350000Y-14379600D01*
G75*
G02*
X52079600Y-14650000I-270400J0D01*
G01*
X51320400Y-14650000D01*
G75*
G02*
X51050000Y-14379600I0J270400D01*
G01*
X51050000Y-13220400D01*
G75*
G02*
X51320400Y-12950000I270400J0D01*
G01*
X52079600Y-12950000D01*
G75*
G02*
X52350000Y-13220400I0J-270400D01*
G01*
G37*
G04 #@! TD*
G04 #@! TO.C,R8*
G36*
G01*
X4750000Y-12729600D02*
X4750000Y-11570400D01*
G75*
G02*
X5020400Y-11300000I270400J0D01*
G01*
X5779600Y-11300000D01*
G75*
G02*
X6050000Y-11570400I0J-270400D01*
G01*
X6050000Y-12729600D01*
G75*
G02*
X5779600Y-13000000I-270400J0D01*
G01*
X5020400Y-13000000D01*
G75*
G02*
X4750000Y-12729600I0J270400D01*
G01*
G37*
G36*
G01*
X2750000Y-12729600D02*
X2750000Y-11570400D01*
G75*
G02*
X3020400Y-11300000I270400J0D01*
G01*
X3779600Y-11300000D01*
G75*
G02*
X4050000Y-11570400I0J-270400D01*
G01*
X4050000Y-12729600D01*
G75*
G02*
X3779600Y-13000000I-270400J0D01*
G01*
X3020400Y-13000000D01*
G75*
G02*
X2750000Y-12729600I0J270400D01*
G01*
G37*
G04 #@! TD*
G04 #@! TO.C,R6*
G36*
G01*
X9150000Y-6220400D02*
X9150000Y-7379600D01*
G75*
G02*
X8879600Y-7650000I-270400J0D01*
G01*
X8120400Y-7650000D01*
G75*
G02*
X7850000Y-7379600I0J270400D01*
G01*
X7850000Y-6220400D01*
G75*
G02*
X8120400Y-5950000I270400J0D01*
G01*
X8879600Y-5950000D01*
G75*
G02*
X9150000Y-6220400I0J-270400D01*
G01*
G37*
G36*
G01*
X11150000Y-6220400D02*
X11150000Y-7379600D01*
G75*
G02*
X10879600Y-7650000I-270400J0D01*
G01*
X10120400Y-7650000D01*
G75*
G02*
X9850000Y-7379600I0J270400D01*
G01*
X9850000Y-6220400D01*
G75*
G02*
X10120400Y-5950000I270400J0D01*
G01*
X10879600Y-5950000D01*
G75*
G02*
X11150000Y-6220400I0J-270400D01*
G01*
G37*
G04 #@! TD*
G04 #@! TO.C,R5*
G36*
G01*
X14450000Y-7379600D02*
X14450000Y-6220400D01*
G75*
G02*
X14720400Y-5950000I270400J0D01*
G01*
X15479600Y-5950000D01*
G75*
G02*
X15750000Y-6220400I0J-270400D01*
G01*
X15750000Y-7379600D01*
G75*
G02*
X15479600Y-7650000I-270400J0D01*
G01*
X14720400Y-7650000D01*
G75*
G02*
X14450000Y-7379600I0J270400D01*
G01*
G37*
G36*
G01*
X12450000Y-7379600D02*
X12450000Y-6220400D01*
G75*
G02*
X12720400Y-5950000I270400J0D01*
G01*
X13479600Y-5950000D01*
G75*
G02*
X13750000Y-6220400I0J-270400D01*
G01*
X13750000Y-7379600D01*
G75*
G02*
X13479600Y-7650000I-270400J0D01*
G01*
X12720400Y-7650000D01*
G75*
G02*
X12450000Y-7379600I0J270400D01*
G01*
G37*
G04 #@! TD*
G04 #@! TO.C,R1*
G36*
G01*
X43750000Y-46020400D02*
X43750000Y-47179600D01*
G75*
G02*
X43479600Y-47450000I-270400J0D01*
G01*
X42720400Y-47450000D01*
G75*
G02*
X42450000Y-47179600I0J270400D01*
G01*
X42450000Y-46020400D01*
G75*
G02*
X42720400Y-45750000I270400J0D01*
G01*
X43479600Y-45750000D01*
G75*
G02*
X43750000Y-46020400I0J-270400D01*
G01*
G37*
G36*
G01*
X45750000Y-46020400D02*
X45750000Y-47179600D01*
G75*
G02*
X45479600Y-47450000I-270400J0D01*
G01*
X44720400Y-47450000D01*
G75*
G02*
X44450000Y-47179600I0J270400D01*
G01*
X44450000Y-46020400D01*
G75*
G02*
X44720400Y-45750000I270400J0D01*
G01*
X45479600Y-45750000D01*
G75*
G02*
X45750000Y-46020400I0J-270400D01*
G01*
G37*
G04 #@! TD*
G04 #@! TO.C,C23*
G36*
G01*
X51550000Y-26879600D02*
X51550000Y-25720400D01*
G75*
G02*
X51820400Y-25450000I270400J0D01*
G01*
X52579600Y-25450000D01*
G75*
G02*
X52850000Y-25720400I0J-270400D01*
G01*
X52850000Y-26879600D01*
G75*
G02*
X52579600Y-27150000I-270400J0D01*
G01*
X51820400Y-27150000D01*
G75*
G02*
X51550000Y-26879600I0J270400D01*
G01*
G37*
G36*
G01*
X49550000Y-26879600D02*
X49550000Y-25720400D01*
G75*
G02*
X49820400Y-25450000I270400J0D01*
G01*
X50579600Y-25450000D01*
G75*
G02*
X50850000Y-25720400I0J-270400D01*
G01*
X50850000Y-26879600D01*
G75*
G02*
X50579600Y-27150000I-270400J0D01*
G01*
X49820400Y-27150000D01*
G75*
G02*
X49550000Y-26879600I0J270400D01*
G01*
G37*
G04 #@! TD*
G04 #@! TO.C,C18*
G36*
G01*
X34950000Y-12979600D02*
X34950000Y-11820400D01*
G75*
G02*
X35220400Y-11550000I270400J0D01*
G01*
X35979600Y-11550000D01*
G75*
G02*
X36250000Y-11820400I0J-270400D01*
G01*
X36250000Y-12979600D01*
G75*
G02*
X35979600Y-13250000I-270400J0D01*
G01*
X35220400Y-13250000D01*
G75*
G02*
X34950000Y-12979600I0J270400D01*
G01*
G37*
G36*
G01*
X32950000Y-12979600D02*
X32950000Y-11820400D01*
G75*
G02*
X33220400Y-11550000I270400J0D01*
G01*
X33979600Y-11550000D01*
G75*
G02*
X34250000Y-11820400I0J-270400D01*
G01*
X34250000Y-12979600D01*
G75*
G02*
X33979600Y-13250000I-270400J0D01*
G01*
X33220400Y-13250000D01*
G75*
G02*
X32950000Y-12979600I0J270400D01*
G01*
G37*
G04 #@! TD*
G04 #@! TO.C,C16*
G36*
G01*
X39779600Y-26850000D02*
X38620400Y-26850000D01*
G75*
G02*
X38350000Y-26579600I0J270400D01*
G01*
X38350000Y-25820400D01*
G75*
G02*
X38620400Y-25550000I270400J0D01*
G01*
X39779600Y-25550000D01*
G75*
G02*
X40050000Y-25820400I0J-270400D01*
G01*
X40050000Y-26579600D01*
G75*
G02*
X39779600Y-26850000I-270400J0D01*
G01*
G37*
G36*
G01*
X39779600Y-28850000D02*
X38620400Y-28850000D01*
G75*
G02*
X38350000Y-28579600I0J270400D01*
G01*
X38350000Y-27820400D01*
G75*
G02*
X38620400Y-27550000I270400J0D01*
G01*
X39779600Y-27550000D01*
G75*
G02*
X40050000Y-27820400I0J-270400D01*
G01*
X40050000Y-28579600D01*
G75*
G02*
X39779600Y-28850000I-270400J0D01*
G01*
G37*
G04 #@! TD*
G04 #@! TO.C,C15*
G36*
G01*
X42279600Y-26850000D02*
X41120400Y-26850000D01*
G75*
G02*
X40850000Y-26579600I0J270400D01*
G01*
X40850000Y-25820400D01*
G75*
G02*
X41120400Y-25550000I270400J0D01*
G01*
X42279600Y-25550000D01*
G75*
G02*
X42550000Y-25820400I0J-270400D01*
G01*
X42550000Y-26579600D01*
G75*
G02*
X42279600Y-26850000I-270400J0D01*
G01*
G37*
G36*
G01*
X42279600Y-28850000D02*
X41120400Y-28850000D01*
G75*
G02*
X40850000Y-28579600I0J270400D01*
G01*
X40850000Y-27820400D01*
G75*
G02*
X41120400Y-27550000I270400J0D01*
G01*
X42279600Y-27550000D01*
G75*
G02*
X42550000Y-27820400I0J-270400D01*
G01*
X42550000Y-28579600D01*
G75*
G02*
X42279600Y-28850000I-270400J0D01*
G01*
G37*
G04 #@! TD*
G04 #@! TO.C,C3*
G36*
G01*
X65150000Y-46179600D02*
X65150000Y-45020400D01*
G75*
G02*
X65420400Y-44750000I270400J0D01*
G01*
X66179600Y-44750000D01*
G75*
G02*
X66450000Y-45020400I0J-270400D01*
G01*
X66450000Y-46179600D01*
G75*
G02*
X66179600Y-46450000I-270400J0D01*
G01*
X65420400Y-46450000D01*
G75*
G02*
X65150000Y-46179600I0J270400D01*
G01*
G37*
G36*
G01*
X63150000Y-46179600D02*
X63150000Y-45020400D01*
G75*
G02*
X63420400Y-44750000I270400J0D01*
G01*
X64179600Y-44750000D01*
G75*
G02*
X64450000Y-45020400I0J-270400D01*
G01*
X64450000Y-46179600D01*
G75*
G02*
X64179600Y-46450000I-270400J0D01*
G01*
X63420400Y-46450000D01*
G75*
G02*
X63150000Y-46179600I0J270400D01*
G01*
G37*
G04 #@! TD*
G04 #@! TO.C,C2*
G36*
G01*
X65150000Y-48579600D02*
X65150000Y-47420400D01*
G75*
G02*
X65420400Y-47150000I270400J0D01*
G01*
X66179600Y-47150000D01*
G75*
G02*
X66450000Y-47420400I0J-270400D01*
G01*
X66450000Y-48579600D01*
G75*
G02*
X66179600Y-48850000I-270400J0D01*
G01*
X65420400Y-48850000D01*
G75*
G02*
X65150000Y-48579600I0J270400D01*
G01*
G37*
G36*
G01*
X63150000Y-48579600D02*
X63150000Y-47420400D01*
G75*
G02*
X63420400Y-47150000I270400J0D01*
G01*
X64179600Y-47150000D01*
G75*
G02*
X64450000Y-47420400I0J-270400D01*
G01*
X64450000Y-48579600D01*
G75*
G02*
X64179600Y-48850000I-270400J0D01*
G01*
X63420400Y-48850000D01*
G75*
G02*
X63150000Y-48579600I0J270400D01*
G01*
G37*
G04 #@! TD*
G04 #@! TO.C,C1*
G36*
G01*
X65150000Y-43779600D02*
X65150000Y-42620400D01*
G75*
G02*
X65420400Y-42350000I270400J0D01*
G01*
X66179600Y-42350000D01*
G75*
G02*
X66450000Y-42620400I0J-270400D01*
G01*
X66450000Y-43779600D01*
G75*
G02*
X66179600Y-44050000I-270400J0D01*
G01*
X65420400Y-44050000D01*
G75*
G02*
X65150000Y-43779600I0J270400D01*
G01*
G37*
G36*
G01*
X63150000Y-43779600D02*
X63150000Y-42620400D01*
G75*
G02*
X63420400Y-42350000I270400J0D01*
G01*
X64179600Y-42350000D01*
G75*
G02*
X64450000Y-42620400I0J-270400D01*
G01*
X64450000Y-43779600D01*
G75*
G02*
X64179600Y-44050000I-270400J0D01*
G01*
X63420400Y-44050000D01*
G75*
G02*
X63150000Y-43779600I0J270400D01*
G01*
G37*
G04 #@! TD*
G04 #@! TO.C,Q1*
G36*
G01*
X8250000Y-24945000D02*
X8250000Y-19455000D01*
G75*
G02*
X8555000Y-19150000I305000J0D01*
G01*
X14645000Y-19150000D01*
G75*
G02*
X14950000Y-19455000I0J-305000D01*
G01*
X14950000Y-24945000D01*
G75*
G02*
X14645000Y-25250000I-305000J0D01*
G01*
X8555000Y-25250000D01*
G75*
G02*
X8250000Y-24945000I0J305000D01*
G01*
G37*
G36*
G01*
X3750000Y-25155000D02*
X3750000Y-23805000D01*
G75*
G02*
X3825000Y-23730000I75000J0D01*
G01*
X6575000Y-23730000D01*
G75*
G02*
X6650000Y-23805000I0J-75000D01*
G01*
X6650000Y-25155000D01*
G75*
G02*
X6575000Y-25230000I-75000J0D01*
G01*
X3825000Y-25230000D01*
G75*
G02*
X3750000Y-25155000I0J75000D01*
G01*
G37*
G36*
G01*
X3750000Y-20595000D02*
X3750000Y-19245000D01*
G75*
G02*
X3825000Y-19170000I75000J0D01*
G01*
X6575000Y-19170000D01*
G75*
G02*
X6650000Y-19245000I0J-75000D01*
G01*
X6650000Y-20595000D01*
G75*
G02*
X6575000Y-20670000I-75000J0D01*
G01*
X3825000Y-20670000D01*
G75*
G02*
X3750000Y-20595000I0J75000D01*
G01*
G37*
G04 #@! TD*
G04 #@! TO.C,U1*
G36*
G01*
X59550000Y-45320000D02*
X59550000Y-44870000D01*
G75*
G02*
X59775000Y-44645000I225000J0D01*
G01*
X61425000Y-44645000D01*
G75*
G02*
X61650000Y-44870000I0J-225000D01*
G01*
X61650000Y-45320000D01*
G75*
G02*
X61425000Y-45545000I-225000J0D01*
G01*
X59775000Y-45545000D01*
G75*
G02*
X59550000Y-45320000I0J225000D01*
G01*
G37*
G36*
G01*
X59550000Y-46590000D02*
X59550000Y-46140000D01*
G75*
G02*
X59775000Y-45915000I225000J0D01*
G01*
X61425000Y-45915000D01*
G75*
G02*
X61650000Y-46140000I0J-225000D01*
G01*
X61650000Y-46590000D01*
G75*
G02*
X61425000Y-46815000I-225000J0D01*
G01*
X59775000Y-46815000D01*
G75*
G02*
X59550000Y-46590000I0J225000D01*
G01*
G37*
G36*
G01*
X59550000Y-47860000D02*
X59550000Y-47410000D01*
G75*
G02*
X59775000Y-47185000I225000J0D01*
G01*
X61425000Y-47185000D01*
G75*
G02*
X61650000Y-47410000I0J-225000D01*
G01*
X61650000Y-47860000D01*
G75*
G02*
X61425000Y-48085000I-225000J0D01*
G01*
X59775000Y-48085000D01*
G75*
G02*
X59550000Y-47860000I0J225000D01*
G01*
G37*
G36*
G01*
X59550000Y-49130000D02*
X59550000Y-48680000D01*
G75*
G02*
X59775000Y-48455000I225000J0D01*
G01*
X61425000Y-48455000D01*
G75*
G02*
X61650000Y-48680000I0J-225000D01*
G01*
X61650000Y-49130000D01*
G75*
G02*
X61425000Y-49355000I-225000J0D01*
G01*
X59775000Y-49355000D01*
G75*
G02*
X59550000Y-49130000I0J225000D01*
G01*
G37*
G36*
G01*
X54350000Y-49130000D02*
X54350000Y-48680000D01*
G75*
G02*
X54575000Y-48455000I225000J0D01*
G01*
X56225000Y-48455000D01*
G75*
G02*
X56450000Y-48680000I0J-225000D01*
G01*
X56450000Y-49130000D01*
G75*
G02*
X56225000Y-49355000I-225000J0D01*
G01*
X54575000Y-49355000D01*
G75*
G02*
X54350000Y-49130000I0J225000D01*
G01*
G37*
G36*
G01*
X54350000Y-47860000D02*
X54350000Y-47410000D01*
G75*
G02*
X54575000Y-47185000I225000J0D01*
G01*
X56225000Y-47185000D01*
G75*
G02*
X56450000Y-47410000I0J-225000D01*
G01*
X56450000Y-47860000D01*
G75*
G02*
X56225000Y-48085000I-225000J0D01*
G01*
X54575000Y-48085000D01*
G75*
G02*
X54350000Y-47860000I0J225000D01*
G01*
G37*
G36*
G01*
X54350000Y-46590000D02*
X54350000Y-46140000D01*
G75*
G02*
X54575000Y-45915000I225000J0D01*
G01*
X56225000Y-45915000D01*
G75*
G02*
X56450000Y-46140000I0J-225000D01*
G01*
X56450000Y-46590000D01*
G75*
G02*
X56225000Y-46815000I-225000J0D01*
G01*
X54575000Y-46815000D01*
G75*
G02*
X54350000Y-46590000I0J225000D01*
G01*
G37*
G36*
G01*
X54350000Y-45320000D02*
X54350000Y-44870000D01*
G75*
G02*
X54575000Y-44645000I225000J0D01*
G01*
X56225000Y-44645000D01*
G75*
G02*
X56450000Y-44870000I0J-225000D01*
G01*
X56450000Y-45320000D01*
G75*
G02*
X56225000Y-45545000I-225000J0D01*
G01*
X54575000Y-45545000D01*
G75*
G02*
X54350000Y-45320000I0J225000D01*
G01*
G37*
G04 #@! TD*
G04 #@! TO.C,TH1*
X61600000Y-26400000D03*
X46360000Y-26400000D03*
G04 #@! TD*
D15*
G04 #@! TO.C,C7*
X3900000Y-44900000D03*
G36*
G01*
X8750000Y-44170000D02*
X8750000Y-45630000D01*
G75*
G02*
X8330000Y-46050000I-420000J0D01*
G01*
X7070000Y-46050000D01*
G75*
G02*
X6650000Y-45630000I0J420000D01*
G01*
X6650000Y-44170000D01*
G75*
G02*
X7070000Y-43750000I420000J0D01*
G01*
X8330000Y-43750000D01*
G75*
G02*
X8750000Y-44170000I0J-420000D01*
G01*
G37*
G04 #@! TD*
D16*
G04 #@! TO.C,J1*
X7760000Y-34800000D03*
G36*
G01*
X2100000Y-36533800D02*
X2100000Y-33066200D01*
G75*
G02*
X2416200Y-32750000I316200J0D01*
G01*
X5183800Y-32750000D01*
G75*
G02*
X5500000Y-33066200I0J-316200D01*
G01*
X5500000Y-36533800D01*
G75*
G02*
X5183800Y-36850000I-316200J0D01*
G01*
X2416200Y-36850000D01*
G75*
G02*
X2100000Y-36533800I0J316200D01*
G01*
G37*
G04 #@! TD*
G04 #@! TO.C,J2*
X21140000Y-22600000D03*
G36*
G01*
X26800000Y-20866200D02*
X26800000Y-24333800D01*
G75*
G02*
X26483800Y-24650000I-316200J0D01*
G01*
X23716200Y-24650000D01*
G75*
G02*
X23400000Y-24333800I0J316200D01*
G01*
X23400000Y-20866200D01*
G75*
G02*
X23716200Y-20550000I316200J0D01*
G01*
X26483800Y-20550000D01*
G75*
G02*
X26800000Y-20866200I0J-316200D01*
G01*
G37*
G04 #@! TD*
D14*
G04 #@! TO.C,H4*
X69000000Y-6900000D03*
G04 #@! TD*
G04 #@! TO.C,H3*
X3200000Y-6900000D03*
G04 #@! TD*
G04 #@! TO.C,H2*
X3200000Y-51600000D03*
G04 #@! TD*
G04 #@! TO.C,H1*
X69000000Y-51600000D03*
G04 #@! TD*
M02*
