G04 #@! TF.GenerationSoftware,KiCad,Pcbnew,(5.1.10)-1*
G04 #@! TF.CreationDate,2021-11-25T14:37:56-05:00*
G04 #@! TF.ProjectId,pid_smt_oven,7069645f-736d-4745-9f6f-76656e2e6b69,rev?*
G04 #@! TF.SameCoordinates,Original*
G04 #@! TF.FileFunction,Legend,Bot*
G04 #@! TF.FilePolarity,Positive*
%FSLAX46Y46*%
G04 Gerber Fmt 4.6, Leading zero omitted, Abs format (unit mm)*
G04 Created by KiCad (PCBNEW (5.1.10)-1) date 2021-11-25 14:37:56*
%MOMM*%
%LPD*%
G01*
G04 APERTURE LIST*
%ADD10C,0.150000*%
%ADD11C,0.180000*%
%ADD12C,0.120000*%
%ADD13C,0.200000*%
%ADD14O,2.200000X2.300000*%
%ADD15O,2.200000X2.700000*%
%ADD16O,2.300000X2.300000*%
%ADD17O,2.100000X2.100000*%
%ADD18C,2.100000*%
%ADD19C,2.300000*%
%ADD20O,3.500000X4.100000*%
G04 APERTURE END LIST*
D10*
X62395238Y-21561904D02*
X62395238Y-22133333D01*
X62433333Y-22247619D01*
X62509523Y-22323809D01*
X62623809Y-22361904D01*
X62700000Y-22361904D01*
X61633333Y-22361904D02*
X62014285Y-22361904D01*
X62014285Y-21561904D01*
X60909523Y-22285714D02*
X60947619Y-22323809D01*
X61061904Y-22361904D01*
X61138095Y-22361904D01*
X61252380Y-22323809D01*
X61328571Y-22247619D01*
X61366666Y-22171428D01*
X61404761Y-22019047D01*
X61404761Y-21904761D01*
X61366666Y-21752380D01*
X61328571Y-21676190D01*
X61252380Y-21600000D01*
X61138095Y-21561904D01*
X61061904Y-21561904D01*
X60947619Y-21600000D01*
X60909523Y-21638095D01*
X60338095Y-21561904D02*
X60338095Y-22133333D01*
X60376190Y-22247619D01*
X60452380Y-22323809D01*
X60566666Y-22361904D01*
X60642857Y-22361904D01*
X59576190Y-22361904D02*
X59957142Y-22361904D01*
X59957142Y-21561904D01*
X58852380Y-22285714D02*
X58890476Y-22323809D01*
X59004761Y-22361904D01*
X59080952Y-22361904D01*
X59195238Y-22323809D01*
X59271428Y-22247619D01*
X59309523Y-22171428D01*
X59347619Y-22019047D01*
X59347619Y-21904761D01*
X59309523Y-21752380D01*
X59271428Y-21676190D01*
X59195238Y-21600000D01*
X59080952Y-21561904D01*
X59004761Y-21561904D01*
X58890476Y-21600000D01*
X58852380Y-21638095D01*
X58280952Y-21561904D02*
X58280952Y-22133333D01*
X58319047Y-22247619D01*
X58395238Y-22323809D01*
X58509523Y-22361904D01*
X58585714Y-22361904D01*
X57519047Y-22361904D02*
X57900000Y-22361904D01*
X57900000Y-21561904D01*
X56795238Y-22285714D02*
X56833333Y-22323809D01*
X56947619Y-22361904D01*
X57023809Y-22361904D01*
X57138095Y-22323809D01*
X57214285Y-22247619D01*
X57252380Y-22171428D01*
X57290476Y-22019047D01*
X57290476Y-21904761D01*
X57252380Y-21752380D01*
X57214285Y-21676190D01*
X57138095Y-21600000D01*
X57023809Y-21561904D01*
X56947619Y-21561904D01*
X56833333Y-21600000D01*
X56795238Y-21638095D01*
X56223809Y-21561904D02*
X56223809Y-22133333D01*
X56261904Y-22247619D01*
X56338095Y-22323809D01*
X56452380Y-22361904D01*
X56528571Y-22361904D01*
X55461904Y-22361904D02*
X55842857Y-22361904D01*
X55842857Y-21561904D01*
X54738095Y-22285714D02*
X54776190Y-22323809D01*
X54890476Y-22361904D01*
X54966666Y-22361904D01*
X55080952Y-22323809D01*
X55157142Y-22247619D01*
X55195238Y-22171428D01*
X55233333Y-22019047D01*
X55233333Y-21904761D01*
X55195238Y-21752380D01*
X55157142Y-21676190D01*
X55080952Y-21600000D01*
X54966666Y-21561904D01*
X54890476Y-21561904D01*
X54776190Y-21600000D01*
X54738095Y-21638095D01*
X65938095Y-9300000D02*
X66033333Y-9252380D01*
X66176190Y-9252380D01*
X66319047Y-9300000D01*
X66414285Y-9395238D01*
X66461904Y-9490476D01*
X66509523Y-9680952D01*
X66509523Y-9823809D01*
X66461904Y-10014285D01*
X66414285Y-10109523D01*
X66319047Y-10204761D01*
X66176190Y-10252380D01*
X66080952Y-10252380D01*
X65938095Y-10204761D01*
X65890476Y-10157142D01*
X65890476Y-9823809D01*
X66080952Y-9823809D01*
X56571428Y-43800000D02*
X56685714Y-43742857D01*
X56857142Y-43742857D01*
X57028571Y-43800000D01*
X57142857Y-43914285D01*
X57200000Y-44028571D01*
X57257142Y-44257142D01*
X57257142Y-44428571D01*
X57200000Y-44657142D01*
X57142857Y-44771428D01*
X57028571Y-44885714D01*
X56857142Y-44942857D01*
X56742857Y-44942857D01*
X56571428Y-44885714D01*
X56514285Y-44828571D01*
X56514285Y-44428571D01*
X56742857Y-44428571D01*
X56000000Y-44142857D02*
X56000000Y-44942857D01*
X56000000Y-44257142D02*
X55942857Y-44200000D01*
X55828571Y-44142857D01*
X55657142Y-44142857D01*
X55542857Y-44200000D01*
X55485714Y-44314285D01*
X55485714Y-44942857D01*
X54400000Y-44942857D02*
X54400000Y-43742857D01*
X54400000Y-44885714D02*
X54514285Y-44942857D01*
X54742857Y-44942857D01*
X54857142Y-44885714D01*
X54914285Y-44828571D01*
X54971428Y-44714285D01*
X54971428Y-44371428D01*
X54914285Y-44257142D01*
X54857142Y-44200000D01*
X54742857Y-44142857D01*
X54514285Y-44142857D01*
X54400000Y-44200000D01*
X52914285Y-44485714D02*
X52000000Y-44485714D01*
X52457142Y-44942857D02*
X52457142Y-44028571D01*
X40342857Y-49285714D02*
X41257142Y-49285714D01*
X40800000Y-49742857D02*
X40800000Y-48828571D01*
D11*
X7790476Y-28914285D02*
X9009523Y-28914285D01*
X8400000Y-29523809D02*
X8400000Y-28304761D01*
D12*
G04 #@! TO.C,a2*
X73600000Y-21000000D02*
X64100000Y-21000000D01*
X73600000Y-28000000D02*
X73600000Y-21000000D01*
X64100000Y-28000000D02*
X73600000Y-28000000D01*
X64100000Y-21000000D02*
X64100000Y-28000000D01*
X28160000Y-33640000D02*
X28160000Y-15600000D01*
X71600000Y-33640000D02*
X28160000Y-33640000D01*
X71600000Y-15600000D02*
X71600000Y-33640000D01*
X69000000Y-18600000D02*
X69000000Y-15600000D01*
X33370000Y-18500000D02*
X69000000Y-18600000D01*
X33370000Y-18500000D02*
X33370000Y-15600000D01*
X68930000Y-30600000D02*
X68930000Y-33640000D01*
X30830000Y-30600000D02*
X68930000Y-30600000D01*
X30830000Y-30600000D02*
X30830000Y-33640000D01*
X28160000Y-15600000D02*
X30830000Y-15600000D01*
X33370000Y-15600000D02*
X71600000Y-15600000D01*
X30830000Y-18500000D02*
X30830000Y-15600000D01*
X33370000Y-18500000D02*
X30830000Y-18500000D01*
G04 #@! TO.C,J5*
X65060000Y-6340000D02*
X65060000Y-12310000D01*
X65060000Y-12310000D02*
X52440000Y-12310000D01*
X52440000Y-12310000D02*
X52440000Y-6340000D01*
X52440000Y-6340000D02*
X65060000Y-6340000D01*
X61750000Y-6350000D02*
X61750000Y-7100000D01*
X61750000Y-7100000D02*
X55750000Y-7100000D01*
X55750000Y-7100000D02*
X55750000Y-6350000D01*
X55750000Y-6350000D02*
X61750000Y-6350000D01*
X65050000Y-6350000D02*
X65050000Y-7100000D01*
X65050000Y-7100000D02*
X63250000Y-7100000D01*
X63250000Y-7100000D02*
X63250000Y-6350000D01*
X63250000Y-6350000D02*
X65050000Y-6350000D01*
X54250000Y-6350000D02*
X54250000Y-7100000D01*
X54250000Y-7100000D02*
X52450000Y-7100000D01*
X52450000Y-7100000D02*
X52450000Y-6350000D01*
X52450000Y-6350000D02*
X54250000Y-6350000D01*
X65050000Y-8600000D02*
X64300000Y-8600000D01*
X64300000Y-8600000D02*
X64300000Y-11550000D01*
X64300000Y-11550000D02*
X58750000Y-11550000D01*
X52450000Y-8600000D02*
X53200000Y-8600000D01*
X53200000Y-8600000D02*
X53200000Y-11550000D01*
X53200000Y-11550000D02*
X58750000Y-11550000D01*
X64100000Y-6050000D02*
X65350000Y-6050000D01*
X65350000Y-6050000D02*
X65350000Y-7300000D01*
G04 #@! TO.C,J4*
X56380000Y-37170000D02*
X56380000Y-43190000D01*
X56380000Y-43190000D02*
X46000000Y-43190000D01*
X46000000Y-43190000D02*
X46000000Y-37170000D01*
X46000000Y-37170000D02*
X56380000Y-37170000D01*
X56670000Y-38200000D02*
X56670000Y-42200000D01*
X55000000Y-43190000D02*
X55000000Y-42190000D01*
X55000000Y-42190000D02*
X47380000Y-42190000D01*
X47380000Y-42190000D02*
X47380000Y-43190000D01*
X55000000Y-42190000D02*
X54750000Y-41660000D01*
X54750000Y-41660000D02*
X47630000Y-41660000D01*
X47630000Y-41660000D02*
X47380000Y-42190000D01*
X54750000Y-43190000D02*
X54750000Y-42190000D01*
X47630000Y-43190000D02*
X47630000Y-42190000D01*
X55800000Y-37170000D02*
X55800000Y-37770000D01*
X55800000Y-37770000D02*
X54200000Y-37770000D01*
X54200000Y-37770000D02*
X54200000Y-37170000D01*
X53260000Y-37170000D02*
X53260000Y-37770000D01*
X53260000Y-37770000D02*
X51660000Y-37770000D01*
X51660000Y-37770000D02*
X51660000Y-37170000D01*
X50720000Y-37170000D02*
X50720000Y-37770000D01*
X50720000Y-37770000D02*
X49120000Y-37770000D01*
X49120000Y-37770000D02*
X49120000Y-37170000D01*
X48180000Y-37170000D02*
X48180000Y-37770000D01*
X48180000Y-37770000D02*
X46580000Y-37770000D01*
X46580000Y-37770000D02*
X46580000Y-37170000D01*
G04 #@! TO.C,J3*
X42060000Y-48370000D02*
X42060000Y-47770000D01*
X43660000Y-48370000D02*
X42060000Y-48370000D01*
X43660000Y-47770000D02*
X43660000Y-48370000D01*
X44600000Y-48370000D02*
X44600000Y-47770000D01*
X46200000Y-48370000D02*
X44600000Y-48370000D01*
X46200000Y-47770000D02*
X46200000Y-48370000D01*
X43110000Y-53790000D02*
X43110000Y-52790000D01*
X45150000Y-53790000D02*
X45150000Y-52790000D01*
X43110000Y-52260000D02*
X42860000Y-52790000D01*
X45150000Y-52260000D02*
X43110000Y-52260000D01*
X45400000Y-52790000D02*
X45150000Y-52260000D01*
X42860000Y-52790000D02*
X42860000Y-53790000D01*
X45400000Y-52790000D02*
X42860000Y-52790000D01*
X45400000Y-53790000D02*
X45400000Y-52790000D01*
X47070000Y-48800000D02*
X47070000Y-52800000D01*
X41480000Y-47770000D02*
X46780000Y-47770000D01*
X41480000Y-53790000D02*
X41480000Y-47770000D01*
X46780000Y-53790000D02*
X41480000Y-53790000D01*
X46780000Y-47770000D02*
X46780000Y-53790000D01*
D10*
G04 #@! TO.C,LS1*
X48300000Y-10200000D02*
G75*
G03*
X48300000Y-10200000I-4500000J0D01*
G01*
D12*
G04 #@! TO.C,D5*
X16870000Y-7620000D02*
X16870000Y-7464000D01*
X16870000Y-9936000D02*
X16870000Y-9780000D01*
X19471130Y-7620163D02*
G75*
G03*
X17389039Y-7620000I-1041130J-1079837D01*
G01*
X19471130Y-9779837D02*
G75*
G02*
X17389039Y-9780000I-1041130J1079837D01*
G01*
X20102335Y-7621392D02*
G75*
G03*
X16870000Y-7464484I-1672335J-1078608D01*
G01*
X20102335Y-9778608D02*
G75*
G02*
X16870000Y-9935516I-1672335J1078608D01*
G01*
D13*
G04 #@! TO.C,a1*
X28900000Y-44300000D02*
X27900000Y-43900000D01*
X28900000Y-44300000D02*
X27900000Y-44700000D01*
X23900000Y-44300000D02*
X28900000Y-44300000D01*
D12*
X10800000Y-54200000D02*
X38800000Y-54200000D01*
X38800000Y-34200000D02*
X38800000Y-54200000D01*
X10800000Y-34200000D02*
X38800000Y-34200000D01*
X10800000Y-54200000D02*
X10800000Y-34200000D01*
G04 #@! TO.C,TH1*
X50710000Y-27770000D02*
X50710000Y-25030000D01*
X50710000Y-25030000D02*
X57250000Y-25030000D01*
X57250000Y-25030000D02*
X57250000Y-27770000D01*
X57250000Y-27770000D02*
X50710000Y-27770000D01*
X47400000Y-26400000D02*
X50710000Y-26400000D01*
X60560000Y-26400000D02*
X57250000Y-26400000D01*
G04 #@! TO.C,C7*
X9809698Y-42185000D02*
X9809698Y-42985000D01*
X10209698Y-42585000D02*
X9409698Y-42585000D01*
X1719000Y-44367000D02*
X1719000Y-45433000D01*
X1759000Y-44132000D02*
X1759000Y-45668000D01*
X1799000Y-43952000D02*
X1799000Y-45848000D01*
X1839000Y-43802000D02*
X1839000Y-45998000D01*
X1879000Y-43671000D02*
X1879000Y-46129000D01*
X1919000Y-43554000D02*
X1919000Y-46246000D01*
X1959000Y-43447000D02*
X1959000Y-46353000D01*
X1999000Y-43348000D02*
X1999000Y-46452000D01*
X2039000Y-43255000D02*
X2039000Y-46545000D01*
X2079000Y-43169000D02*
X2079000Y-46631000D01*
X2119000Y-43087000D02*
X2119000Y-46713000D01*
X2159000Y-43010000D02*
X2159000Y-46790000D01*
X2199000Y-42936000D02*
X2199000Y-46864000D01*
X2239000Y-42866000D02*
X2239000Y-46934000D01*
X2279000Y-42798000D02*
X2279000Y-47002000D01*
X2319000Y-42734000D02*
X2319000Y-47066000D01*
X2359000Y-42672000D02*
X2359000Y-47128000D01*
X2399000Y-42613000D02*
X2399000Y-47187000D01*
X2439000Y-42555000D02*
X2439000Y-47245000D01*
X2479000Y-42500000D02*
X2479000Y-47300000D01*
X2519000Y-42446000D02*
X2519000Y-47354000D01*
X2559000Y-42395000D02*
X2559000Y-47405000D01*
X2599000Y-42344000D02*
X2599000Y-47456000D01*
X2639000Y-42296000D02*
X2639000Y-47504000D01*
X2679000Y-42249000D02*
X2679000Y-47551000D01*
X2719000Y-42203000D02*
X2719000Y-43600000D01*
X2759000Y-46200000D02*
X2759000Y-47641000D01*
X2799000Y-42116000D02*
X2799000Y-43600000D01*
X2839000Y-46200000D02*
X2839000Y-47726000D01*
X2879000Y-46200000D02*
X2879000Y-47767000D01*
X2879000Y-42033000D02*
X2879000Y-43600000D01*
X2919000Y-46200000D02*
X2919000Y-47807000D01*
X2919000Y-41993000D02*
X2919000Y-43600000D01*
X2959000Y-46200000D02*
X2959000Y-47845000D01*
X2959000Y-41955000D02*
X2959000Y-43600000D01*
X2999000Y-46200000D02*
X2999000Y-47883000D01*
X2999000Y-41917000D02*
X2999000Y-43600000D01*
X3039000Y-46200000D02*
X3039000Y-47919000D01*
X3039000Y-41881000D02*
X3039000Y-43600000D01*
X3079000Y-46200000D02*
X3079000Y-47955000D01*
X3079000Y-41845000D02*
X3079000Y-43600000D01*
X3119000Y-46200000D02*
X3119000Y-47990000D01*
X3119000Y-41810000D02*
X3119000Y-43600000D01*
X3159000Y-46200000D02*
X3159000Y-48024000D01*
X3159000Y-41776000D02*
X3159000Y-43600000D01*
X3199000Y-46200000D02*
X3199000Y-48056000D01*
X3199000Y-41744000D02*
X3199000Y-43600000D01*
X3239000Y-46200000D02*
X3239000Y-48089000D01*
X3239000Y-41711000D02*
X3239000Y-43600000D01*
X3279000Y-46200000D02*
X3279000Y-48120000D01*
X3279000Y-41680000D02*
X3279000Y-43600000D01*
X3319000Y-46200000D02*
X3319000Y-48150000D01*
X3319000Y-41650000D02*
X3319000Y-43600000D01*
X3359000Y-46200000D02*
X3359000Y-48180000D01*
X3359000Y-41620000D02*
X3359000Y-43600000D01*
X3399000Y-46200000D02*
X3399000Y-48209000D01*
X3399000Y-41591000D02*
X3399000Y-43600000D01*
X3439000Y-46200000D02*
X3439000Y-48238000D01*
X3439000Y-41562000D02*
X3439000Y-43600000D01*
X3479000Y-46200000D02*
X3479000Y-48265000D01*
X3479000Y-41535000D02*
X3479000Y-43600000D01*
X3519000Y-46200000D02*
X3519000Y-48292000D01*
X3519000Y-41508000D02*
X3519000Y-43600000D01*
X3559000Y-46200000D02*
X3559000Y-48318000D01*
X3559000Y-41482000D02*
X3559000Y-43600000D01*
X3599000Y-46200000D02*
X3599000Y-48344000D01*
X3599000Y-41456000D02*
X3599000Y-43600000D01*
X3639000Y-46200000D02*
X3639000Y-48369000D01*
X3639000Y-41431000D02*
X3639000Y-43600000D01*
X3679000Y-46200000D02*
X3679000Y-48393000D01*
X3679000Y-41407000D02*
X3679000Y-43600000D01*
X3719000Y-46200000D02*
X3719000Y-48417000D01*
X3719000Y-41383000D02*
X3719000Y-43600000D01*
X3759000Y-46200000D02*
X3759000Y-48440000D01*
X3759000Y-41360000D02*
X3759000Y-43600000D01*
X3799000Y-46200000D02*
X3799000Y-48462000D01*
X3799000Y-41338000D02*
X3799000Y-43600000D01*
X3839000Y-46200000D02*
X3839000Y-48484000D01*
X3839000Y-41316000D02*
X3839000Y-43600000D01*
X3879000Y-46200000D02*
X3879000Y-48506000D01*
X3879000Y-41294000D02*
X3879000Y-43600000D01*
X3919000Y-46200000D02*
X3919000Y-48527000D01*
X3919000Y-41273000D02*
X3919000Y-43600000D01*
X3959000Y-46200000D02*
X3959000Y-48547000D01*
X3959000Y-41253000D02*
X3959000Y-43600000D01*
X3999000Y-46200000D02*
X3999000Y-48566000D01*
X3999000Y-41234000D02*
X3999000Y-43600000D01*
X4039000Y-46200000D02*
X4039000Y-48586000D01*
X4039000Y-41214000D02*
X4039000Y-43600000D01*
X4079000Y-46200000D02*
X4079000Y-48604000D01*
X4079000Y-41196000D02*
X4079000Y-43600000D01*
X4119000Y-46200000D02*
X4119000Y-48622000D01*
X4119000Y-41178000D02*
X4119000Y-43600000D01*
X4159000Y-46200000D02*
X4159000Y-48640000D01*
X4159000Y-41160000D02*
X4159000Y-43600000D01*
X4199000Y-46200000D02*
X4199000Y-48657000D01*
X4199000Y-41143000D02*
X4199000Y-43600000D01*
X4239000Y-46200000D02*
X4239000Y-48674000D01*
X4239000Y-41126000D02*
X4239000Y-43600000D01*
X4279000Y-46200000D02*
X4279000Y-48690000D01*
X4279000Y-41110000D02*
X4279000Y-43600000D01*
X4319000Y-46200000D02*
X4319000Y-48705000D01*
X4319000Y-41095000D02*
X4319000Y-43600000D01*
X4359000Y-46200000D02*
X4359000Y-48721000D01*
X4359000Y-41079000D02*
X4359000Y-43600000D01*
X4399000Y-46200000D02*
X4399000Y-48735000D01*
X4399000Y-41065000D02*
X4399000Y-43600000D01*
X4439000Y-46200000D02*
X4439000Y-48750000D01*
X4439000Y-41050000D02*
X4439000Y-43600000D01*
X4479000Y-46200000D02*
X4479000Y-48763000D01*
X4479000Y-41037000D02*
X4479000Y-43600000D01*
X4519000Y-46200000D02*
X4519000Y-48777000D01*
X4519000Y-41023000D02*
X4519000Y-43600000D01*
X4559000Y-46200000D02*
X4559000Y-48789000D01*
X4559000Y-41011000D02*
X4559000Y-43600000D01*
X4599000Y-46200000D02*
X4599000Y-48802000D01*
X4599000Y-40998000D02*
X4599000Y-43600000D01*
X4639000Y-46200000D02*
X4639000Y-48814000D01*
X4639000Y-40986000D02*
X4639000Y-43600000D01*
X4679000Y-46200000D02*
X4679000Y-48825000D01*
X4679000Y-40975000D02*
X4679000Y-43600000D01*
X4719000Y-46200000D02*
X4719000Y-48836000D01*
X4719000Y-40964000D02*
X4719000Y-43600000D01*
X4759000Y-46200000D02*
X4759000Y-48847000D01*
X4759000Y-40953000D02*
X4759000Y-43600000D01*
X4799000Y-46200000D02*
X4799000Y-48857000D01*
X4799000Y-40943000D02*
X4799000Y-43600000D01*
X4839000Y-46200000D02*
X4839000Y-48867000D01*
X4839000Y-40933000D02*
X4839000Y-43600000D01*
X4879000Y-46200000D02*
X4879000Y-48876000D01*
X4879000Y-40924000D02*
X4879000Y-43600000D01*
X4919000Y-46200000D02*
X4919000Y-48885000D01*
X4919000Y-40915000D02*
X4919000Y-43600000D01*
X4999000Y-46200000D02*
X4999000Y-48902000D01*
D13*
X5000000Y-41000000D02*
X5000000Y-43570000D01*
D12*
X5079000Y-46200000D02*
X5079000Y-48917000D01*
X5120000Y-40876000D02*
X5120000Y-48924000D01*
X5160000Y-40870000D02*
X5160000Y-48930000D01*
X5200000Y-40863000D02*
X5200000Y-48937000D01*
X5240000Y-40858000D02*
X5240000Y-48942000D01*
X5280000Y-40852000D02*
X5280000Y-48948000D01*
X5320000Y-40848000D02*
X5320000Y-48952000D01*
X5360000Y-40843000D02*
X5360000Y-48957000D01*
X5400000Y-40839000D02*
X5400000Y-48961000D01*
X5440000Y-40835000D02*
X5440000Y-48965000D01*
X5480000Y-40832000D02*
X5480000Y-48968000D01*
X5520000Y-40829000D02*
X5520000Y-48971000D01*
X5560000Y-40826000D02*
X5560000Y-48974000D01*
X5600000Y-40824000D02*
X5600000Y-48976000D01*
X5640000Y-40823000D02*
X5640000Y-48977000D01*
X5680000Y-40821000D02*
X5680000Y-48979000D01*
X5720000Y-40820000D02*
X5720000Y-48980000D01*
X5760000Y-40820000D02*
X5760000Y-48980000D01*
X5800000Y-40820000D02*
X5800000Y-48980000D01*
X9920000Y-44900000D02*
G75*
G03*
X9920000Y-44900000I-4120000J0D01*
G01*
G04 #@! TO.C,J1*
X940000Y-35100000D02*
X1540000Y-34800000D01*
X940000Y-34500000D02*
X940000Y-35100000D01*
X1540000Y-34800000D02*
X940000Y-34500000D01*
X9820000Y-29890000D02*
X1740000Y-29890000D01*
X9820000Y-36910000D02*
X9820000Y-29890000D01*
X8620000Y-36910000D02*
X9820000Y-36910000D01*
X8620000Y-38610000D02*
X8620000Y-36910000D01*
X2940000Y-38610000D02*
X8620000Y-38610000D01*
X2940000Y-36910000D02*
X2940000Y-38610000D01*
X1740000Y-36910000D02*
X2940000Y-36910000D01*
X1740000Y-29890000D02*
X1740000Y-36910000D01*
G04 #@! TO.C,J2*
X27960000Y-22300000D02*
X27360000Y-22600000D01*
X27960000Y-22900000D02*
X27960000Y-22300000D01*
X27360000Y-22600000D02*
X27960000Y-22900000D01*
X19080000Y-27510000D02*
X27160000Y-27510000D01*
X19080000Y-20490000D02*
X19080000Y-27510000D01*
X20280000Y-20490000D02*
X19080000Y-20490000D01*
X20280000Y-18790000D02*
X20280000Y-20490000D01*
X25960000Y-18790000D02*
X20280000Y-18790000D01*
X25960000Y-20490000D02*
X25960000Y-18790000D01*
X27160000Y-20490000D02*
X25960000Y-20490000D01*
X27160000Y-27510000D02*
X27160000Y-20490000D01*
G04 #@! TO.C,a2*
D10*
X29452380Y-25238095D02*
X28928571Y-25238095D01*
X28833333Y-25190476D01*
X28785714Y-25095238D01*
X28785714Y-24904761D01*
X28833333Y-24809523D01*
X29404761Y-25238095D02*
X29452380Y-25142857D01*
X29452380Y-24904761D01*
X29404761Y-24809523D01*
X29309523Y-24761904D01*
X29214285Y-24761904D01*
X29119047Y-24809523D01*
X29071428Y-24904761D01*
X29071428Y-25142857D01*
X29023809Y-25238095D01*
X28547619Y-25666666D02*
X28500000Y-25714285D01*
X28452380Y-25809523D01*
X28452380Y-26047619D01*
X28500000Y-26142857D01*
X28547619Y-26190476D01*
X28642857Y-26238095D01*
X28738095Y-26238095D01*
X28880952Y-26190476D01*
X29452380Y-25619047D01*
X29452380Y-26238095D01*
X30462857Y-19827142D02*
X30908571Y-19827142D01*
X30685714Y-19047142D02*
X30685714Y-19827142D01*
X31094285Y-19827142D02*
X31614285Y-19047142D01*
X31614285Y-19827142D02*
X31094285Y-19047142D01*
X32320000Y-19047142D02*
X31874285Y-19047142D01*
X32097142Y-19047142D02*
X32097142Y-19827142D01*
X32022857Y-19715714D01*
X31948571Y-19641428D01*
X31874285Y-19604285D01*
X33694285Y-19047142D02*
X33434285Y-19418571D01*
X33248571Y-19047142D02*
X33248571Y-19827142D01*
X33545714Y-19827142D01*
X33620000Y-19790000D01*
X33657142Y-19752857D01*
X33694285Y-19678571D01*
X33694285Y-19567142D01*
X33657142Y-19492857D01*
X33620000Y-19455714D01*
X33545714Y-19418571D01*
X33248571Y-19418571D01*
X33954285Y-19827142D02*
X34474285Y-19047142D01*
X34474285Y-19827142D02*
X33954285Y-19047142D01*
X34920000Y-19827142D02*
X34994285Y-19827142D01*
X35068571Y-19790000D01*
X35105714Y-19752857D01*
X35142857Y-19678571D01*
X35180000Y-19530000D01*
X35180000Y-19344285D01*
X35142857Y-19195714D01*
X35105714Y-19121428D01*
X35068571Y-19084285D01*
X34994285Y-19047142D01*
X34920000Y-19047142D01*
X34845714Y-19084285D01*
X34808571Y-19121428D01*
X34771428Y-19195714D01*
X34734285Y-19344285D01*
X34734285Y-19530000D01*
X34771428Y-19678571D01*
X34808571Y-19752857D01*
X34845714Y-19790000D01*
X34920000Y-19827142D01*
X36554285Y-19047142D02*
X36294285Y-19418571D01*
X36108571Y-19047142D02*
X36108571Y-19827142D01*
X36405714Y-19827142D01*
X36480000Y-19790000D01*
X36517142Y-19752857D01*
X36554285Y-19678571D01*
X36554285Y-19567142D01*
X36517142Y-19492857D01*
X36480000Y-19455714D01*
X36405714Y-19418571D01*
X36108571Y-19418571D01*
X36851428Y-19084285D02*
X36962857Y-19047142D01*
X37148571Y-19047142D01*
X37222857Y-19084285D01*
X37260000Y-19121428D01*
X37297142Y-19195714D01*
X37297142Y-19270000D01*
X37260000Y-19344285D01*
X37222857Y-19381428D01*
X37148571Y-19418571D01*
X37000000Y-19455714D01*
X36925714Y-19492857D01*
X36888571Y-19530000D01*
X36851428Y-19604285D01*
X36851428Y-19678571D01*
X36888571Y-19752857D01*
X36925714Y-19790000D01*
X37000000Y-19827142D01*
X37185714Y-19827142D01*
X37297142Y-19790000D01*
X37520000Y-19827142D02*
X37965714Y-19827142D01*
X37742857Y-19047142D02*
X37742857Y-19827142D01*
X39228571Y-19790000D02*
X39154285Y-19827142D01*
X39042857Y-19827142D01*
X38931428Y-19790000D01*
X38857142Y-19715714D01*
X38820000Y-19641428D01*
X38782857Y-19492857D01*
X38782857Y-19381428D01*
X38820000Y-19232857D01*
X38857142Y-19158571D01*
X38931428Y-19084285D01*
X39042857Y-19047142D01*
X39117142Y-19047142D01*
X39228571Y-19084285D01*
X39265714Y-19121428D01*
X39265714Y-19381428D01*
X39117142Y-19381428D01*
X39600000Y-19047142D02*
X39600000Y-19827142D01*
X40045714Y-19047142D01*
X40045714Y-19827142D01*
X40417142Y-19047142D02*
X40417142Y-19827142D01*
X40602857Y-19827142D01*
X40714285Y-19790000D01*
X40788571Y-19715714D01*
X40825714Y-19641428D01*
X40862857Y-19492857D01*
X40862857Y-19381428D01*
X40825714Y-19232857D01*
X40788571Y-19158571D01*
X40714285Y-19084285D01*
X40602857Y-19047142D01*
X40417142Y-19047142D01*
X41780952Y-18983809D02*
X41780952Y-19903809D01*
X42000000Y-19903809D01*
X42131428Y-19860000D01*
X42219047Y-19772380D01*
X42262857Y-19684761D01*
X42306666Y-19509523D01*
X42306666Y-19378095D01*
X42262857Y-19202857D01*
X42219047Y-19115238D01*
X42131428Y-19027619D01*
X42000000Y-18983809D01*
X41780952Y-18983809D01*
X42657142Y-19816190D02*
X42700952Y-19860000D01*
X42788571Y-19903809D01*
X43007619Y-19903809D01*
X43095238Y-19860000D01*
X43139047Y-19816190D01*
X43182857Y-19728571D01*
X43182857Y-19640952D01*
X43139047Y-19509523D01*
X42613333Y-18983809D01*
X43182857Y-18983809D01*
X44278095Y-18983809D02*
X44278095Y-19903809D01*
X44497142Y-19903809D01*
X44628571Y-19860000D01*
X44716190Y-19772380D01*
X44760000Y-19684761D01*
X44803809Y-19509523D01*
X44803809Y-19378095D01*
X44760000Y-19202857D01*
X44716190Y-19115238D01*
X44628571Y-19027619D01*
X44497142Y-18983809D01*
X44278095Y-18983809D01*
X45110476Y-19903809D02*
X45680000Y-19903809D01*
X45373333Y-19553333D01*
X45504761Y-19553333D01*
X45592380Y-19509523D01*
X45636190Y-19465714D01*
X45680000Y-19378095D01*
X45680000Y-19159047D01*
X45636190Y-19071428D01*
X45592380Y-19027619D01*
X45504761Y-18983809D01*
X45241904Y-18983809D01*
X45154285Y-19027619D01*
X45110476Y-19071428D01*
X46775238Y-18983809D02*
X46775238Y-19903809D01*
X46994285Y-19903809D01*
X47125714Y-19860000D01*
X47213333Y-19772380D01*
X47257142Y-19684761D01*
X47300952Y-19509523D01*
X47300952Y-19378095D01*
X47257142Y-19202857D01*
X47213333Y-19115238D01*
X47125714Y-19027619D01*
X46994285Y-18983809D01*
X46775238Y-18983809D01*
X48089523Y-19597142D02*
X48089523Y-18983809D01*
X47870476Y-19947619D02*
X47651428Y-19290476D01*
X48220952Y-19290476D01*
X49272380Y-18983809D02*
X49272380Y-19903809D01*
X49491428Y-19903809D01*
X49622857Y-19860000D01*
X49710476Y-19772380D01*
X49754285Y-19684761D01*
X49798095Y-19509523D01*
X49798095Y-19378095D01*
X49754285Y-19202857D01*
X49710476Y-19115238D01*
X49622857Y-19027619D01*
X49491428Y-18983809D01*
X49272380Y-18983809D01*
X50630476Y-19903809D02*
X50192380Y-19903809D01*
X50148571Y-19465714D01*
X50192380Y-19509523D01*
X50279999Y-19553333D01*
X50499047Y-19553333D01*
X50586666Y-19509523D01*
X50630476Y-19465714D01*
X50674285Y-19378095D01*
X50674285Y-19159047D01*
X50630476Y-19071428D01*
X50586666Y-19027619D01*
X50499047Y-18983809D01*
X50279999Y-18983809D01*
X50192380Y-19027619D01*
X50148571Y-19071428D01*
X51769523Y-18983809D02*
X51769523Y-19903809D01*
X51988571Y-19903809D01*
X52119999Y-19860000D01*
X52207619Y-19772380D01*
X52251428Y-19684761D01*
X52295238Y-19509523D01*
X52295238Y-19378095D01*
X52251428Y-19202857D01*
X52207619Y-19115238D01*
X52119999Y-19027619D01*
X51988571Y-18983809D01*
X51769523Y-18983809D01*
X53083809Y-19903809D02*
X52908571Y-19903809D01*
X52820952Y-19860000D01*
X52777142Y-19816190D01*
X52689523Y-19684761D01*
X52645714Y-19509523D01*
X52645714Y-19159047D01*
X52689523Y-19071428D01*
X52733333Y-19027619D01*
X52820952Y-18983809D01*
X52996190Y-18983809D01*
X53083809Y-19027619D01*
X53127619Y-19071428D01*
X53171428Y-19159047D01*
X53171428Y-19378095D01*
X53127619Y-19465714D01*
X53083809Y-19509523D01*
X52996190Y-19553333D01*
X52820952Y-19553333D01*
X52733333Y-19509523D01*
X52689523Y-19465714D01*
X52645714Y-19378095D01*
X54266666Y-18983809D02*
X54266666Y-19903809D01*
X54485714Y-19903809D01*
X54617142Y-19860000D01*
X54704761Y-19772380D01*
X54748571Y-19684761D01*
X54792380Y-19509523D01*
X54792380Y-19378095D01*
X54748571Y-19202857D01*
X54704761Y-19115238D01*
X54617142Y-19027619D01*
X54485714Y-18983809D01*
X54266666Y-18983809D01*
X55099047Y-19903809D02*
X55712380Y-19903809D01*
X55318095Y-18983809D01*
X56763809Y-18983809D02*
X56763809Y-19903809D01*
X56982857Y-19903809D01*
X57114285Y-19860000D01*
X57201904Y-19772380D01*
X57245714Y-19684761D01*
X57289523Y-19509523D01*
X57289523Y-19378095D01*
X57245714Y-19202857D01*
X57201904Y-19115238D01*
X57114285Y-19027619D01*
X56982857Y-18983809D01*
X56763809Y-18983809D01*
X57815238Y-19509523D02*
X57727619Y-19553333D01*
X57683809Y-19597142D01*
X57639999Y-19684761D01*
X57639999Y-19728571D01*
X57683809Y-19816190D01*
X57727619Y-19860000D01*
X57815238Y-19903809D01*
X57990476Y-19903809D01*
X58078095Y-19860000D01*
X58121904Y-19816190D01*
X58165714Y-19728571D01*
X58165714Y-19684761D01*
X58121904Y-19597142D01*
X58078095Y-19553333D01*
X57990476Y-19509523D01*
X57815238Y-19509523D01*
X57727619Y-19465714D01*
X57683809Y-19421904D01*
X57639999Y-19334285D01*
X57639999Y-19159047D01*
X57683809Y-19071428D01*
X57727619Y-19027619D01*
X57815238Y-18983809D01*
X57990476Y-18983809D01*
X58078095Y-19027619D01*
X58121904Y-19071428D01*
X58165714Y-19159047D01*
X58165714Y-19334285D01*
X58121904Y-19421904D01*
X58078095Y-19465714D01*
X57990476Y-19509523D01*
X59260952Y-18983809D02*
X59260952Y-19903809D01*
X59479999Y-19903809D01*
X59611428Y-19860000D01*
X59699047Y-19772380D01*
X59742857Y-19684761D01*
X59786666Y-19509523D01*
X59786666Y-19378095D01*
X59742857Y-19202857D01*
X59699047Y-19115238D01*
X59611428Y-19027619D01*
X59479999Y-18983809D01*
X59260952Y-18983809D01*
X60224761Y-18983809D02*
X60399999Y-18983809D01*
X60487619Y-19027619D01*
X60531428Y-19071428D01*
X60619047Y-19202857D01*
X60662857Y-19378095D01*
X60662857Y-19728571D01*
X60619047Y-19816190D01*
X60575238Y-19860000D01*
X60487619Y-19903809D01*
X60312380Y-19903809D01*
X60224761Y-19860000D01*
X60180952Y-19816190D01*
X60137142Y-19728571D01*
X60137142Y-19509523D01*
X60180952Y-19421904D01*
X60224761Y-19378095D01*
X60312380Y-19334285D01*
X60487619Y-19334285D01*
X60575238Y-19378095D01*
X60619047Y-19421904D01*
X60662857Y-19509523D01*
X61592857Y-19047142D02*
X61592857Y-19827142D01*
X61778571Y-19827142D01*
X61890000Y-19790000D01*
X61964285Y-19715714D01*
X62001428Y-19641428D01*
X62038571Y-19492857D01*
X62038571Y-19381428D01*
X62001428Y-19232857D01*
X61964285Y-19158571D01*
X61890000Y-19084285D01*
X61778571Y-19047142D01*
X61592857Y-19047142D01*
X62781428Y-19047142D02*
X62335714Y-19047142D01*
X62558571Y-19047142D02*
X62558571Y-19827142D01*
X62484285Y-19715714D01*
X62410000Y-19641428D01*
X62335714Y-19604285D01*
X63264285Y-19827142D02*
X63338571Y-19827142D01*
X63412857Y-19790000D01*
X63450000Y-19752857D01*
X63487142Y-19678571D01*
X63524285Y-19530000D01*
X63524285Y-19344285D01*
X63487142Y-19195714D01*
X63450000Y-19121428D01*
X63412857Y-19084285D01*
X63338571Y-19047142D01*
X63264285Y-19047142D01*
X63190000Y-19084285D01*
X63152857Y-19121428D01*
X63115714Y-19195714D01*
X63078571Y-19344285D01*
X63078571Y-19530000D01*
X63115714Y-19678571D01*
X63152857Y-19752857D01*
X63190000Y-19790000D01*
X63264285Y-19827142D01*
X64452857Y-19047142D02*
X64452857Y-19827142D01*
X64638571Y-19827142D01*
X64750000Y-19790000D01*
X64824285Y-19715714D01*
X64861428Y-19641428D01*
X64898571Y-19492857D01*
X64898571Y-19381428D01*
X64861428Y-19232857D01*
X64824285Y-19158571D01*
X64750000Y-19084285D01*
X64638571Y-19047142D01*
X64452857Y-19047142D01*
X65641428Y-19047142D02*
X65195714Y-19047142D01*
X65418571Y-19047142D02*
X65418571Y-19827142D01*
X65344285Y-19715714D01*
X65270000Y-19641428D01*
X65195714Y-19604285D01*
X66384285Y-19047142D02*
X65938571Y-19047142D01*
X66161428Y-19047142D02*
X66161428Y-19827142D01*
X66087142Y-19715714D01*
X66012857Y-19641428D01*
X65938571Y-19604285D01*
X67312857Y-19047142D02*
X67312857Y-19827142D01*
X67498571Y-19827142D01*
X67610000Y-19790000D01*
X67684285Y-19715714D01*
X67721428Y-19641428D01*
X67758571Y-19492857D01*
X67758571Y-19381428D01*
X67721428Y-19232857D01*
X67684285Y-19158571D01*
X67610000Y-19084285D01*
X67498571Y-19047142D01*
X67312857Y-19047142D01*
X68501428Y-19047142D02*
X68055714Y-19047142D01*
X68278571Y-19047142D02*
X68278571Y-19827142D01*
X68204285Y-19715714D01*
X68130000Y-19641428D01*
X68055714Y-19604285D01*
X68798571Y-19752857D02*
X68835714Y-19790000D01*
X68910000Y-19827142D01*
X69095714Y-19827142D01*
X69170000Y-19790000D01*
X69207142Y-19752857D01*
X69244285Y-19678571D01*
X69244285Y-19604285D01*
X69207142Y-19492857D01*
X68761428Y-19047142D01*
X69244285Y-19047142D01*
X37519047Y-30061904D02*
X37785714Y-29680952D01*
X37976190Y-30061904D02*
X37976190Y-29261904D01*
X37671428Y-29261904D01*
X37595238Y-29300000D01*
X37557142Y-29338095D01*
X37519047Y-29414285D01*
X37519047Y-29528571D01*
X37557142Y-29604761D01*
X37595238Y-29642857D01*
X37671428Y-29680952D01*
X37976190Y-29680952D01*
X37214285Y-30023809D02*
X37100000Y-30061904D01*
X36909523Y-30061904D01*
X36833333Y-30023809D01*
X36795238Y-29985714D01*
X36757142Y-29909523D01*
X36757142Y-29833333D01*
X36795238Y-29757142D01*
X36833333Y-29719047D01*
X36909523Y-29680952D01*
X37061904Y-29642857D01*
X37138095Y-29604761D01*
X37176190Y-29566666D01*
X37214285Y-29490476D01*
X37214285Y-29414285D01*
X37176190Y-29338095D01*
X37138095Y-29300000D01*
X37061904Y-29261904D01*
X36871428Y-29261904D01*
X36757142Y-29300000D01*
X36528571Y-29261904D02*
X36071428Y-29261904D01*
X36300000Y-30061904D02*
X36300000Y-29261904D01*
X34776190Y-29300000D02*
X34852380Y-29261904D01*
X34966666Y-29261904D01*
X35080952Y-29300000D01*
X35157142Y-29376190D01*
X35195238Y-29452380D01*
X35233333Y-29604761D01*
X35233333Y-29719047D01*
X35195238Y-29871428D01*
X35157142Y-29947619D01*
X35080952Y-30023809D01*
X34966666Y-30061904D01*
X34890476Y-30061904D01*
X34776190Y-30023809D01*
X34738095Y-29985714D01*
X34738095Y-29719047D01*
X34890476Y-29719047D01*
X34395238Y-30061904D02*
X34395238Y-29261904D01*
X33938095Y-30061904D01*
X33938095Y-29261904D01*
X33557142Y-30061904D02*
X33557142Y-29261904D01*
X33366666Y-29261904D01*
X33252380Y-29300000D01*
X33176190Y-29376190D01*
X33138095Y-29452380D01*
X33100000Y-29604761D01*
X33100000Y-29719047D01*
X33138095Y-29871428D01*
X33176190Y-29947619D01*
X33252380Y-30023809D01*
X33366666Y-30061904D01*
X33557142Y-30061904D01*
X32261904Y-29261904D02*
X31995238Y-30061904D01*
X31728571Y-29261904D01*
X31461904Y-30061904D02*
X31461904Y-29261904D01*
X31080952Y-30061904D02*
X31080952Y-29261904D01*
X30623809Y-30061904D01*
X30623809Y-29261904D01*
X60160000Y-29760000D02*
X59702857Y-29760000D01*
X60251428Y-30034285D02*
X59931428Y-29074285D01*
X59611428Y-30034285D01*
X59108571Y-29074285D02*
X59017142Y-29074285D01*
X58925714Y-29120000D01*
X58880000Y-29165714D01*
X58834285Y-29257142D01*
X58788571Y-29440000D01*
X58788571Y-29668571D01*
X58834285Y-29851428D01*
X58880000Y-29942857D01*
X58925714Y-29988571D01*
X59017142Y-30034285D01*
X59108571Y-30034285D01*
X59200000Y-29988571D01*
X59245714Y-29942857D01*
X59291428Y-29851428D01*
X59337142Y-29668571D01*
X59337142Y-29440000D01*
X59291428Y-29257142D01*
X59245714Y-29165714D01*
X59200000Y-29120000D01*
X59108571Y-29074285D01*
X57691428Y-29760000D02*
X57234285Y-29760000D01*
X57782857Y-30034285D02*
X57462857Y-29074285D01*
X57142857Y-30034285D01*
X56320000Y-30034285D02*
X56868571Y-30034285D01*
X56594285Y-30034285D02*
X56594285Y-29074285D01*
X56685714Y-29211428D01*
X56777142Y-29302857D01*
X56868571Y-29348571D01*
X55222857Y-29760000D02*
X54765714Y-29760000D01*
X55314285Y-30034285D02*
X54994285Y-29074285D01*
X54674285Y-30034285D01*
X54400000Y-29165714D02*
X54354285Y-29120000D01*
X54262857Y-29074285D01*
X54034285Y-29074285D01*
X53942857Y-29120000D01*
X53897142Y-29165714D01*
X53851428Y-29257142D01*
X53851428Y-29348571D01*
X53897142Y-29485714D01*
X54445714Y-30034285D01*
X53851428Y-30034285D01*
X52754285Y-29760000D02*
X52297142Y-29760000D01*
X52845714Y-30034285D02*
X52525714Y-29074285D01*
X52205714Y-30034285D01*
X51977142Y-29074285D02*
X51382857Y-29074285D01*
X51702857Y-29440000D01*
X51565714Y-29440000D01*
X51474285Y-29485714D01*
X51428571Y-29531428D01*
X51382857Y-29622857D01*
X51382857Y-29851428D01*
X51428571Y-29942857D01*
X51474285Y-29988571D01*
X51565714Y-30034285D01*
X51840000Y-30034285D01*
X51931428Y-29988571D01*
X51977142Y-29942857D01*
X50285714Y-29760000D02*
X49828571Y-29760000D01*
X50377142Y-30034285D02*
X50057142Y-29074285D01*
X49737142Y-30034285D01*
X49005714Y-29394285D02*
X49005714Y-30034285D01*
X49234285Y-29028571D02*
X49462857Y-29714285D01*
X48868571Y-29714285D01*
X47817142Y-29760000D02*
X47360000Y-29760000D01*
X47908571Y-30034285D02*
X47588571Y-29074285D01*
X47268571Y-30034285D01*
X46491428Y-29074285D02*
X46948571Y-29074285D01*
X46994285Y-29531428D01*
X46948571Y-29485714D01*
X46857142Y-29440000D01*
X46628571Y-29440000D01*
X46537142Y-29485714D01*
X46491428Y-29531428D01*
X46445714Y-29622857D01*
X46445714Y-29851428D01*
X46491428Y-29942857D01*
X46537142Y-29988571D01*
X46628571Y-30034285D01*
X46857142Y-30034285D01*
X46948571Y-29988571D01*
X46994285Y-29942857D01*
X45348571Y-29760000D02*
X44891428Y-29760000D01*
X45440000Y-30034285D02*
X45120000Y-29074285D01*
X44800000Y-30034285D01*
X44068571Y-29074285D02*
X44251428Y-29074285D01*
X44342857Y-29120000D01*
X44388571Y-29165714D01*
X44480000Y-29302857D01*
X44525714Y-29485714D01*
X44525714Y-29851428D01*
X44480000Y-29942857D01*
X44434285Y-29988571D01*
X44342857Y-30034285D01*
X44160000Y-30034285D01*
X44068571Y-29988571D01*
X44022857Y-29942857D01*
X43977142Y-29851428D01*
X43977142Y-29622857D01*
X44022857Y-29531428D01*
X44068571Y-29485714D01*
X44160000Y-29440000D01*
X44342857Y-29440000D01*
X44434285Y-29485714D01*
X44480000Y-29531428D01*
X44525714Y-29622857D01*
X42880000Y-29760000D02*
X42422857Y-29760000D01*
X42971428Y-30034285D02*
X42651428Y-29074285D01*
X42331428Y-30034285D01*
X42102857Y-29074285D02*
X41462857Y-29074285D01*
X41874285Y-30034285D01*
X39908571Y-29074285D02*
X40365714Y-29074285D01*
X40411428Y-29531428D01*
X40365714Y-29485714D01*
X40274285Y-29440000D01*
X40045714Y-29440000D01*
X39954285Y-29485714D01*
X39908571Y-29531428D01*
X39862857Y-29622857D01*
X39862857Y-29851428D01*
X39908571Y-29942857D01*
X39954285Y-29988571D01*
X40045714Y-30034285D01*
X40274285Y-30034285D01*
X40365714Y-29988571D01*
X40411428Y-29942857D01*
X39588571Y-29074285D02*
X39268571Y-30034285D01*
X38948571Y-29074285D01*
X69290476Y-30061904D02*
X69290476Y-29261904D01*
X69100000Y-29261904D01*
X68985714Y-29300000D01*
X68909523Y-29376190D01*
X68871428Y-29452380D01*
X68833333Y-29604761D01*
X68833333Y-29719047D01*
X68871428Y-29871428D01*
X68909523Y-29947619D01*
X68985714Y-30023809D01*
X69100000Y-30061904D01*
X69290476Y-30061904D01*
X68071428Y-30061904D02*
X68528571Y-30061904D01*
X68300000Y-30061904D02*
X68300000Y-29261904D01*
X68376190Y-29376190D01*
X68452380Y-29452380D01*
X68528571Y-29490476D01*
X67804761Y-29261904D02*
X67309523Y-29261904D01*
X67576190Y-29566666D01*
X67461904Y-29566666D01*
X67385714Y-29604761D01*
X67347619Y-29642857D01*
X67309523Y-29719047D01*
X67309523Y-29909523D01*
X67347619Y-29985714D01*
X67385714Y-30023809D01*
X67461904Y-30061904D01*
X67690476Y-30061904D01*
X67766666Y-30023809D01*
X67804761Y-29985714D01*
X66433333Y-29261904D02*
X65938095Y-29261904D01*
X66204761Y-29566666D01*
X66090476Y-29566666D01*
X66014285Y-29604761D01*
X65976190Y-29642857D01*
X65938095Y-29719047D01*
X65938095Y-29909523D01*
X65976190Y-29985714D01*
X66014285Y-30023809D01*
X66090476Y-30061904D01*
X66319047Y-30061904D01*
X66395238Y-30023809D01*
X66433333Y-29985714D01*
X65709523Y-29261904D02*
X65442857Y-30061904D01*
X65176190Y-29261904D01*
X64985714Y-29261904D02*
X64490476Y-29261904D01*
X64757142Y-29566666D01*
X64642857Y-29566666D01*
X64566666Y-29604761D01*
X64528571Y-29642857D01*
X64490476Y-29719047D01*
X64490476Y-29909523D01*
X64528571Y-29985714D01*
X64566666Y-30023809D01*
X64642857Y-30061904D01*
X64871428Y-30061904D01*
X64947619Y-30023809D01*
X64985714Y-29985714D01*
X63080952Y-30061904D02*
X63347619Y-29680952D01*
X63538095Y-30061904D02*
X63538095Y-29261904D01*
X63233333Y-29261904D01*
X63157142Y-29300000D01*
X63119047Y-29338095D01*
X63080952Y-29414285D01*
X63080952Y-29528571D01*
X63119047Y-29604761D01*
X63157142Y-29642857D01*
X63233333Y-29680952D01*
X63538095Y-29680952D01*
X62738095Y-29642857D02*
X62471428Y-29642857D01*
X62357142Y-30061904D02*
X62738095Y-30061904D01*
X62738095Y-29261904D01*
X62357142Y-29261904D01*
X61747619Y-29642857D02*
X62014285Y-29642857D01*
X62014285Y-30061904D02*
X62014285Y-29261904D01*
X61633333Y-29261904D01*
G04 #@! TO.C,J5*
X59233333Y-5152380D02*
X59233333Y-5866666D01*
X59280952Y-6009523D01*
X59376190Y-6104761D01*
X59519047Y-6152380D01*
X59614285Y-6152380D01*
X58280952Y-5152380D02*
X58757142Y-5152380D01*
X58804761Y-5628571D01*
X58757142Y-5580952D01*
X58661904Y-5533333D01*
X58423809Y-5533333D01*
X58328571Y-5580952D01*
X58280952Y-5628571D01*
X58233333Y-5723809D01*
X58233333Y-5961904D01*
X58280952Y-6057142D01*
X58328571Y-6104761D01*
X58423809Y-6152380D01*
X58661904Y-6152380D01*
X58757142Y-6104761D01*
X58804761Y-6057142D01*
G04 #@! TO.C,J4*
X50733333Y-35532380D02*
X50733333Y-36246666D01*
X50780952Y-36389523D01*
X50876190Y-36484761D01*
X51019047Y-36532380D01*
X51114285Y-36532380D01*
X49828571Y-35865714D02*
X49828571Y-36532380D01*
X50066666Y-35484761D02*
X50304761Y-36199047D01*
X49685714Y-36199047D01*
G04 #@! TO.C,J3*
X44463333Y-46132380D02*
X44463333Y-46846666D01*
X44510952Y-46989523D01*
X44606190Y-47084761D01*
X44749047Y-47132380D01*
X44844285Y-47132380D01*
X44082380Y-46132380D02*
X43463333Y-46132380D01*
X43796666Y-46513333D01*
X43653809Y-46513333D01*
X43558571Y-46560952D01*
X43510952Y-46608571D01*
X43463333Y-46703809D01*
X43463333Y-46941904D01*
X43510952Y-47037142D01*
X43558571Y-47084761D01*
X43653809Y-47132380D01*
X43939523Y-47132380D01*
X44034761Y-47084761D01*
X44082380Y-47037142D01*
G04 #@! TO.C,LS1*
X44842857Y-13852380D02*
X45319047Y-13852380D01*
X45319047Y-12852380D01*
X44557142Y-13804761D02*
X44414285Y-13852380D01*
X44176190Y-13852380D01*
X44080952Y-13804761D01*
X44033333Y-13757142D01*
X43985714Y-13661904D01*
X43985714Y-13566666D01*
X44033333Y-13471428D01*
X44080952Y-13423809D01*
X44176190Y-13376190D01*
X44366666Y-13328571D01*
X44461904Y-13280952D01*
X44509523Y-13233333D01*
X44557142Y-13138095D01*
X44557142Y-13042857D01*
X44509523Y-12947619D01*
X44461904Y-12900000D01*
X44366666Y-12852380D01*
X44128571Y-12852380D01*
X43985714Y-12900000D01*
X43033333Y-13852380D02*
X43604761Y-13852380D01*
X43319047Y-13852380D02*
X43319047Y-12852380D01*
X43414285Y-12995238D01*
X43509523Y-13090476D01*
X43604761Y-13138095D01*
X46180952Y-12471428D02*
X45419047Y-12471428D01*
X45800000Y-12852380D02*
X45800000Y-12090476D01*
G04 #@! TO.C,D5*
X19168095Y-12112380D02*
X19168095Y-11112380D01*
X18930000Y-11112380D01*
X18787142Y-11160000D01*
X18691904Y-11255238D01*
X18644285Y-11350476D01*
X18596666Y-11540952D01*
X18596666Y-11683809D01*
X18644285Y-11874285D01*
X18691904Y-11969523D01*
X18787142Y-12064761D01*
X18930000Y-12112380D01*
X19168095Y-12112380D01*
X17691904Y-11112380D02*
X18168095Y-11112380D01*
X18215714Y-11588571D01*
X18168095Y-11540952D01*
X18072857Y-11493333D01*
X17834761Y-11493333D01*
X17739523Y-11540952D01*
X17691904Y-11588571D01*
X17644285Y-11683809D01*
X17644285Y-11921904D01*
X17691904Y-12017142D01*
X17739523Y-12064761D01*
X17834761Y-12112380D01*
X18072857Y-12112380D01*
X18168095Y-12064761D01*
X18215714Y-12017142D01*
G04 #@! TO.C,a1*
X33428571Y-43742857D02*
X34000000Y-43742857D01*
X34057142Y-44314285D01*
X34000000Y-44257142D01*
X33885714Y-44200000D01*
X33600000Y-44200000D01*
X33485714Y-44257142D01*
X33428571Y-44314285D01*
X33371428Y-44428571D01*
X33371428Y-44714285D01*
X33428571Y-44828571D01*
X33485714Y-44885714D01*
X33600000Y-44942857D01*
X33885714Y-44942857D01*
X34000000Y-44885714D01*
X34057142Y-44828571D01*
X33028571Y-43742857D02*
X32628571Y-44942857D01*
X32228571Y-43742857D01*
X17842857Y-36152380D02*
X17842857Y-35152380D01*
X17366666Y-36152380D02*
X17366666Y-35152380D01*
X16795238Y-36152380D01*
X16795238Y-35152380D01*
X16319047Y-35771428D02*
X15557142Y-35771428D01*
X15938095Y-36152380D02*
X15938095Y-35390476D01*
X21842857Y-44742857D02*
X21842857Y-43542857D01*
X21442857Y-44400000D01*
X21042857Y-43542857D01*
X21042857Y-44742857D01*
X19957142Y-44742857D02*
X19957142Y-44114285D01*
X20014285Y-44000000D01*
X20128571Y-43942857D01*
X20357142Y-43942857D01*
X20471428Y-44000000D01*
X19957142Y-44685714D02*
X20071428Y-44742857D01*
X20357142Y-44742857D01*
X20471428Y-44685714D01*
X20528571Y-44571428D01*
X20528571Y-44457142D01*
X20471428Y-44342857D01*
X20357142Y-44285714D01*
X20071428Y-44285714D01*
X19957142Y-44228571D01*
X19500000Y-44742857D02*
X18871428Y-43942857D01*
X19500000Y-43942857D02*
X18871428Y-44742857D01*
X17614285Y-43542857D02*
X16871428Y-43542857D01*
X17271428Y-44000000D01*
X17100000Y-44000000D01*
X16985714Y-44057142D01*
X16928571Y-44114285D01*
X16871428Y-44228571D01*
X16871428Y-44514285D01*
X16928571Y-44628571D01*
X16985714Y-44685714D01*
X17100000Y-44742857D01*
X17442857Y-44742857D01*
X17557142Y-44685714D01*
X17614285Y-44628571D01*
X15842857Y-43542857D02*
X16071428Y-43542857D01*
X16185714Y-43600000D01*
X16242857Y-43657142D01*
X16357142Y-43828571D01*
X16414285Y-44057142D01*
X16414285Y-44514285D01*
X16357142Y-44628571D01*
X16300000Y-44685714D01*
X16185714Y-44742857D01*
X15957142Y-44742857D01*
X15842857Y-44685714D01*
X15785714Y-44628571D01*
X15728571Y-44514285D01*
X15728571Y-44228571D01*
X15785714Y-44114285D01*
X15842857Y-44057142D01*
X15957142Y-44000000D01*
X16185714Y-44000000D01*
X16300000Y-44057142D01*
X16357142Y-44114285D01*
X16414285Y-44228571D01*
X15385714Y-43542857D02*
X14985714Y-44742857D01*
X14585714Y-43542857D01*
X34719047Y-35152380D02*
X34528571Y-35152380D01*
X34433333Y-35200000D01*
X34338095Y-35295238D01*
X34290476Y-35485714D01*
X34290476Y-35819047D01*
X34338095Y-36009523D01*
X34433333Y-36104761D01*
X34528571Y-36152380D01*
X34719047Y-36152380D01*
X34814285Y-36104761D01*
X34909523Y-36009523D01*
X34957142Y-35819047D01*
X34957142Y-35485714D01*
X34909523Y-35295238D01*
X34814285Y-35200000D01*
X34719047Y-35152380D01*
X33861904Y-35152380D02*
X33861904Y-35961904D01*
X33814285Y-36057142D01*
X33766666Y-36104761D01*
X33671428Y-36152380D01*
X33480952Y-36152380D01*
X33385714Y-36104761D01*
X33338095Y-36057142D01*
X33290476Y-35961904D01*
X33290476Y-35152380D01*
X32957142Y-35152380D02*
X32385714Y-35152380D01*
X32671428Y-36152380D02*
X32671428Y-35152380D01*
X32052380Y-35771428D02*
X31290476Y-35771428D01*
X31671428Y-36152380D02*
X31671428Y-35390476D01*
X17342857Y-52852380D02*
X17342857Y-51852380D01*
X16866666Y-52852380D02*
X16866666Y-51852380D01*
X16295238Y-52852380D01*
X16295238Y-51852380D01*
X15819047Y-52471428D02*
X15057142Y-52471428D01*
X34419047Y-51352380D02*
X34228571Y-51352380D01*
X34133333Y-51400000D01*
X34038095Y-51495238D01*
X33990476Y-51685714D01*
X33990476Y-52019047D01*
X34038095Y-52209523D01*
X34133333Y-52304761D01*
X34228571Y-52352380D01*
X34419047Y-52352380D01*
X34514285Y-52304761D01*
X34609523Y-52209523D01*
X34657142Y-52019047D01*
X34657142Y-51685714D01*
X34609523Y-51495238D01*
X34514285Y-51400000D01*
X34419047Y-51352380D01*
X33561904Y-51352380D02*
X33561904Y-52161904D01*
X33514285Y-52257142D01*
X33466666Y-52304761D01*
X33371428Y-52352380D01*
X33180952Y-52352380D01*
X33085714Y-52304761D01*
X33038095Y-52257142D01*
X32990476Y-52161904D01*
X32990476Y-51352380D01*
X32657142Y-51352380D02*
X32085714Y-51352380D01*
X32371428Y-52352380D02*
X32371428Y-51352380D01*
X31752380Y-51971428D02*
X30990476Y-51971428D01*
G04 #@! TO.C,TH1*
X49595714Y-23902380D02*
X49024285Y-23902380D01*
X49310000Y-24902380D02*
X49310000Y-23902380D01*
X48690952Y-24902380D02*
X48690952Y-23902380D01*
X48690952Y-24378571D02*
X48119523Y-24378571D01*
X48119523Y-24902380D02*
X48119523Y-23902380D01*
X47119523Y-24902380D02*
X47690952Y-24902380D01*
X47405238Y-24902380D02*
X47405238Y-23902380D01*
X47500476Y-24045238D01*
X47595714Y-24140476D01*
X47690952Y-24188095D01*
G04 #@! TO.C,C7*
X7166666Y-48157142D02*
X7214285Y-48204761D01*
X7357142Y-48252380D01*
X7452380Y-48252380D01*
X7595238Y-48204761D01*
X7690476Y-48109523D01*
X7738095Y-48014285D01*
X7785714Y-47823809D01*
X7785714Y-47680952D01*
X7738095Y-47490476D01*
X7690476Y-47395238D01*
X7595238Y-47300000D01*
X7452380Y-47252380D01*
X7357142Y-47252380D01*
X7214285Y-47300000D01*
X7166666Y-47347619D01*
X6833333Y-47252380D02*
X6166666Y-47252380D01*
X6595238Y-48252380D01*
G04 #@! TO.C,J1*
X6113333Y-39152380D02*
X6113333Y-39866666D01*
X6160952Y-40009523D01*
X6256190Y-40104761D01*
X6399047Y-40152380D01*
X6494285Y-40152380D01*
X5113333Y-40152380D02*
X5684761Y-40152380D01*
X5399047Y-40152380D02*
X5399047Y-39152380D01*
X5494285Y-39295238D01*
X5589523Y-39390476D01*
X5684761Y-39438095D01*
G04 #@! TO.C,J2*
X23453333Y-17152380D02*
X23453333Y-17866666D01*
X23500952Y-18009523D01*
X23596190Y-18104761D01*
X23739047Y-18152380D01*
X23834285Y-18152380D01*
X23024761Y-17247619D02*
X22977142Y-17200000D01*
X22881904Y-17152380D01*
X22643809Y-17152380D01*
X22548571Y-17200000D01*
X22500952Y-17247619D01*
X22453333Y-17342857D01*
X22453333Y-17438095D01*
X22500952Y-17580952D01*
X23072380Y-18152380D01*
X22453333Y-18152380D01*
G04 #@! TD*
%LPC*%
D14*
G04 #@! TO.C,a2*
X67660000Y-32100000D03*
X67660000Y-17100000D03*
X32100000Y-32100000D03*
X65120000Y-17100000D03*
X34640000Y-32100000D03*
X62580000Y-17100000D03*
X37180000Y-32100000D03*
X60040000Y-17100000D03*
X39720000Y-32100000D03*
X57500000Y-17100000D03*
X42260000Y-32100000D03*
X54960000Y-17100000D03*
X44800000Y-32100000D03*
X52420000Y-17100000D03*
X47340000Y-32100000D03*
X49880000Y-17100000D03*
X49880000Y-32100000D03*
X47340000Y-17100000D03*
X52420000Y-32100000D03*
X44800000Y-17100000D03*
X54960000Y-32100000D03*
X42260000Y-17100000D03*
X57500000Y-32100000D03*
X39720000Y-17100000D03*
X60040000Y-32100000D03*
X37180000Y-17100000D03*
X62580000Y-32100000D03*
X34640000Y-17100000D03*
X65120000Y-32100000D03*
G36*
G01*
X31330000Y-15950000D02*
X32870000Y-15950000D01*
G75*
G02*
X33200000Y-16280000I0J-330000D01*
G01*
X33200000Y-17920000D01*
G75*
G02*
X32870000Y-18250000I-330000J0D01*
G01*
X31330000Y-18250000D01*
G75*
G02*
X31000000Y-17920000I0J330000D01*
G01*
X31000000Y-16280000D01*
G75*
G02*
X31330000Y-15950000I330000J0D01*
G01*
G37*
G04 #@! TD*
G04 #@! TO.C,J5*
X54880000Y-8800000D03*
X57420000Y-8800000D03*
G36*
G01*
X63600000Y-7973400D02*
X63600000Y-9626600D01*
G75*
G02*
X63276600Y-9950000I-323400J0D01*
G01*
X61723400Y-9950000D01*
G75*
G02*
X61400000Y-9626600I0J323400D01*
G01*
X61400000Y-7973400D01*
G75*
G02*
X61723400Y-7650000I323400J0D01*
G01*
X63276600Y-7650000D01*
G75*
G02*
X63600000Y-7973400I0J-323400D01*
G01*
G37*
X59960000Y-8800000D03*
G04 #@! TD*
D15*
G04 #@! TO.C,J4*
X47380000Y-40200000D03*
X49920000Y-40200000D03*
X52460000Y-40200000D03*
G36*
G01*
X56100000Y-39166800D02*
X56100000Y-41233200D01*
G75*
G02*
X55783200Y-41550000I-316800J0D01*
G01*
X54216800Y-41550000D01*
G75*
G02*
X53900000Y-41233200I0J316800D01*
G01*
X53900000Y-39166800D01*
G75*
G02*
X54216800Y-38850000I316800J0D01*
G01*
X55783200Y-38850000D01*
G75*
G02*
X56100000Y-39166800I0J-316800D01*
G01*
G37*
G04 #@! TD*
D14*
G04 #@! TO.C,J3*
X42860000Y-50800000D03*
G36*
G01*
X46500000Y-49966800D02*
X46500000Y-51633200D01*
G75*
G02*
X46183200Y-51950000I-316800J0D01*
G01*
X44616800Y-51950000D01*
G75*
G02*
X44300000Y-51633200I0J316800D01*
G01*
X44300000Y-49966800D01*
G75*
G02*
X44616800Y-49650000I316800J0D01*
G01*
X46183200Y-49650000D01*
G75*
G02*
X46500000Y-49966800I0J-316800D01*
G01*
G37*
G04 #@! TD*
G04 #@! TO.C,LS1*
G36*
G01*
X40550000Y-10936000D02*
X40550000Y-9464000D01*
G75*
G02*
X40964000Y-9050000I414000J0D01*
G01*
X42436000Y-9050000D01*
G75*
G02*
X42850000Y-9464000I0J-414000D01*
G01*
X42850000Y-10936000D01*
G75*
G02*
X42436000Y-11350000I-414000J0D01*
G01*
X40964000Y-11350000D01*
G75*
G02*
X40550000Y-10936000I0J414000D01*
G01*
G37*
D16*
X45900000Y-10200000D03*
G04 #@! TD*
D17*
G04 #@! TO.C,D5*
X19700000Y-8700000D03*
G36*
G01*
X16110000Y-9330000D02*
X16110000Y-8070000D01*
G75*
G02*
X16530000Y-7650000I420000J0D01*
G01*
X17790000Y-7650000D01*
G75*
G02*
X18210000Y-8070000I0J-420000D01*
G01*
X18210000Y-9330000D01*
G75*
G02*
X17790000Y-9750000I-420000J0D01*
G01*
X16530000Y-9750000D01*
G75*
G02*
X16110000Y-9330000I0J420000D01*
G01*
G37*
G04 #@! TD*
D18*
G04 #@! TO.C,a1*
X13300000Y-36450000D03*
X36300000Y-36450000D03*
X36300000Y-51950000D03*
G36*
G01*
X12250000Y-52475000D02*
X12250000Y-51425000D01*
G75*
G02*
X12775000Y-50900000I525000J0D01*
G01*
X13825000Y-50900000D01*
G75*
G02*
X14350000Y-51425000I0J-525000D01*
G01*
X14350000Y-52475000D01*
G75*
G02*
X13825000Y-53000000I-525000J0D01*
G01*
X12775000Y-53000000D01*
G75*
G02*
X12250000Y-52475000I0J525000D01*
G01*
G37*
G04 #@! TD*
G04 #@! TO.C,TH1*
X61600000Y-26400000D03*
X46360000Y-26400000D03*
G04 #@! TD*
D19*
G04 #@! TO.C,C7*
X3900000Y-44900000D03*
G36*
G01*
X8750000Y-44170000D02*
X8750000Y-45630000D01*
G75*
G02*
X8330000Y-46050000I-420000J0D01*
G01*
X7070000Y-46050000D01*
G75*
G02*
X6650000Y-45630000I0J420000D01*
G01*
X6650000Y-44170000D01*
G75*
G02*
X7070000Y-43750000I420000J0D01*
G01*
X8330000Y-43750000D01*
G75*
G02*
X8750000Y-44170000I0J-420000D01*
G01*
G37*
G04 #@! TD*
D20*
G04 #@! TO.C,J1*
X7760000Y-34800000D03*
G36*
G01*
X2100000Y-36533800D02*
X2100000Y-33066200D01*
G75*
G02*
X2416200Y-32750000I316200J0D01*
G01*
X5183800Y-32750000D01*
G75*
G02*
X5500000Y-33066200I0J-316200D01*
G01*
X5500000Y-36533800D01*
G75*
G02*
X5183800Y-36850000I-316200J0D01*
G01*
X2416200Y-36850000D01*
G75*
G02*
X2100000Y-36533800I0J316200D01*
G01*
G37*
G04 #@! TD*
G04 #@! TO.C,J2*
X21140000Y-22600000D03*
G36*
G01*
X26800000Y-20866200D02*
X26800000Y-24333800D01*
G75*
G02*
X26483800Y-24650000I-316200J0D01*
G01*
X23716200Y-24650000D01*
G75*
G02*
X23400000Y-24333800I0J316200D01*
G01*
X23400000Y-20866200D01*
G75*
G02*
X23716200Y-20550000I316200J0D01*
G01*
X26483800Y-20550000D01*
G75*
G02*
X26800000Y-20866200I0J-316200D01*
G01*
G37*
G04 #@! TD*
D18*
G04 #@! TO.C,H4*
X69000000Y-6900000D03*
G04 #@! TD*
G04 #@! TO.C,H3*
X3200000Y-6900000D03*
G04 #@! TD*
G04 #@! TO.C,H2*
X3200000Y-51600000D03*
G04 #@! TD*
G04 #@! TO.C,H1*
X69000000Y-51600000D03*
G04 #@! TD*
M02*
