%FSLAX45Y45*%
G04 Gerber Fmt 4.5, Leading zero omitted, Abs format (unit mm)*
G04 Created by KiCad (PCBNEW (5.1.10)-1) date 2021-11-25 14:37:41*
%MOMM*%
%LPD*%
G01*
G04 APERTURE LIST*
%TA.AperFunction,Profile*%
%ADD10C,0.150000*%
%TD*%
%ADD11C,0.200000*%
%ADD12C,0.300000*%
G04 APERTURE END LIST*
D10*
X7200000Y-420000D02*
X7200000Y-5460000D01*
X20000Y-420000D02*
X7200000Y-420000D01*
X20000Y-5460000D02*
X20000Y-420000D01*
X7200000Y-5460000D02*
X20000Y-5460000D01*
D11*
X570000Y-2600000D02*
X630000Y-2660000D01*
X630000Y-2600000D02*
X570000Y-2660000D01*
X650000Y-3090000D02*
X710000Y-3150000D01*
X710000Y-3090000D02*
X650000Y-3150000D01*
X1010000Y-1710000D02*
X1070000Y-1770000D01*
X1070000Y-1710000D02*
X1010000Y-1770000D01*
X1010000Y-2670000D02*
X1070000Y-2730000D01*
X1070000Y-2670000D02*
X1010000Y-2730000D01*
X1290000Y-1150000D02*
X1350000Y-1210000D01*
X1350000Y-1150000D02*
X1290000Y-1210000D01*
X1290000Y-3090000D02*
X1350000Y-3150000D01*
X1350000Y-3090000D02*
X1290000Y-3150000D01*
X1410000Y-1710000D02*
X1470000Y-1770000D01*
X1470000Y-1710000D02*
X1410000Y-1770000D01*
X1410000Y-2670000D02*
X1470000Y-2730000D01*
X1470000Y-2670000D02*
X1410000Y-2730000D01*
X1670000Y-1970000D02*
X1730000Y-2030000D01*
X1730000Y-1970000D02*
X1670000Y-2030000D01*
X1670000Y-2430000D02*
X1730000Y-2490000D01*
X1730000Y-2430000D02*
X1670000Y-2490000D01*
X2140000Y-650000D02*
X2200000Y-710000D01*
X2200000Y-650000D02*
X2140000Y-710000D01*
X2170000Y-1370000D02*
X2230000Y-1430000D01*
X2230000Y-1370000D02*
X2170000Y-1430000D01*
X2170000Y-3070000D02*
X2230000Y-3130000D01*
X2230000Y-3070000D02*
X2170000Y-3130000D01*
X2330000Y-4620000D02*
X2390000Y-4680000D01*
X2390000Y-4620000D02*
X2330000Y-4680000D01*
X2970000Y-1110000D02*
X3030000Y-1170000D01*
X3030000Y-1110000D02*
X2970000Y-1170000D01*
X2990000Y-2690000D02*
X3050000Y-2750000D01*
X3050000Y-2690000D02*
X2990000Y-2750000D01*
X3790000Y-990000D02*
X3850000Y-1050000D01*
X3850000Y-990000D02*
X3790000Y-1050000D01*
X5210000Y-3550000D02*
X5270000Y-3610000D01*
X5270000Y-3550000D02*
X5210000Y-3610000D01*
X6660000Y-2600000D02*
X6720000Y-2660000D01*
X6720000Y-2600000D02*
X6660000Y-2660000D01*
X430000Y-4490000D02*
G75*
G03*
X430000Y-4490000I-40000J0D01*
G01*
X1756000Y-870000D02*
G75*
G03*
X1756000Y-870000I-40000J0D01*
G01*
X2010000Y-870000D02*
G75*
G03*
X2010000Y-870000I-40000J0D01*
G01*
X4210000Y-1020000D02*
G75*
G03*
X4210000Y-1020000I-40000J0D01*
G01*
X4630000Y-1020000D02*
G75*
G03*
X4630000Y-1020000I-40000J0D01*
G01*
X4676000Y-2640000D02*
G75*
G03*
X4676000Y-2640000I-40000J0D01*
G01*
X6200000Y-2640000D02*
G75*
G03*
X6200000Y-2640000I-40000J0D01*
G01*
X770000Y-4445000D02*
X770000Y-4535000D01*
X725000Y-4490000D02*
X815000Y-4490000D01*
X1330000Y-3600000D02*
X1330000Y-3690000D01*
X1285000Y-3645000D02*
X1375000Y-3645000D01*
X1330000Y-5150000D02*
X1330000Y-5240000D01*
X1285000Y-5195000D02*
X1375000Y-5195000D01*
X3210000Y-1665000D02*
X3210000Y-1755000D01*
X3165000Y-1710000D02*
X3255000Y-1710000D01*
X3210000Y-3165000D02*
X3210000Y-3255000D01*
X3165000Y-3210000D02*
X3255000Y-3210000D01*
X3464000Y-1665000D02*
X3464000Y-1755000D01*
X3419000Y-1710000D02*
X3509000Y-1710000D01*
X3464000Y-3165000D02*
X3464000Y-3255000D01*
X3419000Y-3210000D02*
X3509000Y-3210000D01*
X3630000Y-3600000D02*
X3630000Y-3690000D01*
X3585000Y-3645000D02*
X3675000Y-3645000D01*
X3630000Y-5150000D02*
X3630000Y-5240000D01*
X3585000Y-5195000D02*
X3675000Y-5195000D01*
X3718000Y-1665000D02*
X3718000Y-1755000D01*
X3673000Y-1710000D02*
X3763000Y-1710000D01*
X3718000Y-3165000D02*
X3718000Y-3255000D01*
X3673000Y-3210000D02*
X3763000Y-3210000D01*
X3972000Y-1665000D02*
X3972000Y-1755000D01*
X3927000Y-1710000D02*
X4017000Y-1710000D01*
X3972000Y-3165000D02*
X3972000Y-3255000D01*
X3927000Y-3210000D02*
X4017000Y-3210000D01*
X4226000Y-1665000D02*
X4226000Y-1755000D01*
X4181000Y-1710000D02*
X4271000Y-1710000D01*
X4226000Y-3165000D02*
X4226000Y-3255000D01*
X4181000Y-3210000D02*
X4271000Y-3210000D01*
X4286000Y-5035000D02*
X4286000Y-5125000D01*
X4241000Y-5080000D02*
X4331000Y-5080000D01*
X4480000Y-1665000D02*
X4480000Y-1755000D01*
X4435000Y-1710000D02*
X4525000Y-1710000D01*
X4480000Y-3165000D02*
X4480000Y-3255000D01*
X4435000Y-3210000D02*
X4525000Y-3210000D01*
X4540000Y-5035000D02*
X4540000Y-5125000D01*
X4495000Y-5080000D02*
X4585000Y-5080000D01*
X4734000Y-1665000D02*
X4734000Y-1755000D01*
X4689000Y-1710000D02*
X4779000Y-1710000D01*
X4734000Y-3165000D02*
X4734000Y-3255000D01*
X4689000Y-3210000D02*
X4779000Y-3210000D01*
X4738000Y-3975000D02*
X4738000Y-4065000D01*
X4693000Y-4020000D02*
X4783000Y-4020000D01*
X4988000Y-1665000D02*
X4988000Y-1755000D01*
X4943000Y-1710000D02*
X5033000Y-1710000D01*
X4988000Y-3165000D02*
X4988000Y-3255000D01*
X4943000Y-3210000D02*
X5033000Y-3210000D01*
X4992000Y-3975000D02*
X4992000Y-4065000D01*
X4947000Y-4020000D02*
X5037000Y-4020000D01*
X5242000Y-1665000D02*
X5242000Y-1755000D01*
X5197000Y-1710000D02*
X5287000Y-1710000D01*
X5242000Y-3165000D02*
X5242000Y-3255000D01*
X5197000Y-3210000D02*
X5287000Y-3210000D01*
X5246000Y-3975000D02*
X5246000Y-4065000D01*
X5201000Y-4020000D02*
X5291000Y-4020000D01*
X5488000Y-835000D02*
X5488000Y-925000D01*
X5443000Y-880000D02*
X5533000Y-880000D01*
X5496000Y-1665000D02*
X5496000Y-1755000D01*
X5451000Y-1710000D02*
X5541000Y-1710000D01*
X5496000Y-3165000D02*
X5496000Y-3255000D01*
X5451000Y-3210000D02*
X5541000Y-3210000D01*
X5500000Y-3975000D02*
X5500000Y-4065000D01*
X5455000Y-4020000D02*
X5545000Y-4020000D01*
X5742000Y-835000D02*
X5742000Y-925000D01*
X5697000Y-880000D02*
X5787000Y-880000D01*
X5750000Y-1665000D02*
X5750000Y-1755000D01*
X5705000Y-1710000D02*
X5795000Y-1710000D01*
X5750000Y-3165000D02*
X5750000Y-3255000D01*
X5705000Y-3210000D02*
X5795000Y-3210000D01*
X5996000Y-835000D02*
X5996000Y-925000D01*
X5951000Y-880000D02*
X6041000Y-880000D01*
X6004000Y-1665000D02*
X6004000Y-1755000D01*
X5959000Y-1710000D02*
X6049000Y-1710000D01*
X6004000Y-3165000D02*
X6004000Y-3255000D01*
X5959000Y-3210000D02*
X6049000Y-3210000D01*
X6250000Y-835000D02*
X6250000Y-925000D01*
X6205000Y-880000D02*
X6295000Y-880000D01*
X6258000Y-1665000D02*
X6258000Y-1755000D01*
X6213000Y-1710000D02*
X6303000Y-1710000D01*
X6258000Y-3165000D02*
X6258000Y-3255000D01*
X6213000Y-3210000D02*
X6303000Y-3210000D01*
X6512000Y-1665000D02*
X6512000Y-1755000D01*
X6467000Y-1710000D02*
X6557000Y-1710000D01*
X6512000Y-3165000D02*
X6512000Y-3255000D01*
X6467000Y-3210000D02*
X6557000Y-3210000D01*
X6766000Y-1665000D02*
X6766000Y-1755000D01*
X6721000Y-1710000D02*
X6811000Y-1710000D01*
X6766000Y-3165000D02*
X6766000Y-3255000D01*
X6721000Y-3210000D02*
X6811000Y-3210000D01*
X436569Y-3536569D02*
X436569Y-3423431D01*
X323431Y-3423431D01*
X323431Y-3536569D01*
X436569Y-3536569D01*
X832569Y-3536569D02*
X832569Y-3423431D01*
X719431Y-3423431D01*
X719431Y-3536569D01*
X832569Y-3536569D01*
X2170569Y-2316569D02*
X2170569Y-2203431D01*
X2057431Y-2203431D01*
X2057431Y-2316569D01*
X2170569Y-2316569D01*
X2566569Y-2316569D02*
X2566569Y-2203431D01*
X2453431Y-2203431D01*
X2453431Y-2316569D01*
X2566569Y-2316569D01*
D12*
X298928Y-5933214D02*
X298928Y-5633214D01*
X370357Y-5633214D01*
X413214Y-5647500D01*
X441786Y-5676071D01*
X456071Y-5704643D01*
X470357Y-5761786D01*
X470357Y-5804643D01*
X456071Y-5861786D01*
X441786Y-5890357D01*
X413214Y-5918929D01*
X370357Y-5933214D01*
X298928Y-5933214D01*
X598928Y-5933214D02*
X598928Y-5733214D01*
X598928Y-5790357D02*
X613214Y-5761786D01*
X627500Y-5747500D01*
X656071Y-5733214D01*
X684643Y-5733214D01*
X784643Y-5933214D02*
X784643Y-5733214D01*
X784643Y-5633214D02*
X770357Y-5647500D01*
X784643Y-5661786D01*
X798928Y-5647500D01*
X784643Y-5633214D01*
X784643Y-5661786D01*
X970357Y-5933214D02*
X941786Y-5918929D01*
X927500Y-5890357D01*
X927500Y-5633214D01*
X1127500Y-5933214D02*
X1098928Y-5918929D01*
X1084643Y-5890357D01*
X1084643Y-5633214D01*
X1470357Y-5933214D02*
X1470357Y-5633214D01*
X1570357Y-5847500D01*
X1670357Y-5633214D01*
X1670357Y-5933214D01*
X1941786Y-5933214D02*
X1941786Y-5776071D01*
X1927500Y-5747500D01*
X1898928Y-5733214D01*
X1841786Y-5733214D01*
X1813214Y-5747500D01*
X1941786Y-5918929D02*
X1913214Y-5933214D01*
X1841786Y-5933214D01*
X1813214Y-5918929D01*
X1798928Y-5890357D01*
X1798928Y-5861786D01*
X1813214Y-5833214D01*
X1841786Y-5818929D01*
X1913214Y-5818929D01*
X1941786Y-5804643D01*
X2084643Y-5733214D02*
X2084643Y-6033214D01*
X2084643Y-5747500D02*
X2113214Y-5733214D01*
X2170357Y-5733214D01*
X2198928Y-5747500D01*
X2213214Y-5761786D01*
X2227500Y-5790357D01*
X2227500Y-5876071D01*
X2213214Y-5904643D01*
X2198928Y-5918929D01*
X2170357Y-5933214D01*
X2113214Y-5933214D01*
X2084643Y-5918929D01*
X2356071Y-5904643D02*
X2370357Y-5918929D01*
X2356071Y-5933214D01*
X2341786Y-5918929D01*
X2356071Y-5904643D01*
X2356071Y-5933214D01*
X2356071Y-5747500D02*
X2370357Y-5761786D01*
X2356071Y-5776071D01*
X2341786Y-5761786D01*
X2356071Y-5747500D01*
X2356071Y-5776071D01*
X-47500Y-6397500D02*
X12500Y-6457500D01*
X12500Y-6397500D02*
X-47500Y-6457500D01*
X356071Y-6263214D02*
X384643Y-6263214D01*
X413214Y-6277500D01*
X427500Y-6291786D01*
X441786Y-6320357D01*
X456071Y-6377500D01*
X456071Y-6448929D01*
X441786Y-6506071D01*
X427500Y-6534643D01*
X413214Y-6548929D01*
X384643Y-6563214D01*
X356071Y-6563214D01*
X327500Y-6548929D01*
X313214Y-6534643D01*
X298928Y-6506071D01*
X284643Y-6448929D01*
X284643Y-6377500D01*
X298928Y-6320357D01*
X313214Y-6291786D01*
X327500Y-6277500D01*
X356071Y-6263214D01*
X584643Y-6534643D02*
X598928Y-6548929D01*
X584643Y-6563214D01*
X570357Y-6548929D01*
X584643Y-6534643D01*
X584643Y-6563214D01*
X856071Y-6263214D02*
X798928Y-6263214D01*
X770357Y-6277500D01*
X756071Y-6291786D01*
X727500Y-6334643D01*
X713214Y-6391786D01*
X713214Y-6506071D01*
X727500Y-6534643D01*
X741786Y-6548929D01*
X770357Y-6563214D01*
X827500Y-6563214D01*
X856071Y-6548929D01*
X870357Y-6534643D01*
X884643Y-6506071D01*
X884643Y-6434643D01*
X870357Y-6406071D01*
X856071Y-6391786D01*
X827500Y-6377500D01*
X770357Y-6377500D01*
X741786Y-6391786D01*
X727500Y-6406071D01*
X713214Y-6434643D01*
X1070357Y-6263214D02*
X1098928Y-6263214D01*
X1127500Y-6277500D01*
X1141786Y-6291786D01*
X1156071Y-6320357D01*
X1170357Y-6377500D01*
X1170357Y-6448929D01*
X1156071Y-6506071D01*
X1141786Y-6534643D01*
X1127500Y-6548929D01*
X1098928Y-6563214D01*
X1070357Y-6563214D01*
X1041786Y-6548929D01*
X1027500Y-6534643D01*
X1013214Y-6506071D01*
X998928Y-6448929D01*
X998928Y-6377500D01*
X1013214Y-6320357D01*
X1027500Y-6291786D01*
X1041786Y-6277500D01*
X1070357Y-6263214D01*
X1356071Y-6263214D02*
X1384643Y-6263214D01*
X1413214Y-6277500D01*
X1427500Y-6291786D01*
X1441786Y-6320357D01*
X1456071Y-6377500D01*
X1456071Y-6448929D01*
X1441786Y-6506071D01*
X1427500Y-6534643D01*
X1413214Y-6548929D01*
X1384643Y-6563214D01*
X1356071Y-6563214D01*
X1327500Y-6548929D01*
X1313214Y-6534643D01*
X1298928Y-6506071D01*
X1284643Y-6448929D01*
X1284643Y-6377500D01*
X1298928Y-6320357D01*
X1313214Y-6291786D01*
X1327500Y-6277500D01*
X1356071Y-6263214D01*
X1584643Y-6563214D02*
X1584643Y-6363214D01*
X1584643Y-6391786D02*
X1598928Y-6377500D01*
X1627500Y-6363214D01*
X1670357Y-6363214D01*
X1698928Y-6377500D01*
X1713214Y-6406071D01*
X1713214Y-6563214D01*
X1713214Y-6406071D02*
X1727500Y-6377500D01*
X1756071Y-6363214D01*
X1798928Y-6363214D01*
X1827500Y-6377500D01*
X1841786Y-6406071D01*
X1841786Y-6563214D01*
X1984643Y-6563214D02*
X1984643Y-6363214D01*
X1984643Y-6391786D02*
X1998928Y-6377500D01*
X2027500Y-6363214D01*
X2070357Y-6363214D01*
X2098928Y-6377500D01*
X2113214Y-6406071D01*
X2113214Y-6563214D01*
X2113214Y-6406071D02*
X2127500Y-6377500D01*
X2156071Y-6363214D01*
X2198928Y-6363214D01*
X2227500Y-6377500D01*
X2241786Y-6406071D01*
X2241786Y-6563214D01*
X2827500Y-6248929D02*
X2570357Y-6634643D01*
X3213214Y-6263214D02*
X3241786Y-6263214D01*
X3270357Y-6277500D01*
X3284643Y-6291786D01*
X3298928Y-6320357D01*
X3313214Y-6377500D01*
X3313214Y-6448929D01*
X3298928Y-6506071D01*
X3284643Y-6534643D01*
X3270357Y-6548929D01*
X3241786Y-6563214D01*
X3213214Y-6563214D01*
X3184643Y-6548929D01*
X3170357Y-6534643D01*
X3156071Y-6506071D01*
X3141786Y-6448929D01*
X3141786Y-6377500D01*
X3156071Y-6320357D01*
X3170357Y-6291786D01*
X3184643Y-6277500D01*
X3213214Y-6263214D01*
X3441786Y-6534643D02*
X3456071Y-6548929D01*
X3441786Y-6563214D01*
X3427500Y-6548929D01*
X3441786Y-6534643D01*
X3441786Y-6563214D01*
X3641786Y-6263214D02*
X3670357Y-6263214D01*
X3698928Y-6277500D01*
X3713214Y-6291786D01*
X3727500Y-6320357D01*
X3741786Y-6377500D01*
X3741786Y-6448929D01*
X3727500Y-6506071D01*
X3713214Y-6534643D01*
X3698928Y-6548929D01*
X3670357Y-6563214D01*
X3641786Y-6563214D01*
X3613214Y-6548929D01*
X3598928Y-6534643D01*
X3584643Y-6506071D01*
X3570357Y-6448929D01*
X3570357Y-6377500D01*
X3584643Y-6320357D01*
X3598928Y-6291786D01*
X3613214Y-6277500D01*
X3641786Y-6263214D01*
X3856071Y-6291786D02*
X3870357Y-6277500D01*
X3898928Y-6263214D01*
X3970357Y-6263214D01*
X3998928Y-6277500D01*
X4013214Y-6291786D01*
X4027500Y-6320357D01*
X4027500Y-6348929D01*
X4013214Y-6391786D01*
X3841786Y-6563214D01*
X4027500Y-6563214D01*
X4127500Y-6263214D02*
X4313214Y-6263214D01*
X4213214Y-6377500D01*
X4256071Y-6377500D01*
X4284643Y-6391786D01*
X4298928Y-6406071D01*
X4313214Y-6434643D01*
X4313214Y-6506071D01*
X4298928Y-6534643D01*
X4284643Y-6548929D01*
X4256071Y-6563214D01*
X4170357Y-6563214D01*
X4141786Y-6548929D01*
X4127500Y-6534643D01*
X4570357Y-6263214D02*
X4513214Y-6263214D01*
X4484643Y-6277500D01*
X4470357Y-6291786D01*
X4441786Y-6334643D01*
X4427500Y-6391786D01*
X4427500Y-6506071D01*
X4441786Y-6534643D01*
X4456071Y-6548929D01*
X4484643Y-6563214D01*
X4541786Y-6563214D01*
X4570357Y-6548929D01*
X4584643Y-6534643D01*
X4598928Y-6506071D01*
X4598928Y-6434643D01*
X4584643Y-6406071D01*
X4570357Y-6391786D01*
X4541786Y-6377500D01*
X4484643Y-6377500D01*
X4456071Y-6391786D01*
X4441786Y-6406071D01*
X4427500Y-6434643D01*
X4713214Y-6263214D02*
X4713214Y-6320357D01*
X4827500Y-6263214D02*
X4827500Y-6320357D01*
X5270357Y-6677500D02*
X5256071Y-6663214D01*
X5227500Y-6620357D01*
X5213214Y-6591786D01*
X5198928Y-6548929D01*
X5184643Y-6477500D01*
X5184643Y-6420357D01*
X5198928Y-6348929D01*
X5213214Y-6306071D01*
X5227500Y-6277500D01*
X5256071Y-6234643D01*
X5270357Y-6220357D01*
X5541786Y-6563214D02*
X5370357Y-6563214D01*
X5456071Y-6563214D02*
X5456071Y-6263214D01*
X5427500Y-6306071D01*
X5398928Y-6334643D01*
X5370357Y-6348929D01*
X5684643Y-6563214D02*
X5741786Y-6563214D01*
X5770357Y-6548929D01*
X5784643Y-6534643D01*
X5813214Y-6491786D01*
X5827500Y-6434643D01*
X5827500Y-6320357D01*
X5813214Y-6291786D01*
X5798928Y-6277500D01*
X5770357Y-6263214D01*
X5713214Y-6263214D01*
X5684643Y-6277500D01*
X5670357Y-6291786D01*
X5656071Y-6320357D01*
X5656071Y-6391786D01*
X5670357Y-6420357D01*
X5684643Y-6434643D01*
X5713214Y-6448929D01*
X5770357Y-6448929D01*
X5798928Y-6434643D01*
X5813214Y-6420357D01*
X5827500Y-6391786D01*
X6184643Y-6563214D02*
X6184643Y-6263214D01*
X6313214Y-6563214D02*
X6313214Y-6406071D01*
X6298928Y-6377500D01*
X6270357Y-6363214D01*
X6227500Y-6363214D01*
X6198928Y-6377500D01*
X6184643Y-6391786D01*
X6498928Y-6563214D02*
X6470357Y-6548929D01*
X6456071Y-6534643D01*
X6441786Y-6506071D01*
X6441786Y-6420357D01*
X6456071Y-6391786D01*
X6470357Y-6377500D01*
X6498928Y-6363214D01*
X6541786Y-6363214D01*
X6570357Y-6377500D01*
X6584643Y-6391786D01*
X6598928Y-6420357D01*
X6598928Y-6506071D01*
X6584643Y-6534643D01*
X6570357Y-6548929D01*
X6541786Y-6563214D01*
X6498928Y-6563214D01*
X6770357Y-6563214D02*
X6741786Y-6548929D01*
X6727500Y-6520357D01*
X6727500Y-6263214D01*
X6998928Y-6548929D02*
X6970357Y-6563214D01*
X6913214Y-6563214D01*
X6884643Y-6548929D01*
X6870357Y-6520357D01*
X6870357Y-6406071D01*
X6884643Y-6377500D01*
X6913214Y-6363214D01*
X6970357Y-6363214D01*
X6998928Y-6377500D01*
X7013214Y-6406071D01*
X7013214Y-6434643D01*
X6870357Y-6463214D01*
X7127500Y-6548929D02*
X7156071Y-6563214D01*
X7213214Y-6563214D01*
X7241786Y-6548929D01*
X7256071Y-6520357D01*
X7256071Y-6506071D01*
X7241786Y-6477500D01*
X7213214Y-6463214D01*
X7170357Y-6463214D01*
X7141786Y-6448929D01*
X7127500Y-6420357D01*
X7127500Y-6406071D01*
X7141786Y-6377500D01*
X7170357Y-6363214D01*
X7213214Y-6363214D01*
X7241786Y-6377500D01*
X7356071Y-6677500D02*
X7370357Y-6663214D01*
X7398928Y-6620357D01*
X7413214Y-6591786D01*
X7427500Y-6548929D01*
X7441786Y-6477500D01*
X7441786Y-6420357D01*
X7427500Y-6348929D01*
X7413214Y-6306071D01*
X7398928Y-6277500D01*
X7370357Y-6234643D01*
X7356071Y-6220357D01*
X12500Y-6823500D02*
G75*
G03*
X12500Y-6823500I-40000J0D01*
G01*
X356071Y-6659214D02*
X384643Y-6659214D01*
X413214Y-6673500D01*
X427500Y-6687786D01*
X441786Y-6716357D01*
X456071Y-6773500D01*
X456071Y-6844929D01*
X441786Y-6902071D01*
X427500Y-6930643D01*
X413214Y-6944929D01*
X384643Y-6959214D01*
X356071Y-6959214D01*
X327500Y-6944929D01*
X313214Y-6930643D01*
X298928Y-6902071D01*
X284643Y-6844929D01*
X284643Y-6773500D01*
X298928Y-6716357D01*
X313214Y-6687786D01*
X327500Y-6673500D01*
X356071Y-6659214D01*
X584643Y-6930643D02*
X598928Y-6944929D01*
X584643Y-6959214D01*
X570357Y-6944929D01*
X584643Y-6930643D01*
X584643Y-6959214D01*
X770357Y-6787786D02*
X741786Y-6773500D01*
X727500Y-6759214D01*
X713214Y-6730643D01*
X713214Y-6716357D01*
X727500Y-6687786D01*
X741786Y-6673500D01*
X770357Y-6659214D01*
X827500Y-6659214D01*
X856071Y-6673500D01*
X870357Y-6687786D01*
X884643Y-6716357D01*
X884643Y-6730643D01*
X870357Y-6759214D01*
X856071Y-6773500D01*
X827500Y-6787786D01*
X770357Y-6787786D01*
X741786Y-6802071D01*
X727500Y-6816357D01*
X713214Y-6844929D01*
X713214Y-6902071D01*
X727500Y-6930643D01*
X741786Y-6944929D01*
X770357Y-6959214D01*
X827500Y-6959214D01*
X856071Y-6944929D01*
X870357Y-6930643D01*
X884643Y-6902071D01*
X884643Y-6844929D01*
X870357Y-6816357D01*
X856071Y-6802071D01*
X827500Y-6787786D01*
X1070357Y-6659214D02*
X1098928Y-6659214D01*
X1127500Y-6673500D01*
X1141786Y-6687786D01*
X1156071Y-6716357D01*
X1170357Y-6773500D01*
X1170357Y-6844929D01*
X1156071Y-6902071D01*
X1141786Y-6930643D01*
X1127500Y-6944929D01*
X1098928Y-6959214D01*
X1070357Y-6959214D01*
X1041786Y-6944929D01*
X1027500Y-6930643D01*
X1013214Y-6902071D01*
X998928Y-6844929D01*
X998928Y-6773500D01*
X1013214Y-6716357D01*
X1027500Y-6687786D01*
X1041786Y-6673500D01*
X1070357Y-6659214D01*
X1356071Y-6659214D02*
X1384643Y-6659214D01*
X1413214Y-6673500D01*
X1427500Y-6687786D01*
X1441786Y-6716357D01*
X1456071Y-6773500D01*
X1456071Y-6844929D01*
X1441786Y-6902071D01*
X1427500Y-6930643D01*
X1413214Y-6944929D01*
X1384643Y-6959214D01*
X1356071Y-6959214D01*
X1327500Y-6944929D01*
X1313214Y-6930643D01*
X1298928Y-6902071D01*
X1284643Y-6844929D01*
X1284643Y-6773500D01*
X1298928Y-6716357D01*
X1313214Y-6687786D01*
X1327500Y-6673500D01*
X1356071Y-6659214D01*
X1584643Y-6959214D02*
X1584643Y-6759214D01*
X1584643Y-6787786D02*
X1598928Y-6773500D01*
X1627500Y-6759214D01*
X1670357Y-6759214D01*
X1698928Y-6773500D01*
X1713214Y-6802071D01*
X1713214Y-6959214D01*
X1713214Y-6802071D02*
X1727500Y-6773500D01*
X1756071Y-6759214D01*
X1798928Y-6759214D01*
X1827500Y-6773500D01*
X1841786Y-6802071D01*
X1841786Y-6959214D01*
X1984643Y-6959214D02*
X1984643Y-6759214D01*
X1984643Y-6787786D02*
X1998928Y-6773500D01*
X2027500Y-6759214D01*
X2070357Y-6759214D01*
X2098928Y-6773500D01*
X2113214Y-6802071D01*
X2113214Y-6959214D01*
X2113214Y-6802071D02*
X2127500Y-6773500D01*
X2156071Y-6759214D01*
X2198928Y-6759214D01*
X2227500Y-6773500D01*
X2241786Y-6802071D01*
X2241786Y-6959214D01*
X2827500Y-6644929D02*
X2570357Y-7030643D01*
X3213214Y-6659214D02*
X3241786Y-6659214D01*
X3270357Y-6673500D01*
X3284643Y-6687786D01*
X3298928Y-6716357D01*
X3313214Y-6773500D01*
X3313214Y-6844929D01*
X3298928Y-6902071D01*
X3284643Y-6930643D01*
X3270357Y-6944929D01*
X3241786Y-6959214D01*
X3213214Y-6959214D01*
X3184643Y-6944929D01*
X3170357Y-6930643D01*
X3156071Y-6902071D01*
X3141786Y-6844929D01*
X3141786Y-6773500D01*
X3156071Y-6716357D01*
X3170357Y-6687786D01*
X3184643Y-6673500D01*
X3213214Y-6659214D01*
X3441786Y-6930643D02*
X3456071Y-6944929D01*
X3441786Y-6959214D01*
X3427500Y-6944929D01*
X3441786Y-6930643D01*
X3441786Y-6959214D01*
X3641786Y-6659214D02*
X3670357Y-6659214D01*
X3698928Y-6673500D01*
X3713214Y-6687786D01*
X3727500Y-6716357D01*
X3741786Y-6773500D01*
X3741786Y-6844929D01*
X3727500Y-6902071D01*
X3713214Y-6930643D01*
X3698928Y-6944929D01*
X3670357Y-6959214D01*
X3641786Y-6959214D01*
X3613214Y-6944929D01*
X3598928Y-6930643D01*
X3584643Y-6902071D01*
X3570357Y-6844929D01*
X3570357Y-6773500D01*
X3584643Y-6716357D01*
X3598928Y-6687786D01*
X3613214Y-6673500D01*
X3641786Y-6659214D01*
X3841786Y-6659214D02*
X4027500Y-6659214D01*
X3927500Y-6773500D01*
X3970357Y-6773500D01*
X3998928Y-6787786D01*
X4013214Y-6802071D01*
X4027500Y-6830643D01*
X4027500Y-6902071D01*
X4013214Y-6930643D01*
X3998928Y-6944929D01*
X3970357Y-6959214D01*
X3884643Y-6959214D01*
X3856071Y-6944929D01*
X3841786Y-6930643D01*
X4313214Y-6959214D02*
X4141786Y-6959214D01*
X4227500Y-6959214D02*
X4227500Y-6659214D01*
X4198928Y-6702071D01*
X4170357Y-6730643D01*
X4141786Y-6744929D01*
X4584643Y-6659214D02*
X4441786Y-6659214D01*
X4427500Y-6802071D01*
X4441786Y-6787786D01*
X4470357Y-6773500D01*
X4541786Y-6773500D01*
X4570357Y-6787786D01*
X4584643Y-6802071D01*
X4598928Y-6830643D01*
X4598928Y-6902071D01*
X4584643Y-6930643D01*
X4570357Y-6944929D01*
X4541786Y-6959214D01*
X4470357Y-6959214D01*
X4441786Y-6944929D01*
X4427500Y-6930643D01*
X4713214Y-6659214D02*
X4713214Y-6716357D01*
X4827500Y-6659214D02*
X4827500Y-6716357D01*
X5270357Y-7073500D02*
X5256071Y-7059214D01*
X5227500Y-7016357D01*
X5213214Y-6987786D01*
X5198928Y-6944929D01*
X5184643Y-6873500D01*
X5184643Y-6816357D01*
X5198928Y-6744929D01*
X5213214Y-6702071D01*
X5227500Y-6673500D01*
X5256071Y-6630643D01*
X5270357Y-6616357D01*
X5356071Y-6659214D02*
X5556071Y-6659214D01*
X5427500Y-6959214D01*
X5898928Y-6959214D02*
X5898928Y-6659214D01*
X6027500Y-6959214D02*
X6027500Y-6802071D01*
X6013214Y-6773500D01*
X5984643Y-6759214D01*
X5941786Y-6759214D01*
X5913214Y-6773500D01*
X5898928Y-6787786D01*
X6213214Y-6959214D02*
X6184643Y-6944929D01*
X6170357Y-6930643D01*
X6156071Y-6902071D01*
X6156071Y-6816357D01*
X6170357Y-6787786D01*
X6184643Y-6773500D01*
X6213214Y-6759214D01*
X6256071Y-6759214D01*
X6284643Y-6773500D01*
X6298928Y-6787786D01*
X6313214Y-6816357D01*
X6313214Y-6902071D01*
X6298928Y-6930643D01*
X6284643Y-6944929D01*
X6256071Y-6959214D01*
X6213214Y-6959214D01*
X6484643Y-6959214D02*
X6456071Y-6944929D01*
X6441786Y-6916357D01*
X6441786Y-6659214D01*
X6713214Y-6944929D02*
X6684643Y-6959214D01*
X6627500Y-6959214D01*
X6598928Y-6944929D01*
X6584643Y-6916357D01*
X6584643Y-6802071D01*
X6598928Y-6773500D01*
X6627500Y-6759214D01*
X6684643Y-6759214D01*
X6713214Y-6773500D01*
X6727500Y-6802071D01*
X6727500Y-6830643D01*
X6584643Y-6859214D01*
X6841786Y-6944929D02*
X6870357Y-6959214D01*
X6927500Y-6959214D01*
X6956071Y-6944929D01*
X6970357Y-6916357D01*
X6970357Y-6902071D01*
X6956071Y-6873500D01*
X6927500Y-6859214D01*
X6884643Y-6859214D01*
X6856071Y-6844929D01*
X6841786Y-6816357D01*
X6841786Y-6802071D01*
X6856071Y-6773500D01*
X6884643Y-6759214D01*
X6927500Y-6759214D01*
X6956071Y-6773500D01*
X7070357Y-7073500D02*
X7084643Y-7059214D01*
X7113214Y-7016357D01*
X7127500Y-6987786D01*
X7141786Y-6944929D01*
X7156071Y-6873500D01*
X7156071Y-6816357D01*
X7141786Y-6744929D01*
X7127500Y-6702071D01*
X7113214Y-6673500D01*
X7084643Y-6630643D01*
X7070357Y-6616357D01*
X-32500Y-7174500D02*
X-32500Y-7264500D01*
X-77500Y-7219500D02*
X12500Y-7219500D01*
X356071Y-7055214D02*
X384643Y-7055214D01*
X413214Y-7069500D01*
X427500Y-7083786D01*
X441786Y-7112357D01*
X456071Y-7169500D01*
X456071Y-7240929D01*
X441786Y-7298071D01*
X427500Y-7326643D01*
X413214Y-7340929D01*
X384643Y-7355214D01*
X356071Y-7355214D01*
X327500Y-7340929D01*
X313214Y-7326643D01*
X298928Y-7298071D01*
X284643Y-7240929D01*
X284643Y-7169500D01*
X298928Y-7112357D01*
X313214Y-7083786D01*
X327500Y-7069500D01*
X356071Y-7055214D01*
X584643Y-7326643D02*
X598928Y-7340929D01*
X584643Y-7355214D01*
X570357Y-7340929D01*
X584643Y-7326643D01*
X584643Y-7355214D01*
X741786Y-7355214D02*
X798928Y-7355214D01*
X827500Y-7340929D01*
X841786Y-7326643D01*
X870357Y-7283786D01*
X884643Y-7226643D01*
X884643Y-7112357D01*
X870357Y-7083786D01*
X856071Y-7069500D01*
X827500Y-7055214D01*
X770357Y-7055214D01*
X741786Y-7069500D01*
X727500Y-7083786D01*
X713214Y-7112357D01*
X713214Y-7183786D01*
X727500Y-7212357D01*
X741786Y-7226643D01*
X770357Y-7240929D01*
X827500Y-7240929D01*
X856071Y-7226643D01*
X870357Y-7212357D01*
X884643Y-7183786D01*
X1070357Y-7055214D02*
X1098928Y-7055214D01*
X1127500Y-7069500D01*
X1141786Y-7083786D01*
X1156071Y-7112357D01*
X1170357Y-7169500D01*
X1170357Y-7240929D01*
X1156071Y-7298071D01*
X1141786Y-7326643D01*
X1127500Y-7340929D01*
X1098928Y-7355214D01*
X1070357Y-7355214D01*
X1041786Y-7340929D01*
X1027500Y-7326643D01*
X1013214Y-7298071D01*
X998928Y-7240929D01*
X998928Y-7169500D01*
X1013214Y-7112357D01*
X1027500Y-7083786D01*
X1041786Y-7069500D01*
X1070357Y-7055214D01*
X1356071Y-7055214D02*
X1384643Y-7055214D01*
X1413214Y-7069500D01*
X1427500Y-7083786D01*
X1441786Y-7112357D01*
X1456071Y-7169500D01*
X1456071Y-7240929D01*
X1441786Y-7298071D01*
X1427500Y-7326643D01*
X1413214Y-7340929D01*
X1384643Y-7355214D01*
X1356071Y-7355214D01*
X1327500Y-7340929D01*
X1313214Y-7326643D01*
X1298928Y-7298071D01*
X1284643Y-7240929D01*
X1284643Y-7169500D01*
X1298928Y-7112357D01*
X1313214Y-7083786D01*
X1327500Y-7069500D01*
X1356071Y-7055214D01*
X1584643Y-7355214D02*
X1584643Y-7155214D01*
X1584643Y-7183786D02*
X1598928Y-7169500D01*
X1627500Y-7155214D01*
X1670357Y-7155214D01*
X1698928Y-7169500D01*
X1713214Y-7198071D01*
X1713214Y-7355214D01*
X1713214Y-7198071D02*
X1727500Y-7169500D01*
X1756071Y-7155214D01*
X1798928Y-7155214D01*
X1827500Y-7169500D01*
X1841786Y-7198071D01*
X1841786Y-7355214D01*
X1984643Y-7355214D02*
X1984643Y-7155214D01*
X1984643Y-7183786D02*
X1998928Y-7169500D01*
X2027500Y-7155214D01*
X2070357Y-7155214D01*
X2098928Y-7169500D01*
X2113214Y-7198071D01*
X2113214Y-7355214D01*
X2113214Y-7198071D02*
X2127500Y-7169500D01*
X2156071Y-7155214D01*
X2198928Y-7155214D01*
X2227500Y-7169500D01*
X2241786Y-7198071D01*
X2241786Y-7355214D01*
X2827500Y-7040929D02*
X2570357Y-7426643D01*
X3213214Y-7055214D02*
X3241786Y-7055214D01*
X3270357Y-7069500D01*
X3284643Y-7083786D01*
X3298928Y-7112357D01*
X3313214Y-7169500D01*
X3313214Y-7240929D01*
X3298928Y-7298071D01*
X3284643Y-7326643D01*
X3270357Y-7340929D01*
X3241786Y-7355214D01*
X3213214Y-7355214D01*
X3184643Y-7340929D01*
X3170357Y-7326643D01*
X3156071Y-7298071D01*
X3141786Y-7240929D01*
X3141786Y-7169500D01*
X3156071Y-7112357D01*
X3170357Y-7083786D01*
X3184643Y-7069500D01*
X3213214Y-7055214D01*
X3441786Y-7326643D02*
X3456071Y-7340929D01*
X3441786Y-7355214D01*
X3427500Y-7340929D01*
X3441786Y-7326643D01*
X3441786Y-7355214D01*
X3641786Y-7055214D02*
X3670357Y-7055214D01*
X3698928Y-7069500D01*
X3713214Y-7083786D01*
X3727500Y-7112357D01*
X3741786Y-7169500D01*
X3741786Y-7240929D01*
X3727500Y-7298071D01*
X3713214Y-7326643D01*
X3698928Y-7340929D01*
X3670357Y-7355214D01*
X3641786Y-7355214D01*
X3613214Y-7340929D01*
X3598928Y-7326643D01*
X3584643Y-7298071D01*
X3570357Y-7240929D01*
X3570357Y-7169500D01*
X3584643Y-7112357D01*
X3598928Y-7083786D01*
X3613214Y-7069500D01*
X3641786Y-7055214D01*
X3841786Y-7055214D02*
X4027500Y-7055214D01*
X3927500Y-7169500D01*
X3970357Y-7169500D01*
X3998928Y-7183786D01*
X4013214Y-7198071D01*
X4027500Y-7226643D01*
X4027500Y-7298071D01*
X4013214Y-7326643D01*
X3998928Y-7340929D01*
X3970357Y-7355214D01*
X3884643Y-7355214D01*
X3856071Y-7340929D01*
X3841786Y-7326643D01*
X4298928Y-7055214D02*
X4156071Y-7055214D01*
X4141786Y-7198071D01*
X4156071Y-7183786D01*
X4184643Y-7169500D01*
X4256071Y-7169500D01*
X4284643Y-7183786D01*
X4298928Y-7198071D01*
X4313214Y-7226643D01*
X4313214Y-7298071D01*
X4298928Y-7326643D01*
X4284643Y-7340929D01*
X4256071Y-7355214D01*
X4184643Y-7355214D01*
X4156071Y-7340929D01*
X4141786Y-7326643D01*
X4570357Y-7155214D02*
X4570357Y-7355214D01*
X4498928Y-7040929D02*
X4427500Y-7255214D01*
X4613214Y-7255214D01*
X4713214Y-7055214D02*
X4713214Y-7112357D01*
X4827500Y-7055214D02*
X4827500Y-7112357D01*
X5270357Y-7469500D02*
X5256071Y-7455214D01*
X5227500Y-7412357D01*
X5213214Y-7383786D01*
X5198928Y-7340929D01*
X5184643Y-7269500D01*
X5184643Y-7212357D01*
X5198928Y-7140929D01*
X5213214Y-7098071D01*
X5227500Y-7069500D01*
X5256071Y-7026643D01*
X5270357Y-7012357D01*
X5513214Y-7155214D02*
X5513214Y-7355214D01*
X5441786Y-7040929D02*
X5370357Y-7255214D01*
X5556071Y-7255214D01*
X5813214Y-7055214D02*
X5670357Y-7055214D01*
X5656071Y-7198071D01*
X5670357Y-7183786D01*
X5698928Y-7169500D01*
X5770357Y-7169500D01*
X5798928Y-7183786D01*
X5813214Y-7198071D01*
X5827500Y-7226643D01*
X5827500Y-7298071D01*
X5813214Y-7326643D01*
X5798928Y-7340929D01*
X5770357Y-7355214D01*
X5698928Y-7355214D01*
X5670357Y-7340929D01*
X5656071Y-7326643D01*
X6184643Y-7355214D02*
X6184643Y-7055214D01*
X6313214Y-7355214D02*
X6313214Y-7198071D01*
X6298928Y-7169500D01*
X6270357Y-7155214D01*
X6227500Y-7155214D01*
X6198928Y-7169500D01*
X6184643Y-7183786D01*
X6498928Y-7355214D02*
X6470357Y-7340929D01*
X6456071Y-7326643D01*
X6441786Y-7298071D01*
X6441786Y-7212357D01*
X6456071Y-7183786D01*
X6470357Y-7169500D01*
X6498928Y-7155214D01*
X6541786Y-7155214D01*
X6570357Y-7169500D01*
X6584643Y-7183786D01*
X6598928Y-7212357D01*
X6598928Y-7298071D01*
X6584643Y-7326643D01*
X6570357Y-7340929D01*
X6541786Y-7355214D01*
X6498928Y-7355214D01*
X6770357Y-7355214D02*
X6741786Y-7340929D01*
X6727500Y-7312357D01*
X6727500Y-7055214D01*
X6998928Y-7340929D02*
X6970357Y-7355214D01*
X6913214Y-7355214D01*
X6884643Y-7340929D01*
X6870357Y-7312357D01*
X6870357Y-7198071D01*
X6884643Y-7169500D01*
X6913214Y-7155214D01*
X6970357Y-7155214D01*
X6998928Y-7169500D01*
X7013214Y-7198071D01*
X7013214Y-7226643D01*
X6870357Y-7255214D01*
X7127500Y-7340929D02*
X7156071Y-7355214D01*
X7213214Y-7355214D01*
X7241786Y-7340929D01*
X7256071Y-7312357D01*
X7256071Y-7298071D01*
X7241786Y-7269500D01*
X7213214Y-7255214D01*
X7170357Y-7255214D01*
X7141786Y-7240929D01*
X7127500Y-7212357D01*
X7127500Y-7198071D01*
X7141786Y-7169500D01*
X7170357Y-7155214D01*
X7213214Y-7155214D01*
X7241786Y-7169500D01*
X7356071Y-7469500D02*
X7370357Y-7455214D01*
X7398928Y-7412357D01*
X7413214Y-7383786D01*
X7427500Y-7340929D01*
X7441786Y-7269500D01*
X7441786Y-7212357D01*
X7427500Y-7140929D01*
X7413214Y-7098071D01*
X7398928Y-7069500D01*
X7370357Y-7026643D01*
X7356071Y-7012357D01*
X-10931Y-7672069D02*
X-10931Y-7558931D01*
X-124069Y-7558931D01*
X-124069Y-7672069D01*
X-10931Y-7672069D01*
X456071Y-7751214D02*
X284643Y-7751214D01*
X370357Y-7751214D02*
X370357Y-7451214D01*
X341786Y-7494071D01*
X313214Y-7522643D01*
X284643Y-7536929D01*
X584643Y-7722643D02*
X598928Y-7736929D01*
X584643Y-7751214D01*
X570357Y-7736929D01*
X584643Y-7722643D01*
X584643Y-7751214D01*
X856071Y-7451214D02*
X798928Y-7451214D01*
X770357Y-7465500D01*
X756071Y-7479786D01*
X727500Y-7522643D01*
X713214Y-7579786D01*
X713214Y-7694071D01*
X727500Y-7722643D01*
X741786Y-7736929D01*
X770357Y-7751214D01*
X827500Y-7751214D01*
X856071Y-7736929D01*
X870357Y-7722643D01*
X884643Y-7694071D01*
X884643Y-7622643D01*
X870357Y-7594071D01*
X856071Y-7579786D01*
X827500Y-7565500D01*
X770357Y-7565500D01*
X741786Y-7579786D01*
X727500Y-7594071D01*
X713214Y-7622643D01*
X1070357Y-7451214D02*
X1098928Y-7451214D01*
X1127500Y-7465500D01*
X1141786Y-7479786D01*
X1156071Y-7508357D01*
X1170357Y-7565500D01*
X1170357Y-7636929D01*
X1156071Y-7694071D01*
X1141786Y-7722643D01*
X1127500Y-7736929D01*
X1098928Y-7751214D01*
X1070357Y-7751214D01*
X1041786Y-7736929D01*
X1027500Y-7722643D01*
X1013214Y-7694071D01*
X998928Y-7636929D01*
X998928Y-7565500D01*
X1013214Y-7508357D01*
X1027500Y-7479786D01*
X1041786Y-7465500D01*
X1070357Y-7451214D01*
X1356071Y-7451214D02*
X1384643Y-7451214D01*
X1413214Y-7465500D01*
X1427500Y-7479786D01*
X1441786Y-7508357D01*
X1456071Y-7565500D01*
X1456071Y-7636929D01*
X1441786Y-7694071D01*
X1427500Y-7722643D01*
X1413214Y-7736929D01*
X1384643Y-7751214D01*
X1356071Y-7751214D01*
X1327500Y-7736929D01*
X1313214Y-7722643D01*
X1298928Y-7694071D01*
X1284643Y-7636929D01*
X1284643Y-7565500D01*
X1298928Y-7508357D01*
X1313214Y-7479786D01*
X1327500Y-7465500D01*
X1356071Y-7451214D01*
X1584643Y-7751214D02*
X1584643Y-7551214D01*
X1584643Y-7579786D02*
X1598928Y-7565500D01*
X1627500Y-7551214D01*
X1670357Y-7551214D01*
X1698928Y-7565500D01*
X1713214Y-7594071D01*
X1713214Y-7751214D01*
X1713214Y-7594071D02*
X1727500Y-7565500D01*
X1756071Y-7551214D01*
X1798928Y-7551214D01*
X1827500Y-7565500D01*
X1841786Y-7594071D01*
X1841786Y-7751214D01*
X1984643Y-7751214D02*
X1984643Y-7551214D01*
X1984643Y-7579786D02*
X1998928Y-7565500D01*
X2027500Y-7551214D01*
X2070357Y-7551214D01*
X2098928Y-7565500D01*
X2113214Y-7594071D01*
X2113214Y-7751214D01*
X2113214Y-7594071D02*
X2127500Y-7565500D01*
X2156071Y-7551214D01*
X2198928Y-7551214D01*
X2227500Y-7565500D01*
X2241786Y-7594071D01*
X2241786Y-7751214D01*
X2827500Y-7436929D02*
X2570357Y-7822643D01*
X3213214Y-7451214D02*
X3241786Y-7451214D01*
X3270357Y-7465500D01*
X3284643Y-7479786D01*
X3298928Y-7508357D01*
X3313214Y-7565500D01*
X3313214Y-7636929D01*
X3298928Y-7694071D01*
X3284643Y-7722643D01*
X3270357Y-7736929D01*
X3241786Y-7751214D01*
X3213214Y-7751214D01*
X3184643Y-7736929D01*
X3170357Y-7722643D01*
X3156071Y-7694071D01*
X3141786Y-7636929D01*
X3141786Y-7565500D01*
X3156071Y-7508357D01*
X3170357Y-7479786D01*
X3184643Y-7465500D01*
X3213214Y-7451214D01*
X3441786Y-7722643D02*
X3456071Y-7736929D01*
X3441786Y-7751214D01*
X3427500Y-7736929D01*
X3441786Y-7722643D01*
X3441786Y-7751214D01*
X3641786Y-7451214D02*
X3670357Y-7451214D01*
X3698928Y-7465500D01*
X3713214Y-7479786D01*
X3727500Y-7508357D01*
X3741786Y-7565500D01*
X3741786Y-7636929D01*
X3727500Y-7694071D01*
X3713214Y-7722643D01*
X3698928Y-7736929D01*
X3670357Y-7751214D01*
X3641786Y-7751214D01*
X3613214Y-7736929D01*
X3598928Y-7722643D01*
X3584643Y-7694071D01*
X3570357Y-7636929D01*
X3570357Y-7565500D01*
X3584643Y-7508357D01*
X3598928Y-7479786D01*
X3613214Y-7465500D01*
X3641786Y-7451214D01*
X3998928Y-7451214D02*
X3941786Y-7451214D01*
X3913214Y-7465500D01*
X3898928Y-7479786D01*
X3870357Y-7522643D01*
X3856071Y-7579786D01*
X3856071Y-7694071D01*
X3870357Y-7722643D01*
X3884643Y-7736929D01*
X3913214Y-7751214D01*
X3970357Y-7751214D01*
X3998928Y-7736929D01*
X4013214Y-7722643D01*
X4027500Y-7694071D01*
X4027500Y-7622643D01*
X4013214Y-7594071D01*
X3998928Y-7579786D01*
X3970357Y-7565500D01*
X3913214Y-7565500D01*
X3884643Y-7579786D01*
X3870357Y-7594071D01*
X3856071Y-7622643D01*
X4127500Y-7451214D02*
X4313214Y-7451214D01*
X4213214Y-7565500D01*
X4256071Y-7565500D01*
X4284643Y-7579786D01*
X4298928Y-7594071D01*
X4313214Y-7622643D01*
X4313214Y-7694071D01*
X4298928Y-7722643D01*
X4284643Y-7736929D01*
X4256071Y-7751214D01*
X4170357Y-7751214D01*
X4141786Y-7736929D01*
X4127500Y-7722643D01*
X4498928Y-7451214D02*
X4527500Y-7451214D01*
X4556071Y-7465500D01*
X4570357Y-7479786D01*
X4584643Y-7508357D01*
X4598928Y-7565500D01*
X4598928Y-7636929D01*
X4584643Y-7694071D01*
X4570357Y-7722643D01*
X4556071Y-7736929D01*
X4527500Y-7751214D01*
X4498928Y-7751214D01*
X4470357Y-7736929D01*
X4456071Y-7722643D01*
X4441786Y-7694071D01*
X4427500Y-7636929D01*
X4427500Y-7565500D01*
X4441786Y-7508357D01*
X4456071Y-7479786D01*
X4470357Y-7465500D01*
X4498928Y-7451214D01*
X4713214Y-7451214D02*
X4713214Y-7508357D01*
X4827500Y-7451214D02*
X4827500Y-7508357D01*
X5270357Y-7865500D02*
X5256071Y-7851214D01*
X5227500Y-7808357D01*
X5213214Y-7779786D01*
X5198928Y-7736929D01*
X5184643Y-7665500D01*
X5184643Y-7608357D01*
X5198928Y-7536929D01*
X5213214Y-7494071D01*
X5227500Y-7465500D01*
X5256071Y-7422643D01*
X5270357Y-7408357D01*
X5513214Y-7551214D02*
X5513214Y-7751214D01*
X5441786Y-7436929D02*
X5370357Y-7651214D01*
X5556071Y-7651214D01*
X5898928Y-7751214D02*
X5898928Y-7451214D01*
X6027500Y-7751214D02*
X6027500Y-7594071D01*
X6013214Y-7565500D01*
X5984643Y-7551214D01*
X5941786Y-7551214D01*
X5913214Y-7565500D01*
X5898928Y-7579786D01*
X6213214Y-7751214D02*
X6184643Y-7736929D01*
X6170357Y-7722643D01*
X6156071Y-7694071D01*
X6156071Y-7608357D01*
X6170357Y-7579786D01*
X6184643Y-7565500D01*
X6213214Y-7551214D01*
X6256071Y-7551214D01*
X6284643Y-7565500D01*
X6298928Y-7579786D01*
X6313214Y-7608357D01*
X6313214Y-7694071D01*
X6298928Y-7722643D01*
X6284643Y-7736929D01*
X6256071Y-7751214D01*
X6213214Y-7751214D01*
X6484643Y-7751214D02*
X6456071Y-7736929D01*
X6441786Y-7708357D01*
X6441786Y-7451214D01*
X6713214Y-7736929D02*
X6684643Y-7751214D01*
X6627500Y-7751214D01*
X6598928Y-7736929D01*
X6584643Y-7708357D01*
X6584643Y-7594071D01*
X6598928Y-7565500D01*
X6627500Y-7551214D01*
X6684643Y-7551214D01*
X6713214Y-7565500D01*
X6727500Y-7594071D01*
X6727500Y-7622643D01*
X6584643Y-7651214D01*
X6841786Y-7736929D02*
X6870357Y-7751214D01*
X6927500Y-7751214D01*
X6956071Y-7736929D01*
X6970357Y-7708357D01*
X6970357Y-7694071D01*
X6956071Y-7665500D01*
X6927500Y-7651214D01*
X6884643Y-7651214D01*
X6856071Y-7636929D01*
X6841786Y-7608357D01*
X6841786Y-7594071D01*
X6856071Y-7565500D01*
X6884643Y-7551214D01*
X6927500Y-7551214D01*
X6956071Y-7565500D01*
X7070357Y-7865500D02*
X7084643Y-7851214D01*
X7113214Y-7808357D01*
X7127500Y-7779786D01*
X7141786Y-7736929D01*
X7156071Y-7665500D01*
X7156071Y-7608357D01*
X7141786Y-7536929D01*
X7127500Y-7494071D01*
X7113214Y-7465500D01*
X7084643Y-7422643D01*
X7070357Y-7408357D01*
M02*
