G04 #@! TF.GenerationSoftware,KiCad,Pcbnew,(5.1.10)-1*
G04 #@! TF.CreationDate,2021-11-25T14:37:56-05:00*
G04 #@! TF.ProjectId,pid_smt_oven,7069645f-736d-4745-9f6f-76656e2e6b69,rev?*
G04 #@! TF.SameCoordinates,Original*
G04 #@! TF.FileFunction,Soldermask,Bot*
G04 #@! TF.FilePolarity,Negative*
%FSLAX46Y46*%
G04 Gerber Fmt 4.6, Leading zero omitted, Abs format (unit mm)*
G04 Created by KiCad (PCBNEW (5.1.10)-1) date 2021-11-25 14:37:56*
%MOMM*%
%LPD*%
G01*
G04 APERTURE LIST*
%ADD10O,2.200000X2.300000*%
%ADD11O,2.200000X2.700000*%
%ADD12O,2.300000X2.300000*%
%ADD13O,2.100000X2.100000*%
%ADD14C,2.100000*%
%ADD15C,2.300000*%
%ADD16O,3.500000X4.100000*%
G04 APERTURE END LIST*
D10*
G04 #@! TO.C,a2*
X67660000Y-32100000D03*
X67660000Y-17100000D03*
X32100000Y-32100000D03*
X65120000Y-17100000D03*
X34640000Y-32100000D03*
X62580000Y-17100000D03*
X37180000Y-32100000D03*
X60040000Y-17100000D03*
X39720000Y-32100000D03*
X57500000Y-17100000D03*
X42260000Y-32100000D03*
X54960000Y-17100000D03*
X44800000Y-32100000D03*
X52420000Y-17100000D03*
X47340000Y-32100000D03*
X49880000Y-17100000D03*
X49880000Y-32100000D03*
X47340000Y-17100000D03*
X52420000Y-32100000D03*
X44800000Y-17100000D03*
X54960000Y-32100000D03*
X42260000Y-17100000D03*
X57500000Y-32100000D03*
X39720000Y-17100000D03*
X60040000Y-32100000D03*
X37180000Y-17100000D03*
X62580000Y-32100000D03*
X34640000Y-17100000D03*
X65120000Y-32100000D03*
G36*
G01*
X31330000Y-15950000D02*
X32870000Y-15950000D01*
G75*
G02*
X33200000Y-16280000I0J-330000D01*
G01*
X33200000Y-17920000D01*
G75*
G02*
X32870000Y-18250000I-330000J0D01*
G01*
X31330000Y-18250000D01*
G75*
G02*
X31000000Y-17920000I0J330000D01*
G01*
X31000000Y-16280000D01*
G75*
G02*
X31330000Y-15950000I330000J0D01*
G01*
G37*
G04 #@! TD*
G04 #@! TO.C,J5*
X54880000Y-8800000D03*
X57420000Y-8800000D03*
G36*
G01*
X63600000Y-7973400D02*
X63600000Y-9626600D01*
G75*
G02*
X63276600Y-9950000I-323400J0D01*
G01*
X61723400Y-9950000D01*
G75*
G02*
X61400000Y-9626600I0J323400D01*
G01*
X61400000Y-7973400D01*
G75*
G02*
X61723400Y-7650000I323400J0D01*
G01*
X63276600Y-7650000D01*
G75*
G02*
X63600000Y-7973400I0J-323400D01*
G01*
G37*
X59960000Y-8800000D03*
G04 #@! TD*
D11*
G04 #@! TO.C,J4*
X47380000Y-40200000D03*
X49920000Y-40200000D03*
X52460000Y-40200000D03*
G36*
G01*
X56100000Y-39166800D02*
X56100000Y-41233200D01*
G75*
G02*
X55783200Y-41550000I-316800J0D01*
G01*
X54216800Y-41550000D01*
G75*
G02*
X53900000Y-41233200I0J316800D01*
G01*
X53900000Y-39166800D01*
G75*
G02*
X54216800Y-38850000I316800J0D01*
G01*
X55783200Y-38850000D01*
G75*
G02*
X56100000Y-39166800I0J-316800D01*
G01*
G37*
G04 #@! TD*
D10*
G04 #@! TO.C,J3*
X42860000Y-50800000D03*
G36*
G01*
X46500000Y-49966800D02*
X46500000Y-51633200D01*
G75*
G02*
X46183200Y-51950000I-316800J0D01*
G01*
X44616800Y-51950000D01*
G75*
G02*
X44300000Y-51633200I0J316800D01*
G01*
X44300000Y-49966800D01*
G75*
G02*
X44616800Y-49650000I316800J0D01*
G01*
X46183200Y-49650000D01*
G75*
G02*
X46500000Y-49966800I0J-316800D01*
G01*
G37*
G04 #@! TD*
G04 #@! TO.C,LS1*
G36*
G01*
X40550000Y-10936000D02*
X40550000Y-9464000D01*
G75*
G02*
X40964000Y-9050000I414000J0D01*
G01*
X42436000Y-9050000D01*
G75*
G02*
X42850000Y-9464000I0J-414000D01*
G01*
X42850000Y-10936000D01*
G75*
G02*
X42436000Y-11350000I-414000J0D01*
G01*
X40964000Y-11350000D01*
G75*
G02*
X40550000Y-10936000I0J414000D01*
G01*
G37*
D12*
X45900000Y-10200000D03*
G04 #@! TD*
D13*
G04 #@! TO.C,D5*
X19700000Y-8700000D03*
G36*
G01*
X16110000Y-9330000D02*
X16110000Y-8070000D01*
G75*
G02*
X16530000Y-7650000I420000J0D01*
G01*
X17790000Y-7650000D01*
G75*
G02*
X18210000Y-8070000I0J-420000D01*
G01*
X18210000Y-9330000D01*
G75*
G02*
X17790000Y-9750000I-420000J0D01*
G01*
X16530000Y-9750000D01*
G75*
G02*
X16110000Y-9330000I0J420000D01*
G01*
G37*
G04 #@! TD*
D14*
G04 #@! TO.C,a1*
X13300000Y-36450000D03*
X36300000Y-36450000D03*
X36300000Y-51950000D03*
G36*
G01*
X12250000Y-52475000D02*
X12250000Y-51425000D01*
G75*
G02*
X12775000Y-50900000I525000J0D01*
G01*
X13825000Y-50900000D01*
G75*
G02*
X14350000Y-51425000I0J-525000D01*
G01*
X14350000Y-52475000D01*
G75*
G02*
X13825000Y-53000000I-525000J0D01*
G01*
X12775000Y-53000000D01*
G75*
G02*
X12250000Y-52475000I0J525000D01*
G01*
G37*
G04 #@! TD*
G04 #@! TO.C,TH1*
X61600000Y-26400000D03*
X46360000Y-26400000D03*
G04 #@! TD*
D15*
G04 #@! TO.C,C7*
X3900000Y-44900000D03*
G36*
G01*
X8750000Y-44170000D02*
X8750000Y-45630000D01*
G75*
G02*
X8330000Y-46050000I-420000J0D01*
G01*
X7070000Y-46050000D01*
G75*
G02*
X6650000Y-45630000I0J420000D01*
G01*
X6650000Y-44170000D01*
G75*
G02*
X7070000Y-43750000I420000J0D01*
G01*
X8330000Y-43750000D01*
G75*
G02*
X8750000Y-44170000I0J-420000D01*
G01*
G37*
G04 #@! TD*
D16*
G04 #@! TO.C,J1*
X7760000Y-34800000D03*
G36*
G01*
X2100000Y-36533800D02*
X2100000Y-33066200D01*
G75*
G02*
X2416200Y-32750000I316200J0D01*
G01*
X5183800Y-32750000D01*
G75*
G02*
X5500000Y-33066200I0J-316200D01*
G01*
X5500000Y-36533800D01*
G75*
G02*
X5183800Y-36850000I-316200J0D01*
G01*
X2416200Y-36850000D01*
G75*
G02*
X2100000Y-36533800I0J316200D01*
G01*
G37*
G04 #@! TD*
G04 #@! TO.C,J2*
X21140000Y-22600000D03*
G36*
G01*
X26800000Y-20866200D02*
X26800000Y-24333800D01*
G75*
G02*
X26483800Y-24650000I-316200J0D01*
G01*
X23716200Y-24650000D01*
G75*
G02*
X23400000Y-24333800I0J316200D01*
G01*
X23400000Y-20866200D01*
G75*
G02*
X23716200Y-20550000I316200J0D01*
G01*
X26483800Y-20550000D01*
G75*
G02*
X26800000Y-20866200I0J-316200D01*
G01*
G37*
G04 #@! TD*
D14*
G04 #@! TO.C,H4*
X69000000Y-6900000D03*
G04 #@! TD*
G04 #@! TO.C,H3*
X3200000Y-6900000D03*
G04 #@! TD*
G04 #@! TO.C,H2*
X3200000Y-51600000D03*
G04 #@! TD*
G04 #@! TO.C,H1*
X69000000Y-51600000D03*
G04 #@! TD*
M02*
