M48
; DRILL file {KiCad (5.1.10)-1} date 11/25/21 14:37:40
; FORMAT={-:-/ absolute / metric / decimal}
; #@! TF.CreationDate,2021-11-25T14:37:40-05:00
; #@! TF.GenerationSoftware,Kicad,Pcbnew,(5.1.10)-1
; #@! TF.FileFunction,Plated,1,2,PTH
FMAT,2
METRIC
T1C0.600
T2C0.800
T3C0.900
T4C1.600
%
G90
G05
T1
X6.0Y-26.3
X6.8Y-31.2
X10.4Y-17.4
X10.4Y-27.0
X13.2Y-11.8
X13.2Y-31.2
X14.4Y-17.4
X14.4Y-27.0
X17.0Y-20.0
X17.0Y-24.6
X21.7Y-6.8
X22.0Y-14.0
X22.0Y-31.0
X23.6Y-46.5
X30.0Y-11.4
X30.2Y-27.2
X38.2Y-10.2
X52.4Y-35.8
X66.9Y-26.3
T2
X3.9Y-44.9
X17.16Y-8.7
X19.7Y-8.7
X41.7Y-10.2
X45.9Y-10.2
X46.36Y-26.4
X61.6Y-26.4
T3
X7.7Y-44.9
X13.3Y-36.45
X13.3Y-51.95
X32.1Y-17.1
X32.1Y-32.1
X34.64Y-17.1
X34.64Y-32.1
X36.3Y-36.45
X36.3Y-51.95
X37.18Y-17.1
X37.18Y-32.1
X39.72Y-17.1
X39.72Y-32.1
X42.26Y-17.1
X42.26Y-32.1
X42.86Y-50.8
X44.8Y-17.1
X44.8Y-32.1
X45.4Y-50.8
X47.34Y-17.1
X47.34Y-32.1
X47.38Y-40.2
X49.88Y-17.1
X49.88Y-32.1
X49.92Y-40.2
X52.42Y-17.1
X52.42Y-32.1
X52.46Y-40.2
X54.88Y-8.8
X54.96Y-17.1
X54.96Y-32.1
X55.0Y-40.2
X57.42Y-8.8
X57.5Y-17.1
X57.5Y-32.1
X59.96Y-8.8
X60.04Y-17.1
X60.04Y-32.1
X62.5Y-8.8
X62.58Y-17.1
X62.58Y-32.1
X65.12Y-17.1
X65.12Y-32.1
X67.66Y-17.1
X67.66Y-32.1
T4
X3.8Y-34.8
X7.76Y-34.8
X21.14Y-22.6
X25.1Y-22.6
T0
M30
