G04 #@! TF.GenerationSoftware,KiCad,Pcbnew,(5.1.10)-1*
G04 #@! TF.CreationDate,2021-11-25T14:37:56-05:00*
G04 #@! TF.ProjectId,pid_smt_oven,7069645f-736d-4745-9f6f-76656e2e6b69,rev?*
G04 #@! TF.SameCoordinates,Original*
G04 #@! TF.FileFunction,Paste,Top*
G04 #@! TF.FilePolarity,Positive*
%FSLAX46Y46*%
G04 Gerber Fmt 4.6, Leading zero omitted, Abs format (unit mm)*
G04 Created by KiCad (PCBNEW (5.1.10)-1) date 2021-11-25 14:37:56*
%MOMM*%
%LPD*%
G01*
G04 APERTURE LIST*
%ADD10R,3.050000X2.750000*%
G04 APERTURE END LIST*
G04 #@! TO.C,C8*
G36*
G01*
X12125000Y-39450425D02*
X12125000Y-40749575D01*
G75*
G02*
X11874575Y-41000000I-250425J0D01*
G01*
X11050425Y-41000000D01*
G75*
G02*
X10800000Y-40749575I0J250425D01*
G01*
X10800000Y-39450425D01*
G75*
G02*
X11050425Y-39200000I250425J0D01*
G01*
X11874575Y-39200000D01*
G75*
G02*
X12125000Y-39450425I0J-250425D01*
G01*
G37*
G36*
G01*
X9000000Y-39450425D02*
X9000000Y-40749575D01*
G75*
G02*
X8749575Y-41000000I-250425J0D01*
G01*
X7925425Y-41000000D01*
G75*
G02*
X7675000Y-40749575I0J250425D01*
G01*
X7675000Y-39450425D01*
G75*
G02*
X7925425Y-39200000I250425J0D01*
G01*
X8749575Y-39200000D01*
G75*
G02*
X9000000Y-39450425I0J-250425D01*
G01*
G37*
G04 #@! TD*
G04 #@! TO.C,R10*
G36*
G01*
X50250425Y-45525000D02*
X51549575Y-45525000D01*
G75*
G02*
X51800000Y-45775425I0J-250425D01*
G01*
X51800000Y-46599575D01*
G75*
G02*
X51549575Y-46850000I-250425J0D01*
G01*
X50250425Y-46850000D01*
G75*
G02*
X50000000Y-46599575I0J250425D01*
G01*
X50000000Y-45775425D01*
G75*
G02*
X50250425Y-45525000I250425J0D01*
G01*
G37*
G36*
G01*
X50250425Y-48650000D02*
X51549575Y-48650000D01*
G75*
G02*
X51800000Y-48900425I0J-250425D01*
G01*
X51800000Y-49724575D01*
G75*
G02*
X51549575Y-49975000I-250425J0D01*
G01*
X50250425Y-49975000D01*
G75*
G02*
X50000000Y-49724575I0J250425D01*
G01*
X50000000Y-48900425D01*
G75*
G02*
X50250425Y-48650000I250425J0D01*
G01*
G37*
G04 #@! TD*
G04 #@! TO.C,C17*
G36*
G01*
X58000000Y-38789200D02*
X58000000Y-35610800D01*
G75*
G02*
X58310800Y-35300000I310800J0D01*
G01*
X60489200Y-35300000D01*
G75*
G02*
X60800000Y-35610800I0J-310800D01*
G01*
X60800000Y-38789200D01*
G75*
G02*
X60489200Y-39100000I-310800J0D01*
G01*
X58310800Y-39100000D01*
G75*
G02*
X58000000Y-38789200I0J310800D01*
G01*
G37*
G36*
G01*
X64500000Y-38789200D02*
X64500000Y-35610800D01*
G75*
G02*
X64810800Y-35300000I310800J0D01*
G01*
X66989200Y-35300000D01*
G75*
G02*
X67300000Y-35610800I0J-310800D01*
G01*
X67300000Y-38789200D01*
G75*
G02*
X66989200Y-39100000I-310800J0D01*
G01*
X64810800Y-39100000D01*
G75*
G02*
X64500000Y-38789200I0J310800D01*
G01*
G37*
G04 #@! TD*
G04 #@! TO.C,R15*
G36*
G01*
X58060000Y-21750400D02*
X58060000Y-20649600D01*
G75*
G02*
X58309600Y-20400000I249600J0D01*
G01*
X59010400Y-20400000D01*
G75*
G02*
X59260000Y-20649600I0J-249600D01*
G01*
X59260000Y-21750400D01*
G75*
G02*
X59010400Y-22000000I-249600J0D01*
G01*
X58309600Y-22000000D01*
G75*
G02*
X58060000Y-21750400I0J249600D01*
G01*
G37*
G36*
G01*
X59940000Y-21750400D02*
X59940000Y-20649600D01*
G75*
G02*
X60189600Y-20400000I249600J0D01*
G01*
X60890400Y-20400000D01*
G75*
G02*
X61140000Y-20649600I0J-249600D01*
G01*
X61140000Y-21750400D01*
G75*
G02*
X60890400Y-22000000I-249600J0D01*
G01*
X60189600Y-22000000D01*
G75*
G02*
X59940000Y-21750400I0J249600D01*
G01*
G37*
G04 #@! TD*
G04 #@! TO.C,R14*
G36*
G01*
X64040000Y-12549600D02*
X64040000Y-13650400D01*
G75*
G02*
X63790400Y-13900000I-249600J0D01*
G01*
X63089600Y-13900000D01*
G75*
G02*
X62840000Y-13650400I0J249600D01*
G01*
X62840000Y-12549600D01*
G75*
G02*
X63089600Y-12300000I249600J0D01*
G01*
X63790400Y-12300000D01*
G75*
G02*
X64040000Y-12549600I0J-249600D01*
G01*
G37*
G36*
G01*
X62160000Y-12549600D02*
X62160000Y-13650400D01*
G75*
G02*
X61910400Y-13900000I-249600J0D01*
G01*
X61209600Y-13900000D01*
G75*
G02*
X60960000Y-13650400I0J249600D01*
G01*
X60960000Y-12549600D01*
G75*
G02*
X61209600Y-12300000I249600J0D01*
G01*
X61910400Y-12300000D01*
G75*
G02*
X62160000Y-12549600I0J-249600D01*
G01*
G37*
G04 #@! TD*
G04 #@! TO.C,R4*
G36*
G01*
X52260000Y-21750400D02*
X52260000Y-20649600D01*
G75*
G02*
X52509600Y-20400000I249600J0D01*
G01*
X53210400Y-20400000D01*
G75*
G02*
X53460000Y-20649600I0J-249600D01*
G01*
X53460000Y-21750400D01*
G75*
G02*
X53210400Y-22000000I-249600J0D01*
G01*
X52509600Y-22000000D01*
G75*
G02*
X52260000Y-21750400I0J249600D01*
G01*
G37*
G36*
G01*
X54140000Y-21750400D02*
X54140000Y-20649600D01*
G75*
G02*
X54389600Y-20400000I249600J0D01*
G01*
X55090400Y-20400000D01*
G75*
G02*
X55340000Y-20649600I0J-249600D01*
G01*
X55340000Y-21750400D01*
G75*
G02*
X55090400Y-22000000I-249600J0D01*
G01*
X54389600Y-22000000D01*
G75*
G02*
X54140000Y-21750400I0J249600D01*
G01*
G37*
G04 #@! TD*
G04 #@! TO.C,C6*
G36*
G01*
X62360000Y-21750400D02*
X62360000Y-20649600D01*
G75*
G02*
X62609600Y-20400000I249600J0D01*
G01*
X63310400Y-20400000D01*
G75*
G02*
X63560000Y-20649600I0J-249600D01*
G01*
X63560000Y-21750400D01*
G75*
G02*
X63310400Y-22000000I-249600J0D01*
G01*
X62609600Y-22000000D01*
G75*
G02*
X62360000Y-21750400I0J249600D01*
G01*
G37*
G36*
G01*
X64240000Y-21750400D02*
X64240000Y-20649600D01*
G75*
G02*
X64489600Y-20400000I249600J0D01*
G01*
X65190400Y-20400000D01*
G75*
G02*
X65440000Y-20649600I0J-249600D01*
G01*
X65440000Y-21750400D01*
G75*
G02*
X65190400Y-22000000I-249600J0D01*
G01*
X64489600Y-22000000D01*
G75*
G02*
X64240000Y-21750400I0J249600D01*
G01*
G37*
G04 #@! TD*
G04 #@! TO.C,C5*
G36*
G01*
X51040000Y-20649600D02*
X51040000Y-21750400D01*
G75*
G02*
X50790400Y-22000000I-249600J0D01*
G01*
X50089600Y-22000000D01*
G75*
G02*
X49840000Y-21750400I0J249600D01*
G01*
X49840000Y-20649600D01*
G75*
G02*
X50089600Y-20400000I249600J0D01*
G01*
X50790400Y-20400000D01*
G75*
G02*
X51040000Y-20649600I0J-249600D01*
G01*
G37*
G36*
G01*
X49160000Y-20649600D02*
X49160000Y-21750400D01*
G75*
G02*
X48910400Y-22000000I-249600J0D01*
G01*
X48209600Y-22000000D01*
G75*
G02*
X47960000Y-21750400I0J249600D01*
G01*
X47960000Y-20649600D01*
G75*
G02*
X48209600Y-20400000I249600J0D01*
G01*
X48910400Y-20400000D01*
G75*
G02*
X49160000Y-20649600I0J-249600D01*
G01*
G37*
G04 #@! TD*
G04 #@! TO.C,C4*
G36*
G01*
X65360000Y-13650400D02*
X65360000Y-12549600D01*
G75*
G02*
X65609600Y-12300000I249600J0D01*
G01*
X66310400Y-12300000D01*
G75*
G02*
X66560000Y-12549600I0J-249600D01*
G01*
X66560000Y-13650400D01*
G75*
G02*
X66310400Y-13900000I-249600J0D01*
G01*
X65609600Y-13900000D01*
G75*
G02*
X65360000Y-13650400I0J249600D01*
G01*
G37*
G36*
G01*
X67240000Y-13650400D02*
X67240000Y-12549600D01*
G75*
G02*
X67489600Y-12300000I249600J0D01*
G01*
X68190400Y-12300000D01*
G75*
G02*
X68440000Y-12549600I0J-249600D01*
G01*
X68440000Y-13650400D01*
G75*
G02*
X68190400Y-13900000I-249600J0D01*
G01*
X67489600Y-13900000D01*
G75*
G02*
X67240000Y-13650400I0J249600D01*
G01*
G37*
G04 #@! TD*
G04 #@! TO.C,D6*
G36*
G01*
X22200000Y-40395000D02*
X22200000Y-39205000D01*
G75*
G02*
X22455000Y-38950000I255000J0D01*
G01*
X23945000Y-38950000D01*
G75*
G02*
X24200000Y-39205000I0J-255000D01*
G01*
X24200000Y-40395000D01*
G75*
G02*
X23945000Y-40650000I-255000J0D01*
G01*
X22455000Y-40650000D01*
G75*
G02*
X22200000Y-40395000I0J255000D01*
G01*
G37*
G36*
G01*
X25800000Y-40616000D02*
X25800000Y-38984000D01*
G75*
G02*
X25834000Y-38950000I34000J0D01*
G01*
X27766000Y-38950000D01*
G75*
G02*
X27800000Y-38984000I0J-34000D01*
G01*
X27800000Y-40616000D01*
G75*
G02*
X27766000Y-40650000I-34000J0D01*
G01*
X25834000Y-40650000D01*
G75*
G02*
X25800000Y-40616000I0J34000D01*
G01*
G37*
G04 #@! TD*
G04 #@! TO.C,R2*
G36*
G01*
X17960000Y-40550400D02*
X17960000Y-39449600D01*
G75*
G02*
X18209600Y-39200000I249600J0D01*
G01*
X18910400Y-39200000D01*
G75*
G02*
X19160000Y-39449600I0J-249600D01*
G01*
X19160000Y-40550400D01*
G75*
G02*
X18910400Y-40800000I-249600J0D01*
G01*
X18209600Y-40800000D01*
G75*
G02*
X17960000Y-40550400I0J249600D01*
G01*
G37*
G36*
G01*
X19840000Y-40550400D02*
X19840000Y-39449600D01*
G75*
G02*
X20089600Y-39200000I249600J0D01*
G01*
X20790400Y-39200000D01*
G75*
G02*
X21040000Y-39449600I0J-249600D01*
G01*
X21040000Y-40550400D01*
G75*
G02*
X20790400Y-40800000I-249600J0D01*
G01*
X20089600Y-40800000D01*
G75*
G02*
X19840000Y-40550400I0J249600D01*
G01*
G37*
G04 #@! TD*
G04 #@! TO.C,R3*
G36*
G01*
X21249600Y-42060000D02*
X22350400Y-42060000D01*
G75*
G02*
X22600000Y-42309600I0J-249600D01*
G01*
X22600000Y-43010400D01*
G75*
G02*
X22350400Y-43260000I-249600J0D01*
G01*
X21249600Y-43260000D01*
G75*
G02*
X21000000Y-43010400I0J249600D01*
G01*
X21000000Y-42309600D01*
G75*
G02*
X21249600Y-42060000I249600J0D01*
G01*
G37*
G36*
G01*
X21249600Y-43940000D02*
X22350400Y-43940000D01*
G75*
G02*
X22600000Y-44189600I0J-249600D01*
G01*
X22600000Y-44890400D01*
G75*
G02*
X22350400Y-45140000I-249600J0D01*
G01*
X21249600Y-45140000D01*
G75*
G02*
X21000000Y-44890400I0J249600D01*
G01*
X21000000Y-44189600D01*
G75*
G02*
X21249600Y-43940000I249600J0D01*
G01*
G37*
G04 #@! TD*
G04 #@! TO.C,Q2*
G36*
G01*
X49650000Y-9980000D02*
X49650000Y-10620000D01*
G75*
G02*
X49570000Y-10700000I-80000J0D01*
G01*
X48130000Y-10700000D01*
G75*
G02*
X48050000Y-10620000I0J80000D01*
G01*
X48050000Y-9980000D01*
G75*
G02*
X48130000Y-9900000I80000J0D01*
G01*
X49570000Y-9900000D01*
G75*
G02*
X49650000Y-9980000I0J-80000D01*
G01*
G37*
G36*
G01*
X52250000Y-9030000D02*
X52250000Y-9670000D01*
G75*
G02*
X52170000Y-9750000I-80000J0D01*
G01*
X50730000Y-9750000D01*
G75*
G02*
X50650000Y-9670000I0J80000D01*
G01*
X50650000Y-9030000D01*
G75*
G02*
X50730000Y-8950000I80000J0D01*
G01*
X52170000Y-8950000D01*
G75*
G02*
X52250000Y-9030000I0J-80000D01*
G01*
G37*
G36*
G01*
X52250000Y-10930000D02*
X52250000Y-11570000D01*
G75*
G02*
X52170000Y-11650000I-80000J0D01*
G01*
X50730000Y-11650000D01*
G75*
G02*
X50650000Y-11570000I0J80000D01*
G01*
X50650000Y-10930000D01*
G75*
G02*
X50730000Y-10850000I80000J0D01*
G01*
X52170000Y-10850000D01*
G75*
G02*
X52250000Y-10930000I0J-80000D01*
G01*
G37*
G04 #@! TD*
G04 #@! TO.C,C11*
G36*
G01*
X37449600Y-42760000D02*
X38550400Y-42760000D01*
G75*
G02*
X38800000Y-43009600I0J-249600D01*
G01*
X38800000Y-43710400D01*
G75*
G02*
X38550400Y-43960000I-249600J0D01*
G01*
X37449600Y-43960000D01*
G75*
G02*
X37200000Y-43710400I0J249600D01*
G01*
X37200000Y-43009600D01*
G75*
G02*
X37449600Y-42760000I249600J0D01*
G01*
G37*
G36*
G01*
X37449600Y-44640000D02*
X38550400Y-44640000D01*
G75*
G02*
X38800000Y-44889600I0J-249600D01*
G01*
X38800000Y-45590400D01*
G75*
G02*
X38550400Y-45840000I-249600J0D01*
G01*
X37449600Y-45840000D01*
G75*
G02*
X37200000Y-45590400I0J249600D01*
G01*
X37200000Y-44889600D01*
G75*
G02*
X37449600Y-44640000I249600J0D01*
G01*
G37*
G04 #@! TD*
G04 #@! TO.C,C10*
G36*
G01*
X34649600Y-42760000D02*
X35750400Y-42760000D01*
G75*
G02*
X36000000Y-43009600I0J-249600D01*
G01*
X36000000Y-43710400D01*
G75*
G02*
X35750400Y-43960000I-249600J0D01*
G01*
X34649600Y-43960000D01*
G75*
G02*
X34400000Y-43710400I0J249600D01*
G01*
X34400000Y-43009600D01*
G75*
G02*
X34649600Y-42760000I249600J0D01*
G01*
G37*
G36*
G01*
X34649600Y-44640000D02*
X35750400Y-44640000D01*
G75*
G02*
X36000000Y-44889600I0J-249600D01*
G01*
X36000000Y-45590400D01*
G75*
G02*
X35750400Y-45840000I-249600J0D01*
G01*
X34649600Y-45840000D01*
G75*
G02*
X34400000Y-45590400I0J249600D01*
G01*
X34400000Y-44889600D01*
G75*
G02*
X34649600Y-44640000I249600J0D01*
G01*
G37*
G04 #@! TD*
G04 #@! TO.C,D7*
G36*
G01*
X36100000Y-39280000D02*
X36100000Y-40720000D01*
G75*
G02*
X35920000Y-40900000I-180000J0D01*
G01*
X33780000Y-40900000D01*
G75*
G02*
X33600000Y-40720000I0J180000D01*
G01*
X33600000Y-39280000D01*
G75*
G02*
X33780000Y-39100000I180000J0D01*
G01*
X35920000Y-39100000D01*
G75*
G02*
X36100000Y-39280000I0J-180000D01*
G01*
G37*
G36*
G01*
X39950000Y-39280000D02*
X39950000Y-40720000D01*
G75*
G02*
X39770000Y-40900000I-180000J0D01*
G01*
X37630000Y-40900000D01*
G75*
G02*
X37450000Y-40720000I0J180000D01*
G01*
X37450000Y-39280000D01*
G75*
G02*
X37630000Y-39100000I180000J0D01*
G01*
X39770000Y-39100000D01*
G75*
G02*
X39950000Y-39280000I0J-180000D01*
G01*
G37*
G04 #@! TD*
G04 #@! TO.C,D3*
G36*
G01*
X19720000Y-44800000D02*
X18280000Y-44800000D01*
G75*
G02*
X18100000Y-44620000I0J180000D01*
G01*
X18100000Y-42480000D01*
G75*
G02*
X18280000Y-42300000I180000J0D01*
G01*
X19720000Y-42300000D01*
G75*
G02*
X19900000Y-42480000I0J-180000D01*
G01*
X19900000Y-44620000D01*
G75*
G02*
X19720000Y-44800000I-180000J0D01*
G01*
G37*
G36*
G01*
X19720000Y-48650000D02*
X18280000Y-48650000D01*
G75*
G02*
X18100000Y-48470000I0J180000D01*
G01*
X18100000Y-46330000D01*
G75*
G02*
X18280000Y-46150000I180000J0D01*
G01*
X19720000Y-46150000D01*
G75*
G02*
X19900000Y-46330000I0J-180000D01*
G01*
X19900000Y-48470000D01*
G75*
G02*
X19720000Y-48650000I-180000J0D01*
G01*
G37*
G04 #@! TD*
G04 #@! TO.C,D1*
G36*
G01*
X16220000Y-41200000D02*
X14780000Y-41200000D01*
G75*
G02*
X14600000Y-41020000I0J180000D01*
G01*
X14600000Y-38880000D01*
G75*
G02*
X14780000Y-38700000I180000J0D01*
G01*
X16220000Y-38700000D01*
G75*
G02*
X16400000Y-38880000I0J-180000D01*
G01*
X16400000Y-41020000D01*
G75*
G02*
X16220000Y-41200000I-180000J0D01*
G01*
G37*
G36*
G01*
X16220000Y-45050000D02*
X14780000Y-45050000D01*
G75*
G02*
X14600000Y-44870000I0J180000D01*
G01*
X14600000Y-42730000D01*
G75*
G02*
X14780000Y-42550000I180000J0D01*
G01*
X16220000Y-42550000D01*
G75*
G02*
X16400000Y-42730000I0J-180000D01*
G01*
X16400000Y-44870000D01*
G75*
G02*
X16220000Y-45050000I-180000J0D01*
G01*
G37*
G04 #@! TD*
G04 #@! TO.C,Q3*
G36*
G01*
X7680000Y-11150000D02*
X8320000Y-11150000D01*
G75*
G02*
X8400000Y-11230000I0J-80000D01*
G01*
X8400000Y-12670000D01*
G75*
G02*
X8320000Y-12750000I-80000J0D01*
G01*
X7680000Y-12750000D01*
G75*
G02*
X7600000Y-12670000I0J80000D01*
G01*
X7600000Y-11230000D01*
G75*
G02*
X7680000Y-11150000I80000J0D01*
G01*
G37*
G36*
G01*
X6730000Y-8550000D02*
X7370000Y-8550000D01*
G75*
G02*
X7450000Y-8630000I0J-80000D01*
G01*
X7450000Y-10070000D01*
G75*
G02*
X7370000Y-10150000I-80000J0D01*
G01*
X6730000Y-10150000D01*
G75*
G02*
X6650000Y-10070000I0J80000D01*
G01*
X6650000Y-8630000D01*
G75*
G02*
X6730000Y-8550000I80000J0D01*
G01*
G37*
G36*
G01*
X8630000Y-8550000D02*
X9270000Y-8550000D01*
G75*
G02*
X9350000Y-8630000I0J-80000D01*
G01*
X9350000Y-10070000D01*
G75*
G02*
X9270000Y-10150000I-80000J0D01*
G01*
X8630000Y-10150000D01*
G75*
G02*
X8550000Y-10070000I0J80000D01*
G01*
X8550000Y-8630000D01*
G75*
G02*
X8630000Y-8550000I80000J0D01*
G01*
G37*
G04 #@! TD*
G04 #@! TO.C,D4*
G36*
G01*
X41000000Y-7795000D02*
X41000000Y-6605000D01*
G75*
G02*
X41255000Y-6350000I255000J0D01*
G01*
X42745000Y-6350000D01*
G75*
G02*
X43000000Y-6605000I0J-255000D01*
G01*
X43000000Y-7795000D01*
G75*
G02*
X42745000Y-8050000I-255000J0D01*
G01*
X41255000Y-8050000D01*
G75*
G02*
X41000000Y-7795000I0J255000D01*
G01*
G37*
G36*
G01*
X44600000Y-8016000D02*
X44600000Y-6384000D01*
G75*
G02*
X44634000Y-6350000I34000J0D01*
G01*
X46566000Y-6350000D01*
G75*
G02*
X46600000Y-6384000I0J-34000D01*
G01*
X46600000Y-8016000D01*
G75*
G02*
X46566000Y-8050000I-34000J0D01*
G01*
X44634000Y-8050000D01*
G75*
G02*
X44600000Y-8016000I0J34000D01*
G01*
G37*
G04 #@! TD*
G04 #@! TO.C,D2*
G36*
G01*
X2400000Y-15345000D02*
X2400000Y-14155000D01*
G75*
G02*
X2655000Y-13900000I255000J0D01*
G01*
X4145000Y-13900000D01*
G75*
G02*
X4400000Y-14155000I0J-255000D01*
G01*
X4400000Y-15345000D01*
G75*
G02*
X4145000Y-15600000I-255000J0D01*
G01*
X2655000Y-15600000D01*
G75*
G02*
X2400000Y-15345000I0J255000D01*
G01*
G37*
G36*
G01*
X6000000Y-15566000D02*
X6000000Y-13934000D01*
G75*
G02*
X6034000Y-13900000I34000J0D01*
G01*
X7966000Y-13900000D01*
G75*
G02*
X8000000Y-13934000I0J-34000D01*
G01*
X8000000Y-15566000D01*
G75*
G02*
X7966000Y-15600000I-34000J0D01*
G01*
X6034000Y-15600000D01*
G75*
G02*
X6000000Y-15566000I0J34000D01*
G01*
G37*
G04 #@! TD*
G04 #@! TO.C,C9*
G36*
G01*
X29610800Y-42800000D02*
X32789200Y-42800000D01*
G75*
G02*
X33100000Y-43110800I0J-310800D01*
G01*
X33100000Y-45289200D01*
G75*
G02*
X32789200Y-45600000I-310800J0D01*
G01*
X29610800Y-45600000D01*
G75*
G02*
X29300000Y-45289200I0J310800D01*
G01*
X29300000Y-43110800D01*
G75*
G02*
X29610800Y-42800000I310800J0D01*
G01*
G37*
G36*
G01*
X29610800Y-49700000D02*
X32789200Y-49700000D01*
G75*
G02*
X33100000Y-50010800I0J-310800D01*
G01*
X33100000Y-52189200D01*
G75*
G02*
X32789200Y-52500000I-310800J0D01*
G01*
X29610800Y-52500000D01*
G75*
G02*
X29300000Y-52189200I0J310800D01*
G01*
X29300000Y-50010800D01*
G75*
G02*
X29610800Y-49700000I310800J0D01*
G01*
G37*
G04 #@! TD*
G04 #@! TO.C,R7*
G36*
G01*
X4300000Y-30150400D02*
X4300000Y-29049600D01*
G75*
G02*
X4549600Y-28800000I249600J0D01*
G01*
X5250400Y-28800000D01*
G75*
G02*
X5500000Y-29049600I0J-249600D01*
G01*
X5500000Y-30150400D01*
G75*
G02*
X5250400Y-30400000I-249600J0D01*
G01*
X4549600Y-30400000D01*
G75*
G02*
X4300000Y-30150400I0J249600D01*
G01*
G37*
G36*
G01*
X2300000Y-30150400D02*
X2300000Y-29049600D01*
G75*
G02*
X2549600Y-28800000I249600J0D01*
G01*
X3250400Y-28800000D01*
G75*
G02*
X3500000Y-29049600I0J-249600D01*
G01*
X3500000Y-30150400D01*
G75*
G02*
X3250400Y-30400000I-249600J0D01*
G01*
X2549600Y-30400000D01*
G75*
G02*
X2300000Y-30150400I0J249600D01*
G01*
G37*
G04 #@! TD*
G04 #@! TO.C,C20*
G36*
G01*
X37250400Y-26800000D02*
X36149600Y-26800000D01*
G75*
G02*
X35900000Y-26550400I0J249600D01*
G01*
X35900000Y-25849600D01*
G75*
G02*
X36149600Y-25600000I249600J0D01*
G01*
X37250400Y-25600000D01*
G75*
G02*
X37500000Y-25849600I0J-249600D01*
G01*
X37500000Y-26550400D01*
G75*
G02*
X37250400Y-26800000I-249600J0D01*
G01*
G37*
G36*
G01*
X37250400Y-28800000D02*
X36149600Y-28800000D01*
G75*
G02*
X35900000Y-28550400I0J249600D01*
G01*
X35900000Y-27849600D01*
G75*
G02*
X36149600Y-27600000I249600J0D01*
G01*
X37250400Y-27600000D01*
G75*
G02*
X37500000Y-27849600I0J-249600D01*
G01*
X37500000Y-28550400D01*
G75*
G02*
X37250400Y-28800000I-249600J0D01*
G01*
G37*
G04 #@! TD*
G04 #@! TO.C,R16*
G36*
G01*
X56400000Y-25749600D02*
X56400000Y-26850400D01*
G75*
G02*
X56150400Y-27100000I-249600J0D01*
G01*
X55449600Y-27100000D01*
G75*
G02*
X55200000Y-26850400I0J249600D01*
G01*
X55200000Y-25749600D01*
G75*
G02*
X55449600Y-25500000I249600J0D01*
G01*
X56150400Y-25500000D01*
G75*
G02*
X56400000Y-25749600I0J-249600D01*
G01*
G37*
G36*
G01*
X58400000Y-25749600D02*
X58400000Y-26850400D01*
G75*
G02*
X58150400Y-27100000I-249600J0D01*
G01*
X57449600Y-27100000D01*
G75*
G02*
X57200000Y-26850400I0J249600D01*
G01*
X57200000Y-25749600D01*
G75*
G02*
X57449600Y-25500000I249600J0D01*
G01*
X58150400Y-25500000D01*
G75*
G02*
X58400000Y-25749600I0J-249600D01*
G01*
G37*
G04 #@! TD*
G04 #@! TO.C,R13*
G36*
G01*
X24049600Y-7900000D02*
X25150400Y-7900000D01*
G75*
G02*
X25400000Y-8149600I0J-249600D01*
G01*
X25400000Y-8850400D01*
G75*
G02*
X25150400Y-9100000I-249600J0D01*
G01*
X24049600Y-9100000D01*
G75*
G02*
X23800000Y-8850400I0J249600D01*
G01*
X23800000Y-8149600D01*
G75*
G02*
X24049600Y-7900000I249600J0D01*
G01*
G37*
G36*
G01*
X24049600Y-5900000D02*
X25150400Y-5900000D01*
G75*
G02*
X25400000Y-6149600I0J-249600D01*
G01*
X25400000Y-6850400D01*
G75*
G02*
X25150400Y-7100000I-249600J0D01*
G01*
X24049600Y-7100000D01*
G75*
G02*
X23800000Y-6850400I0J249600D01*
G01*
X23800000Y-6149600D01*
G75*
G02*
X24049600Y-5900000I249600J0D01*
G01*
G37*
G04 #@! TD*
G04 #@! TO.C,R12*
G36*
G01*
X47649600Y-45700000D02*
X48750400Y-45700000D01*
G75*
G02*
X49000000Y-45949600I0J-249600D01*
G01*
X49000000Y-46650400D01*
G75*
G02*
X48750400Y-46900000I-249600J0D01*
G01*
X47649600Y-46900000D01*
G75*
G02*
X47400000Y-46650400I0J249600D01*
G01*
X47400000Y-45949600D01*
G75*
G02*
X47649600Y-45700000I249600J0D01*
G01*
G37*
G36*
G01*
X47649600Y-43700000D02*
X48750400Y-43700000D01*
G75*
G02*
X49000000Y-43949600I0J-249600D01*
G01*
X49000000Y-44650400D01*
G75*
G02*
X48750400Y-44900000I-249600J0D01*
G01*
X47649600Y-44900000D01*
G75*
G02*
X47400000Y-44650400I0J249600D01*
G01*
X47400000Y-43949600D01*
G75*
G02*
X47649600Y-43700000I249600J0D01*
G01*
G37*
G04 #@! TD*
G04 #@! TO.C,R11*
G36*
G01*
X35800000Y-7750400D02*
X35800000Y-6649600D01*
G75*
G02*
X36049600Y-6400000I249600J0D01*
G01*
X36750400Y-6400000D01*
G75*
G02*
X37000000Y-6649600I0J-249600D01*
G01*
X37000000Y-7750400D01*
G75*
G02*
X36750400Y-8000000I-249600J0D01*
G01*
X36049600Y-8000000D01*
G75*
G02*
X35800000Y-7750400I0J249600D01*
G01*
G37*
G36*
G01*
X33800000Y-7750400D02*
X33800000Y-6649600D01*
G75*
G02*
X34049600Y-6400000I249600J0D01*
G01*
X34750400Y-6400000D01*
G75*
G02*
X35000000Y-6649600I0J-249600D01*
G01*
X35000000Y-7750400D01*
G75*
G02*
X34750400Y-8000000I-249600J0D01*
G01*
X34049600Y-8000000D01*
G75*
G02*
X33800000Y-7750400I0J249600D01*
G01*
G37*
G04 #@! TD*
G04 #@! TO.C,R9*
G36*
G01*
X50300000Y-13249600D02*
X50300000Y-14350400D01*
G75*
G02*
X50050400Y-14600000I-249600J0D01*
G01*
X49349600Y-14600000D01*
G75*
G02*
X49100000Y-14350400I0J249600D01*
G01*
X49100000Y-13249600D01*
G75*
G02*
X49349600Y-13000000I249600J0D01*
G01*
X50050400Y-13000000D01*
G75*
G02*
X50300000Y-13249600I0J-249600D01*
G01*
G37*
G36*
G01*
X52300000Y-13249600D02*
X52300000Y-14350400D01*
G75*
G02*
X52050400Y-14600000I-249600J0D01*
G01*
X51349600Y-14600000D01*
G75*
G02*
X51100000Y-14350400I0J249600D01*
G01*
X51100000Y-13249600D01*
G75*
G02*
X51349600Y-13000000I249600J0D01*
G01*
X52050400Y-13000000D01*
G75*
G02*
X52300000Y-13249600I0J-249600D01*
G01*
G37*
G04 #@! TD*
G04 #@! TO.C,R8*
G36*
G01*
X4800000Y-12700400D02*
X4800000Y-11599600D01*
G75*
G02*
X5049600Y-11350000I249600J0D01*
G01*
X5750400Y-11350000D01*
G75*
G02*
X6000000Y-11599600I0J-249600D01*
G01*
X6000000Y-12700400D01*
G75*
G02*
X5750400Y-12950000I-249600J0D01*
G01*
X5049600Y-12950000D01*
G75*
G02*
X4800000Y-12700400I0J249600D01*
G01*
G37*
G36*
G01*
X2800000Y-12700400D02*
X2800000Y-11599600D01*
G75*
G02*
X3049600Y-11350000I249600J0D01*
G01*
X3750400Y-11350000D01*
G75*
G02*
X4000000Y-11599600I0J-249600D01*
G01*
X4000000Y-12700400D01*
G75*
G02*
X3750400Y-12950000I-249600J0D01*
G01*
X3049600Y-12950000D01*
G75*
G02*
X2800000Y-12700400I0J249600D01*
G01*
G37*
G04 #@! TD*
G04 #@! TO.C,R6*
G36*
G01*
X9100000Y-6249600D02*
X9100000Y-7350400D01*
G75*
G02*
X8850400Y-7600000I-249600J0D01*
G01*
X8149600Y-7600000D01*
G75*
G02*
X7900000Y-7350400I0J249600D01*
G01*
X7900000Y-6249600D01*
G75*
G02*
X8149600Y-6000000I249600J0D01*
G01*
X8850400Y-6000000D01*
G75*
G02*
X9100000Y-6249600I0J-249600D01*
G01*
G37*
G36*
G01*
X11100000Y-6249600D02*
X11100000Y-7350400D01*
G75*
G02*
X10850400Y-7600000I-249600J0D01*
G01*
X10149600Y-7600000D01*
G75*
G02*
X9900000Y-7350400I0J249600D01*
G01*
X9900000Y-6249600D01*
G75*
G02*
X10149600Y-6000000I249600J0D01*
G01*
X10850400Y-6000000D01*
G75*
G02*
X11100000Y-6249600I0J-249600D01*
G01*
G37*
G04 #@! TD*
G04 #@! TO.C,R5*
G36*
G01*
X14500000Y-7350400D02*
X14500000Y-6249600D01*
G75*
G02*
X14749600Y-6000000I249600J0D01*
G01*
X15450400Y-6000000D01*
G75*
G02*
X15700000Y-6249600I0J-249600D01*
G01*
X15700000Y-7350400D01*
G75*
G02*
X15450400Y-7600000I-249600J0D01*
G01*
X14749600Y-7600000D01*
G75*
G02*
X14500000Y-7350400I0J249600D01*
G01*
G37*
G36*
G01*
X12500000Y-7350400D02*
X12500000Y-6249600D01*
G75*
G02*
X12749600Y-6000000I249600J0D01*
G01*
X13450400Y-6000000D01*
G75*
G02*
X13700000Y-6249600I0J-249600D01*
G01*
X13700000Y-7350400D01*
G75*
G02*
X13450400Y-7600000I-249600J0D01*
G01*
X12749600Y-7600000D01*
G75*
G02*
X12500000Y-7350400I0J249600D01*
G01*
G37*
G04 #@! TD*
G04 #@! TO.C,R1*
G36*
G01*
X43700000Y-46049600D02*
X43700000Y-47150400D01*
G75*
G02*
X43450400Y-47400000I-249600J0D01*
G01*
X42749600Y-47400000D01*
G75*
G02*
X42500000Y-47150400I0J249600D01*
G01*
X42500000Y-46049600D01*
G75*
G02*
X42749600Y-45800000I249600J0D01*
G01*
X43450400Y-45800000D01*
G75*
G02*
X43700000Y-46049600I0J-249600D01*
G01*
G37*
G36*
G01*
X45700000Y-46049600D02*
X45700000Y-47150400D01*
G75*
G02*
X45450400Y-47400000I-249600J0D01*
G01*
X44749600Y-47400000D01*
G75*
G02*
X44500000Y-47150400I0J249600D01*
G01*
X44500000Y-46049600D01*
G75*
G02*
X44749600Y-45800000I249600J0D01*
G01*
X45450400Y-45800000D01*
G75*
G02*
X45700000Y-46049600I0J-249600D01*
G01*
G37*
G04 #@! TD*
G04 #@! TO.C,C23*
G36*
G01*
X51600000Y-26850400D02*
X51600000Y-25749600D01*
G75*
G02*
X51849600Y-25500000I249600J0D01*
G01*
X52550400Y-25500000D01*
G75*
G02*
X52800000Y-25749600I0J-249600D01*
G01*
X52800000Y-26850400D01*
G75*
G02*
X52550400Y-27100000I-249600J0D01*
G01*
X51849600Y-27100000D01*
G75*
G02*
X51600000Y-26850400I0J249600D01*
G01*
G37*
G36*
G01*
X49600000Y-26850400D02*
X49600000Y-25749600D01*
G75*
G02*
X49849600Y-25500000I249600J0D01*
G01*
X50550400Y-25500000D01*
G75*
G02*
X50800000Y-25749600I0J-249600D01*
G01*
X50800000Y-26850400D01*
G75*
G02*
X50550400Y-27100000I-249600J0D01*
G01*
X49849600Y-27100000D01*
G75*
G02*
X49600000Y-26850400I0J249600D01*
G01*
G37*
G04 #@! TD*
G04 #@! TO.C,C18*
G36*
G01*
X35000000Y-12950400D02*
X35000000Y-11849600D01*
G75*
G02*
X35249600Y-11600000I249600J0D01*
G01*
X35950400Y-11600000D01*
G75*
G02*
X36200000Y-11849600I0J-249600D01*
G01*
X36200000Y-12950400D01*
G75*
G02*
X35950400Y-13200000I-249600J0D01*
G01*
X35249600Y-13200000D01*
G75*
G02*
X35000000Y-12950400I0J249600D01*
G01*
G37*
G36*
G01*
X33000000Y-12950400D02*
X33000000Y-11849600D01*
G75*
G02*
X33249600Y-11600000I249600J0D01*
G01*
X33950400Y-11600000D01*
G75*
G02*
X34200000Y-11849600I0J-249600D01*
G01*
X34200000Y-12950400D01*
G75*
G02*
X33950400Y-13200000I-249600J0D01*
G01*
X33249600Y-13200000D01*
G75*
G02*
X33000000Y-12950400I0J249600D01*
G01*
G37*
G04 #@! TD*
G04 #@! TO.C,C16*
G36*
G01*
X39750400Y-26800000D02*
X38649600Y-26800000D01*
G75*
G02*
X38400000Y-26550400I0J249600D01*
G01*
X38400000Y-25849600D01*
G75*
G02*
X38649600Y-25600000I249600J0D01*
G01*
X39750400Y-25600000D01*
G75*
G02*
X40000000Y-25849600I0J-249600D01*
G01*
X40000000Y-26550400D01*
G75*
G02*
X39750400Y-26800000I-249600J0D01*
G01*
G37*
G36*
G01*
X39750400Y-28800000D02*
X38649600Y-28800000D01*
G75*
G02*
X38400000Y-28550400I0J249600D01*
G01*
X38400000Y-27849600D01*
G75*
G02*
X38649600Y-27600000I249600J0D01*
G01*
X39750400Y-27600000D01*
G75*
G02*
X40000000Y-27849600I0J-249600D01*
G01*
X40000000Y-28550400D01*
G75*
G02*
X39750400Y-28800000I-249600J0D01*
G01*
G37*
G04 #@! TD*
G04 #@! TO.C,C15*
G36*
G01*
X42250400Y-26800000D02*
X41149600Y-26800000D01*
G75*
G02*
X40900000Y-26550400I0J249600D01*
G01*
X40900000Y-25849600D01*
G75*
G02*
X41149600Y-25600000I249600J0D01*
G01*
X42250400Y-25600000D01*
G75*
G02*
X42500000Y-25849600I0J-249600D01*
G01*
X42500000Y-26550400D01*
G75*
G02*
X42250400Y-26800000I-249600J0D01*
G01*
G37*
G36*
G01*
X42250400Y-28800000D02*
X41149600Y-28800000D01*
G75*
G02*
X40900000Y-28550400I0J249600D01*
G01*
X40900000Y-27849600D01*
G75*
G02*
X41149600Y-27600000I249600J0D01*
G01*
X42250400Y-27600000D01*
G75*
G02*
X42500000Y-27849600I0J-249600D01*
G01*
X42500000Y-28550400D01*
G75*
G02*
X42250400Y-28800000I-249600J0D01*
G01*
G37*
G04 #@! TD*
G04 #@! TO.C,C3*
G36*
G01*
X65200000Y-46150400D02*
X65200000Y-45049600D01*
G75*
G02*
X65449600Y-44800000I249600J0D01*
G01*
X66150400Y-44800000D01*
G75*
G02*
X66400000Y-45049600I0J-249600D01*
G01*
X66400000Y-46150400D01*
G75*
G02*
X66150400Y-46400000I-249600J0D01*
G01*
X65449600Y-46400000D01*
G75*
G02*
X65200000Y-46150400I0J249600D01*
G01*
G37*
G36*
G01*
X63200000Y-46150400D02*
X63200000Y-45049600D01*
G75*
G02*
X63449600Y-44800000I249600J0D01*
G01*
X64150400Y-44800000D01*
G75*
G02*
X64400000Y-45049600I0J-249600D01*
G01*
X64400000Y-46150400D01*
G75*
G02*
X64150400Y-46400000I-249600J0D01*
G01*
X63449600Y-46400000D01*
G75*
G02*
X63200000Y-46150400I0J249600D01*
G01*
G37*
G04 #@! TD*
G04 #@! TO.C,C2*
G36*
G01*
X65200000Y-48550400D02*
X65200000Y-47449600D01*
G75*
G02*
X65449600Y-47200000I249600J0D01*
G01*
X66150400Y-47200000D01*
G75*
G02*
X66400000Y-47449600I0J-249600D01*
G01*
X66400000Y-48550400D01*
G75*
G02*
X66150400Y-48800000I-249600J0D01*
G01*
X65449600Y-48800000D01*
G75*
G02*
X65200000Y-48550400I0J249600D01*
G01*
G37*
G36*
G01*
X63200000Y-48550400D02*
X63200000Y-47449600D01*
G75*
G02*
X63449600Y-47200000I249600J0D01*
G01*
X64150400Y-47200000D01*
G75*
G02*
X64400000Y-47449600I0J-249600D01*
G01*
X64400000Y-48550400D01*
G75*
G02*
X64150400Y-48800000I-249600J0D01*
G01*
X63449600Y-48800000D01*
G75*
G02*
X63200000Y-48550400I0J249600D01*
G01*
G37*
G04 #@! TD*
G04 #@! TO.C,C1*
G36*
G01*
X65200000Y-43750400D02*
X65200000Y-42649600D01*
G75*
G02*
X65449600Y-42400000I249600J0D01*
G01*
X66150400Y-42400000D01*
G75*
G02*
X66400000Y-42649600I0J-249600D01*
G01*
X66400000Y-43750400D01*
G75*
G02*
X66150400Y-44000000I-249600J0D01*
G01*
X65449600Y-44000000D01*
G75*
G02*
X65200000Y-43750400I0J249600D01*
G01*
G37*
G36*
G01*
X63200000Y-43750400D02*
X63200000Y-42649600D01*
G75*
G02*
X63449600Y-42400000I249600J0D01*
G01*
X64150400Y-42400000D01*
G75*
G02*
X64400000Y-42649600I0J-249600D01*
G01*
X64400000Y-43750400D01*
G75*
G02*
X64150400Y-44000000I-249600J0D01*
G01*
X63449600Y-44000000D01*
G75*
G02*
X63200000Y-43750400I0J249600D01*
G01*
G37*
G04 #@! TD*
D10*
G04 #@! TO.C,Q1*
X10025000Y-23725000D03*
X10025000Y-20675000D03*
X13375000Y-23725000D03*
G36*
G01*
X3800000Y-25110000D02*
X3800000Y-23850000D01*
G75*
G02*
X3870000Y-23780000I70000J0D01*
G01*
X6530000Y-23780000D01*
G75*
G02*
X6600000Y-23850000I0J-70000D01*
G01*
X6600000Y-25110000D01*
G75*
G02*
X6530000Y-25180000I-70000J0D01*
G01*
X3870000Y-25180000D01*
G75*
G02*
X3800000Y-25110000I0J70000D01*
G01*
G37*
G36*
G01*
X3800000Y-20550000D02*
X3800000Y-19290000D01*
G75*
G02*
X3870000Y-19220000I70000J0D01*
G01*
X6530000Y-19220000D01*
G75*
G02*
X6600000Y-19290000I0J-70000D01*
G01*
X6600000Y-20550000D01*
G75*
G02*
X6530000Y-20620000I-70000J0D01*
G01*
X3870000Y-20620000D01*
G75*
G02*
X3800000Y-20550000I0J70000D01*
G01*
G37*
G04 #@! TD*
G04 #@! TO.C,U1*
G36*
G01*
X59600000Y-45295000D02*
X59600000Y-44895000D01*
G75*
G02*
X59800000Y-44695000I200000J0D01*
G01*
X61400000Y-44695000D01*
G75*
G02*
X61600000Y-44895000I0J-200000D01*
G01*
X61600000Y-45295000D01*
G75*
G02*
X61400000Y-45495000I-200000J0D01*
G01*
X59800000Y-45495000D01*
G75*
G02*
X59600000Y-45295000I0J200000D01*
G01*
G37*
G36*
G01*
X59600000Y-46565000D02*
X59600000Y-46165000D01*
G75*
G02*
X59800000Y-45965000I200000J0D01*
G01*
X61400000Y-45965000D01*
G75*
G02*
X61600000Y-46165000I0J-200000D01*
G01*
X61600000Y-46565000D01*
G75*
G02*
X61400000Y-46765000I-200000J0D01*
G01*
X59800000Y-46765000D01*
G75*
G02*
X59600000Y-46565000I0J200000D01*
G01*
G37*
G36*
G01*
X59600000Y-47835000D02*
X59600000Y-47435000D01*
G75*
G02*
X59800000Y-47235000I200000J0D01*
G01*
X61400000Y-47235000D01*
G75*
G02*
X61600000Y-47435000I0J-200000D01*
G01*
X61600000Y-47835000D01*
G75*
G02*
X61400000Y-48035000I-200000J0D01*
G01*
X59800000Y-48035000D01*
G75*
G02*
X59600000Y-47835000I0J200000D01*
G01*
G37*
G36*
G01*
X59600000Y-49105000D02*
X59600000Y-48705000D01*
G75*
G02*
X59800000Y-48505000I200000J0D01*
G01*
X61400000Y-48505000D01*
G75*
G02*
X61600000Y-48705000I0J-200000D01*
G01*
X61600000Y-49105000D01*
G75*
G02*
X61400000Y-49305000I-200000J0D01*
G01*
X59800000Y-49305000D01*
G75*
G02*
X59600000Y-49105000I0J200000D01*
G01*
G37*
G36*
G01*
X54400000Y-49105000D02*
X54400000Y-48705000D01*
G75*
G02*
X54600000Y-48505000I200000J0D01*
G01*
X56200000Y-48505000D01*
G75*
G02*
X56400000Y-48705000I0J-200000D01*
G01*
X56400000Y-49105000D01*
G75*
G02*
X56200000Y-49305000I-200000J0D01*
G01*
X54600000Y-49305000D01*
G75*
G02*
X54400000Y-49105000I0J200000D01*
G01*
G37*
G36*
G01*
X54400000Y-47835000D02*
X54400000Y-47435000D01*
G75*
G02*
X54600000Y-47235000I200000J0D01*
G01*
X56200000Y-47235000D01*
G75*
G02*
X56400000Y-47435000I0J-200000D01*
G01*
X56400000Y-47835000D01*
G75*
G02*
X56200000Y-48035000I-200000J0D01*
G01*
X54600000Y-48035000D01*
G75*
G02*
X54400000Y-47835000I0J200000D01*
G01*
G37*
G36*
G01*
X54400000Y-46565000D02*
X54400000Y-46165000D01*
G75*
G02*
X54600000Y-45965000I200000J0D01*
G01*
X56200000Y-45965000D01*
G75*
G02*
X56400000Y-46165000I0J-200000D01*
G01*
X56400000Y-46565000D01*
G75*
G02*
X56200000Y-46765000I-200000J0D01*
G01*
X54600000Y-46765000D01*
G75*
G02*
X54400000Y-46565000I0J200000D01*
G01*
G37*
G36*
G01*
X54400000Y-45295000D02*
X54400000Y-44895000D01*
G75*
G02*
X54600000Y-44695000I200000J0D01*
G01*
X56200000Y-44695000D01*
G75*
G02*
X56400000Y-44895000I0J-200000D01*
G01*
X56400000Y-45295000D01*
G75*
G02*
X56200000Y-45495000I-200000J0D01*
G01*
X54600000Y-45495000D01*
G75*
G02*
X54400000Y-45295000I0J200000D01*
G01*
G37*
G04 #@! TD*
M02*
