M48
; DRILL file {KiCad (5.1.10)-1} date 06/09/21 13:50:50
; FORMAT={-:-/ absolute / metric / decimal}
; #@! TF.CreationDate,2021-06-09T13:50:50-04:00
; #@! TF.GenerationSoftware,Kicad,Pcbnew,(5.1.10)-1
FMAT,2
METRIC
T1C0.800
T2C2.100
%
G90
G05
T1
X29.7Y-79.25
X29.7Y-95.25
X29.7Y-101.75
X29.7Y-108.75
X32.0Y-75.55
X40.0Y-67.35
X41.0Y-75.55
X42.5Y-67.35
X45.0Y-67.35
X47.5Y-67.35
X48.0Y-75.55
X50.7Y-82.75
X50.7Y-92.25
X54.71Y-111.0
X55.63Y-67.13
X55.63Y-82.37
X57.25Y-111.0
X58.17Y-67.13
X58.17Y-82.37
X60.7Y-92.75
X60.7Y-98.5
X60.71Y-67.13
X60.71Y-82.37
X62.0Y-75.55
X63.25Y-67.13
X63.25Y-82.37
X63.35Y-92.75
X63.35Y-98.5
X64.0Y-107.21
X64.0Y-109.75
X65.79Y-67.13
X65.79Y-82.37
X66.0Y-92.75
X66.0Y-98.5
X68.33Y-67.13
X68.33Y-82.37
X70.87Y-67.13
X70.87Y-82.37
X71.5Y-96.75
X72.14Y-69.67
X73.41Y-67.13
X73.41Y-82.37
X74.68Y-69.67
X75.0Y-104.65
X75.0Y-112.25
X75.95Y-67.13
X75.95Y-82.37
X78.49Y-67.13
X78.49Y-82.37
X79.5Y-96.75
X81.03Y-67.13
X81.03Y-82.37
X83.57Y-67.13
X83.57Y-82.37
X86.0Y-86.75
X86.0Y-93.35
X86.0Y-103.5
X86.0Y-110.1
X90.0Y-98.25
X90.5Y-86.75
X90.5Y-93.25
X90.5Y-103.5
X90.5Y-110.0
X96.0Y-98.25
T2
X31.75Y-67.75
X31.75Y-114.0
X95.0Y-67.75
X95.0Y-114.0
T0
M30
