%FSLAX45Y45*%
G04 Gerber Fmt 4.5, Leading zero omitted, Abs format (unit mm)*
G04 Created by KiCad (PCBNEW (5.1.10)-1) date 2021-06-09 13:50:51*
%MOMM*%
%LPD*%
G01*
G04 APERTURE LIST*
%TA.AperFunction,Profile*%
%ADD10C,0.100000*%
%TD*%
%ADD11C,0.200000*%
%ADD12C,0.300000*%
G04 APERTURE END LIST*
D10*
X2850000Y-11715000D02*
X2850000Y-6475000D01*
X9850000Y-11715000D02*
X2850000Y-11715000D01*
X9850000Y-6475000D02*
X9850000Y-11715000D01*
X2850000Y-6475000D02*
X9850000Y-6475000D01*
D11*
X2930000Y-7885000D02*
X3010000Y-7965000D01*
X3010000Y-7885000D02*
X2930000Y-7965000D01*
X2930000Y-9485000D02*
X3010000Y-9565000D01*
X3010000Y-9485000D02*
X2930000Y-9565000D01*
X2930000Y-10135000D02*
X3010000Y-10215000D01*
X3010000Y-10135000D02*
X2930000Y-10215000D01*
X2930000Y-10835000D02*
X3010000Y-10915000D01*
X3010000Y-10835000D02*
X2930000Y-10915000D01*
X3160000Y-7515000D02*
X3240000Y-7595000D01*
X3240000Y-7515000D02*
X3160000Y-7595000D01*
X3960000Y-6695000D02*
X4040000Y-6775000D01*
X4040000Y-6695000D02*
X3960000Y-6775000D01*
X4060000Y-7515000D02*
X4140000Y-7595000D01*
X4140000Y-7515000D02*
X4060000Y-7595000D01*
X4210000Y-6695000D02*
X4290000Y-6775000D01*
X4290000Y-6695000D02*
X4210000Y-6775000D01*
X4460000Y-6695000D02*
X4540000Y-6775000D01*
X4540000Y-6695000D02*
X4460000Y-6775000D01*
X4710000Y-6695000D02*
X4790000Y-6775000D01*
X4790000Y-6695000D02*
X4710000Y-6775000D01*
X4760000Y-7515000D02*
X4840000Y-7595000D01*
X4840000Y-7515000D02*
X4760000Y-7595000D01*
X5030000Y-8235000D02*
X5110000Y-8315000D01*
X5110000Y-8235000D02*
X5030000Y-8315000D01*
X5030000Y-9185000D02*
X5110000Y-9265000D01*
X5110000Y-9185000D02*
X5030000Y-9265000D01*
X5431000Y-11060000D02*
X5511000Y-11140000D01*
X5511000Y-11060000D02*
X5431000Y-11140000D01*
X5523000Y-6673000D02*
X5603000Y-6753000D01*
X5603000Y-6673000D02*
X5523000Y-6753000D01*
X5523000Y-8197000D02*
X5603000Y-8277000D01*
X5603000Y-8197000D02*
X5523000Y-8277000D01*
X5685000Y-11060000D02*
X5765000Y-11140000D01*
X5765000Y-11060000D02*
X5685000Y-11140000D01*
X5777000Y-6673000D02*
X5857000Y-6753000D01*
X5857000Y-6673000D02*
X5777000Y-6753000D01*
X5777000Y-8197000D02*
X5857000Y-8277000D01*
X5857000Y-8197000D02*
X5777000Y-8277000D01*
X6030000Y-9235000D02*
X6110000Y-9315000D01*
X6110000Y-9235000D02*
X6030000Y-9315000D01*
X6030000Y-9810000D02*
X6110000Y-9890000D01*
X6110000Y-9810000D02*
X6030000Y-9890000D01*
X6031000Y-6673000D02*
X6111000Y-6753000D01*
X6111000Y-6673000D02*
X6031000Y-6753000D01*
X6031000Y-8197000D02*
X6111000Y-8277000D01*
X6111000Y-8197000D02*
X6031000Y-8277000D01*
X6160000Y-7515000D02*
X6240000Y-7595000D01*
X6240000Y-7515000D02*
X6160000Y-7595000D01*
X6285000Y-6673000D02*
X6365000Y-6753000D01*
X6365000Y-6673000D02*
X6285000Y-6753000D01*
X6285000Y-8197000D02*
X6365000Y-8277000D01*
X6365000Y-8197000D02*
X6285000Y-8277000D01*
X6295000Y-9235000D02*
X6375000Y-9315000D01*
X6375000Y-9235000D02*
X6295000Y-9315000D01*
X6295000Y-9810000D02*
X6375000Y-9890000D01*
X6375000Y-9810000D02*
X6295000Y-9890000D01*
X6360000Y-10681000D02*
X6440000Y-10761000D01*
X6440000Y-10681000D02*
X6360000Y-10761000D01*
X6360000Y-10935000D02*
X6440000Y-11015000D01*
X6440000Y-10935000D02*
X6360000Y-11015000D01*
X6539000Y-6673000D02*
X6619000Y-6753000D01*
X6619000Y-6673000D02*
X6539000Y-6753000D01*
X6539000Y-8197000D02*
X6619000Y-8277000D01*
X6619000Y-8197000D02*
X6539000Y-8277000D01*
X6560000Y-9235000D02*
X6640000Y-9315000D01*
X6640000Y-9235000D02*
X6560000Y-9315000D01*
X6560000Y-9810000D02*
X6640000Y-9890000D01*
X6640000Y-9810000D02*
X6560000Y-9890000D01*
X6793000Y-6673000D02*
X6873000Y-6753000D01*
X6873000Y-6673000D02*
X6793000Y-6753000D01*
X6793000Y-8197000D02*
X6873000Y-8277000D01*
X6873000Y-8197000D02*
X6793000Y-8277000D01*
X7047000Y-6673000D02*
X7127000Y-6753000D01*
X7127000Y-6673000D02*
X7047000Y-6753000D01*
X7047000Y-8197000D02*
X7127000Y-8277000D01*
X7127000Y-8197000D02*
X7047000Y-8277000D01*
X7110000Y-9635000D02*
X7190000Y-9715000D01*
X7190000Y-9635000D02*
X7110000Y-9715000D01*
X7174000Y-6927000D02*
X7254000Y-7007000D01*
X7254000Y-6927000D02*
X7174000Y-7007000D01*
X7301000Y-6673000D02*
X7381000Y-6753000D01*
X7381000Y-6673000D02*
X7301000Y-6753000D01*
X7301000Y-8197000D02*
X7381000Y-8277000D01*
X7381000Y-8197000D02*
X7301000Y-8277000D01*
X7428000Y-6927000D02*
X7508000Y-7007000D01*
X7508000Y-6927000D02*
X7428000Y-7007000D01*
X7460000Y-10425000D02*
X7540000Y-10505000D01*
X7540000Y-10425000D02*
X7460000Y-10505000D01*
X7460000Y-11185000D02*
X7540000Y-11265000D01*
X7540000Y-11185000D02*
X7460000Y-11265000D01*
X7555000Y-6673000D02*
X7635000Y-6753000D01*
X7635000Y-6673000D02*
X7555000Y-6753000D01*
X7555000Y-8197000D02*
X7635000Y-8277000D01*
X7635000Y-8197000D02*
X7555000Y-8277000D01*
X7809000Y-6673000D02*
X7889000Y-6753000D01*
X7889000Y-6673000D02*
X7809000Y-6753000D01*
X7809000Y-8197000D02*
X7889000Y-8277000D01*
X7889000Y-8197000D02*
X7809000Y-8277000D01*
X7910000Y-9635000D02*
X7990000Y-9715000D01*
X7990000Y-9635000D02*
X7910000Y-9715000D01*
X8063000Y-6673000D02*
X8143000Y-6753000D01*
X8143000Y-6673000D02*
X8063000Y-6753000D01*
X8063000Y-8197000D02*
X8143000Y-8277000D01*
X8143000Y-8197000D02*
X8063000Y-8277000D01*
X8317000Y-6673000D02*
X8397000Y-6753000D01*
X8397000Y-6673000D02*
X8317000Y-6753000D01*
X8317000Y-8197000D02*
X8397000Y-8277000D01*
X8397000Y-8197000D02*
X8317000Y-8277000D01*
X8560000Y-8635000D02*
X8640000Y-8715000D01*
X8640000Y-8635000D02*
X8560000Y-8715000D01*
X8560000Y-9295000D02*
X8640000Y-9375000D01*
X8640000Y-9295000D02*
X8560000Y-9375000D01*
X8560000Y-10310000D02*
X8640000Y-10390000D01*
X8640000Y-10310000D02*
X8560000Y-10390000D01*
X8560000Y-10970000D02*
X8640000Y-11050000D01*
X8640000Y-10970000D02*
X8560000Y-11050000D01*
X8960000Y-9785000D02*
X9040000Y-9865000D01*
X9040000Y-9785000D02*
X8960000Y-9865000D01*
X9010000Y-8635000D02*
X9090000Y-8715000D01*
X9090000Y-8635000D02*
X9010000Y-8715000D01*
X9010000Y-9285000D02*
X9090000Y-9365000D01*
X9090000Y-9285000D02*
X9010000Y-9365000D01*
X9010000Y-10310000D02*
X9090000Y-10390000D01*
X9090000Y-10310000D02*
X9010000Y-10390000D01*
X9010000Y-10960000D02*
X9090000Y-11040000D01*
X9090000Y-10960000D02*
X9010000Y-11040000D01*
X9560000Y-9785000D02*
X9640000Y-9865000D01*
X9640000Y-9785000D02*
X9560000Y-9865000D01*
X3280000Y-6775000D02*
G75*
G03*
X3280000Y-6775000I-105000J0D01*
G01*
X3280000Y-11400000D02*
G75*
G03*
X3280000Y-11400000I-105000J0D01*
G01*
X9605000Y-6775000D02*
G75*
G03*
X9605000Y-6775000I-105000J0D01*
G01*
X9605000Y-11400000D02*
G75*
G03*
X9605000Y-11400000I-105000J0D01*
G01*
D12*
X3131428Y-12185714D02*
X3131428Y-11885714D01*
X3202857Y-11885714D01*
X3245714Y-11900000D01*
X3274286Y-11928571D01*
X3288571Y-11957143D01*
X3302857Y-12014286D01*
X3302857Y-12057143D01*
X3288571Y-12114286D01*
X3274286Y-12142857D01*
X3245714Y-12171429D01*
X3202857Y-12185714D01*
X3131428Y-12185714D01*
X3431428Y-12185714D02*
X3431428Y-11985714D01*
X3431428Y-12042857D02*
X3445714Y-12014286D01*
X3460000Y-12000000D01*
X3488571Y-11985714D01*
X3517143Y-11985714D01*
X3617143Y-12185714D02*
X3617143Y-11985714D01*
X3617143Y-11885714D02*
X3602857Y-11900000D01*
X3617143Y-11914286D01*
X3631428Y-11900000D01*
X3617143Y-11885714D01*
X3617143Y-11914286D01*
X3802857Y-12185714D02*
X3774286Y-12171429D01*
X3760000Y-12142857D01*
X3760000Y-11885714D01*
X3960000Y-12185714D02*
X3931428Y-12171429D01*
X3917143Y-12142857D01*
X3917143Y-11885714D01*
X4302857Y-12185714D02*
X4302857Y-11885714D01*
X4402857Y-12100000D01*
X4502857Y-11885714D01*
X4502857Y-12185714D01*
X4774286Y-12185714D02*
X4774286Y-12028571D01*
X4760000Y-12000000D01*
X4731428Y-11985714D01*
X4674286Y-11985714D01*
X4645714Y-12000000D01*
X4774286Y-12171429D02*
X4745714Y-12185714D01*
X4674286Y-12185714D01*
X4645714Y-12171429D01*
X4631428Y-12142857D01*
X4631428Y-12114286D01*
X4645714Y-12085714D01*
X4674286Y-12071429D01*
X4745714Y-12071429D01*
X4774286Y-12057143D01*
X4917143Y-11985714D02*
X4917143Y-12285714D01*
X4917143Y-12000000D02*
X4945714Y-11985714D01*
X5002857Y-11985714D01*
X5031428Y-12000000D01*
X5045714Y-12014286D01*
X5060000Y-12042857D01*
X5060000Y-12128571D01*
X5045714Y-12157143D01*
X5031428Y-12171429D01*
X5002857Y-12185714D01*
X4945714Y-12185714D01*
X4917143Y-12171429D01*
X5188571Y-12157143D02*
X5202857Y-12171429D01*
X5188571Y-12185714D01*
X5174286Y-12171429D01*
X5188571Y-12157143D01*
X5188571Y-12185714D01*
X5188571Y-12000000D02*
X5202857Y-12014286D01*
X5188571Y-12028571D01*
X5174286Y-12014286D01*
X5188571Y-12000000D01*
X5188571Y-12028571D01*
X2765000Y-12640000D02*
X2845000Y-12720000D01*
X2845000Y-12640000D02*
X2765000Y-12720000D01*
X3188571Y-12515714D02*
X3217143Y-12515714D01*
X3245714Y-12530000D01*
X3260000Y-12544286D01*
X3274286Y-12572857D01*
X3288571Y-12630000D01*
X3288571Y-12701429D01*
X3274286Y-12758571D01*
X3260000Y-12787143D01*
X3245714Y-12801429D01*
X3217143Y-12815714D01*
X3188571Y-12815714D01*
X3160000Y-12801429D01*
X3145714Y-12787143D01*
X3131428Y-12758571D01*
X3117143Y-12701429D01*
X3117143Y-12630000D01*
X3131428Y-12572857D01*
X3145714Y-12544286D01*
X3160000Y-12530000D01*
X3188571Y-12515714D01*
X3417143Y-12787143D02*
X3431428Y-12801429D01*
X3417143Y-12815714D01*
X3402857Y-12801429D01*
X3417143Y-12787143D01*
X3417143Y-12815714D01*
X3602857Y-12644286D02*
X3574286Y-12630000D01*
X3560000Y-12615714D01*
X3545714Y-12587143D01*
X3545714Y-12572857D01*
X3560000Y-12544286D01*
X3574286Y-12530000D01*
X3602857Y-12515714D01*
X3660000Y-12515714D01*
X3688571Y-12530000D01*
X3702857Y-12544286D01*
X3717143Y-12572857D01*
X3717143Y-12587143D01*
X3702857Y-12615714D01*
X3688571Y-12630000D01*
X3660000Y-12644286D01*
X3602857Y-12644286D01*
X3574286Y-12658571D01*
X3560000Y-12672857D01*
X3545714Y-12701429D01*
X3545714Y-12758571D01*
X3560000Y-12787143D01*
X3574286Y-12801429D01*
X3602857Y-12815714D01*
X3660000Y-12815714D01*
X3688571Y-12801429D01*
X3702857Y-12787143D01*
X3717143Y-12758571D01*
X3717143Y-12701429D01*
X3702857Y-12672857D01*
X3688571Y-12658571D01*
X3660000Y-12644286D01*
X3902857Y-12515714D02*
X3931428Y-12515714D01*
X3960000Y-12530000D01*
X3974286Y-12544286D01*
X3988571Y-12572857D01*
X4002857Y-12630000D01*
X4002857Y-12701429D01*
X3988571Y-12758571D01*
X3974286Y-12787143D01*
X3960000Y-12801429D01*
X3931428Y-12815714D01*
X3902857Y-12815714D01*
X3874286Y-12801429D01*
X3860000Y-12787143D01*
X3845714Y-12758571D01*
X3831428Y-12701429D01*
X3831428Y-12630000D01*
X3845714Y-12572857D01*
X3860000Y-12544286D01*
X3874286Y-12530000D01*
X3902857Y-12515714D01*
X4188571Y-12515714D02*
X4217143Y-12515714D01*
X4245714Y-12530000D01*
X4260000Y-12544286D01*
X4274286Y-12572857D01*
X4288571Y-12630000D01*
X4288571Y-12701429D01*
X4274286Y-12758571D01*
X4260000Y-12787143D01*
X4245714Y-12801429D01*
X4217143Y-12815714D01*
X4188571Y-12815714D01*
X4160000Y-12801429D01*
X4145714Y-12787143D01*
X4131428Y-12758571D01*
X4117143Y-12701429D01*
X4117143Y-12630000D01*
X4131428Y-12572857D01*
X4145714Y-12544286D01*
X4160000Y-12530000D01*
X4188571Y-12515714D01*
X4417143Y-12815714D02*
X4417143Y-12615714D01*
X4417143Y-12644286D02*
X4431428Y-12630000D01*
X4460000Y-12615714D01*
X4502857Y-12615714D01*
X4531428Y-12630000D01*
X4545714Y-12658571D01*
X4545714Y-12815714D01*
X4545714Y-12658571D02*
X4560000Y-12630000D01*
X4588571Y-12615714D01*
X4631428Y-12615714D01*
X4660000Y-12630000D01*
X4674286Y-12658571D01*
X4674286Y-12815714D01*
X4817143Y-12815714D02*
X4817143Y-12615714D01*
X4817143Y-12644286D02*
X4831428Y-12630000D01*
X4860000Y-12615714D01*
X4902857Y-12615714D01*
X4931428Y-12630000D01*
X4945714Y-12658571D01*
X4945714Y-12815714D01*
X4945714Y-12658571D02*
X4960000Y-12630000D01*
X4988571Y-12615714D01*
X5031428Y-12615714D01*
X5060000Y-12630000D01*
X5074286Y-12658571D01*
X5074286Y-12815714D01*
X5660000Y-12501429D02*
X5402857Y-12887143D01*
X6045714Y-12515714D02*
X6074286Y-12515714D01*
X6102857Y-12530000D01*
X6117143Y-12544286D01*
X6131428Y-12572857D01*
X6145714Y-12630000D01*
X6145714Y-12701429D01*
X6131428Y-12758571D01*
X6117143Y-12787143D01*
X6102857Y-12801429D01*
X6074286Y-12815714D01*
X6045714Y-12815714D01*
X6017143Y-12801429D01*
X6002857Y-12787143D01*
X5988571Y-12758571D01*
X5974286Y-12701429D01*
X5974286Y-12630000D01*
X5988571Y-12572857D01*
X6002857Y-12544286D01*
X6017143Y-12530000D01*
X6045714Y-12515714D01*
X6274286Y-12787143D02*
X6288571Y-12801429D01*
X6274286Y-12815714D01*
X6260000Y-12801429D01*
X6274286Y-12787143D01*
X6274286Y-12815714D01*
X6474286Y-12515714D02*
X6502857Y-12515714D01*
X6531428Y-12530000D01*
X6545714Y-12544286D01*
X6560000Y-12572857D01*
X6574286Y-12630000D01*
X6574286Y-12701429D01*
X6560000Y-12758571D01*
X6545714Y-12787143D01*
X6531428Y-12801429D01*
X6502857Y-12815714D01*
X6474286Y-12815714D01*
X6445714Y-12801429D01*
X6431428Y-12787143D01*
X6417143Y-12758571D01*
X6402857Y-12701429D01*
X6402857Y-12630000D01*
X6417143Y-12572857D01*
X6431428Y-12544286D01*
X6445714Y-12530000D01*
X6474286Y-12515714D01*
X6674286Y-12515714D02*
X6860000Y-12515714D01*
X6760000Y-12630000D01*
X6802857Y-12630000D01*
X6831428Y-12644286D01*
X6845714Y-12658571D01*
X6860000Y-12687143D01*
X6860000Y-12758571D01*
X6845714Y-12787143D01*
X6831428Y-12801429D01*
X6802857Y-12815714D01*
X6717143Y-12815714D01*
X6688571Y-12801429D01*
X6674286Y-12787143D01*
X7145714Y-12815714D02*
X6974286Y-12815714D01*
X7060000Y-12815714D02*
X7060000Y-12515714D01*
X7031428Y-12558571D01*
X7002857Y-12587143D01*
X6974286Y-12601429D01*
X7417143Y-12515714D02*
X7274286Y-12515714D01*
X7260000Y-12658571D01*
X7274286Y-12644286D01*
X7302857Y-12630000D01*
X7374286Y-12630000D01*
X7402857Y-12644286D01*
X7417143Y-12658571D01*
X7431428Y-12687143D01*
X7431428Y-12758571D01*
X7417143Y-12787143D01*
X7402857Y-12801429D01*
X7374286Y-12815714D01*
X7302857Y-12815714D01*
X7274286Y-12801429D01*
X7260000Y-12787143D01*
X7545714Y-12515714D02*
X7545714Y-12572857D01*
X7660000Y-12515714D02*
X7660000Y-12572857D01*
X8102857Y-12930000D02*
X8088571Y-12915714D01*
X8060000Y-12872857D01*
X8045714Y-12844286D01*
X8031428Y-12801429D01*
X8017143Y-12730000D01*
X8017143Y-12672857D01*
X8031428Y-12601429D01*
X8045714Y-12558571D01*
X8060000Y-12530000D01*
X8088571Y-12487143D01*
X8102857Y-12472857D01*
X8345714Y-12515714D02*
X8288571Y-12515714D01*
X8260000Y-12530000D01*
X8245714Y-12544286D01*
X8217143Y-12587143D01*
X8202857Y-12644286D01*
X8202857Y-12758571D01*
X8217143Y-12787143D01*
X8231428Y-12801429D01*
X8260000Y-12815714D01*
X8317143Y-12815714D01*
X8345714Y-12801429D01*
X8360000Y-12787143D01*
X8374286Y-12758571D01*
X8374286Y-12687143D01*
X8360000Y-12658571D01*
X8345714Y-12644286D01*
X8317143Y-12630000D01*
X8260000Y-12630000D01*
X8231428Y-12644286D01*
X8217143Y-12658571D01*
X8202857Y-12687143D01*
X8631428Y-12615714D02*
X8631428Y-12815714D01*
X8560000Y-12501429D02*
X8488571Y-12715714D01*
X8674286Y-12715714D01*
X9017143Y-12815714D02*
X9017143Y-12515714D01*
X9145714Y-12815714D02*
X9145714Y-12658571D01*
X9131428Y-12630000D01*
X9102857Y-12615714D01*
X9060000Y-12615714D01*
X9031428Y-12630000D01*
X9017143Y-12644286D01*
X9331428Y-12815714D02*
X9302857Y-12801429D01*
X9288571Y-12787143D01*
X9274286Y-12758571D01*
X9274286Y-12672857D01*
X9288571Y-12644286D01*
X9302857Y-12630000D01*
X9331428Y-12615714D01*
X9374286Y-12615714D01*
X9402857Y-12630000D01*
X9417143Y-12644286D01*
X9431428Y-12672857D01*
X9431428Y-12758571D01*
X9417143Y-12787143D01*
X9402857Y-12801429D01*
X9374286Y-12815714D01*
X9331428Y-12815714D01*
X9602857Y-12815714D02*
X9574286Y-12801429D01*
X9560000Y-12772857D01*
X9560000Y-12515714D01*
X9831428Y-12801429D02*
X9802857Y-12815714D01*
X9745714Y-12815714D01*
X9717143Y-12801429D01*
X9702857Y-12772857D01*
X9702857Y-12658571D01*
X9717143Y-12630000D01*
X9745714Y-12615714D01*
X9802857Y-12615714D01*
X9831428Y-12630000D01*
X9845714Y-12658571D01*
X9845714Y-12687143D01*
X9702857Y-12715714D01*
X9960000Y-12801429D02*
X9988571Y-12815714D01*
X10045714Y-12815714D01*
X10074286Y-12801429D01*
X10088571Y-12772857D01*
X10088571Y-12758571D01*
X10074286Y-12730000D01*
X10045714Y-12715714D01*
X10002857Y-12715714D01*
X9974286Y-12701429D01*
X9960000Y-12672857D01*
X9960000Y-12658571D01*
X9974286Y-12630000D01*
X10002857Y-12615714D01*
X10045714Y-12615714D01*
X10074286Y-12630000D01*
X10188571Y-12930000D02*
X10202857Y-12915714D01*
X10231428Y-12872857D01*
X10245714Y-12844286D01*
X10260000Y-12801429D01*
X10274286Y-12730000D01*
X10274286Y-12672857D01*
X10260000Y-12601429D01*
X10245714Y-12558571D01*
X10231428Y-12530000D01*
X10202857Y-12487143D01*
X10188571Y-12472857D01*
X2845000Y-13076000D02*
G75*
G03*
X2845000Y-13076000I-105000J0D01*
G01*
X3117143Y-12940286D02*
X3131428Y-12926000D01*
X3160000Y-12911714D01*
X3231428Y-12911714D01*
X3260000Y-12926000D01*
X3274286Y-12940286D01*
X3288571Y-12968857D01*
X3288571Y-12997429D01*
X3274286Y-13040286D01*
X3102857Y-13211714D01*
X3288571Y-13211714D01*
X3417143Y-13183143D02*
X3431428Y-13197429D01*
X3417143Y-13211714D01*
X3402857Y-13197429D01*
X3417143Y-13183143D01*
X3417143Y-13211714D01*
X3717143Y-13211714D02*
X3545714Y-13211714D01*
X3631428Y-13211714D02*
X3631428Y-12911714D01*
X3602857Y-12954571D01*
X3574286Y-12983143D01*
X3545714Y-12997429D01*
X3902857Y-12911714D02*
X3931428Y-12911714D01*
X3960000Y-12926000D01*
X3974286Y-12940286D01*
X3988571Y-12968857D01*
X4002857Y-13026000D01*
X4002857Y-13097429D01*
X3988571Y-13154571D01*
X3974286Y-13183143D01*
X3960000Y-13197429D01*
X3931428Y-13211714D01*
X3902857Y-13211714D01*
X3874286Y-13197429D01*
X3860000Y-13183143D01*
X3845714Y-13154571D01*
X3831428Y-13097429D01*
X3831428Y-13026000D01*
X3845714Y-12968857D01*
X3860000Y-12940286D01*
X3874286Y-12926000D01*
X3902857Y-12911714D01*
X4188571Y-12911714D02*
X4217143Y-12911714D01*
X4245714Y-12926000D01*
X4260000Y-12940286D01*
X4274286Y-12968857D01*
X4288571Y-13026000D01*
X4288571Y-13097429D01*
X4274286Y-13154571D01*
X4260000Y-13183143D01*
X4245714Y-13197429D01*
X4217143Y-13211714D01*
X4188571Y-13211714D01*
X4160000Y-13197429D01*
X4145714Y-13183143D01*
X4131428Y-13154571D01*
X4117143Y-13097429D01*
X4117143Y-13026000D01*
X4131428Y-12968857D01*
X4145714Y-12940286D01*
X4160000Y-12926000D01*
X4188571Y-12911714D01*
X4417143Y-13211714D02*
X4417143Y-13011714D01*
X4417143Y-13040286D02*
X4431428Y-13026000D01*
X4460000Y-13011714D01*
X4502857Y-13011714D01*
X4531428Y-13026000D01*
X4545714Y-13054571D01*
X4545714Y-13211714D01*
X4545714Y-13054571D02*
X4560000Y-13026000D01*
X4588571Y-13011714D01*
X4631428Y-13011714D01*
X4660000Y-13026000D01*
X4674286Y-13054571D01*
X4674286Y-13211714D01*
X4817143Y-13211714D02*
X4817143Y-13011714D01*
X4817143Y-13040286D02*
X4831428Y-13026000D01*
X4860000Y-13011714D01*
X4902857Y-13011714D01*
X4931428Y-13026000D01*
X4945714Y-13054571D01*
X4945714Y-13211714D01*
X4945714Y-13054571D02*
X4960000Y-13026000D01*
X4988571Y-13011714D01*
X5031428Y-13011714D01*
X5060000Y-13026000D01*
X5074286Y-13054571D01*
X5074286Y-13211714D01*
X5660000Y-12897429D02*
X5402857Y-13283143D01*
X6045714Y-12911714D02*
X6074286Y-12911714D01*
X6102857Y-12926000D01*
X6117143Y-12940286D01*
X6131428Y-12968857D01*
X6145714Y-13026000D01*
X6145714Y-13097429D01*
X6131428Y-13154571D01*
X6117143Y-13183143D01*
X6102857Y-13197429D01*
X6074286Y-13211714D01*
X6045714Y-13211714D01*
X6017143Y-13197429D01*
X6002857Y-13183143D01*
X5988571Y-13154571D01*
X5974286Y-13097429D01*
X5974286Y-13026000D01*
X5988571Y-12968857D01*
X6002857Y-12940286D01*
X6017143Y-12926000D01*
X6045714Y-12911714D01*
X6274286Y-13183143D02*
X6288571Y-13197429D01*
X6274286Y-13211714D01*
X6260000Y-13197429D01*
X6274286Y-13183143D01*
X6274286Y-13211714D01*
X6474286Y-12911714D02*
X6502857Y-12911714D01*
X6531428Y-12926000D01*
X6545714Y-12940286D01*
X6560000Y-12968857D01*
X6574286Y-13026000D01*
X6574286Y-13097429D01*
X6560000Y-13154571D01*
X6545714Y-13183143D01*
X6531428Y-13197429D01*
X6502857Y-13211714D01*
X6474286Y-13211714D01*
X6445714Y-13197429D01*
X6431428Y-13183143D01*
X6417143Y-13154571D01*
X6402857Y-13097429D01*
X6402857Y-13026000D01*
X6417143Y-12968857D01*
X6431428Y-12940286D01*
X6445714Y-12926000D01*
X6474286Y-12911714D01*
X6745714Y-13040286D02*
X6717143Y-13026000D01*
X6702857Y-13011714D01*
X6688571Y-12983143D01*
X6688571Y-12968857D01*
X6702857Y-12940286D01*
X6717143Y-12926000D01*
X6745714Y-12911714D01*
X6802857Y-12911714D01*
X6831428Y-12926000D01*
X6845714Y-12940286D01*
X6860000Y-12968857D01*
X6860000Y-12983143D01*
X6845714Y-13011714D01*
X6831428Y-13026000D01*
X6802857Y-13040286D01*
X6745714Y-13040286D01*
X6717143Y-13054571D01*
X6702857Y-13068857D01*
X6688571Y-13097429D01*
X6688571Y-13154571D01*
X6702857Y-13183143D01*
X6717143Y-13197429D01*
X6745714Y-13211714D01*
X6802857Y-13211714D01*
X6831428Y-13197429D01*
X6845714Y-13183143D01*
X6860000Y-13154571D01*
X6860000Y-13097429D01*
X6845714Y-13068857D01*
X6831428Y-13054571D01*
X6802857Y-13040286D01*
X6974286Y-12940286D02*
X6988571Y-12926000D01*
X7017143Y-12911714D01*
X7088571Y-12911714D01*
X7117143Y-12926000D01*
X7131428Y-12940286D01*
X7145714Y-12968857D01*
X7145714Y-12997429D01*
X7131428Y-13040286D01*
X6960000Y-13211714D01*
X7145714Y-13211714D01*
X7245714Y-12911714D02*
X7445714Y-12911714D01*
X7317143Y-13211714D01*
X7545714Y-12911714D02*
X7545714Y-12968857D01*
X7660000Y-12911714D02*
X7660000Y-12968857D01*
X8102857Y-13326000D02*
X8088571Y-13311714D01*
X8060000Y-13268857D01*
X8045714Y-13240286D01*
X8031428Y-13197429D01*
X8017143Y-13126000D01*
X8017143Y-13068857D01*
X8031428Y-12997429D01*
X8045714Y-12954571D01*
X8060000Y-12926000D01*
X8088571Y-12883143D01*
X8102857Y-12868857D01*
X8345714Y-13011714D02*
X8345714Y-13211714D01*
X8274286Y-12897429D02*
X8202857Y-13111714D01*
X8388571Y-13111714D01*
X8731428Y-13211714D02*
X8731428Y-12911714D01*
X8860000Y-13211714D02*
X8860000Y-13054571D01*
X8845714Y-13026000D01*
X8817143Y-13011714D01*
X8774286Y-13011714D01*
X8745714Y-13026000D01*
X8731428Y-13040286D01*
X9045714Y-13211714D02*
X9017143Y-13197429D01*
X9002857Y-13183143D01*
X8988571Y-13154571D01*
X8988571Y-13068857D01*
X9002857Y-13040286D01*
X9017143Y-13026000D01*
X9045714Y-13011714D01*
X9088571Y-13011714D01*
X9117143Y-13026000D01*
X9131428Y-13040286D01*
X9145714Y-13068857D01*
X9145714Y-13154571D01*
X9131428Y-13183143D01*
X9117143Y-13197429D01*
X9088571Y-13211714D01*
X9045714Y-13211714D01*
X9317143Y-13211714D02*
X9288571Y-13197429D01*
X9274286Y-13168857D01*
X9274286Y-12911714D01*
X9545714Y-13197429D02*
X9517143Y-13211714D01*
X9460000Y-13211714D01*
X9431428Y-13197429D01*
X9417143Y-13168857D01*
X9417143Y-13054571D01*
X9431428Y-13026000D01*
X9460000Y-13011714D01*
X9517143Y-13011714D01*
X9545714Y-13026000D01*
X9560000Y-13054571D01*
X9560000Y-13083143D01*
X9417143Y-13111714D01*
X9674286Y-13197429D02*
X9702857Y-13211714D01*
X9760000Y-13211714D01*
X9788571Y-13197429D01*
X9802857Y-13168857D01*
X9802857Y-13154571D01*
X9788571Y-13126000D01*
X9760000Y-13111714D01*
X9717143Y-13111714D01*
X9688571Y-13097429D01*
X9674286Y-13068857D01*
X9674286Y-13054571D01*
X9688571Y-13026000D01*
X9717143Y-13011714D01*
X9760000Y-13011714D01*
X9788571Y-13026000D01*
X9902857Y-13326000D02*
X9917143Y-13311714D01*
X9945714Y-13268857D01*
X9960000Y-13240286D01*
X9974286Y-13197429D01*
X9988571Y-13126000D01*
X9988571Y-13068857D01*
X9974286Y-12997429D01*
X9960000Y-12954571D01*
X9945714Y-12926000D01*
X9917143Y-12883143D01*
X9902857Y-12868857D01*
X10445714Y-13326000D02*
X10431428Y-13311714D01*
X10402857Y-13268857D01*
X10388571Y-13240286D01*
X10374286Y-13197429D01*
X10360000Y-13126000D01*
X10360000Y-13068857D01*
X10374286Y-12997429D01*
X10388571Y-12954571D01*
X10402857Y-12926000D01*
X10431428Y-12883143D01*
X10445714Y-12868857D01*
X10560000Y-13011714D02*
X10560000Y-13211714D01*
X10560000Y-13040286D02*
X10574286Y-13026000D01*
X10602857Y-13011714D01*
X10645714Y-13011714D01*
X10674286Y-13026000D01*
X10688571Y-13054571D01*
X10688571Y-13211714D01*
X10874286Y-13211714D02*
X10845714Y-13197429D01*
X10831428Y-13183143D01*
X10817143Y-13154571D01*
X10817143Y-13068857D01*
X10831428Y-13040286D01*
X10845714Y-13026000D01*
X10874286Y-13011714D01*
X10917143Y-13011714D01*
X10945714Y-13026000D01*
X10960000Y-13040286D01*
X10974286Y-13068857D01*
X10974286Y-13154571D01*
X10960000Y-13183143D01*
X10945714Y-13197429D01*
X10917143Y-13211714D01*
X10874286Y-13211714D01*
X11060000Y-13011714D02*
X11174286Y-13011714D01*
X11102857Y-12911714D02*
X11102857Y-13168857D01*
X11117143Y-13197429D01*
X11145714Y-13211714D01*
X11174286Y-13211714D01*
X11502857Y-13011714D02*
X11502857Y-13311714D01*
X11502857Y-13026000D02*
X11531428Y-13011714D01*
X11588571Y-13011714D01*
X11617143Y-13026000D01*
X11631428Y-13040286D01*
X11645714Y-13068857D01*
X11645714Y-13154571D01*
X11631428Y-13183143D01*
X11617143Y-13197429D01*
X11588571Y-13211714D01*
X11531428Y-13211714D01*
X11502857Y-13197429D01*
X11817143Y-13211714D02*
X11788571Y-13197429D01*
X11774286Y-13168857D01*
X11774286Y-12911714D01*
X12060000Y-13211714D02*
X12060000Y-13054571D01*
X12045714Y-13026000D01*
X12017143Y-13011714D01*
X11960000Y-13011714D01*
X11931428Y-13026000D01*
X12060000Y-13197429D02*
X12031428Y-13211714D01*
X11960000Y-13211714D01*
X11931428Y-13197429D01*
X11917143Y-13168857D01*
X11917143Y-13140286D01*
X11931428Y-13111714D01*
X11960000Y-13097429D01*
X12031428Y-13097429D01*
X12060000Y-13083143D01*
X12160000Y-13011714D02*
X12274286Y-13011714D01*
X12202857Y-12911714D02*
X12202857Y-13168857D01*
X12217143Y-13197429D01*
X12245714Y-13211714D01*
X12274286Y-13211714D01*
X12488571Y-13197429D02*
X12460000Y-13211714D01*
X12402857Y-13211714D01*
X12374286Y-13197429D01*
X12360000Y-13168857D01*
X12360000Y-13054571D01*
X12374286Y-13026000D01*
X12402857Y-13011714D01*
X12460000Y-13011714D01*
X12488571Y-13026000D01*
X12502857Y-13054571D01*
X12502857Y-13083143D01*
X12360000Y-13111714D01*
X12760000Y-13211714D02*
X12760000Y-12911714D01*
X12760000Y-13197429D02*
X12731428Y-13211714D01*
X12674286Y-13211714D01*
X12645714Y-13197429D01*
X12631428Y-13183143D01*
X12617143Y-13154571D01*
X12617143Y-13068857D01*
X12631428Y-13040286D01*
X12645714Y-13026000D01*
X12674286Y-13011714D01*
X12731428Y-13011714D01*
X12760000Y-13026000D01*
X12874286Y-13326000D02*
X12888571Y-13311714D01*
X12917143Y-13268857D01*
X12931428Y-13240286D01*
X12945714Y-13197429D01*
X12960000Y-13126000D01*
X12960000Y-13068857D01*
X12945714Y-12997429D01*
X12931428Y-12954571D01*
X12917143Y-12926000D01*
X12888571Y-12883143D01*
X12874286Y-12868857D01*
M02*
